%TF.GenerationSoftware,KiCad,Pcbnew,7.0.9*%
%TF.CreationDate,2024-01-24T14:37:03-05:00*%
%TF.ProjectId,FinalPcbLayout,46696e61-6c50-4636-924c-61796f75742e,rev?*%
%TF.SameCoordinates,Original*%
%TF.FileFunction,Copper,L2,Inr*%
%TF.FilePolarity,Positive*%
%FSLAX46Y46*%
G04 Gerber Fmt 4.6, Leading zero omitted, Abs format (unit mm)*
G04 Created by KiCad (PCBNEW 7.0.9) date 2024-01-24 14:37:03*
%MOMM*%
%LPD*%
G01*
G04 APERTURE LIST*
%TA.AperFunction,ComponentPad*%
%ADD10R,1.700000X1.700000*%
%TD*%
%TA.AperFunction,ComponentPad*%
%ADD11O,1.700000X1.700000*%
%TD*%
%TA.AperFunction,ComponentPad*%
%ADD12R,1.500000X1.050000*%
%TD*%
%TA.AperFunction,ComponentPad*%
%ADD13O,1.500000X1.050000*%
%TD*%
%TA.AperFunction,ComponentPad*%
%ADD14C,4.400000*%
%TD*%
%TA.AperFunction,ComponentPad*%
%ADD15R,2.100000X2.100000*%
%TD*%
%TA.AperFunction,ComponentPad*%
%ADD16C,2.100000*%
%TD*%
%TA.AperFunction,ComponentPad*%
%ADD17C,0.600000*%
%TD*%
%TA.AperFunction,ComponentPad*%
%ADD18O,1.100000X2.100000*%
%TD*%
%TA.AperFunction,ComponentPad*%
%ADD19O,1.100000X2.600000*%
%TD*%
%TA.AperFunction,ComponentPad*%
%ADD20R,4.600000X2.000000*%
%TD*%
%TA.AperFunction,ComponentPad*%
%ADD21O,4.200000X2.000000*%
%TD*%
%TA.AperFunction,ComponentPad*%
%ADD22O,2.000000X4.200000*%
%TD*%
%TA.AperFunction,ViaPad*%
%ADD23C,0.800000*%
%TD*%
%TA.AperFunction,ViaPad*%
%ADD24C,0.250000*%
%TD*%
%TA.AperFunction,ViaPad*%
%ADD25C,0.300000*%
%TD*%
G04 APERTURE END LIST*
D10*
%TO.N,GND*%
%TO.C,J9*%
X93537800Y-89515800D03*
D11*
%TO.N,+3.3V*%
X96077800Y-89515800D03*
%TO.N,+12V*%
X98617800Y-89515800D03*
%TD*%
D12*
%TO.N,/usb/DTR*%
%TO.C,Q3*%
X144373600Y-124510800D03*
D13*
%TO.N,Net-(Q3-B)*%
X144373600Y-123240800D03*
%TO.N,/ESP_IO0_B*%
X144373600Y-121970800D03*
%TD*%
D14*
%TO.N,N/C*%
%TO.C,H4*%
X180000000Y-126000000D03*
%TD*%
D15*
%TO.N,/C1_Limit*%
%TO.C,J4*%
X158676000Y-125650000D03*
D16*
%TO.N,/C1_PWM*%
X161216000Y-125650000D03*
%TO.N,/C1_CS*%
X163756000Y-125650000D03*
%TD*%
D10*
%TO.N,Net-(J6-Pin_1)*%
%TO.C,J6*%
X154840000Y-115957246D03*
D11*
%TO.N,Net-(J6-Pin_2)*%
X152300000Y-115957246D03*
%TD*%
D15*
%TO.N,GND*%
%TO.C,SW1*%
X173200000Y-82900000D03*
D16*
%TO.N,/ESTOP*%
X170660000Y-82900000D03*
%TD*%
D14*
%TO.N,N/C*%
%TO.C,H3*%
X180000000Y-82250000D03*
%TD*%
D17*
%TO.N,N/C*%
%TO.C,U5*%
X102500000Y-97300000D03*
X103500000Y-97300000D03*
X104500000Y-97300000D03*
%TD*%
D15*
%TO.N,/COPI*%
%TO.C,J2*%
X167820000Y-125650000D03*
D16*
%TO.N,/CIPO*%
X170360000Y-125650000D03*
%TO.N,/SCLK*%
X172900000Y-125650000D03*
%TD*%
D12*
%TO.N,/usb/RTS*%
%TO.C,Q2*%
X144373600Y-118973600D03*
D13*
%TO.N,Net-(Q2-B)*%
X144373600Y-117703600D03*
%TO.N,/ESP_EN*%
X144373600Y-116433600D03*
%TD*%
D14*
%TO.N,N/C*%
%TO.C,H2*%
X86980000Y-126080000D03*
%TD*%
D10*
%TO.N,+3.3V*%
%TO.C,J7*%
X82070000Y-87590000D03*
D11*
%TO.N,GND*%
X82070000Y-90130000D03*
%TO.N,/Display_CS*%
X82070000Y-92670000D03*
%TO.N,/Display_RST*%
X82070000Y-95210000D03*
%TO.N,/Display_DC*%
X82070000Y-97750000D03*
%TO.N,/COPI*%
X82070000Y-100290000D03*
%TO.N,/SCLK*%
X82070000Y-102830000D03*
%TO.N,+3.3V*%
X82070000Y-105370000D03*
%TO.N,unconnected-(J7-Pin_9-Pad9)*%
X82070000Y-107910000D03*
%TO.N,/SCLK*%
X82070000Y-110450000D03*
%TO.N,/Touch_CS*%
X82070000Y-112990000D03*
%TO.N,/COPI*%
X82070000Y-115530000D03*
%TO.N,/CIPO*%
X82070000Y-118070000D03*
%TO.N,unconnected-(J7-Pin_14-Pad14)*%
X82070000Y-120610000D03*
%TD*%
D18*
%TO.N,GND*%
%TO.C,J5*%
X120394000Y-121722400D03*
D19*
X120394000Y-127082400D03*
D18*
X129034000Y-121722400D03*
D19*
X129034000Y-127082400D03*
%TD*%
D20*
%TO.N,Net-(Q5-D)*%
%TO.C,J3*%
X116560000Y-92980000D03*
D21*
%TO.N,GND*%
X116560000Y-86680000D03*
D22*
%TO.N,N/C*%
X111760000Y-90080000D03*
%TD*%
D14*
%TO.N,N/C*%
%TO.C,H1*%
X87000000Y-82100000D03*
%TD*%
D23*
%TO.N,GND*%
X162356800Y-119989600D03*
X161848800Y-113080800D03*
X167386000Y-120650000D03*
X167335200Y-116332000D03*
X146100000Y-102700000D03*
X181610000Y-111658400D03*
X158200000Y-92400000D03*
X123500000Y-85750000D03*
X136200000Y-89925000D03*
X137400000Y-83350000D03*
X123300000Y-111707400D03*
X123500000Y-81050000D03*
X149000000Y-89800000D03*
X128662701Y-96425500D03*
X146200000Y-98700000D03*
X110300000Y-103300000D03*
X158300000Y-84100000D03*
X126300000Y-111707400D03*
X123500000Y-83350000D03*
X149700000Y-114525000D03*
X124700000Y-105207400D03*
D24*
X119950000Y-116357400D03*
D23*
X144600000Y-84100000D03*
X123100000Y-115607400D03*
X126200000Y-113707400D03*
X125300000Y-90350000D03*
X101800000Y-103900000D03*
D24*
X154377200Y-109590700D03*
D23*
X104000000Y-92600000D03*
X181610000Y-94132400D03*
X137400000Y-81150000D03*
X109350000Y-107000000D03*
X153875383Y-105840871D03*
X123200000Y-105207400D03*
X114800000Y-96400000D03*
X137400000Y-85550000D03*
X157742109Y-108650500D03*
X105900000Y-98400000D03*
X103400000Y-101000000D03*
X144400000Y-92400000D03*
X157429200Y-114477200D03*
X138226800Y-89948000D03*
X123200000Y-113707400D03*
X156100000Y-96900000D03*
X107300000Y-94300000D03*
X163850000Y-97150000D03*
X132400000Y-98150000D03*
X126400000Y-115507400D03*
X98700000Y-119600000D03*
%TO.N,+5V*%
X139700000Y-97250000D03*
X139600000Y-93850000D03*
X136200000Y-91825000D03*
X136100000Y-94150000D03*
X134500000Y-95750000D03*
X146377200Y-106990700D03*
X139700000Y-95450000D03*
X138226800Y-91848000D03*
X133000000Y-94450000D03*
%TO.N,+12V*%
X95050000Y-123700000D03*
X100200000Y-118100000D03*
X107400000Y-92900000D03*
%TO.N,/Power/V_in*%
X101300000Y-96400000D03*
X119280000Y-96503600D03*
%TO.N,+3.3V*%
X162300000Y-80400000D03*
X174700000Y-89500000D03*
%TO.N,/SCLK*%
X150100000Y-89700000D03*
X171500000Y-108600000D03*
X172800000Y-119400000D03*
X176600000Y-104700000D03*
X171500000Y-111600000D03*
%TO.N,/CIPO*%
X147950000Y-89700000D03*
X172700000Y-111600000D03*
%TO.N,/COPI*%
X180340000Y-111620000D03*
X130780000Y-124740000D03*
X152300000Y-89800000D03*
%TO.N,/C1_PWM*%
X168900000Y-90800000D03*
X162400000Y-90700000D03*
%TO.N,/C1_Limit*%
X161300000Y-89600000D03*
X170000000Y-89600000D03*
D25*
%TO.N,/Power/USB_Vin*%
X115961600Y-125299200D03*
X123464000Y-122612400D03*
X117130000Y-125299200D03*
D24*
X125950000Y-122807400D03*
D25*
X123214000Y-121312400D03*
X130937000Y-122431400D03*
D23*
%TO.N,/SD_CS*%
X169200000Y-95600000D03*
X153430000Y-89750000D03*
%TO.N,/ESP_EN*%
X159900000Y-88500000D03*
D24*
X179070000Y-94538800D03*
D23*
X174700000Y-91100000D03*
D24*
X179070000Y-93675200D03*
D23*
X173151199Y-88251199D03*
%TO.N,Net-(U3-L1)*%
X129300000Y-93450000D03*
X127900000Y-83150000D03*
X127900000Y-86550000D03*
X127900000Y-81050000D03*
X127900000Y-84350000D03*
X127900000Y-82150000D03*
X127900000Y-85450000D03*
%TO.N,Net-(U3-L2)*%
X133100000Y-86650000D03*
X133100000Y-83150000D03*
X133100000Y-82150000D03*
X133100000Y-85450000D03*
X132100000Y-93450000D03*
X133100000Y-81050000D03*
X133100000Y-84250000D03*
%TO.N,Net-(Q1-G)*%
X108300000Y-115300000D03*
X102737699Y-99794500D03*
%TO.N,/ESTOP*%
X175260000Y-94120000D03*
%TO.N,/ESP_IO0_B*%
X165100000Y-111700000D03*
%TO.N,/TXD*%
X176600000Y-111600000D03*
X137200000Y-106707400D03*
%TO.N,/RXD*%
X121666000Y-105223400D03*
X177900000Y-111700000D03*
%TO.N,/usb/ee_pullup*%
X140100000Y-122350000D03*
X132892800Y-116456500D03*
%TO.N,/Display_RST*%
X142080000Y-111010000D03*
X161890000Y-111010000D03*
%TO.N,/Display_DC*%
X166370000Y-111620000D03*
%TO.N,/Display_CS*%
X167760000Y-102200000D03*
%TO.N,/IO17*%
X156900000Y-105900000D03*
X168860000Y-107900000D03*
%TO.N,/Touch_CS*%
X170240000Y-111670000D03*
%TO.N,/IO21*%
X175300000Y-111600000D03*
X159350000Y-106080000D03*
%TO.N,/IO22*%
X170400000Y-109670000D03*
X157000000Y-109600000D03*
D24*
%TO.N,+1V2*%
X126000000Y-109907400D03*
D25*
X128668897Y-111887500D03*
D24*
X124481397Y-109700000D03*
X128000000Y-117207400D03*
X120778897Y-113899500D03*
X123000000Y-117257400D03*
%TO.N,/usb/PD1_CC1*%
X127500000Y-117857400D03*
X127013113Y-119956330D03*
%TO.N,/usb/D+*%
X124500000Y-117857400D03*
X124214000Y-121312400D03*
X124950000Y-122807400D03*
%TO.N,/usb/D-*%
X125214000Y-121312400D03*
X124000000Y-117257400D03*
%TO.N,/usb/PD1_CC2*%
X125476000Y-122241400D03*
X126000000Y-117307400D03*
D23*
%TO.N,/usb/RTS*%
X119824652Y-108630949D03*
%TO.N,/usb/DTR*%
X119837200Y-109643000D03*
D24*
%TO.N,+3V3*%
X123500000Y-117807400D03*
X128350000Y-114857400D03*
X126500000Y-109357400D03*
D23*
X130303897Y-111003900D03*
D24*
X128950000Y-114357400D03*
X128500000Y-110857400D03*
D23*
X116789200Y-118939400D03*
D24*
X128950000Y-110357400D03*
X127000000Y-117407400D03*
X121481397Y-109700000D03*
X120793897Y-116887500D03*
D23*
X135600000Y-122407400D03*
D24*
X120778897Y-115880700D03*
X125500000Y-117857400D03*
%TD*%
%TA.AperFunction,Conductor*%
%TO.N,GND*%
G36*
X183012539Y-79120185D02*
G01*
X183058294Y-79172989D01*
X183069500Y-79224500D01*
X183069500Y-128965500D01*
X183049815Y-129032539D01*
X182997011Y-129078294D01*
X182945500Y-129089500D01*
X129342978Y-129089500D01*
X129275939Y-129069815D01*
X129230184Y-129017011D01*
X129220240Y-128947853D01*
X129249265Y-128884297D01*
X129306983Y-128846839D01*
X129437766Y-128807166D01*
X129620166Y-128709671D01*
X129620173Y-128709667D01*
X129780055Y-128578455D01*
X129911267Y-128418573D01*
X129911271Y-128418566D01*
X130008766Y-128236166D01*
X130068808Y-128038234D01*
X130084000Y-127883984D01*
X130084000Y-127332400D01*
X129334000Y-127332400D01*
X129334000Y-126832400D01*
X130084000Y-126832400D01*
X130084000Y-126747870D01*
X157125500Y-126747870D01*
X157125501Y-126747876D01*
X157131908Y-126807483D01*
X157182202Y-126942328D01*
X157182206Y-126942335D01*
X157268452Y-127057544D01*
X157268455Y-127057547D01*
X157383664Y-127143793D01*
X157383671Y-127143797D01*
X157518517Y-127194091D01*
X157518516Y-127194091D01*
X157525444Y-127194835D01*
X157578127Y-127200500D01*
X159773872Y-127200499D01*
X159833483Y-127194091D01*
X159968331Y-127143796D01*
X160083546Y-127057546D01*
X160161087Y-126953964D01*
X160217019Y-126912095D01*
X160286711Y-126907111D01*
X160325142Y-126922550D01*
X160509910Y-127035777D01*
X160735381Y-127129169D01*
X160735378Y-127129169D01*
X160735384Y-127129170D01*
X160735388Y-127129172D01*
X160972698Y-127186146D01*
X161216000Y-127205294D01*
X161459302Y-127186146D01*
X161696612Y-127129172D01*
X161922089Y-127035777D01*
X162130179Y-126908259D01*
X162315759Y-126749759D01*
X162391710Y-126660832D01*
X162450216Y-126622638D01*
X162520084Y-126622139D01*
X162579131Y-126659493D01*
X162580290Y-126660832D01*
X162654632Y-126747876D01*
X162656241Y-126749759D01*
X162723827Y-126807483D01*
X162841823Y-126908261D01*
X162841826Y-126908262D01*
X163049910Y-127035777D01*
X163275381Y-127129169D01*
X163275378Y-127129169D01*
X163275384Y-127129170D01*
X163275388Y-127129172D01*
X163512698Y-127186146D01*
X163756000Y-127205294D01*
X163999302Y-127186146D01*
X164236612Y-127129172D01*
X164462089Y-127035777D01*
X164670179Y-126908259D01*
X164855759Y-126749759D01*
X164857372Y-126747870D01*
X166269500Y-126747870D01*
X166269501Y-126747876D01*
X166275908Y-126807483D01*
X166326202Y-126942328D01*
X166326206Y-126942335D01*
X166412452Y-127057544D01*
X166412455Y-127057547D01*
X166527664Y-127143793D01*
X166527671Y-127143797D01*
X166662517Y-127194091D01*
X166662516Y-127194091D01*
X166669444Y-127194835D01*
X166722127Y-127200500D01*
X168917872Y-127200499D01*
X168977483Y-127194091D01*
X169112331Y-127143796D01*
X169227546Y-127057546D01*
X169305087Y-126953964D01*
X169361019Y-126912095D01*
X169430711Y-126907111D01*
X169469142Y-126922550D01*
X169653910Y-127035777D01*
X169879381Y-127129169D01*
X169879378Y-127129169D01*
X169879384Y-127129170D01*
X169879388Y-127129172D01*
X170116698Y-127186146D01*
X170360000Y-127205294D01*
X170603302Y-127186146D01*
X170840612Y-127129172D01*
X171066089Y-127035777D01*
X171274179Y-126908259D01*
X171459759Y-126749759D01*
X171535710Y-126660832D01*
X171594216Y-126622638D01*
X171664084Y-126622139D01*
X171723131Y-126659493D01*
X171724290Y-126660832D01*
X171798632Y-126747876D01*
X171800241Y-126749759D01*
X171867827Y-126807483D01*
X171985823Y-126908261D01*
X171985826Y-126908262D01*
X172193910Y-127035777D01*
X172419381Y-127129169D01*
X172419378Y-127129169D01*
X172419384Y-127129170D01*
X172419388Y-127129172D01*
X172656698Y-127186146D01*
X172900000Y-127205294D01*
X173143302Y-127186146D01*
X173380612Y-127129172D01*
X173606089Y-127035777D01*
X173814179Y-126908259D01*
X173999759Y-126749759D01*
X174158259Y-126564179D01*
X174285777Y-126356089D01*
X174379172Y-126130612D01*
X174410530Y-126000000D01*
X177294564Y-126000000D01*
X177314289Y-126326099D01*
X177373178Y-126647452D01*
X177470366Y-126959342D01*
X177470370Y-126959354D01*
X177470373Y-126959361D01*
X177604455Y-127257279D01*
X177652817Y-127337279D01*
X177773473Y-127536868D01*
X177974954Y-127794039D01*
X178205960Y-128025045D01*
X178463131Y-128226526D01*
X178463134Y-128226528D01*
X178463137Y-128226530D01*
X178742721Y-128395545D01*
X179040639Y-128529627D01*
X179040652Y-128529631D01*
X179040657Y-128529633D01*
X179352547Y-128626821D01*
X179673896Y-128685710D01*
X180000000Y-128705436D01*
X180326104Y-128685710D01*
X180647453Y-128626821D01*
X180959361Y-128529627D01*
X181257279Y-128395545D01*
X181536863Y-128226530D01*
X181794036Y-128025048D01*
X182025048Y-127794036D01*
X182226530Y-127536863D01*
X182395545Y-127257279D01*
X182529627Y-126959361D01*
X182534933Y-126942335D01*
X182594941Y-126749759D01*
X182626821Y-126647453D01*
X182685710Y-126326104D01*
X182705436Y-126000000D01*
X182685710Y-125673896D01*
X182626821Y-125352547D01*
X182613870Y-125310987D01*
X182529633Y-125040657D01*
X182529631Y-125040652D01*
X182529627Y-125040639D01*
X182395545Y-124742721D01*
X182226530Y-124463137D01*
X182226528Y-124463134D01*
X182226526Y-124463131D01*
X182025045Y-124205960D01*
X181794039Y-123974954D01*
X181536868Y-123773473D01*
X181474361Y-123735686D01*
X181257279Y-123604455D01*
X180959361Y-123470373D01*
X180959354Y-123470370D01*
X180959342Y-123470366D01*
X180647452Y-123373178D01*
X180326099Y-123314289D01*
X180000000Y-123294564D01*
X179673900Y-123314289D01*
X179352547Y-123373178D01*
X179040657Y-123470366D01*
X179040641Y-123470372D01*
X179040639Y-123470373D01*
X178742721Y-123604455D01*
X178690169Y-123636224D01*
X178463131Y-123773473D01*
X178205960Y-123974954D01*
X177974954Y-124205960D01*
X177773473Y-124463131D01*
X177714222Y-124561144D01*
X177638440Y-124686504D01*
X177604454Y-124742723D01*
X177604453Y-124742725D01*
X177596716Y-124759917D01*
X177491060Y-124994676D01*
X177470372Y-125040642D01*
X177470366Y-125040657D01*
X177373178Y-125352547D01*
X177314289Y-125673900D01*
X177294564Y-126000000D01*
X174410530Y-126000000D01*
X174436146Y-125893302D01*
X174455294Y-125650000D01*
X174436146Y-125406698D01*
X174379172Y-125169388D01*
X174367986Y-125142382D01*
X174285777Y-124943910D01*
X174158262Y-124735826D01*
X174158261Y-124735823D01*
X174116138Y-124686504D01*
X173999759Y-124550241D01*
X173877063Y-124445449D01*
X173814176Y-124391738D01*
X173814173Y-124391737D01*
X173606089Y-124264222D01*
X173380618Y-124170830D01*
X173380621Y-124170830D01*
X173274992Y-124145470D01*
X173143302Y-124113854D01*
X173143300Y-124113853D01*
X173143297Y-124113853D01*
X172900000Y-124094706D01*
X172656702Y-124113853D01*
X172656698Y-124113854D01*
X172480301Y-124156204D01*
X172419380Y-124170830D01*
X172193910Y-124264222D01*
X171985826Y-124391737D01*
X171985823Y-124391738D01*
X171800241Y-124550241D01*
X171724290Y-124639168D01*
X171665783Y-124677361D01*
X171595915Y-124677859D01*
X171536869Y-124640505D01*
X171535710Y-124639168D01*
X171502684Y-124600500D01*
X171459759Y-124550241D01*
X171337063Y-124445449D01*
X171274176Y-124391738D01*
X171274173Y-124391737D01*
X171066089Y-124264222D01*
X170840618Y-124170830D01*
X170840621Y-124170830D01*
X170734992Y-124145470D01*
X170603302Y-124113854D01*
X170603300Y-124113853D01*
X170603297Y-124113853D01*
X170360000Y-124094706D01*
X170116702Y-124113853D01*
X170116698Y-124113854D01*
X169940301Y-124156204D01*
X169879380Y-124170830D01*
X169653910Y-124264222D01*
X169469142Y-124377449D01*
X169401696Y-124395694D01*
X169335094Y-124374578D01*
X169305086Y-124346033D01*
X169227547Y-124242455D01*
X169227544Y-124242452D01*
X169112335Y-124156206D01*
X169112328Y-124156202D01*
X168977482Y-124105908D01*
X168977483Y-124105908D01*
X168917883Y-124099501D01*
X168917881Y-124099500D01*
X168917873Y-124099500D01*
X168917864Y-124099500D01*
X166722129Y-124099500D01*
X166722123Y-124099501D01*
X166662516Y-124105908D01*
X166527671Y-124156202D01*
X166527664Y-124156206D01*
X166412455Y-124242452D01*
X166412452Y-124242455D01*
X166326206Y-124357664D01*
X166326202Y-124357671D01*
X166275908Y-124492517D01*
X166269501Y-124552116D01*
X166269500Y-124552135D01*
X166269500Y-126747870D01*
X164857372Y-126747870D01*
X165014259Y-126564179D01*
X165141777Y-126356089D01*
X165235172Y-126130612D01*
X165292146Y-125893302D01*
X165311294Y-125650000D01*
X165292146Y-125406698D01*
X165235172Y-125169388D01*
X165223986Y-125142382D01*
X165141777Y-124943910D01*
X165014262Y-124735826D01*
X165014261Y-124735823D01*
X164972138Y-124686504D01*
X164855759Y-124550241D01*
X164733063Y-124445449D01*
X164670176Y-124391738D01*
X164670173Y-124391737D01*
X164462089Y-124264222D01*
X164236618Y-124170830D01*
X164236621Y-124170830D01*
X164130992Y-124145470D01*
X163999302Y-124113854D01*
X163999300Y-124113853D01*
X163999297Y-124113853D01*
X163756000Y-124094706D01*
X163512702Y-124113853D01*
X163512698Y-124113854D01*
X163336301Y-124156204D01*
X163275380Y-124170830D01*
X163049910Y-124264222D01*
X162841826Y-124391737D01*
X162841823Y-124391738D01*
X162656241Y-124550241D01*
X162580290Y-124639168D01*
X162521783Y-124677361D01*
X162451915Y-124677859D01*
X162392869Y-124640505D01*
X162391710Y-124639168D01*
X162358684Y-124600500D01*
X162315759Y-124550241D01*
X162193063Y-124445449D01*
X162130176Y-124391738D01*
X162130173Y-124391737D01*
X161922089Y-124264222D01*
X161696618Y-124170830D01*
X161696621Y-124170830D01*
X161590992Y-124145470D01*
X161459302Y-124113854D01*
X161459300Y-124113853D01*
X161459297Y-124113853D01*
X161216000Y-124094706D01*
X160972702Y-124113853D01*
X160972698Y-124113854D01*
X160796301Y-124156204D01*
X160735380Y-124170830D01*
X160509910Y-124264222D01*
X160325142Y-124377449D01*
X160257696Y-124395694D01*
X160191094Y-124374578D01*
X160161086Y-124346033D01*
X160083547Y-124242455D01*
X160083544Y-124242452D01*
X159968335Y-124156206D01*
X159968328Y-124156202D01*
X159833482Y-124105908D01*
X159833483Y-124105908D01*
X159773883Y-124099501D01*
X159773881Y-124099500D01*
X159773873Y-124099500D01*
X159773864Y-124099500D01*
X157578129Y-124099500D01*
X157578123Y-124099501D01*
X157518516Y-124105908D01*
X157383671Y-124156202D01*
X157383664Y-124156206D01*
X157268455Y-124242452D01*
X157268452Y-124242455D01*
X157182206Y-124357664D01*
X157182202Y-124357671D01*
X157131908Y-124492517D01*
X157125501Y-124552116D01*
X157125500Y-124552135D01*
X157125500Y-126747870D01*
X130084000Y-126747870D01*
X130084000Y-126280815D01*
X130068808Y-126126565D01*
X130008766Y-125928633D01*
X129911271Y-125746233D01*
X129911267Y-125746226D01*
X129780055Y-125586344D01*
X129620173Y-125455132D01*
X129620166Y-125455128D01*
X129437763Y-125357632D01*
X129284000Y-125310987D01*
X129284000Y-126166289D01*
X129259543Y-126126790D01*
X129170038Y-126059199D01*
X129062160Y-126028505D01*
X128950479Y-126038854D01*
X128850078Y-126088848D01*
X128784000Y-126161330D01*
X128784000Y-125310987D01*
X128630236Y-125357632D01*
X128447833Y-125455128D01*
X128447826Y-125455132D01*
X128287944Y-125586344D01*
X128156732Y-125746226D01*
X128156728Y-125746233D01*
X128059233Y-125928633D01*
X127999191Y-126126565D01*
X127984000Y-126280815D01*
X127984000Y-126832400D01*
X128734000Y-126832400D01*
X128734000Y-127332400D01*
X127984000Y-127332400D01*
X127984000Y-127883984D01*
X127999191Y-128038234D01*
X128059233Y-128236166D01*
X128156728Y-128418566D01*
X128156732Y-128418573D01*
X128287944Y-128578455D01*
X128447826Y-128709667D01*
X128447833Y-128709671D01*
X128630233Y-128807166D01*
X128761017Y-128846839D01*
X128819456Y-128885137D01*
X128847912Y-128948949D01*
X128837352Y-129018016D01*
X128791128Y-129070410D01*
X128725022Y-129089500D01*
X120702978Y-129089500D01*
X120635939Y-129069815D01*
X120590184Y-129017011D01*
X120580240Y-128947853D01*
X120609265Y-128884297D01*
X120666983Y-128846839D01*
X120797766Y-128807166D01*
X120980166Y-128709671D01*
X120980173Y-128709667D01*
X121140055Y-128578455D01*
X121271267Y-128418573D01*
X121271271Y-128418566D01*
X121368766Y-128236166D01*
X121428808Y-128038234D01*
X121444000Y-127883984D01*
X121444000Y-127332400D01*
X120694000Y-127332400D01*
X120694000Y-126832400D01*
X121444000Y-126832400D01*
X121444000Y-126280815D01*
X121428808Y-126126565D01*
X121368766Y-125928633D01*
X121271271Y-125746233D01*
X121271267Y-125746226D01*
X121140055Y-125586344D01*
X120980173Y-125455132D01*
X120980166Y-125455128D01*
X120797763Y-125357632D01*
X120644000Y-125310987D01*
X120644000Y-126166289D01*
X120619543Y-126126790D01*
X120530038Y-126059199D01*
X120422160Y-126028505D01*
X120310479Y-126038854D01*
X120210078Y-126088848D01*
X120144000Y-126161330D01*
X120144000Y-125310987D01*
X119990236Y-125357632D01*
X119807833Y-125455128D01*
X119807826Y-125455132D01*
X119647944Y-125586344D01*
X119516732Y-125746226D01*
X119516728Y-125746233D01*
X119419233Y-125928633D01*
X119359191Y-126126565D01*
X119344000Y-126280815D01*
X119344000Y-126832400D01*
X120094000Y-126832400D01*
X120094000Y-127332400D01*
X119344000Y-127332400D01*
X119344000Y-127883984D01*
X119359191Y-128038234D01*
X119419233Y-128236166D01*
X119516728Y-128418566D01*
X119516732Y-128418573D01*
X119647944Y-128578455D01*
X119807826Y-128709667D01*
X119807833Y-128709671D01*
X119990233Y-128807166D01*
X120121017Y-128846839D01*
X120179456Y-128885137D01*
X120207912Y-128948949D01*
X120197352Y-129018016D01*
X120151128Y-129070410D01*
X120085022Y-129089500D01*
X80204500Y-129089500D01*
X80137461Y-129069815D01*
X80091706Y-129017011D01*
X80080500Y-128965500D01*
X80080500Y-126080000D01*
X84274564Y-126080000D01*
X84294289Y-126406099D01*
X84353178Y-126727452D01*
X84450366Y-127039342D01*
X84450370Y-127039354D01*
X84450373Y-127039361D01*
X84584455Y-127337279D01*
X84705108Y-127536863D01*
X84753473Y-127616868D01*
X84954954Y-127874039D01*
X85185960Y-128105045D01*
X85443131Y-128306526D01*
X85443134Y-128306528D01*
X85443137Y-128306530D01*
X85722721Y-128475545D01*
X86020639Y-128609627D01*
X86020652Y-128609631D01*
X86020657Y-128609633D01*
X86264799Y-128685710D01*
X86332547Y-128706821D01*
X86653896Y-128765710D01*
X86980000Y-128785436D01*
X87306104Y-128765710D01*
X87627453Y-128706821D01*
X87939361Y-128609627D01*
X88237279Y-128475545D01*
X88516863Y-128306530D01*
X88774036Y-128105048D01*
X89005048Y-127874036D01*
X89206530Y-127616863D01*
X89375545Y-127337279D01*
X89509627Y-127039361D01*
X89606821Y-126727453D01*
X89665710Y-126406104D01*
X89685436Y-126080000D01*
X89665710Y-125753896D01*
X89606821Y-125432547D01*
X89565268Y-125299200D01*
X115306322Y-125299200D01*
X115325362Y-125456018D01*
X115374789Y-125586344D01*
X115381380Y-125603723D01*
X115471117Y-125733730D01*
X115589360Y-125838483D01*
X115589362Y-125838484D01*
X115729234Y-125911896D01*
X115882614Y-125949700D01*
X115882615Y-125949700D01*
X116040585Y-125949700D01*
X116193965Y-125911896D01*
X116229402Y-125893297D01*
X116333840Y-125838483D01*
X116452083Y-125733730D01*
X116452087Y-125733723D01*
X116452982Y-125732714D01*
X116453829Y-125732182D01*
X116457697Y-125728756D01*
X116458266Y-125729399D01*
X116512171Y-125695586D01*
X116582036Y-125696352D01*
X116633379Y-125729347D01*
X116633903Y-125728756D01*
X116637717Y-125732135D01*
X116638618Y-125732714D01*
X116639516Y-125733728D01*
X116639517Y-125733730D01*
X116757760Y-125838483D01*
X116757762Y-125838484D01*
X116897634Y-125911896D01*
X117051014Y-125949700D01*
X117051015Y-125949700D01*
X117208985Y-125949700D01*
X117362365Y-125911896D01*
X117397802Y-125893297D01*
X117502240Y-125838483D01*
X117620483Y-125733730D01*
X117710220Y-125603723D01*
X117766237Y-125456018D01*
X117785278Y-125299200D01*
X117782720Y-125278128D01*
X117766237Y-125142381D01*
X117727651Y-125040639D01*
X117710220Y-124994677D01*
X117620483Y-124864670D01*
X117502240Y-124759917D01*
X117502238Y-124759916D01*
X117502237Y-124759915D01*
X117464293Y-124740000D01*
X129874540Y-124740000D01*
X129894326Y-124928256D01*
X129894327Y-124928259D01*
X129952818Y-125108277D01*
X129952821Y-125108284D01*
X130047467Y-125272216D01*
X130168559Y-125406702D01*
X130174129Y-125412888D01*
X130327265Y-125524148D01*
X130327270Y-125524151D01*
X130500192Y-125601142D01*
X130500197Y-125601144D01*
X130685354Y-125640500D01*
X130685355Y-125640500D01*
X130874644Y-125640500D01*
X130874646Y-125640500D01*
X131059803Y-125601144D01*
X131232730Y-125524151D01*
X131385871Y-125412888D01*
X131512533Y-125272216D01*
X131607179Y-125108284D01*
X131665674Y-124928256D01*
X131685460Y-124740000D01*
X131665674Y-124551744D01*
X131607179Y-124371716D01*
X131512533Y-124207784D01*
X131385871Y-124067112D01*
X131369137Y-124054954D01*
X131232734Y-123955851D01*
X131232729Y-123955848D01*
X131059807Y-123878857D01*
X131059802Y-123878855D01*
X130914001Y-123847865D01*
X130874646Y-123839500D01*
X130685354Y-123839500D01*
X130652897Y-123846398D01*
X130500197Y-123878855D01*
X130500192Y-123878857D01*
X130327270Y-123955848D01*
X130327265Y-123955851D01*
X130174129Y-124067111D01*
X130047466Y-124207785D01*
X129952821Y-124371715D01*
X129952818Y-124371722D01*
X129894814Y-124550241D01*
X129894326Y-124551744D01*
X129874540Y-124740000D01*
X117464293Y-124740000D01*
X117362365Y-124686503D01*
X117208986Y-124648700D01*
X117208985Y-124648700D01*
X117051015Y-124648700D01*
X117051014Y-124648700D01*
X116897634Y-124686503D01*
X116757762Y-124759915D01*
X116639512Y-124864674D01*
X116638611Y-124865692D01*
X116637765Y-124866222D01*
X116633903Y-124869644D01*
X116633333Y-124869001D01*
X116579420Y-124902815D01*
X116509555Y-124902044D01*
X116458219Y-124869053D01*
X116457697Y-124869644D01*
X116453888Y-124866270D01*
X116452989Y-124865692D01*
X116452087Y-124864674D01*
X116452083Y-124864671D01*
X116452083Y-124864670D01*
X116333840Y-124759917D01*
X116333838Y-124759916D01*
X116333837Y-124759915D01*
X116193965Y-124686503D01*
X116040586Y-124648700D01*
X116040585Y-124648700D01*
X115882615Y-124648700D01*
X115882614Y-124648700D01*
X115729234Y-124686503D01*
X115589362Y-124759915D01*
X115471116Y-124864671D01*
X115381381Y-124994675D01*
X115381380Y-124994676D01*
X115325362Y-125142381D01*
X115306322Y-125299199D01*
X115306322Y-125299200D01*
X89565268Y-125299200D01*
X89558703Y-125278131D01*
X89509633Y-125120657D01*
X89509631Y-125120652D01*
X89509627Y-125120639D01*
X89375545Y-124822721D01*
X89206530Y-124543137D01*
X89206528Y-124543134D01*
X89206526Y-124543131D01*
X89005045Y-124285960D01*
X88774039Y-124054954D01*
X88516868Y-123853473D01*
X88384527Y-123773470D01*
X88262993Y-123700000D01*
X94144540Y-123700000D01*
X94164326Y-123888256D01*
X94164327Y-123888259D01*
X94222818Y-124068277D01*
X94222821Y-124068284D01*
X94317467Y-124232216D01*
X94419949Y-124346033D01*
X94444129Y-124372888D01*
X94597265Y-124484148D01*
X94597270Y-124484151D01*
X94770192Y-124561142D01*
X94770197Y-124561144D01*
X94955354Y-124600500D01*
X94955355Y-124600500D01*
X95144644Y-124600500D01*
X95144646Y-124600500D01*
X95329803Y-124561144D01*
X95502730Y-124484151D01*
X95655871Y-124372888D01*
X95782533Y-124232216D01*
X95877179Y-124068284D01*
X95935674Y-123888256D01*
X95955460Y-123700000D01*
X95935674Y-123511744D01*
X95877179Y-123331716D01*
X95782533Y-123167784D01*
X95655871Y-123027112D01*
X95655870Y-123027111D01*
X95502734Y-122915851D01*
X95502729Y-122915848D01*
X95329807Y-122838857D01*
X95329802Y-122838855D01*
X95181813Y-122807400D01*
X95144646Y-122799500D01*
X94955354Y-122799500D01*
X94922897Y-122806398D01*
X94770197Y-122838855D01*
X94770192Y-122838857D01*
X94597270Y-122915848D01*
X94597265Y-122915851D01*
X94444129Y-123027111D01*
X94317466Y-123167785D01*
X94222821Y-123331715D01*
X94222818Y-123331722D01*
X94177768Y-123470373D01*
X94164326Y-123511744D01*
X94144540Y-123700000D01*
X88262993Y-123700000D01*
X88237279Y-123684455D01*
X87939361Y-123550373D01*
X87939354Y-123550370D01*
X87939342Y-123550366D01*
X87627452Y-123453178D01*
X87306099Y-123394289D01*
X86980000Y-123374564D01*
X86653900Y-123394289D01*
X86332547Y-123453178D01*
X86020657Y-123550366D01*
X86020641Y-123550372D01*
X86020639Y-123550373D01*
X85900478Y-123604453D01*
X85722725Y-123684453D01*
X85722723Y-123684454D01*
X85443131Y-123853473D01*
X85185960Y-124054954D01*
X84954954Y-124285960D01*
X84753473Y-124543131D01*
X84672328Y-124677361D01*
X84584455Y-124822721D01*
X84467011Y-125083672D01*
X84450372Y-125120642D01*
X84450366Y-125120657D01*
X84353178Y-125432547D01*
X84294289Y-125753900D01*
X84274564Y-126080000D01*
X80080500Y-126080000D01*
X80080500Y-122273984D01*
X119344000Y-122273984D01*
X119359191Y-122428234D01*
X119419233Y-122626166D01*
X119516728Y-122808566D01*
X119516732Y-122808573D01*
X119647944Y-122968455D01*
X119807826Y-123099667D01*
X119807833Y-123099671D01*
X119990233Y-123197166D01*
X120144000Y-123243810D01*
X120144000Y-122388510D01*
X120168457Y-122428010D01*
X120257962Y-122495601D01*
X120365840Y-122526295D01*
X120477521Y-122515946D01*
X120577922Y-122465952D01*
X120644000Y-122393469D01*
X120644000Y-123243810D01*
X120797766Y-123197166D01*
X120980166Y-123099671D01*
X120980173Y-123099667D01*
X121140055Y-122968455D01*
X121271267Y-122808573D01*
X121271271Y-122808566D01*
X121368766Y-122626166D01*
X121428808Y-122428234D01*
X121444000Y-122273984D01*
X121444000Y-121972400D01*
X120694000Y-121972400D01*
X120694000Y-121472400D01*
X121444000Y-121472400D01*
X121444000Y-121312400D01*
X122558722Y-121312400D01*
X122577762Y-121469218D01*
X122614410Y-121565848D01*
X122633780Y-121616923D01*
X122723517Y-121746930D01*
X122841760Y-121851683D01*
X122841762Y-121851684D01*
X122939748Y-121903112D01*
X122981635Y-121925096D01*
X122981640Y-121925097D01*
X122983951Y-121925974D01*
X122985406Y-121927075D01*
X122988276Y-121928582D01*
X122988025Y-121929059D01*
X123039655Y-121968151D01*
X123063713Y-122033749D01*
X123048487Y-122101939D01*
X123022209Y-122134732D01*
X122973518Y-122177868D01*
X122883781Y-122307875D01*
X122883780Y-122307876D01*
X122827762Y-122455581D01*
X122808722Y-122612399D01*
X122808722Y-122612400D01*
X122827762Y-122769218D01*
X122870617Y-122882216D01*
X122883780Y-122916923D01*
X122973517Y-123046930D01*
X123091760Y-123151683D01*
X123091762Y-123151684D01*
X123231634Y-123225096D01*
X123385014Y-123262900D01*
X123385015Y-123262900D01*
X123542985Y-123262900D01*
X123696365Y-123225096D01*
X123749580Y-123197166D01*
X123836240Y-123151683D01*
X123954483Y-123046930D01*
X124044220Y-122916923D01*
X124084723Y-122810124D01*
X124126901Y-122754422D01*
X124192499Y-122730365D01*
X124260689Y-122745592D01*
X124309822Y-122795268D01*
X124323761Y-122839150D01*
X124327012Y-122865928D01*
X124338215Y-122958191D01*
X124392079Y-123100219D01*
X124478368Y-123225230D01*
X124592066Y-123325957D01*
X124726566Y-123396548D01*
X124800308Y-123414724D01*
X124874050Y-123432900D01*
X124874051Y-123432900D01*
X125025950Y-123432900D01*
X125075110Y-123420782D01*
X125173434Y-123396548D01*
X125307934Y-123325957D01*
X125367774Y-123272943D01*
X125431006Y-123243223D01*
X125500270Y-123252407D01*
X125532224Y-123272942D01*
X125592066Y-123325957D01*
X125726566Y-123396548D01*
X125800308Y-123414724D01*
X125874050Y-123432900D01*
X125874051Y-123432900D01*
X126025950Y-123432900D01*
X126075110Y-123420782D01*
X126173434Y-123396548D01*
X126307934Y-123325957D01*
X126421632Y-123225230D01*
X126507921Y-123100219D01*
X126561785Y-122958191D01*
X126580094Y-122807400D01*
X126561785Y-122656609D01*
X126507921Y-122514581D01*
X126421632Y-122389570D01*
X126307934Y-122288843D01*
X126279623Y-122273984D01*
X127984000Y-122273984D01*
X127999191Y-122428234D01*
X128059233Y-122626166D01*
X128156728Y-122808566D01*
X128156732Y-122808573D01*
X128287944Y-122968455D01*
X128447826Y-123099667D01*
X128447833Y-123099671D01*
X128630233Y-123197166D01*
X128784000Y-123243810D01*
X128784000Y-122388510D01*
X128808457Y-122428010D01*
X128897962Y-122495601D01*
X129005840Y-122526295D01*
X129117521Y-122515946D01*
X129217922Y-122465952D01*
X129284000Y-122393469D01*
X129284000Y-123243810D01*
X129437766Y-123197166D01*
X129620166Y-123099671D01*
X129620173Y-123099667D01*
X129780055Y-122968455D01*
X129911267Y-122808573D01*
X129911271Y-122808566D01*
X130008766Y-122626166D01*
X130049760Y-122491026D01*
X130088058Y-122432587D01*
X130151870Y-122404131D01*
X130220937Y-122414691D01*
X130273330Y-122460915D01*
X130291517Y-122512074D01*
X130300763Y-122588219D01*
X130331136Y-122668306D01*
X130356780Y-122735923D01*
X130446517Y-122865930D01*
X130564760Y-122970683D01*
X130564762Y-122970684D01*
X130704634Y-123044096D01*
X130858014Y-123081900D01*
X130858015Y-123081900D01*
X131015985Y-123081900D01*
X131169365Y-123044096D01*
X131209773Y-123022888D01*
X131309240Y-122970683D01*
X131427483Y-122865930D01*
X131517220Y-122735923D01*
X131573237Y-122588218D01*
X131592278Y-122431400D01*
X131591867Y-122428010D01*
X131589364Y-122407400D01*
X134694540Y-122407400D01*
X134714326Y-122595656D01*
X134714327Y-122595659D01*
X134772818Y-122775677D01*
X134772821Y-122775684D01*
X134867467Y-122939616D01*
X134964093Y-123046930D01*
X134994129Y-123080288D01*
X135147265Y-123191548D01*
X135147270Y-123191551D01*
X135320192Y-123268542D01*
X135320197Y-123268544D01*
X135505354Y-123307900D01*
X135505355Y-123307900D01*
X135694644Y-123307900D01*
X135694646Y-123307900D01*
X135879803Y-123268544D01*
X136052730Y-123191551D01*
X136205871Y-123080288D01*
X136332533Y-122939616D01*
X136427179Y-122775684D01*
X136485674Y-122595656D01*
X136505460Y-122407400D01*
X136499427Y-122350000D01*
X139194540Y-122350000D01*
X139214326Y-122538256D01*
X139214327Y-122538259D01*
X139272818Y-122718277D01*
X139272821Y-122718284D01*
X139367467Y-122882216D01*
X139447124Y-122970684D01*
X139494129Y-123022888D01*
X139647265Y-123134148D01*
X139647270Y-123134151D01*
X139820192Y-123211142D01*
X139820197Y-123211144D01*
X140005354Y-123250500D01*
X140005355Y-123250500D01*
X140194644Y-123250500D01*
X140194646Y-123250500D01*
X140240281Y-123240800D01*
X143118138Y-123240800D01*
X143137937Y-123441831D01*
X143146593Y-123470366D01*
X143187268Y-123604454D01*
X143196906Y-123636224D01*
X143197529Y-123706091D01*
X143183130Y-123735186D01*
X143184052Y-123735690D01*
X143179802Y-123743471D01*
X143129508Y-123878317D01*
X143123101Y-123937916D01*
X143123101Y-123937923D01*
X143123100Y-123937935D01*
X143123100Y-125083670D01*
X143123101Y-125083676D01*
X143129508Y-125143283D01*
X143179802Y-125278128D01*
X143179806Y-125278135D01*
X143266052Y-125393344D01*
X143266055Y-125393347D01*
X143381264Y-125479593D01*
X143381271Y-125479597D01*
X143516117Y-125529891D01*
X143516116Y-125529891D01*
X143523044Y-125530635D01*
X143575727Y-125536300D01*
X145171472Y-125536299D01*
X145231083Y-125529891D01*
X145365931Y-125479596D01*
X145481146Y-125393346D01*
X145567396Y-125278131D01*
X145617691Y-125143283D01*
X145624100Y-125083673D01*
X145624099Y-123937928D01*
X145617691Y-123878317D01*
X145603213Y-123839500D01*
X145567397Y-123743471D01*
X145563146Y-123735686D01*
X145565221Y-123734552D01*
X145545271Y-123681074D01*
X145550294Y-123636223D01*
X145550621Y-123635144D01*
X145550623Y-123635141D01*
X145609262Y-123441833D01*
X145629062Y-123240800D01*
X145609262Y-123039767D01*
X145550623Y-122846459D01*
X145455398Y-122668306D01*
X145455394Y-122668302D01*
X145453231Y-122664254D01*
X145438989Y-122595851D01*
X145453231Y-122547346D01*
X145455394Y-122543298D01*
X145455398Y-122543294D01*
X145550623Y-122365141D01*
X145609262Y-122171833D01*
X145629062Y-121970800D01*
X145609262Y-121769767D01*
X145550623Y-121576459D01*
X145550621Y-121576456D01*
X145550621Y-121576454D01*
X145455401Y-121398311D01*
X145455399Y-121398309D01*
X145455398Y-121398306D01*
X145384896Y-121312399D01*
X145327247Y-121242152D01*
X145171095Y-121114003D01*
X145171088Y-121113998D01*
X144992945Y-121018778D01*
X144799631Y-120960137D01*
X144688567Y-120949199D01*
X144648980Y-120945300D01*
X144098220Y-120945300D01*
X144061033Y-120948962D01*
X143947568Y-120960137D01*
X143754254Y-121018778D01*
X143576111Y-121113998D01*
X143576104Y-121114003D01*
X143419952Y-121242152D01*
X143291803Y-121398304D01*
X143291798Y-121398311D01*
X143196578Y-121576454D01*
X143137937Y-121769768D01*
X143118138Y-121970800D01*
X143137937Y-122171831D01*
X143196578Y-122365145D01*
X143293967Y-122547347D01*
X143308209Y-122615750D01*
X143293967Y-122664253D01*
X143196578Y-122846454D01*
X143137937Y-123039768D01*
X143118138Y-123240800D01*
X140240281Y-123240800D01*
X140379803Y-123211144D01*
X140552730Y-123134151D01*
X140705871Y-123022888D01*
X140832533Y-122882216D01*
X140927179Y-122718284D01*
X140985674Y-122538256D01*
X141005460Y-122350000D01*
X140985674Y-122161744D01*
X140927179Y-121981716D01*
X140832533Y-121817784D01*
X140705871Y-121677112D01*
X140689780Y-121665421D01*
X140552734Y-121565851D01*
X140552729Y-121565848D01*
X140379807Y-121488857D01*
X140379802Y-121488855D01*
X140234001Y-121457865D01*
X140194646Y-121449500D01*
X140005354Y-121449500D01*
X139972897Y-121456398D01*
X139820197Y-121488855D01*
X139820192Y-121488857D01*
X139647270Y-121565848D01*
X139647265Y-121565851D01*
X139494129Y-121677111D01*
X139367466Y-121817785D01*
X139272821Y-121981715D01*
X139272818Y-121981722D01*
X139214327Y-122161740D01*
X139214326Y-122161744D01*
X139194540Y-122350000D01*
X136499427Y-122350000D01*
X136485674Y-122219144D01*
X136427179Y-122039116D01*
X136332533Y-121875184D01*
X136205871Y-121734512D01*
X136205870Y-121734511D01*
X136052734Y-121623251D01*
X136052729Y-121623248D01*
X135879807Y-121546257D01*
X135879802Y-121546255D01*
X135734001Y-121515265D01*
X135694646Y-121506900D01*
X135505354Y-121506900D01*
X135472897Y-121513798D01*
X135320197Y-121546255D01*
X135320192Y-121546257D01*
X135147270Y-121623248D01*
X135147265Y-121623251D01*
X134994129Y-121734511D01*
X134867466Y-121875185D01*
X134772821Y-122039115D01*
X134772818Y-122039122D01*
X134715804Y-122214595D01*
X134714326Y-122219144D01*
X134694540Y-122407400D01*
X131589364Y-122407400D01*
X131573237Y-122274581D01*
X131535381Y-122174764D01*
X131517220Y-122126877D01*
X131427483Y-121996870D01*
X131309240Y-121892117D01*
X131309238Y-121892116D01*
X131309237Y-121892115D01*
X131169365Y-121818703D01*
X131015986Y-121780900D01*
X131015985Y-121780900D01*
X130858015Y-121780900D01*
X130858014Y-121780900D01*
X130704634Y-121818703D01*
X130564762Y-121892115D01*
X130446516Y-121996871D01*
X130356781Y-122126874D01*
X130323942Y-122213464D01*
X130281764Y-122269166D01*
X130216166Y-122293223D01*
X130147976Y-122277996D01*
X130098843Y-122228320D01*
X130084000Y-122169492D01*
X130084000Y-121972400D01*
X129334000Y-121972400D01*
X129334000Y-121472400D01*
X130084000Y-121472400D01*
X130084000Y-121170815D01*
X130068808Y-121016565D01*
X130008766Y-120818633D01*
X129911271Y-120636233D01*
X129911267Y-120636226D01*
X129780055Y-120476344D01*
X129620173Y-120345132D01*
X129620166Y-120345128D01*
X129437763Y-120247632D01*
X129284000Y-120200987D01*
X129284000Y-121056289D01*
X129259543Y-121016790D01*
X129170038Y-120949199D01*
X129062160Y-120918505D01*
X128950479Y-120928854D01*
X128850078Y-120978848D01*
X128784000Y-121051330D01*
X128784000Y-120200987D01*
X128630236Y-120247632D01*
X128447833Y-120345128D01*
X128447826Y-120345132D01*
X128287944Y-120476344D01*
X128156732Y-120636226D01*
X128156728Y-120636233D01*
X128059233Y-120818633D01*
X127999191Y-121016565D01*
X127984000Y-121170815D01*
X127984000Y-121472400D01*
X128734000Y-121472400D01*
X128734000Y-121972400D01*
X127984000Y-121972400D01*
X127984000Y-122273984D01*
X126279623Y-122273984D01*
X126173434Y-122218252D01*
X126173433Y-122218251D01*
X126173430Y-122218250D01*
X126169983Y-122216943D01*
X126167823Y-122215308D01*
X126166793Y-122214767D01*
X126166882Y-122214595D01*
X126114281Y-122174764D01*
X126090861Y-122115946D01*
X126087785Y-122090608D01*
X126052235Y-121996871D01*
X126033921Y-121948581D01*
X125947632Y-121823570D01*
X125833934Y-121722843D01*
X125833932Y-121722842D01*
X125833930Y-121722840D01*
X125829385Y-121719703D01*
X125785393Y-121665421D01*
X125777733Y-121595972D01*
X125783877Y-121573691D01*
X125825785Y-121463191D01*
X125844094Y-121312400D01*
X125825785Y-121161609D01*
X125771921Y-121019581D01*
X125685632Y-120894570D01*
X125571934Y-120793843D01*
X125437434Y-120723252D01*
X125437433Y-120723251D01*
X125437432Y-120723251D01*
X125289950Y-120686900D01*
X125289949Y-120686900D01*
X125138051Y-120686900D01*
X125138050Y-120686900D01*
X124990567Y-120723251D01*
X124856064Y-120793843D01*
X124796226Y-120846855D01*
X124732993Y-120876576D01*
X124663729Y-120867392D01*
X124631774Y-120846855D01*
X124571935Y-120793843D01*
X124437432Y-120723251D01*
X124289950Y-120686900D01*
X124289949Y-120686900D01*
X124138051Y-120686900D01*
X124138050Y-120686900D01*
X123990567Y-120723251D01*
X123856064Y-120793843D01*
X123815075Y-120830156D01*
X123751842Y-120859876D01*
X123682578Y-120850691D01*
X123650623Y-120830155D01*
X123586240Y-120773117D01*
X123586238Y-120773116D01*
X123586237Y-120773115D01*
X123446365Y-120699703D01*
X123292986Y-120661900D01*
X123292985Y-120661900D01*
X123135015Y-120661900D01*
X123135014Y-120661900D01*
X122981634Y-120699703D01*
X122841762Y-120773115D01*
X122723516Y-120877871D01*
X122633781Y-121007875D01*
X122633780Y-121007876D01*
X122577762Y-121155581D01*
X122558722Y-121312399D01*
X122558722Y-121312400D01*
X121444000Y-121312400D01*
X121444000Y-121170815D01*
X121428808Y-121016565D01*
X121368766Y-120818633D01*
X121271271Y-120636233D01*
X121271267Y-120636226D01*
X121140055Y-120476344D01*
X120980173Y-120345132D01*
X120980166Y-120345128D01*
X120797763Y-120247632D01*
X120644000Y-120200987D01*
X120644000Y-121056289D01*
X120619543Y-121016790D01*
X120530038Y-120949199D01*
X120422160Y-120918505D01*
X120310479Y-120928854D01*
X120210078Y-120978848D01*
X120144000Y-121051330D01*
X120144000Y-120200987D01*
X119990236Y-120247632D01*
X119807833Y-120345128D01*
X119807826Y-120345132D01*
X119647944Y-120476344D01*
X119516732Y-120636226D01*
X119516728Y-120636233D01*
X119419233Y-120818633D01*
X119359191Y-121016565D01*
X119344000Y-121170815D01*
X119344000Y-121472400D01*
X120094000Y-121472400D01*
X120094000Y-121972400D01*
X119344000Y-121972400D01*
X119344000Y-122273984D01*
X80080500Y-122273984D01*
X80080500Y-120610000D01*
X80714341Y-120610000D01*
X80734936Y-120845403D01*
X80734938Y-120845413D01*
X80796094Y-121073655D01*
X80796096Y-121073659D01*
X80796097Y-121073663D01*
X80895965Y-121287830D01*
X80895967Y-121287834D01*
X81004281Y-121442521D01*
X81031505Y-121481401D01*
X81198599Y-121648495D01*
X81256633Y-121689131D01*
X81392165Y-121784032D01*
X81392167Y-121784033D01*
X81392170Y-121784035D01*
X81606337Y-121883903D01*
X81606343Y-121883904D01*
X81606344Y-121883905D01*
X81636985Y-121892115D01*
X81834592Y-121945063D01*
X81980448Y-121957824D01*
X82069999Y-121965659D01*
X82070000Y-121965659D01*
X82070001Y-121965659D01*
X82109234Y-121962226D01*
X82305408Y-121945063D01*
X82533663Y-121883903D01*
X82747830Y-121784035D01*
X82941401Y-121648495D01*
X83108495Y-121481401D01*
X83244035Y-121287830D01*
X83343903Y-121073663D01*
X83405063Y-120845408D01*
X83425659Y-120610000D01*
X83405063Y-120374592D01*
X83343903Y-120146337D01*
X83255301Y-119956330D01*
X126383019Y-119956330D01*
X126401328Y-120107121D01*
X126455192Y-120249149D01*
X126541481Y-120374160D01*
X126655179Y-120474887D01*
X126789679Y-120545478D01*
X126863421Y-120563654D01*
X126937163Y-120581830D01*
X126937164Y-120581830D01*
X127089063Y-120581830D01*
X127138223Y-120569712D01*
X127236547Y-120545478D01*
X127371047Y-120474887D01*
X127484745Y-120374160D01*
X127571034Y-120249149D01*
X127624898Y-120107121D01*
X127643207Y-119956330D01*
X127624898Y-119805539D01*
X127571034Y-119663511D01*
X127484745Y-119538500D01*
X127371047Y-119437773D01*
X127236547Y-119367182D01*
X127236546Y-119367181D01*
X127236545Y-119367181D01*
X127089063Y-119330830D01*
X127089062Y-119330830D01*
X126937164Y-119330830D01*
X126937163Y-119330830D01*
X126789680Y-119367181D01*
X126655180Y-119437772D01*
X126541480Y-119538501D01*
X126455193Y-119663509D01*
X126455192Y-119663510D01*
X126401328Y-119805538D01*
X126395183Y-119856146D01*
X126383019Y-119956330D01*
X83255301Y-119956330D01*
X83244035Y-119932171D01*
X83179427Y-119839900D01*
X83108494Y-119738597D01*
X82941402Y-119571506D01*
X82941396Y-119571501D01*
X82755842Y-119441575D01*
X82712217Y-119386998D01*
X82705023Y-119317500D01*
X82736546Y-119255145D01*
X82755842Y-119238425D01*
X82793952Y-119211740D01*
X82941401Y-119108495D01*
X83108495Y-118941401D01*
X83244035Y-118747830D01*
X83343903Y-118533663D01*
X83405063Y-118305408D01*
X83423034Y-118100000D01*
X99294540Y-118100000D01*
X99314326Y-118288256D01*
X99314327Y-118288259D01*
X99372818Y-118468277D01*
X99372821Y-118468284D01*
X99467467Y-118632216D01*
X99552911Y-118727111D01*
X99594129Y-118772888D01*
X99747265Y-118884148D01*
X99747270Y-118884151D01*
X99920192Y-118961142D01*
X99920197Y-118961144D01*
X100105354Y-119000500D01*
X100105355Y-119000500D01*
X100294644Y-119000500D01*
X100294646Y-119000500D01*
X100479803Y-118961144D01*
X100528640Y-118939400D01*
X115883740Y-118939400D01*
X115903526Y-119127656D01*
X115903527Y-119127659D01*
X115962018Y-119307677D01*
X115962021Y-119307684D01*
X116056667Y-119471616D01*
X116161693Y-119588259D01*
X116183329Y-119612288D01*
X116336465Y-119723548D01*
X116336470Y-119723551D01*
X116509392Y-119800542D01*
X116509397Y-119800544D01*
X116694554Y-119839900D01*
X116694555Y-119839900D01*
X116883844Y-119839900D01*
X116883846Y-119839900D01*
X117069003Y-119800544D01*
X117241930Y-119723551D01*
X117395071Y-119612288D01*
X117521733Y-119471616D01*
X117616379Y-119307684D01*
X117674874Y-119127656D01*
X117694660Y-118939400D01*
X117674874Y-118751144D01*
X117616379Y-118571116D01*
X117521733Y-118407184D01*
X117395071Y-118266512D01*
X117395070Y-118266511D01*
X117241934Y-118155251D01*
X117241929Y-118155248D01*
X117069007Y-118078257D01*
X117069002Y-118078255D01*
X116913885Y-118045285D01*
X116883846Y-118038900D01*
X116694554Y-118038900D01*
X116664515Y-118045285D01*
X116509397Y-118078255D01*
X116509392Y-118078257D01*
X116336470Y-118155248D01*
X116336465Y-118155251D01*
X116183329Y-118266511D01*
X116056666Y-118407185D01*
X115962021Y-118571115D01*
X115962018Y-118571122D01*
X115904601Y-118747834D01*
X115903526Y-118751144D01*
X115883740Y-118939400D01*
X100528640Y-118939400D01*
X100652730Y-118884151D01*
X100805871Y-118772888D01*
X100932533Y-118632216D01*
X101027179Y-118468284D01*
X101085674Y-118288256D01*
X101105460Y-118100000D01*
X101085674Y-117911744D01*
X101027179Y-117731716D01*
X100932533Y-117567784D01*
X100805871Y-117427112D01*
X100805870Y-117427111D01*
X100652734Y-117315851D01*
X100652729Y-117315848D01*
X100479807Y-117238857D01*
X100479802Y-117238855D01*
X100331813Y-117207400D01*
X100294646Y-117199500D01*
X100105354Y-117199500D01*
X100072897Y-117206398D01*
X99920197Y-117238855D01*
X99920192Y-117238857D01*
X99747270Y-117315848D01*
X99747265Y-117315851D01*
X99594129Y-117427111D01*
X99467466Y-117567785D01*
X99372821Y-117731715D01*
X99372818Y-117731722D01*
X99316636Y-117904635D01*
X99314326Y-117911744D01*
X99294540Y-118100000D01*
X83423034Y-118100000D01*
X83425659Y-118070000D01*
X83405063Y-117834592D01*
X83343903Y-117606337D01*
X83244035Y-117392171D01*
X83219409Y-117357000D01*
X83108494Y-117198597D01*
X82941402Y-117031506D01*
X82941396Y-117031501D01*
X82755842Y-116901575D01*
X82712217Y-116846998D01*
X82705023Y-116777500D01*
X82736546Y-116715145D01*
X82755842Y-116698425D01*
X82846308Y-116635080D01*
X82941401Y-116568495D01*
X83108495Y-116401401D01*
X83244035Y-116207830D01*
X83343903Y-115993663D01*
X83405063Y-115765408D01*
X83425659Y-115530000D01*
X83405536Y-115300000D01*
X107394540Y-115300000D01*
X107414326Y-115488256D01*
X107414327Y-115488259D01*
X107472818Y-115668277D01*
X107472821Y-115668284D01*
X107567467Y-115832216D01*
X107650366Y-115924284D01*
X107694129Y-115972888D01*
X107847265Y-116084148D01*
X107847270Y-116084151D01*
X108020192Y-116161142D01*
X108020197Y-116161144D01*
X108205354Y-116200500D01*
X108205355Y-116200500D01*
X108394644Y-116200500D01*
X108394646Y-116200500D01*
X108579803Y-116161144D01*
X108752730Y-116084151D01*
X108905871Y-115972888D01*
X108988878Y-115880700D01*
X120148803Y-115880700D01*
X120167112Y-116031491D01*
X120220976Y-116173519D01*
X120239600Y-116200500D01*
X120307265Y-116298530D01*
X120307802Y-116299006D01*
X120308082Y-116299453D01*
X120312239Y-116304145D01*
X120311458Y-116304836D01*
X120344927Y-116358197D01*
X120344157Y-116428062D01*
X120324925Y-116462392D01*
X120326526Y-116463497D01*
X120235977Y-116594679D01*
X120235976Y-116594680D01*
X120182112Y-116736708D01*
X120169530Y-116840330D01*
X120163803Y-116887500D01*
X120182112Y-117038291D01*
X120235976Y-117180319D01*
X120322265Y-117305330D01*
X120435963Y-117406057D01*
X120570463Y-117476648D01*
X120586773Y-117480668D01*
X120717947Y-117513000D01*
X120717948Y-117513000D01*
X120869847Y-117513000D01*
X120921700Y-117500219D01*
X121017331Y-117476648D01*
X121151831Y-117406057D01*
X121265529Y-117305330D01*
X121298613Y-117257400D01*
X122369906Y-117257400D01*
X122388215Y-117408191D01*
X122442079Y-117550219D01*
X122528368Y-117675230D01*
X122642066Y-117775957D01*
X122776566Y-117846548D01*
X122794578Y-117850987D01*
X122854958Y-117886140D01*
X122886749Y-117948358D01*
X122888002Y-117956439D01*
X122888214Y-117958187D01*
X122888215Y-117958194D01*
X122933750Y-118078257D01*
X122942079Y-118100219D01*
X123028368Y-118225230D01*
X123142066Y-118325957D01*
X123276566Y-118396548D01*
X123319718Y-118407184D01*
X123424050Y-118432900D01*
X123424051Y-118432900D01*
X123575950Y-118432900D01*
X123625110Y-118420782D01*
X123723434Y-118396548D01*
X123857934Y-118325957D01*
X123889554Y-118297943D01*
X123952785Y-118268224D01*
X124022049Y-118277406D01*
X124054006Y-118297943D01*
X124142066Y-118375957D01*
X124276566Y-118446548D01*
X124350308Y-118464724D01*
X124424050Y-118482900D01*
X124424051Y-118482900D01*
X124575950Y-118482900D01*
X124635276Y-118468277D01*
X124723434Y-118446548D01*
X124857934Y-118375957D01*
X124917774Y-118322943D01*
X124981006Y-118293223D01*
X125050270Y-118302407D01*
X125082224Y-118322942D01*
X125142066Y-118375957D01*
X125276566Y-118446548D01*
X125350308Y-118464724D01*
X125424050Y-118482900D01*
X125424051Y-118482900D01*
X125575950Y-118482900D01*
X125635276Y-118468277D01*
X125723434Y-118446548D01*
X125857934Y-118375957D01*
X125971632Y-118275230D01*
X126057921Y-118150219D01*
X126111785Y-118008191D01*
X126111996Y-118006448D01*
X126112507Y-118005262D01*
X126113580Y-118000909D01*
X126114303Y-118001087D01*
X126139611Y-117942269D01*
X126197541Y-117903207D01*
X126205398Y-117900993D01*
X126223434Y-117896548D01*
X126357934Y-117825957D01*
X126361333Y-117822945D01*
X126424565Y-117793224D01*
X126493828Y-117802406D01*
X126525788Y-117822944D01*
X126528367Y-117825229D01*
X126528368Y-117825230D01*
X126642066Y-117925957D01*
X126776566Y-117996548D01*
X126811920Y-118005262D01*
X126831666Y-118010129D01*
X126892047Y-118045285D01*
X126917932Y-118086553D01*
X126941264Y-118148070D01*
X126942079Y-118150219D01*
X127028368Y-118275230D01*
X127142066Y-118375957D01*
X127276566Y-118446548D01*
X127350308Y-118464724D01*
X127424050Y-118482900D01*
X127424051Y-118482900D01*
X127575950Y-118482900D01*
X127635276Y-118468277D01*
X127723434Y-118446548D01*
X127857934Y-118375957D01*
X127971632Y-118275230D01*
X128057921Y-118150219D01*
X128111785Y-118008191D01*
X128124514Y-117903353D01*
X128152135Y-117839176D01*
X128210069Y-117800119D01*
X128217927Y-117797905D01*
X128223434Y-117796548D01*
X128357934Y-117725957D01*
X128383170Y-117703600D01*
X143118138Y-117703600D01*
X143137937Y-117904631D01*
X143154185Y-117958194D01*
X143190605Y-118078255D01*
X143196906Y-118099024D01*
X143197529Y-118168891D01*
X143183130Y-118197986D01*
X143184052Y-118198490D01*
X143179802Y-118206271D01*
X143129508Y-118341117D01*
X143125763Y-118375957D01*
X143123101Y-118400723D01*
X143123100Y-118400735D01*
X143123100Y-119546470D01*
X143123101Y-119546476D01*
X143129508Y-119606083D01*
X143179802Y-119740928D01*
X143179806Y-119740935D01*
X143266052Y-119856144D01*
X143266055Y-119856147D01*
X143381264Y-119942393D01*
X143381271Y-119942397D01*
X143516117Y-119992691D01*
X143516116Y-119992691D01*
X143523044Y-119993435D01*
X143575727Y-119999100D01*
X145171472Y-119999099D01*
X145231083Y-119992691D01*
X145365931Y-119942396D01*
X145481146Y-119856146D01*
X145567396Y-119740931D01*
X145617691Y-119606083D01*
X145624100Y-119546473D01*
X145624100Y-119400000D01*
X171894540Y-119400000D01*
X171914326Y-119588256D01*
X171914327Y-119588259D01*
X171972818Y-119768277D01*
X171972821Y-119768284D01*
X172067467Y-119932216D01*
X172127688Y-119999098D01*
X172194129Y-120072888D01*
X172347265Y-120184148D01*
X172347270Y-120184151D01*
X172520192Y-120261142D01*
X172520197Y-120261144D01*
X172705354Y-120300500D01*
X172705355Y-120300500D01*
X172894644Y-120300500D01*
X172894646Y-120300500D01*
X173079803Y-120261144D01*
X173252730Y-120184151D01*
X173405871Y-120072888D01*
X173532533Y-119932216D01*
X173627179Y-119768284D01*
X173685674Y-119588256D01*
X173705460Y-119400000D01*
X173685674Y-119211744D01*
X173627179Y-119031716D01*
X173532533Y-118867784D01*
X173405871Y-118727112D01*
X173405870Y-118727111D01*
X173252734Y-118615851D01*
X173252729Y-118615848D01*
X173079807Y-118538857D01*
X173079802Y-118538855D01*
X172934001Y-118507865D01*
X172894646Y-118499500D01*
X172705354Y-118499500D01*
X172672897Y-118506398D01*
X172520197Y-118538855D01*
X172520192Y-118538857D01*
X172347270Y-118615848D01*
X172347265Y-118615851D01*
X172194129Y-118727111D01*
X172067466Y-118867785D01*
X171972821Y-119031715D01*
X171972818Y-119031722D01*
X171914327Y-119211740D01*
X171914326Y-119211744D01*
X171894540Y-119400000D01*
X145624100Y-119400000D01*
X145624099Y-118400728D01*
X145617691Y-118341117D01*
X145604374Y-118305413D01*
X145567397Y-118206271D01*
X145563146Y-118198486D01*
X145565221Y-118197352D01*
X145545271Y-118143874D01*
X145550294Y-118099023D01*
X145550621Y-118097944D01*
X145550623Y-118097941D01*
X145609262Y-117904633D01*
X145629062Y-117703600D01*
X145609262Y-117502567D01*
X145550623Y-117309259D01*
X145455398Y-117131106D01*
X145455394Y-117131102D01*
X145453231Y-117127054D01*
X145438989Y-117058651D01*
X145453231Y-117010146D01*
X145455394Y-117006098D01*
X145455398Y-117006094D01*
X145550623Y-116827941D01*
X145609262Y-116634633D01*
X145629062Y-116433600D01*
X145609262Y-116232567D01*
X145550623Y-116039259D01*
X145550621Y-116039256D01*
X145550621Y-116039254D01*
X145506787Y-115957246D01*
X150944341Y-115957246D01*
X150964936Y-116192649D01*
X150964938Y-116192659D01*
X151026094Y-116420901D01*
X151026096Y-116420905D01*
X151026097Y-116420909D01*
X151110499Y-116601909D01*
X151125965Y-116635076D01*
X151125967Y-116635080D01*
X151208538Y-116753002D01*
X151261505Y-116828647D01*
X151428599Y-116995741D01*
X151518444Y-117058651D01*
X151622165Y-117131278D01*
X151622167Y-117131279D01*
X151622170Y-117131281D01*
X151836337Y-117231149D01*
X151836343Y-117231150D01*
X151836344Y-117231151D01*
X151865100Y-117238856D01*
X152064592Y-117292309D01*
X152241034Y-117307746D01*
X152299999Y-117312905D01*
X152300000Y-117312905D01*
X152300001Y-117312905D01*
X152358966Y-117307746D01*
X152535408Y-117292309D01*
X152763663Y-117231149D01*
X152977830Y-117131281D01*
X153171401Y-116995741D01*
X153293329Y-116873812D01*
X153354648Y-116840330D01*
X153424340Y-116845314D01*
X153480274Y-116887185D01*
X153497189Y-116918163D01*
X153546202Y-117049574D01*
X153546206Y-117049581D01*
X153632452Y-117164790D01*
X153632455Y-117164793D01*
X153747664Y-117251039D01*
X153747671Y-117251043D01*
X153882517Y-117301337D01*
X153882516Y-117301337D01*
X153889444Y-117302081D01*
X153942127Y-117307746D01*
X155737872Y-117307745D01*
X155797483Y-117301337D01*
X155932331Y-117251042D01*
X156047546Y-117164792D01*
X156133796Y-117049577D01*
X156184091Y-116914729D01*
X156190500Y-116855119D01*
X156190499Y-115059374D01*
X156184091Y-114999763D01*
X156182810Y-114996329D01*
X156133797Y-114864917D01*
X156133793Y-114864910D01*
X156047547Y-114749701D01*
X156047544Y-114749698D01*
X155932335Y-114663452D01*
X155932328Y-114663448D01*
X155797482Y-114613154D01*
X155797483Y-114613154D01*
X155737883Y-114606747D01*
X155737881Y-114606746D01*
X155737873Y-114606746D01*
X155737864Y-114606746D01*
X153942129Y-114606746D01*
X153942123Y-114606747D01*
X153882516Y-114613154D01*
X153747671Y-114663448D01*
X153747664Y-114663452D01*
X153632455Y-114749698D01*
X153632452Y-114749701D01*
X153546206Y-114864910D01*
X153546203Y-114864915D01*
X153497189Y-114996329D01*
X153455317Y-115052262D01*
X153389853Y-115076679D01*
X153321580Y-115061827D01*
X153293326Y-115040676D01*
X153171402Y-114918752D01*
X153171395Y-114918747D01*
X152977834Y-114783213D01*
X152977830Y-114783211D01*
X152944747Y-114767784D01*
X152763663Y-114683343D01*
X152763659Y-114683342D01*
X152763655Y-114683340D01*
X152535413Y-114622184D01*
X152535403Y-114622182D01*
X152300001Y-114601587D01*
X152299999Y-114601587D01*
X152064596Y-114622182D01*
X152064586Y-114622184D01*
X151836344Y-114683340D01*
X151836335Y-114683344D01*
X151622171Y-114783210D01*
X151622169Y-114783211D01*
X151428597Y-114918751D01*
X151261505Y-115085843D01*
X151125965Y-115279415D01*
X151125964Y-115279417D01*
X151026098Y-115493581D01*
X151026094Y-115493590D01*
X150964938Y-115721832D01*
X150964936Y-115721842D01*
X150944341Y-115957245D01*
X150944341Y-115957246D01*
X145506787Y-115957246D01*
X145455401Y-115861111D01*
X145455399Y-115861109D01*
X145455398Y-115861106D01*
X145347728Y-115729909D01*
X145327247Y-115704952D01*
X145171095Y-115576803D01*
X145171088Y-115576798D01*
X144992945Y-115481578D01*
X144799631Y-115422937D01*
X144689500Y-115412090D01*
X144648980Y-115408100D01*
X144098220Y-115408100D01*
X144061033Y-115411762D01*
X143947568Y-115422937D01*
X143754254Y-115481578D01*
X143576111Y-115576798D01*
X143576104Y-115576803D01*
X143419952Y-115704952D01*
X143291803Y-115861104D01*
X143291798Y-115861111D01*
X143196578Y-116039254D01*
X143137937Y-116232568D01*
X143118138Y-116433600D01*
X143137937Y-116634631D01*
X143196578Y-116827945D01*
X143293967Y-117010147D01*
X143308209Y-117078550D01*
X143293967Y-117127053D01*
X143196578Y-117309254D01*
X143137937Y-117502568D01*
X143118138Y-117703600D01*
X128383170Y-117703600D01*
X128471632Y-117625230D01*
X128557921Y-117500219D01*
X128611785Y-117358191D01*
X128630094Y-117207400D01*
X128611785Y-117056609D01*
X128557921Y-116914581D01*
X128471632Y-116789570D01*
X128357934Y-116688843D01*
X128223434Y-116618252D01*
X128223433Y-116618251D01*
X128223432Y-116618251D01*
X128075950Y-116581900D01*
X128075949Y-116581900D01*
X127924051Y-116581900D01*
X127924050Y-116581900D01*
X127776567Y-116618251D01*
X127642067Y-116688842D01*
X127528367Y-116789570D01*
X127495146Y-116837699D01*
X127440862Y-116881688D01*
X127371413Y-116889346D01*
X127335472Y-116877054D01*
X127223432Y-116818251D01*
X127075950Y-116781900D01*
X127075949Y-116781900D01*
X126924051Y-116781900D01*
X126924050Y-116781900D01*
X126776567Y-116818251D01*
X126642066Y-116888842D01*
X126642062Y-116888845D01*
X126638657Y-116891862D01*
X126575421Y-116921577D01*
X126506158Y-116912388D01*
X126474211Y-116891855D01*
X126471379Y-116889346D01*
X126357934Y-116788843D01*
X126223434Y-116718252D01*
X126223433Y-116718251D01*
X126223432Y-116718251D01*
X126075950Y-116681900D01*
X126075949Y-116681900D01*
X125924051Y-116681900D01*
X125924050Y-116681900D01*
X125776567Y-116718251D01*
X125642067Y-116788842D01*
X125528367Y-116889571D01*
X125442080Y-117014579D01*
X125442079Y-117014580D01*
X125388215Y-117156605D01*
X125388214Y-117156609D01*
X125388002Y-117158363D01*
X125387489Y-117159554D01*
X125386420Y-117163892D01*
X125385698Y-117163714D01*
X125360379Y-117222540D01*
X125302444Y-117261596D01*
X125294584Y-117263810D01*
X125276569Y-117268250D01*
X125142064Y-117338843D01*
X125082226Y-117391855D01*
X125018993Y-117421576D01*
X124949729Y-117412392D01*
X124917774Y-117391855D01*
X124857935Y-117338843D01*
X124786472Y-117301337D01*
X124723434Y-117268252D01*
X124723431Y-117268251D01*
X124711671Y-117265352D01*
X124651292Y-117230193D01*
X124619506Y-117167972D01*
X124618255Y-117159900D01*
X124618068Y-117158363D01*
X124611785Y-117106609D01*
X124557921Y-116964581D01*
X124471632Y-116839570D01*
X124357934Y-116738843D01*
X124223434Y-116668252D01*
X124223433Y-116668251D01*
X124223432Y-116668251D01*
X124075950Y-116631900D01*
X124075949Y-116631900D01*
X123924051Y-116631900D01*
X123924050Y-116631900D01*
X123776567Y-116668251D01*
X123642064Y-116738843D01*
X123582226Y-116791855D01*
X123518993Y-116821576D01*
X123449729Y-116812392D01*
X123417774Y-116791855D01*
X123357935Y-116738843D01*
X123223432Y-116668251D01*
X123075950Y-116631900D01*
X123075949Y-116631900D01*
X122924051Y-116631900D01*
X122924050Y-116631900D01*
X122776567Y-116668251D01*
X122642067Y-116738842D01*
X122642066Y-116738843D01*
X122540697Y-116828648D01*
X122528367Y-116839571D01*
X122442080Y-116964579D01*
X122442079Y-116964580D01*
X122388215Y-117106608D01*
X122382144Y-117156609D01*
X122369906Y-117257400D01*
X121298613Y-117257400D01*
X121351818Y-117180319D01*
X121405682Y-117038291D01*
X121423991Y-116887500D01*
X121405682Y-116736709D01*
X121351818Y-116594681D01*
X121265529Y-116469670D01*
X121265528Y-116469668D01*
X121264990Y-116469192D01*
X121264708Y-116468743D01*
X121260555Y-116464055D01*
X121261334Y-116463364D01*
X121257029Y-116456500D01*
X131987340Y-116456500D01*
X132007126Y-116644756D01*
X132007127Y-116644759D01*
X132065618Y-116824777D01*
X132065621Y-116824784D01*
X132160267Y-116988716D01*
X132223237Y-117058651D01*
X132286929Y-117129388D01*
X132440065Y-117240648D01*
X132440070Y-117240651D01*
X132612992Y-117317642D01*
X132612997Y-117317644D01*
X132798154Y-117357000D01*
X132798155Y-117357000D01*
X132987444Y-117357000D01*
X132987446Y-117357000D01*
X133172603Y-117317644D01*
X133345530Y-117240651D01*
X133498671Y-117129388D01*
X133625333Y-116988716D01*
X133719979Y-116824784D01*
X133778474Y-116644756D01*
X133798260Y-116456500D01*
X133778474Y-116268244D01*
X133719979Y-116088216D01*
X133625333Y-115924284D01*
X133498671Y-115783612D01*
X133498670Y-115783611D01*
X133345534Y-115672351D01*
X133345529Y-115672348D01*
X133172607Y-115595357D01*
X133172602Y-115595355D01*
X133026801Y-115564365D01*
X132987446Y-115556000D01*
X132798154Y-115556000D01*
X132765697Y-115562898D01*
X132612997Y-115595355D01*
X132612992Y-115595357D01*
X132440070Y-115672348D01*
X132440065Y-115672351D01*
X132286929Y-115783611D01*
X132160266Y-115924285D01*
X132065621Y-116088215D01*
X132065618Y-116088222D01*
X132007127Y-116268240D01*
X132007126Y-116268244D01*
X131987340Y-116456500D01*
X121257029Y-116456500D01*
X121227866Y-116410001D01*
X121228636Y-116340135D01*
X121247880Y-116305816D01*
X121246268Y-116304703D01*
X121271434Y-116268244D01*
X121336818Y-116173519D01*
X121390682Y-116031491D01*
X121408991Y-115880700D01*
X121390682Y-115729909D01*
X121336818Y-115587881D01*
X121250529Y-115462870D01*
X121136831Y-115362143D01*
X121002331Y-115291552D01*
X121002330Y-115291551D01*
X121002329Y-115291551D01*
X120854847Y-115255200D01*
X120854846Y-115255200D01*
X120702948Y-115255200D01*
X120702947Y-115255200D01*
X120555464Y-115291551D01*
X120420964Y-115362142D01*
X120307264Y-115462871D01*
X120220977Y-115587879D01*
X120220976Y-115587880D01*
X120167112Y-115729908D01*
X120160591Y-115783612D01*
X120148803Y-115880700D01*
X108988878Y-115880700D01*
X109032533Y-115832216D01*
X109127179Y-115668284D01*
X109185674Y-115488256D01*
X109205460Y-115300000D01*
X109185674Y-115111744D01*
X109127179Y-114931716D01*
X109084273Y-114857400D01*
X127719906Y-114857400D01*
X127738215Y-115008191D01*
X127792079Y-115150219D01*
X127878368Y-115275230D01*
X127992066Y-115375957D01*
X128126566Y-115446548D01*
X128192787Y-115462870D01*
X128274050Y-115482900D01*
X128274051Y-115482900D01*
X128425950Y-115482900D01*
X128507213Y-115462870D01*
X128573434Y-115446548D01*
X128707934Y-115375957D01*
X128821632Y-115275230D01*
X128907921Y-115150219D01*
X128942672Y-115058587D01*
X128984849Y-115002886D01*
X129028936Y-114982163D01*
X129173434Y-114946548D01*
X129307934Y-114875957D01*
X129421632Y-114775230D01*
X129507921Y-114650219D01*
X129561785Y-114508191D01*
X129580094Y-114357400D01*
X129561785Y-114206609D01*
X129507921Y-114064581D01*
X129421632Y-113939570D01*
X129307934Y-113838843D01*
X129173434Y-113768252D01*
X129173433Y-113768251D01*
X129173432Y-113768251D01*
X129025950Y-113731900D01*
X129025949Y-113731900D01*
X128874051Y-113731900D01*
X128874050Y-113731900D01*
X128726567Y-113768251D01*
X128592067Y-113838842D01*
X128478367Y-113939571D01*
X128392080Y-114064578D01*
X128357328Y-114156211D01*
X128315149Y-114211913D01*
X128271062Y-114232636D01*
X128126567Y-114268251D01*
X127992067Y-114338842D01*
X127878367Y-114439571D01*
X127792080Y-114564579D01*
X127792079Y-114564580D01*
X127747039Y-114683343D01*
X127738215Y-114706609D01*
X127719906Y-114857400D01*
X109084273Y-114857400D01*
X109032533Y-114767784D01*
X108905871Y-114627112D01*
X108905870Y-114627111D01*
X108752734Y-114515851D01*
X108752729Y-114515848D01*
X108579807Y-114438857D01*
X108579802Y-114438855D01*
X108434001Y-114407865D01*
X108394646Y-114399500D01*
X108205354Y-114399500D01*
X108172897Y-114406398D01*
X108020197Y-114438855D01*
X108020192Y-114438857D01*
X107847270Y-114515848D01*
X107847265Y-114515851D01*
X107694129Y-114627111D01*
X107567466Y-114767785D01*
X107472821Y-114931715D01*
X107472818Y-114931722D01*
X107422741Y-115085845D01*
X107414326Y-115111744D01*
X107394540Y-115300000D01*
X83405536Y-115300000D01*
X83405063Y-115294592D01*
X83343903Y-115066337D01*
X83244035Y-114852171D01*
X83195751Y-114783213D01*
X83108494Y-114658597D01*
X82941402Y-114491506D01*
X82941396Y-114491501D01*
X82755842Y-114361575D01*
X82712217Y-114306998D01*
X82705023Y-114237500D01*
X82736546Y-114175145D01*
X82755842Y-114158425D01*
X82778026Y-114142891D01*
X82941401Y-114028495D01*
X83070396Y-113899500D01*
X120148803Y-113899500D01*
X120167112Y-114050291D01*
X120220976Y-114192319D01*
X120307265Y-114317330D01*
X120420963Y-114418057D01*
X120555463Y-114488648D01*
X120629205Y-114506824D01*
X120702947Y-114525000D01*
X120702948Y-114525000D01*
X120854847Y-114525000D01*
X120923042Y-114508191D01*
X121002331Y-114488648D01*
X121136831Y-114418057D01*
X121250529Y-114317330D01*
X121336818Y-114192319D01*
X121390682Y-114050291D01*
X121408991Y-113899500D01*
X121390682Y-113748709D01*
X121336818Y-113606681D01*
X121250529Y-113481670D01*
X121136831Y-113380943D01*
X121002331Y-113310352D01*
X121002330Y-113310351D01*
X121002329Y-113310351D01*
X120854847Y-113274000D01*
X120854846Y-113274000D01*
X120702948Y-113274000D01*
X120702947Y-113274000D01*
X120555464Y-113310351D01*
X120420964Y-113380942D01*
X120307264Y-113481671D01*
X120220977Y-113606679D01*
X120220976Y-113606680D01*
X120173487Y-113731900D01*
X120167112Y-113748709D01*
X120148803Y-113899500D01*
X83070396Y-113899500D01*
X83108495Y-113861401D01*
X83244035Y-113667830D01*
X83343903Y-113453663D01*
X83405063Y-113225408D01*
X83425659Y-112990000D01*
X83405063Y-112754592D01*
X83345191Y-112531144D01*
X83343905Y-112526344D01*
X83343904Y-112526343D01*
X83343903Y-112526337D01*
X83244035Y-112312171D01*
X83234769Y-112298937D01*
X83108494Y-112118597D01*
X82941402Y-111951506D01*
X82941396Y-111951501D01*
X82755842Y-111821575D01*
X82712217Y-111766998D01*
X82705023Y-111697500D01*
X82736546Y-111635145D01*
X82755842Y-111618425D01*
X82778026Y-111602891D01*
X82941401Y-111488495D01*
X83108495Y-111321401D01*
X83244035Y-111127830D01*
X83343903Y-110913663D01*
X83358978Y-110857400D01*
X127869906Y-110857400D01*
X127888215Y-111008191D01*
X127942079Y-111150219D01*
X128028368Y-111275230D01*
X128092135Y-111331722D01*
X128115380Y-111352315D01*
X128152507Y-111411505D01*
X128151739Y-111481370D01*
X128135204Y-111515570D01*
X128088677Y-111582976D01*
X128032659Y-111730681D01*
X128013619Y-111887499D01*
X128013619Y-111887500D01*
X128032659Y-112044318D01*
X128060830Y-112118597D01*
X128088677Y-112192023D01*
X128178414Y-112322030D01*
X128296657Y-112426783D01*
X128296659Y-112426784D01*
X128436531Y-112500196D01*
X128589911Y-112538000D01*
X128589912Y-112538000D01*
X128747882Y-112538000D01*
X128901262Y-112500196D01*
X128931833Y-112484151D01*
X129041137Y-112426783D01*
X129159380Y-112322030D01*
X129249117Y-112192023D01*
X129305134Y-112044318D01*
X129324175Y-111887500D01*
X129314554Y-111808259D01*
X129305134Y-111730681D01*
X129282120Y-111670000D01*
X129249117Y-111582977D01*
X129159380Y-111452970D01*
X129048969Y-111355156D01*
X129011845Y-111295969D01*
X129012612Y-111226103D01*
X129029145Y-111191907D01*
X129057921Y-111150219D01*
X129108977Y-111015594D01*
X129151154Y-110959893D01*
X129167292Y-110949771D01*
X129173431Y-110946548D01*
X129173434Y-110946548D01*
X129219121Y-110922569D01*
X129287628Y-110908844D01*
X129352681Y-110934337D01*
X129393625Y-110990952D01*
X129400066Y-111019404D01*
X129405151Y-111067784D01*
X129418223Y-111192156D01*
X129418224Y-111192159D01*
X129476715Y-111372177D01*
X129476718Y-111372184D01*
X129571364Y-111536116D01*
X129691914Y-111670000D01*
X129698026Y-111676788D01*
X129851162Y-111788048D01*
X129851167Y-111788051D01*
X130024089Y-111865042D01*
X130024094Y-111865044D01*
X130209251Y-111904400D01*
X130209252Y-111904400D01*
X130398541Y-111904400D01*
X130398543Y-111904400D01*
X130583700Y-111865044D01*
X130756627Y-111788051D01*
X130909768Y-111676788D01*
X131036430Y-111536116D01*
X131131076Y-111372184D01*
X131189571Y-111192156D01*
X131208716Y-111010000D01*
X141174540Y-111010000D01*
X141194326Y-111198256D01*
X141194327Y-111198259D01*
X141252818Y-111378277D01*
X141252821Y-111378284D01*
X141347467Y-111542216D01*
X141431141Y-111635145D01*
X141474129Y-111682888D01*
X141627265Y-111794148D01*
X141627270Y-111794151D01*
X141800192Y-111871142D01*
X141800197Y-111871144D01*
X141985354Y-111910500D01*
X141985355Y-111910500D01*
X142174644Y-111910500D01*
X142174646Y-111910500D01*
X142359803Y-111871144D01*
X142532730Y-111794151D01*
X142685871Y-111682888D01*
X142812533Y-111542216D01*
X142907179Y-111378284D01*
X142965674Y-111198256D01*
X142985460Y-111010000D01*
X160984540Y-111010000D01*
X161004326Y-111198256D01*
X161004327Y-111198259D01*
X161062818Y-111378277D01*
X161062821Y-111378284D01*
X161157467Y-111542216D01*
X161241141Y-111635145D01*
X161284129Y-111682888D01*
X161437265Y-111794148D01*
X161437270Y-111794151D01*
X161610192Y-111871142D01*
X161610197Y-111871144D01*
X161795354Y-111910500D01*
X161795355Y-111910500D01*
X161984644Y-111910500D01*
X161984646Y-111910500D01*
X162169803Y-111871144D01*
X162342730Y-111794151D01*
X162472318Y-111700000D01*
X164194540Y-111700000D01*
X164214326Y-111888256D01*
X164214327Y-111888259D01*
X164272818Y-112068277D01*
X164272821Y-112068284D01*
X164367467Y-112232216D01*
X164466452Y-112342150D01*
X164494129Y-112372888D01*
X164647265Y-112484148D01*
X164647270Y-112484151D01*
X164820192Y-112561142D01*
X164820197Y-112561144D01*
X165005354Y-112600500D01*
X165005355Y-112600500D01*
X165194644Y-112600500D01*
X165194646Y-112600500D01*
X165379803Y-112561144D01*
X165552730Y-112484151D01*
X165705871Y-112372888D01*
X165705888Y-112372868D01*
X165706424Y-112372388D01*
X165706823Y-112372196D01*
X165711129Y-112369068D01*
X165711700Y-112369854D01*
X165769412Y-112342150D01*
X165838748Y-112350766D01*
X165862294Y-112364208D01*
X165874240Y-112372888D01*
X165917271Y-112404152D01*
X166090192Y-112481142D01*
X166090197Y-112481144D01*
X166275354Y-112520500D01*
X166275355Y-112520500D01*
X166464644Y-112520500D01*
X166464646Y-112520500D01*
X166649803Y-112481144D01*
X166822730Y-112404151D01*
X166975871Y-112292888D01*
X167102533Y-112152216D01*
X167197179Y-111988284D01*
X167255674Y-111808256D01*
X167270205Y-111670000D01*
X169334540Y-111670000D01*
X169354326Y-111858256D01*
X169354327Y-111858259D01*
X169412818Y-112038277D01*
X169412821Y-112038284D01*
X169507467Y-112202216D01*
X169634129Y-112342888D01*
X169787265Y-112454148D01*
X169787270Y-112454151D01*
X169960192Y-112531142D01*
X169960197Y-112531144D01*
X170145354Y-112570500D01*
X170145355Y-112570500D01*
X170334644Y-112570500D01*
X170334646Y-112570500D01*
X170519803Y-112531144D01*
X170692730Y-112454151D01*
X170845290Y-112343309D01*
X170911094Y-112319831D01*
X170979148Y-112335656D01*
X170991054Y-112343308D01*
X171019822Y-112364209D01*
X171047270Y-112384151D01*
X171220192Y-112461142D01*
X171220197Y-112461144D01*
X171405354Y-112500500D01*
X171405355Y-112500500D01*
X171594644Y-112500500D01*
X171594646Y-112500500D01*
X171779803Y-112461144D01*
X171952730Y-112384151D01*
X172027116Y-112330106D01*
X172092920Y-112306627D01*
X172160974Y-112322452D01*
X172172876Y-112330100D01*
X172231080Y-112372388D01*
X172247270Y-112384151D01*
X172420192Y-112461142D01*
X172420197Y-112461144D01*
X172605354Y-112500500D01*
X172605355Y-112500500D01*
X172794644Y-112500500D01*
X172794646Y-112500500D01*
X172979803Y-112461144D01*
X173152730Y-112384151D01*
X173305871Y-112272888D01*
X173432533Y-112132216D01*
X173527179Y-111968284D01*
X173585674Y-111788256D01*
X173605460Y-111600000D01*
X174394540Y-111600000D01*
X174414326Y-111788256D01*
X174414327Y-111788259D01*
X174472818Y-111968277D01*
X174472821Y-111968284D01*
X174567467Y-112132216D01*
X174649999Y-112223877D01*
X174694129Y-112272888D01*
X174847265Y-112384148D01*
X174847270Y-112384151D01*
X175020192Y-112461142D01*
X175020197Y-112461144D01*
X175205354Y-112500500D01*
X175205355Y-112500500D01*
X175394644Y-112500500D01*
X175394646Y-112500500D01*
X175579803Y-112461144D01*
X175752730Y-112384151D01*
X175877116Y-112293778D01*
X175942921Y-112270300D01*
X176010975Y-112286125D01*
X176022872Y-112293771D01*
X176119822Y-112364209D01*
X176147270Y-112384151D01*
X176320192Y-112461142D01*
X176320197Y-112461144D01*
X176505354Y-112500500D01*
X176505355Y-112500500D01*
X176694644Y-112500500D01*
X176694646Y-112500500D01*
X176879803Y-112461144D01*
X177052730Y-112384151D01*
X177114466Y-112339296D01*
X177180271Y-112315817D01*
X177248325Y-112331642D01*
X177279501Y-112356643D01*
X177294123Y-112372883D01*
X177294130Y-112372889D01*
X177447265Y-112484148D01*
X177447270Y-112484151D01*
X177620192Y-112561142D01*
X177620197Y-112561144D01*
X177805354Y-112600500D01*
X177805355Y-112600500D01*
X177994644Y-112600500D01*
X177994646Y-112600500D01*
X178179803Y-112561144D01*
X178352730Y-112484151D01*
X178505871Y-112372888D01*
X178632533Y-112232216D01*
X178727179Y-112068284D01*
X178785674Y-111888256D01*
X178805460Y-111700000D01*
X178797052Y-111620000D01*
X179434540Y-111620000D01*
X179454326Y-111808256D01*
X179454327Y-111808259D01*
X179512818Y-111988277D01*
X179512821Y-111988284D01*
X179607467Y-112152216D01*
X179671991Y-112223877D01*
X179734129Y-112292888D01*
X179887265Y-112404148D01*
X179887270Y-112404151D01*
X180060192Y-112481142D01*
X180060197Y-112481144D01*
X180245354Y-112520500D01*
X180245355Y-112520500D01*
X180434644Y-112520500D01*
X180434646Y-112520500D01*
X180619803Y-112481144D01*
X180792730Y-112404151D01*
X180945871Y-112292888D01*
X181072533Y-112152216D01*
X181167179Y-111988284D01*
X181225674Y-111808256D01*
X181245460Y-111620000D01*
X181225674Y-111431744D01*
X181167179Y-111251716D01*
X181072533Y-111087784D01*
X180945871Y-110947112D01*
X180945870Y-110947111D01*
X180792734Y-110835851D01*
X180792729Y-110835848D01*
X180619807Y-110758857D01*
X180619802Y-110758855D01*
X180474001Y-110727865D01*
X180434646Y-110719500D01*
X180245354Y-110719500D01*
X180212897Y-110726398D01*
X180060197Y-110758855D01*
X180060192Y-110758857D01*
X179887270Y-110835848D01*
X179887265Y-110835851D01*
X179734129Y-110947111D01*
X179607466Y-111087785D01*
X179512821Y-111251715D01*
X179512818Y-111251722D01*
X179454327Y-111431740D01*
X179454326Y-111431744D01*
X179434540Y-111620000D01*
X178797052Y-111620000D01*
X178785674Y-111511744D01*
X178727179Y-111331716D01*
X178632533Y-111167784D01*
X178505871Y-111027112D01*
X178505870Y-111027111D01*
X178352734Y-110915851D01*
X178352729Y-110915848D01*
X178179807Y-110838857D01*
X178179802Y-110838855D01*
X178032509Y-110807548D01*
X177994646Y-110799500D01*
X177805354Y-110799500D01*
X177772897Y-110806398D01*
X177620197Y-110838855D01*
X177620192Y-110838857D01*
X177447270Y-110915848D01*
X177447266Y-110915851D01*
X177385531Y-110960703D01*
X177319724Y-110984182D01*
X177251670Y-110968355D01*
X177220497Y-110943356D01*
X177205871Y-110927112D01*
X177205869Y-110927110D01*
X177052734Y-110815851D01*
X177052729Y-110815848D01*
X176879807Y-110738857D01*
X176879802Y-110738855D01*
X176734001Y-110707865D01*
X176694646Y-110699500D01*
X176505354Y-110699500D01*
X176472897Y-110706398D01*
X176320197Y-110738855D01*
X176320192Y-110738857D01*
X176147271Y-110815848D01*
X176022885Y-110906219D01*
X175957078Y-110929698D01*
X175889024Y-110913872D01*
X175877115Y-110906219D01*
X175784398Y-110838857D01*
X175752730Y-110815849D01*
X175752728Y-110815848D01*
X175752729Y-110815848D01*
X175579807Y-110738857D01*
X175579802Y-110738855D01*
X175434001Y-110707865D01*
X175394646Y-110699500D01*
X175205354Y-110699500D01*
X175172897Y-110706398D01*
X175020197Y-110738855D01*
X175020192Y-110738857D01*
X174847270Y-110815848D01*
X174847265Y-110815851D01*
X174694129Y-110927111D01*
X174567466Y-111067785D01*
X174472821Y-111231715D01*
X174472818Y-111231722D01*
X174414327Y-111411740D01*
X174414326Y-111411744D01*
X174394540Y-111600000D01*
X173605460Y-111600000D01*
X173585674Y-111411744D01*
X173527179Y-111231716D01*
X173432533Y-111067784D01*
X173305871Y-110927112D01*
X173305870Y-110927111D01*
X173152734Y-110815851D01*
X173152729Y-110815848D01*
X172979807Y-110738857D01*
X172979802Y-110738855D01*
X172834001Y-110707865D01*
X172794646Y-110699500D01*
X172605354Y-110699500D01*
X172572897Y-110706398D01*
X172420197Y-110738855D01*
X172420192Y-110738857D01*
X172247270Y-110815848D01*
X172247265Y-110815851D01*
X172172885Y-110869892D01*
X172107079Y-110893372D01*
X172039025Y-110877546D01*
X172027115Y-110869892D01*
X171952734Y-110815851D01*
X171952729Y-110815848D01*
X171779807Y-110738857D01*
X171779802Y-110738855D01*
X171634001Y-110707865D01*
X171594646Y-110699500D01*
X171405354Y-110699500D01*
X171372897Y-110706398D01*
X171220197Y-110738855D01*
X171220192Y-110738857D01*
X171047270Y-110815848D01*
X171047265Y-110815851D01*
X170894711Y-110926688D01*
X170828904Y-110950168D01*
X170760851Y-110934342D01*
X170748941Y-110926688D01*
X170692734Y-110885851D01*
X170692729Y-110885848D01*
X170519807Y-110808857D01*
X170519802Y-110808855D01*
X170517160Y-110808294D01*
X170515779Y-110807548D01*
X170513626Y-110806849D01*
X170513753Y-110806455D01*
X170455678Y-110775102D01*
X170421902Y-110713939D01*
X170426554Y-110644224D01*
X170468159Y-110588092D01*
X170517159Y-110565714D01*
X170679803Y-110531144D01*
X170852730Y-110454151D01*
X171005871Y-110342888D01*
X171132533Y-110202216D01*
X171227179Y-110038284D01*
X171285674Y-109858256D01*
X171305460Y-109670000D01*
X171302040Y-109637460D01*
X171314610Y-109568731D01*
X171362342Y-109517708D01*
X171425361Y-109500500D01*
X171594644Y-109500500D01*
X171594646Y-109500500D01*
X171779803Y-109461144D01*
X171952730Y-109384151D01*
X172105871Y-109272888D01*
X172232533Y-109132216D01*
X172327179Y-108968284D01*
X172385674Y-108788256D01*
X172405460Y-108600000D01*
X172385674Y-108411744D01*
X172327179Y-108231716D01*
X172232533Y-108067784D01*
X172105871Y-107927112D01*
X172105870Y-107927111D01*
X171952734Y-107815851D01*
X171952729Y-107815848D01*
X171779807Y-107738857D01*
X171779802Y-107738855D01*
X171634001Y-107707865D01*
X171594646Y-107699500D01*
X171405354Y-107699500D01*
X171372897Y-107706398D01*
X171220197Y-107738855D01*
X171220192Y-107738857D01*
X171047270Y-107815848D01*
X171047265Y-107815851D01*
X170894129Y-107927111D01*
X170767466Y-108067785D01*
X170672821Y-108231715D01*
X170672818Y-108231722D01*
X170626699Y-108373663D01*
X170614326Y-108411744D01*
X170597390Y-108572888D01*
X170594540Y-108600000D01*
X170597960Y-108632539D01*
X170585390Y-108701269D01*
X170537658Y-108752292D01*
X170474639Y-108769500D01*
X170305354Y-108769500D01*
X170272897Y-108776398D01*
X170120197Y-108808855D01*
X170120192Y-108808857D01*
X169947270Y-108885848D01*
X169947265Y-108885851D01*
X169794129Y-108997111D01*
X169667466Y-109137785D01*
X169572821Y-109301715D01*
X169572818Y-109301722D01*
X169514327Y-109481740D01*
X169514326Y-109481744D01*
X169494540Y-109670000D01*
X169514326Y-109858256D01*
X169514327Y-109858259D01*
X169572818Y-110038277D01*
X169572821Y-110038284D01*
X169667467Y-110202216D01*
X169745741Y-110289148D01*
X169794129Y-110342888D01*
X169947265Y-110454148D01*
X169947270Y-110454151D01*
X170120192Y-110531142D01*
X170120193Y-110531143D01*
X170120196Y-110531143D01*
X170120197Y-110531144D01*
X170122830Y-110531703D01*
X170124207Y-110532447D01*
X170126374Y-110533151D01*
X170126245Y-110533547D01*
X170184313Y-110564890D01*
X170218095Y-110626050D01*
X170213448Y-110695765D01*
X170171848Y-110751901D01*
X170122839Y-110774285D01*
X169960197Y-110808855D01*
X169960192Y-110808857D01*
X169787270Y-110885848D01*
X169787265Y-110885851D01*
X169634129Y-110997111D01*
X169507466Y-111137785D01*
X169412821Y-111301715D01*
X169412818Y-111301722D01*
X169354327Y-111481740D01*
X169354326Y-111481744D01*
X169334540Y-111670000D01*
X167270205Y-111670000D01*
X167275460Y-111620000D01*
X167255674Y-111431744D01*
X167197179Y-111251716D01*
X167102533Y-111087784D01*
X166975871Y-110947112D01*
X166975870Y-110947111D01*
X166822734Y-110835851D01*
X166822729Y-110835848D01*
X166649807Y-110758857D01*
X166649802Y-110758855D01*
X166504001Y-110727865D01*
X166464646Y-110719500D01*
X166275354Y-110719500D01*
X166242897Y-110726398D01*
X166090197Y-110758855D01*
X166090192Y-110758857D01*
X165917270Y-110835848D01*
X165917265Y-110835851D01*
X165764130Y-110947110D01*
X165763558Y-110947626D01*
X165763154Y-110947819D01*
X165758872Y-110950931D01*
X165758302Y-110950147D01*
X165700565Y-110977853D01*
X165631230Y-110969224D01*
X165607705Y-110955790D01*
X165552734Y-110915851D01*
X165552729Y-110915848D01*
X165379807Y-110838857D01*
X165379802Y-110838855D01*
X165232509Y-110807548D01*
X165194646Y-110799500D01*
X165005354Y-110799500D01*
X164972897Y-110806398D01*
X164820197Y-110838855D01*
X164820192Y-110838857D01*
X164647270Y-110915848D01*
X164647265Y-110915851D01*
X164494129Y-111027111D01*
X164367466Y-111167785D01*
X164272821Y-111331715D01*
X164272818Y-111331722D01*
X164221880Y-111488495D01*
X164214326Y-111511744D01*
X164194540Y-111700000D01*
X162472318Y-111700000D01*
X162495871Y-111682888D01*
X162622533Y-111542216D01*
X162717179Y-111378284D01*
X162775674Y-111198256D01*
X162795460Y-111010000D01*
X162775674Y-110821744D01*
X162717179Y-110641716D01*
X162622533Y-110477784D01*
X162495871Y-110337112D01*
X162487474Y-110331011D01*
X162342734Y-110225851D01*
X162342729Y-110225848D01*
X162169807Y-110148857D01*
X162169802Y-110148855D01*
X162023826Y-110117828D01*
X161984646Y-110109500D01*
X161795354Y-110109500D01*
X161762897Y-110116398D01*
X161610197Y-110148855D01*
X161610192Y-110148857D01*
X161437270Y-110225848D01*
X161437265Y-110225851D01*
X161284129Y-110337111D01*
X161157466Y-110477785D01*
X161062821Y-110641715D01*
X161062818Y-110641722D01*
X161004327Y-110821740D01*
X161004326Y-110821744D01*
X160984540Y-111010000D01*
X142985460Y-111010000D01*
X142965674Y-110821744D01*
X142907179Y-110641716D01*
X142812533Y-110477784D01*
X142685871Y-110337112D01*
X142677474Y-110331011D01*
X142532734Y-110225851D01*
X142532729Y-110225848D01*
X142359807Y-110148857D01*
X142359802Y-110148855D01*
X142213826Y-110117828D01*
X142174646Y-110109500D01*
X141985354Y-110109500D01*
X141952897Y-110116398D01*
X141800197Y-110148855D01*
X141800192Y-110148857D01*
X141627270Y-110225848D01*
X141627265Y-110225851D01*
X141474129Y-110337111D01*
X141347466Y-110477785D01*
X141252821Y-110641715D01*
X141252818Y-110641722D01*
X141194327Y-110821740D01*
X141194326Y-110821744D01*
X141174540Y-111010000D01*
X131208716Y-111010000D01*
X131209357Y-111003900D01*
X131189571Y-110815644D01*
X131131076Y-110635616D01*
X131036430Y-110471684D01*
X130909768Y-110331012D01*
X130909767Y-110331011D01*
X130756631Y-110219751D01*
X130756626Y-110219748D01*
X130583704Y-110142757D01*
X130583699Y-110142755D01*
X130427241Y-110109500D01*
X130398543Y-110103400D01*
X130209251Y-110103400D01*
X130180553Y-110109500D01*
X130024094Y-110142755D01*
X130024089Y-110142757D01*
X129851167Y-110219748D01*
X129851162Y-110219751D01*
X129757278Y-110287962D01*
X129691471Y-110311442D01*
X129623418Y-110295616D01*
X129574723Y-110245510D01*
X129564743Y-110213604D01*
X129563580Y-110213891D01*
X129561785Y-110206608D01*
X129537568Y-110142755D01*
X129507921Y-110064581D01*
X129421632Y-109939570D01*
X129307934Y-109838843D01*
X129173434Y-109768252D01*
X129173433Y-109768251D01*
X129173432Y-109768251D01*
X129025950Y-109731900D01*
X129025949Y-109731900D01*
X128874051Y-109731900D01*
X128874050Y-109731900D01*
X128726567Y-109768251D01*
X128592067Y-109838842D01*
X128592066Y-109838843D01*
X128510744Y-109910888D01*
X128478367Y-109939571D01*
X128392080Y-110064578D01*
X128341023Y-110199204D01*
X128298845Y-110254906D01*
X128282707Y-110265028D01*
X128142068Y-110338841D01*
X128028367Y-110439571D01*
X127942080Y-110564579D01*
X127942079Y-110564580D01*
X127888215Y-110706608D01*
X127884299Y-110738857D01*
X127869906Y-110857400D01*
X83358978Y-110857400D01*
X83405063Y-110685408D01*
X83425659Y-110450000D01*
X83424746Y-110439570D01*
X83415249Y-110331012D01*
X83405063Y-110214592D01*
X83357820Y-110038277D01*
X83343905Y-109986344D01*
X83343904Y-109986343D01*
X83343903Y-109986337D01*
X83244035Y-109772171D01*
X83241291Y-109768251D01*
X83108494Y-109578597D01*
X82941402Y-109411506D01*
X82941396Y-109411501D01*
X82755842Y-109281575D01*
X82712217Y-109226998D01*
X82705023Y-109157500D01*
X82736546Y-109095145D01*
X82755842Y-109078425D01*
X82868938Y-108999234D01*
X82941401Y-108948495D01*
X83108495Y-108781401D01*
X83213843Y-108630949D01*
X118919192Y-108630949D01*
X118938978Y-108819205D01*
X118938979Y-108819208D01*
X118997473Y-108999234D01*
X119047475Y-109085841D01*
X119063948Y-109153742D01*
X119047476Y-109209839D01*
X119010021Y-109274714D01*
X119010020Y-109274717D01*
X118951527Y-109454740D01*
X118951526Y-109454744D01*
X118931740Y-109643000D01*
X118951526Y-109831256D01*
X118951527Y-109831259D01*
X119010018Y-110011277D01*
X119010021Y-110011284D01*
X119104667Y-110175216D01*
X119192612Y-110272888D01*
X119231329Y-110315888D01*
X119384465Y-110427148D01*
X119384470Y-110427151D01*
X119557392Y-110504142D01*
X119557397Y-110504144D01*
X119742554Y-110543500D01*
X119742555Y-110543500D01*
X119931844Y-110543500D01*
X119931846Y-110543500D01*
X120117003Y-110504144D01*
X120289930Y-110427151D01*
X120443071Y-110315888D01*
X120569733Y-110175216D01*
X120664379Y-110011284D01*
X120672486Y-109986335D01*
X120678260Y-109968563D01*
X120717697Y-109910888D01*
X120782056Y-109883689D01*
X120850902Y-109895603D01*
X120902378Y-109942847D01*
X120912131Y-109962905D01*
X120923476Y-109992819D01*
X120923477Y-109992821D01*
X120936217Y-110011278D01*
X121009765Y-110117830D01*
X121123463Y-110218557D01*
X121257963Y-110289148D01*
X121284205Y-110295616D01*
X121405447Y-110325500D01*
X121405448Y-110325500D01*
X121557347Y-110325500D01*
X121614381Y-110311442D01*
X121704831Y-110289148D01*
X121839331Y-110218557D01*
X121953029Y-110117830D01*
X122039318Y-109992819D01*
X122093182Y-109850791D01*
X122111491Y-109700000D01*
X123851303Y-109700000D01*
X123869612Y-109850791D01*
X123923476Y-109992819D01*
X124009765Y-110117830D01*
X124123463Y-110218557D01*
X124257963Y-110289148D01*
X124284205Y-110295616D01*
X124405447Y-110325500D01*
X124405448Y-110325500D01*
X124557347Y-110325500D01*
X124614381Y-110311442D01*
X124704831Y-110289148D01*
X124839331Y-110218557D01*
X124953029Y-110117830D01*
X125039318Y-109992819D01*
X125071713Y-109907400D01*
X125369906Y-109907400D01*
X125388215Y-110058191D01*
X125442079Y-110200219D01*
X125528368Y-110325230D01*
X125642066Y-110425957D01*
X125776566Y-110496548D01*
X125850308Y-110514724D01*
X125924050Y-110532900D01*
X125924051Y-110532900D01*
X126075950Y-110532900D01*
X126125110Y-110520782D01*
X126223434Y-110496548D01*
X126357934Y-110425957D01*
X126471632Y-110325230D01*
X126557921Y-110200219D01*
X126611785Y-110058191D01*
X126611996Y-110056448D01*
X126612507Y-110055262D01*
X126613580Y-110050909D01*
X126614303Y-110051087D01*
X126639611Y-109992269D01*
X126697541Y-109953207D01*
X126705398Y-109950993D01*
X126723434Y-109946548D01*
X126857934Y-109875957D01*
X126971632Y-109775230D01*
X127057921Y-109650219D01*
X127076967Y-109600000D01*
X156094540Y-109600000D01*
X156114326Y-109788256D01*
X156114327Y-109788259D01*
X156172818Y-109968277D01*
X156172821Y-109968284D01*
X156267467Y-110132216D01*
X156377938Y-110254906D01*
X156394129Y-110272888D01*
X156547265Y-110384148D01*
X156547270Y-110384151D01*
X156720192Y-110461142D01*
X156720197Y-110461144D01*
X156905354Y-110500500D01*
X156905355Y-110500500D01*
X157094644Y-110500500D01*
X157094646Y-110500500D01*
X157279803Y-110461144D01*
X157452730Y-110384151D01*
X157605871Y-110272888D01*
X157732533Y-110132216D01*
X157827179Y-109968284D01*
X157885674Y-109788256D01*
X157905460Y-109600000D01*
X157885674Y-109411744D01*
X157827179Y-109231716D01*
X157732533Y-109067784D01*
X157605871Y-108927112D01*
X157605870Y-108927111D01*
X157452734Y-108815851D01*
X157452729Y-108815848D01*
X157279807Y-108738857D01*
X157279802Y-108738855D01*
X157134001Y-108707865D01*
X157094646Y-108699500D01*
X156905354Y-108699500D01*
X156872897Y-108706398D01*
X156720197Y-108738855D01*
X156720192Y-108738857D01*
X156547270Y-108815848D01*
X156547265Y-108815851D01*
X156394129Y-108927111D01*
X156267466Y-109067785D01*
X156172821Y-109231715D01*
X156172818Y-109231722D01*
X156114403Y-109411506D01*
X156114326Y-109411744D01*
X156094540Y-109600000D01*
X127076967Y-109600000D01*
X127111785Y-109508191D01*
X127130094Y-109357400D01*
X127111785Y-109206609D01*
X127057921Y-109064581D01*
X126971632Y-108939570D01*
X126857934Y-108838843D01*
X126723434Y-108768252D01*
X126723433Y-108768251D01*
X126723432Y-108768251D01*
X126575950Y-108731900D01*
X126575949Y-108731900D01*
X126424051Y-108731900D01*
X126424050Y-108731900D01*
X126276567Y-108768251D01*
X126142067Y-108838842D01*
X126028367Y-108939571D01*
X125942080Y-109064579D01*
X125942079Y-109064580D01*
X125888215Y-109206605D01*
X125888214Y-109206609D01*
X125888002Y-109208363D01*
X125887489Y-109209554D01*
X125886420Y-109213892D01*
X125885698Y-109213714D01*
X125860379Y-109272540D01*
X125802444Y-109311596D01*
X125794584Y-109313810D01*
X125776569Y-109318250D01*
X125642067Y-109388842D01*
X125616490Y-109411501D01*
X125571701Y-109451181D01*
X125528367Y-109489571D01*
X125442080Y-109614579D01*
X125442079Y-109614580D01*
X125397586Y-109731900D01*
X125388215Y-109756609D01*
X125369906Y-109907400D01*
X125071713Y-109907400D01*
X125093182Y-109850791D01*
X125111491Y-109700000D01*
X125093182Y-109549209D01*
X125039318Y-109407181D01*
X124953029Y-109282170D01*
X124839331Y-109181443D01*
X124704831Y-109110852D01*
X124704830Y-109110851D01*
X124704829Y-109110851D01*
X124557347Y-109074500D01*
X124557346Y-109074500D01*
X124405448Y-109074500D01*
X124405447Y-109074500D01*
X124257964Y-109110851D01*
X124123464Y-109181442D01*
X124009764Y-109282171D01*
X123923477Y-109407179D01*
X123923476Y-109407180D01*
X123869612Y-109549208D01*
X123858896Y-109637461D01*
X123851303Y-109700000D01*
X122111491Y-109700000D01*
X122093182Y-109549209D01*
X122039318Y-109407181D01*
X121953029Y-109282170D01*
X121839331Y-109181443D01*
X121704831Y-109110852D01*
X121704830Y-109110851D01*
X121704829Y-109110851D01*
X121557347Y-109074500D01*
X121557346Y-109074500D01*
X121405448Y-109074500D01*
X121405447Y-109074500D01*
X121257964Y-109110851D01*
X121123464Y-109181442D01*
X121009764Y-109282171D01*
X120919215Y-109413354D01*
X120916540Y-109411507D01*
X120877977Y-109451181D01*
X120809921Y-109466999D01*
X120744117Y-109443513D01*
X120701457Y-109388178D01*
X120699082Y-109381520D01*
X120664381Y-109274721D01*
X120664378Y-109274715D01*
X120614374Y-109188105D01*
X120597902Y-109120207D01*
X120614373Y-109064111D01*
X120651831Y-108999233D01*
X120710326Y-108819205D01*
X120730112Y-108630949D01*
X120710326Y-108442693D01*
X120651831Y-108262665D01*
X120557185Y-108098733D01*
X120430523Y-107958061D01*
X120430522Y-107958060D01*
X120350609Y-107900000D01*
X167954540Y-107900000D01*
X167974326Y-108088256D01*
X167974327Y-108088259D01*
X168032818Y-108268277D01*
X168032821Y-108268284D01*
X168127467Y-108432216D01*
X168136901Y-108442693D01*
X168254129Y-108572888D01*
X168407265Y-108684148D01*
X168407270Y-108684151D01*
X168580192Y-108761142D01*
X168580197Y-108761144D01*
X168765354Y-108800500D01*
X168765355Y-108800500D01*
X168954644Y-108800500D01*
X168954646Y-108800500D01*
X169139803Y-108761144D01*
X169312730Y-108684151D01*
X169465871Y-108572888D01*
X169592533Y-108432216D01*
X169687179Y-108268284D01*
X169745674Y-108088256D01*
X169765460Y-107900000D01*
X169745674Y-107711744D01*
X169687179Y-107531716D01*
X169592533Y-107367784D01*
X169465871Y-107227112D01*
X169465870Y-107227111D01*
X169312734Y-107115851D01*
X169312729Y-107115848D01*
X169139807Y-107038857D01*
X169139802Y-107038855D01*
X168994001Y-107007865D01*
X168954646Y-106999500D01*
X168765354Y-106999500D01*
X168732897Y-107006398D01*
X168580197Y-107038855D01*
X168580192Y-107038857D01*
X168407270Y-107115848D01*
X168407265Y-107115851D01*
X168254129Y-107227111D01*
X168127466Y-107367785D01*
X168032821Y-107531715D01*
X168032818Y-107531722D01*
X167986399Y-107674586D01*
X167974326Y-107711744D01*
X167954540Y-107900000D01*
X120350609Y-107900000D01*
X120277386Y-107846800D01*
X120277381Y-107846797D01*
X120104459Y-107769806D01*
X120104454Y-107769804D01*
X119958653Y-107738814D01*
X119919298Y-107730449D01*
X119730006Y-107730449D01*
X119697549Y-107737347D01*
X119544849Y-107769804D01*
X119544844Y-107769806D01*
X119371922Y-107846797D01*
X119371917Y-107846800D01*
X119218781Y-107958060D01*
X119092118Y-108098734D01*
X118997473Y-108262664D01*
X118997470Y-108262671D01*
X118949035Y-108411740D01*
X118938978Y-108442693D01*
X118919192Y-108630949D01*
X83213843Y-108630949D01*
X83244035Y-108587830D01*
X83343903Y-108373663D01*
X83405063Y-108145408D01*
X83425659Y-107910000D01*
X83405063Y-107674592D01*
X83343903Y-107446337D01*
X83244035Y-107232171D01*
X83162588Y-107115851D01*
X83108494Y-107038597D01*
X82941402Y-106871506D01*
X82941396Y-106871501D01*
X82755842Y-106741575D01*
X82728525Y-106707400D01*
X136294540Y-106707400D01*
X136314326Y-106895656D01*
X136314327Y-106895659D01*
X136372818Y-107075677D01*
X136372821Y-107075684D01*
X136467467Y-107239616D01*
X136574947Y-107358984D01*
X136594129Y-107380288D01*
X136747265Y-107491548D01*
X136747270Y-107491551D01*
X136920192Y-107568542D01*
X136920197Y-107568544D01*
X137105354Y-107607900D01*
X137105355Y-107607900D01*
X137294644Y-107607900D01*
X137294646Y-107607900D01*
X137479803Y-107568544D01*
X137652730Y-107491551D01*
X137805871Y-107380288D01*
X137932533Y-107239616D01*
X138027179Y-107075684D01*
X138054792Y-106990700D01*
X145471740Y-106990700D01*
X145491526Y-107178956D01*
X145491527Y-107178959D01*
X145550018Y-107358977D01*
X145550021Y-107358984D01*
X145644667Y-107522916D01*
X145685749Y-107568542D01*
X145771329Y-107663588D01*
X145924465Y-107774848D01*
X145924470Y-107774851D01*
X146097392Y-107851842D01*
X146097397Y-107851844D01*
X146282554Y-107891200D01*
X146282555Y-107891200D01*
X146471844Y-107891200D01*
X146471846Y-107891200D01*
X146657003Y-107851844D01*
X146829930Y-107774851D01*
X146983071Y-107663588D01*
X147109733Y-107522916D01*
X147204379Y-107358984D01*
X147262874Y-107178956D01*
X147282660Y-106990700D01*
X147262874Y-106802444D01*
X147204379Y-106622416D01*
X147109733Y-106458484D01*
X146983071Y-106317812D01*
X146983070Y-106317811D01*
X146829934Y-106206551D01*
X146829929Y-106206548D01*
X146657007Y-106129557D01*
X146657002Y-106129555D01*
X146511201Y-106098565D01*
X146471846Y-106090200D01*
X146282554Y-106090200D01*
X146250097Y-106097098D01*
X146097397Y-106129555D01*
X146097392Y-106129557D01*
X145924470Y-106206548D01*
X145924465Y-106206551D01*
X145771329Y-106317811D01*
X145644666Y-106458485D01*
X145550021Y-106622415D01*
X145550018Y-106622422D01*
X145491527Y-106802440D01*
X145491526Y-106802444D01*
X145471740Y-106990700D01*
X138054792Y-106990700D01*
X138085674Y-106895656D01*
X138105460Y-106707400D01*
X138085674Y-106519144D01*
X138027179Y-106339116D01*
X137932533Y-106175184D01*
X137805871Y-106034512D01*
X137805870Y-106034511D01*
X137652734Y-105923251D01*
X137652729Y-105923248D01*
X137600514Y-105900000D01*
X155994540Y-105900000D01*
X156014326Y-106088256D01*
X156014327Y-106088259D01*
X156072818Y-106268277D01*
X156072821Y-106268284D01*
X156167467Y-106432216D01*
X156191120Y-106458485D01*
X156294129Y-106572888D01*
X156447265Y-106684148D01*
X156447270Y-106684151D01*
X156620192Y-106761142D01*
X156620197Y-106761144D01*
X156805354Y-106800500D01*
X156805355Y-106800500D01*
X156994644Y-106800500D01*
X156994646Y-106800500D01*
X157179803Y-106761144D01*
X157352730Y-106684151D01*
X157505871Y-106572888D01*
X157632533Y-106432216D01*
X157727179Y-106268284D01*
X157785674Y-106088256D01*
X157786542Y-106080000D01*
X158444540Y-106080000D01*
X158464326Y-106268256D01*
X158464327Y-106268259D01*
X158522818Y-106448277D01*
X158522821Y-106448284D01*
X158617467Y-106612216D01*
X158733943Y-106741575D01*
X158744129Y-106752888D01*
X158897265Y-106864148D01*
X158897270Y-106864151D01*
X159070192Y-106941142D01*
X159070197Y-106941144D01*
X159255354Y-106980500D01*
X159255355Y-106980500D01*
X159444644Y-106980500D01*
X159444646Y-106980500D01*
X159629803Y-106941144D01*
X159802730Y-106864151D01*
X159955871Y-106752888D01*
X160082533Y-106612216D01*
X160177179Y-106448284D01*
X160235674Y-106268256D01*
X160255460Y-106080000D01*
X160235674Y-105891744D01*
X160177179Y-105711716D01*
X160082533Y-105547784D01*
X159955871Y-105407112D01*
X159904791Y-105370000D01*
X159802734Y-105295851D01*
X159802729Y-105295848D01*
X159629807Y-105218857D01*
X159629802Y-105218855D01*
X159484001Y-105187865D01*
X159444646Y-105179500D01*
X159255354Y-105179500D01*
X159222897Y-105186398D01*
X159070197Y-105218855D01*
X159070192Y-105218857D01*
X158897270Y-105295848D01*
X158897265Y-105295851D01*
X158744129Y-105407111D01*
X158617466Y-105547785D01*
X158522821Y-105711715D01*
X158522818Y-105711722D01*
X158464327Y-105891740D01*
X158464326Y-105891744D01*
X158444540Y-106080000D01*
X157786542Y-106080000D01*
X157805460Y-105900000D01*
X157785674Y-105711744D01*
X157727179Y-105531716D01*
X157632533Y-105367784D01*
X157505871Y-105227112D01*
X157494508Y-105218856D01*
X157352734Y-105115851D01*
X157352729Y-105115848D01*
X157179807Y-105038857D01*
X157179802Y-105038855D01*
X157034001Y-105007865D01*
X156994646Y-104999500D01*
X156805354Y-104999500D01*
X156772897Y-105006398D01*
X156620197Y-105038855D01*
X156620192Y-105038857D01*
X156447270Y-105115848D01*
X156447265Y-105115851D01*
X156294129Y-105227111D01*
X156167466Y-105367785D01*
X156072821Y-105531715D01*
X156072818Y-105531722D01*
X156048875Y-105605413D01*
X156014326Y-105711744D01*
X155994540Y-105900000D01*
X137600514Y-105900000D01*
X137479807Y-105846257D01*
X137479802Y-105846255D01*
X137334001Y-105815265D01*
X137294646Y-105806900D01*
X137105354Y-105806900D01*
X137072897Y-105813798D01*
X136920197Y-105846255D01*
X136920192Y-105846257D01*
X136747270Y-105923248D01*
X136747265Y-105923251D01*
X136594129Y-106034511D01*
X136467466Y-106175185D01*
X136372821Y-106339115D01*
X136372818Y-106339122D01*
X136334035Y-106458485D01*
X136314326Y-106519144D01*
X136294540Y-106707400D01*
X82728525Y-106707400D01*
X82712217Y-106686998D01*
X82705023Y-106617500D01*
X82736546Y-106555145D01*
X82755842Y-106538425D01*
X82884586Y-106448277D01*
X82941401Y-106408495D01*
X83108495Y-106241401D01*
X83244035Y-106047830D01*
X83343903Y-105833663D01*
X83405063Y-105605408D01*
X83425659Y-105370000D01*
X83412833Y-105223400D01*
X120760540Y-105223400D01*
X120780326Y-105411656D01*
X120780327Y-105411659D01*
X120838818Y-105591677D01*
X120838821Y-105591684D01*
X120933467Y-105755616D01*
X121003734Y-105833655D01*
X121060129Y-105896288D01*
X121213265Y-106007548D01*
X121213270Y-106007551D01*
X121386192Y-106084542D01*
X121386197Y-106084544D01*
X121571354Y-106123900D01*
X121571355Y-106123900D01*
X121760644Y-106123900D01*
X121760646Y-106123900D01*
X121945803Y-106084544D01*
X122118730Y-106007551D01*
X122271871Y-105896288D01*
X122398533Y-105755616D01*
X122493179Y-105591684D01*
X122551674Y-105411656D01*
X122571460Y-105223400D01*
X122551674Y-105035144D01*
X122493179Y-104855116D01*
X122403623Y-104700000D01*
X175694540Y-104700000D01*
X175714326Y-104888256D01*
X175714327Y-104888259D01*
X175772818Y-105068277D01*
X175772821Y-105068284D01*
X175867467Y-105232216D01*
X175989533Y-105367784D01*
X175994129Y-105372888D01*
X176147265Y-105484148D01*
X176147270Y-105484151D01*
X176320192Y-105561142D01*
X176320197Y-105561144D01*
X176505354Y-105600500D01*
X176505355Y-105600500D01*
X176694644Y-105600500D01*
X176694646Y-105600500D01*
X176879803Y-105561144D01*
X177052730Y-105484151D01*
X177205871Y-105372888D01*
X177332533Y-105232216D01*
X177427179Y-105068284D01*
X177485674Y-104888256D01*
X177505460Y-104700000D01*
X177485674Y-104511744D01*
X177427179Y-104331716D01*
X177332533Y-104167784D01*
X177205871Y-104027112D01*
X177189400Y-104015145D01*
X177052734Y-103915851D01*
X177052729Y-103915848D01*
X176879807Y-103838857D01*
X176879802Y-103838855D01*
X176734001Y-103807865D01*
X176694646Y-103799500D01*
X176505354Y-103799500D01*
X176472897Y-103806398D01*
X176320197Y-103838855D01*
X176320192Y-103838857D01*
X176147270Y-103915848D01*
X176147265Y-103915851D01*
X175994129Y-104027111D01*
X175867466Y-104167785D01*
X175772821Y-104331715D01*
X175772818Y-104331722D01*
X175718597Y-104498599D01*
X175714326Y-104511744D01*
X175694540Y-104700000D01*
X122403623Y-104700000D01*
X122398533Y-104691184D01*
X122271871Y-104550512D01*
X122271870Y-104550511D01*
X122118734Y-104439251D01*
X122118729Y-104439248D01*
X121945807Y-104362257D01*
X121945802Y-104362255D01*
X121800001Y-104331265D01*
X121760646Y-104322900D01*
X121571354Y-104322900D01*
X121538897Y-104329798D01*
X121386197Y-104362255D01*
X121386192Y-104362257D01*
X121213270Y-104439248D01*
X121213265Y-104439251D01*
X121060129Y-104550511D01*
X120933466Y-104691185D01*
X120838821Y-104855115D01*
X120838818Y-104855122D01*
X120780327Y-105035140D01*
X120780326Y-105035144D01*
X120760540Y-105223400D01*
X83412833Y-105223400D01*
X83405063Y-105134592D01*
X83343903Y-104906337D01*
X83244035Y-104692171D01*
X83117700Y-104511744D01*
X83108494Y-104498597D01*
X82941402Y-104331506D01*
X82941396Y-104331501D01*
X82755842Y-104201575D01*
X82712217Y-104146998D01*
X82705023Y-104077500D01*
X82736546Y-104015145D01*
X82755842Y-103998425D01*
X82778026Y-103982891D01*
X82941401Y-103868495D01*
X83108495Y-103701401D01*
X83244035Y-103507830D01*
X83343903Y-103293663D01*
X83405063Y-103065408D01*
X83425659Y-102830000D01*
X83405063Y-102594592D01*
X83343903Y-102366337D01*
X83266338Y-102200000D01*
X166854540Y-102200000D01*
X166874326Y-102388256D01*
X166874327Y-102388259D01*
X166932818Y-102568277D01*
X166932821Y-102568284D01*
X167027467Y-102732216D01*
X167154129Y-102872888D01*
X167307265Y-102984148D01*
X167307270Y-102984151D01*
X167480192Y-103061142D01*
X167480197Y-103061144D01*
X167665354Y-103100500D01*
X167665355Y-103100500D01*
X167854644Y-103100500D01*
X167854646Y-103100500D01*
X168039803Y-103061144D01*
X168212730Y-102984151D01*
X168365871Y-102872888D01*
X168492533Y-102732216D01*
X168587179Y-102568284D01*
X168645674Y-102388256D01*
X168665460Y-102200000D01*
X168645674Y-102011744D01*
X168587179Y-101831716D01*
X168492533Y-101667784D01*
X168365871Y-101527112D01*
X168365870Y-101527111D01*
X168212734Y-101415851D01*
X168212729Y-101415848D01*
X168039807Y-101338857D01*
X168039802Y-101338855D01*
X167894001Y-101307865D01*
X167854646Y-101299500D01*
X167665354Y-101299500D01*
X167632897Y-101306398D01*
X167480197Y-101338855D01*
X167480192Y-101338857D01*
X167307270Y-101415848D01*
X167307265Y-101415851D01*
X167154129Y-101527111D01*
X167027466Y-101667785D01*
X166932821Y-101831715D01*
X166932818Y-101831722D01*
X166874327Y-102011740D01*
X166874326Y-102011744D01*
X166854540Y-102200000D01*
X83266338Y-102200000D01*
X83244035Y-102152171D01*
X83145708Y-102011744D01*
X83108494Y-101958597D01*
X82941402Y-101791506D01*
X82941396Y-101791501D01*
X82755842Y-101661575D01*
X82712217Y-101606998D01*
X82705023Y-101537500D01*
X82736546Y-101475145D01*
X82755842Y-101458425D01*
X82816648Y-101415848D01*
X82941401Y-101328495D01*
X83108495Y-101161401D01*
X83244035Y-100967830D01*
X83343903Y-100753663D01*
X83405063Y-100525408D01*
X83425659Y-100290000D01*
X83405063Y-100054592D01*
X83343903Y-99826337D01*
X83329057Y-99794500D01*
X101832239Y-99794500D01*
X101852025Y-99982756D01*
X101852026Y-99982759D01*
X101910517Y-100162777D01*
X101910520Y-100162784D01*
X102005166Y-100326716D01*
X102131828Y-100467388D01*
X102284964Y-100578648D01*
X102284969Y-100578651D01*
X102457891Y-100655642D01*
X102457896Y-100655644D01*
X102643053Y-100695000D01*
X102643054Y-100695000D01*
X102832343Y-100695000D01*
X102832345Y-100695000D01*
X103017502Y-100655644D01*
X103190429Y-100578651D01*
X103343570Y-100467388D01*
X103470232Y-100326716D01*
X103564878Y-100162784D01*
X103623373Y-99982756D01*
X103643159Y-99794500D01*
X103623373Y-99606244D01*
X103564878Y-99426216D01*
X103470232Y-99262284D01*
X103343570Y-99121612D01*
X103320506Y-99104855D01*
X103190433Y-99010351D01*
X103190428Y-99010348D01*
X103017506Y-98933357D01*
X103017501Y-98933355D01*
X102871700Y-98902365D01*
X102832345Y-98894000D01*
X102643053Y-98894000D01*
X102610596Y-98900898D01*
X102457896Y-98933355D01*
X102457891Y-98933357D01*
X102284969Y-99010348D01*
X102284964Y-99010351D01*
X102131828Y-99121611D01*
X102005165Y-99262285D01*
X101910520Y-99426215D01*
X101910517Y-99426222D01*
X101852026Y-99606240D01*
X101852025Y-99606244D01*
X101832239Y-99794500D01*
X83329057Y-99794500D01*
X83244035Y-99612171D01*
X83113829Y-99426216D01*
X83108494Y-99418597D01*
X82941402Y-99251506D01*
X82941396Y-99251501D01*
X82755842Y-99121575D01*
X82712217Y-99066998D01*
X82705023Y-98997500D01*
X82736546Y-98935145D01*
X82755842Y-98918425D01*
X82790724Y-98894000D01*
X82941401Y-98788495D01*
X83108495Y-98621401D01*
X83244035Y-98427830D01*
X83343903Y-98213663D01*
X83405063Y-97985408D01*
X83425659Y-97750000D01*
X83405063Y-97514592D01*
X83358626Y-97341285D01*
X83343905Y-97286344D01*
X83343904Y-97286343D01*
X83343903Y-97286337D01*
X83244035Y-97072171D01*
X83236732Y-97061740D01*
X83108494Y-96878597D01*
X82941402Y-96711506D01*
X82941396Y-96711501D01*
X82755842Y-96581575D01*
X82712217Y-96526998D01*
X82705023Y-96457500D01*
X82734092Y-96400000D01*
X100394540Y-96400000D01*
X100414326Y-96588256D01*
X100414327Y-96588259D01*
X100472818Y-96768277D01*
X100472821Y-96768284D01*
X100567467Y-96932216D01*
X100660749Y-97035816D01*
X100694129Y-97072888D01*
X100847265Y-97184148D01*
X100847270Y-97184151D01*
X101020192Y-97261142D01*
X101020197Y-97261144D01*
X101205354Y-97300500D01*
X101205355Y-97300500D01*
X101394644Y-97300500D01*
X101394646Y-97300500D01*
X101553781Y-97266675D01*
X101623447Y-97271991D01*
X101679181Y-97314128D01*
X101702781Y-97374081D01*
X101714630Y-97479250D01*
X101714631Y-97479254D01*
X101774211Y-97649523D01*
X101857587Y-97782214D01*
X101870184Y-97802262D01*
X101997738Y-97929816D01*
X102150478Y-98025789D01*
X102320745Y-98085368D01*
X102320750Y-98085369D01*
X102499996Y-98105565D01*
X102500000Y-98105565D01*
X102500004Y-98105565D01*
X102679249Y-98085369D01*
X102679252Y-98085368D01*
X102679255Y-98085368D01*
X102849522Y-98025789D01*
X102934027Y-97972691D01*
X103001264Y-97953690D01*
X103065973Y-97972691D01*
X103150475Y-98025788D01*
X103320745Y-98085368D01*
X103320750Y-98085369D01*
X103499996Y-98105565D01*
X103500000Y-98105565D01*
X103500004Y-98105565D01*
X103679249Y-98085369D01*
X103679252Y-98085368D01*
X103679255Y-98085368D01*
X103849522Y-98025789D01*
X103934027Y-97972691D01*
X104001264Y-97953690D01*
X104065973Y-97972691D01*
X104150475Y-98025788D01*
X104320745Y-98085368D01*
X104320750Y-98085369D01*
X104499996Y-98105565D01*
X104500000Y-98105565D01*
X104500004Y-98105565D01*
X104679249Y-98085369D01*
X104679252Y-98085368D01*
X104679255Y-98085368D01*
X104849522Y-98025789D01*
X105002262Y-97929816D01*
X105129816Y-97802262D01*
X105225789Y-97649522D01*
X105285368Y-97479255D01*
X105289987Y-97438259D01*
X105305565Y-97300003D01*
X105305565Y-97299996D01*
X105285369Y-97120750D01*
X105285368Y-97120745D01*
X105268371Y-97072171D01*
X105225789Y-96950478D01*
X105129816Y-96797738D01*
X105002262Y-96670184D01*
X104934027Y-96627309D01*
X104849523Y-96574211D01*
X104679254Y-96514631D01*
X104679249Y-96514630D01*
X104581350Y-96503600D01*
X118374540Y-96503600D01*
X118394326Y-96691856D01*
X118394327Y-96691859D01*
X118452818Y-96871877D01*
X118452821Y-96871884D01*
X118547467Y-97035816D01*
X118580847Y-97072888D01*
X118674129Y-97176488D01*
X118827265Y-97287748D01*
X118827270Y-97287751D01*
X119000192Y-97364742D01*
X119000197Y-97364744D01*
X119185354Y-97404100D01*
X119185355Y-97404100D01*
X119374644Y-97404100D01*
X119374646Y-97404100D01*
X119559803Y-97364744D01*
X119732730Y-97287751D01*
X119885871Y-97176488D01*
X120012533Y-97035816D01*
X120107179Y-96871884D01*
X120165674Y-96691856D01*
X120185460Y-96503600D01*
X120165674Y-96315344D01*
X120107179Y-96135316D01*
X120012533Y-95971384D01*
X119885871Y-95830712D01*
X119885870Y-95830711D01*
X119732734Y-95719451D01*
X119732729Y-95719448D01*
X119559807Y-95642457D01*
X119559802Y-95642455D01*
X119414001Y-95611465D01*
X119374646Y-95603100D01*
X119185354Y-95603100D01*
X119152897Y-95609998D01*
X119000197Y-95642455D01*
X119000192Y-95642457D01*
X118827270Y-95719448D01*
X118827265Y-95719451D01*
X118674129Y-95830711D01*
X118547466Y-95971385D01*
X118452821Y-96135315D01*
X118452818Y-96135322D01*
X118394327Y-96315340D01*
X118394326Y-96315344D01*
X118374540Y-96503600D01*
X104581350Y-96503600D01*
X104500004Y-96494435D01*
X104499996Y-96494435D01*
X104320750Y-96514630D01*
X104320737Y-96514633D01*
X104150479Y-96574209D01*
X104065971Y-96627309D01*
X103998734Y-96646309D01*
X103934029Y-96627309D01*
X103849520Y-96574209D01*
X103679262Y-96514633D01*
X103679249Y-96514630D01*
X103500004Y-96494435D01*
X103499996Y-96494435D01*
X103320750Y-96514630D01*
X103320737Y-96514633D01*
X103150479Y-96574209D01*
X103065971Y-96627309D01*
X102998734Y-96646309D01*
X102934029Y-96627309D01*
X102849520Y-96574209D01*
X102679262Y-96514633D01*
X102679249Y-96514630D01*
X102500004Y-96494435D01*
X102499996Y-96494435D01*
X102342861Y-96512139D01*
X102274039Y-96500084D01*
X102222660Y-96452735D01*
X102205657Y-96401880D01*
X102205459Y-96400002D01*
X102205460Y-96400000D01*
X102185674Y-96211744D01*
X102127179Y-96031716D01*
X102032533Y-95867784D01*
X101905871Y-95727112D01*
X101905870Y-95727111D01*
X101752734Y-95615851D01*
X101752729Y-95615848D01*
X101579807Y-95538857D01*
X101579802Y-95538855D01*
X101434001Y-95507865D01*
X101394646Y-95499500D01*
X101205354Y-95499500D01*
X101172897Y-95506398D01*
X101020197Y-95538855D01*
X101020192Y-95538857D01*
X100847270Y-95615848D01*
X100847265Y-95615851D01*
X100694129Y-95727111D01*
X100567466Y-95867785D01*
X100472821Y-96031715D01*
X100472818Y-96031722D01*
X100439157Y-96135322D01*
X100414326Y-96211744D01*
X100394540Y-96400000D01*
X82734092Y-96400000D01*
X82736546Y-96395145D01*
X82755842Y-96378425D01*
X82845931Y-96315344D01*
X82941401Y-96248495D01*
X83108495Y-96081401D01*
X83244035Y-95887830D01*
X83343903Y-95673663D01*
X83405063Y-95445408D01*
X83425659Y-95210000D01*
X83405063Y-94974592D01*
X83343903Y-94746337D01*
X83244035Y-94532171D01*
X83234312Y-94518284D01*
X83108494Y-94338597D01*
X82941402Y-94171506D01*
X82941396Y-94171501D01*
X82755842Y-94041575D01*
X82744887Y-94027870D01*
X113759500Y-94027870D01*
X113759501Y-94027876D01*
X113765908Y-94087483D01*
X113816202Y-94222328D01*
X113816206Y-94222335D01*
X113902452Y-94337544D01*
X113902455Y-94337547D01*
X114017664Y-94423793D01*
X114017671Y-94423797D01*
X114152517Y-94474091D01*
X114152516Y-94474091D01*
X114159444Y-94474835D01*
X114212127Y-94480500D01*
X118907872Y-94480499D01*
X118967483Y-94474091D01*
X119102331Y-94423796D01*
X119217546Y-94337546D01*
X119303796Y-94222331D01*
X119354091Y-94087483D01*
X119360500Y-94027873D01*
X119360500Y-93450000D01*
X128394540Y-93450000D01*
X128414326Y-93638256D01*
X128414327Y-93638259D01*
X128472818Y-93818277D01*
X128472821Y-93818284D01*
X128567467Y-93982216D01*
X128657063Y-94081722D01*
X128694129Y-94122888D01*
X128847265Y-94234148D01*
X128847270Y-94234151D01*
X129020192Y-94311142D01*
X129020197Y-94311144D01*
X129205354Y-94350500D01*
X129205355Y-94350500D01*
X129394644Y-94350500D01*
X129394646Y-94350500D01*
X129579803Y-94311144D01*
X129752730Y-94234151D01*
X129905871Y-94122888D01*
X130032533Y-93982216D01*
X130127179Y-93818284D01*
X130185674Y-93638256D01*
X130205460Y-93450000D01*
X131194540Y-93450000D01*
X131214326Y-93638256D01*
X131214327Y-93638259D01*
X131272818Y-93818277D01*
X131272821Y-93818284D01*
X131367467Y-93982216D01*
X131457063Y-94081722D01*
X131494129Y-94122888D01*
X131647265Y-94234148D01*
X131647270Y-94234151D01*
X131820192Y-94311142D01*
X131820193Y-94311142D01*
X131820197Y-94311144D01*
X131997757Y-94348885D01*
X132059239Y-94382077D01*
X132093016Y-94443240D01*
X132095298Y-94457213D01*
X132114326Y-94638256D01*
X132114327Y-94638259D01*
X132172818Y-94818277D01*
X132172820Y-94818282D01*
X132172821Y-94818284D01*
X132267467Y-94982216D01*
X132357063Y-95081722D01*
X132394129Y-95122888D01*
X132547265Y-95234148D01*
X132547270Y-95234151D01*
X132720192Y-95311142D01*
X132720197Y-95311144D01*
X132905354Y-95350500D01*
X132905355Y-95350500D01*
X133094644Y-95350500D01*
X133094646Y-95350500D01*
X133279803Y-95311144D01*
X133452730Y-95234151D01*
X133506647Y-95194977D01*
X133572453Y-95171497D01*
X133640507Y-95187322D01*
X133689202Y-95237427D01*
X133703078Y-95305905D01*
X133686921Y-95357293D01*
X133672822Y-95381713D01*
X133672818Y-95381722D01*
X133621762Y-95538857D01*
X133614326Y-95561744D01*
X133594540Y-95750000D01*
X133614326Y-95938256D01*
X133614327Y-95938259D01*
X133672818Y-96118277D01*
X133672821Y-96118284D01*
X133767467Y-96282216D01*
X133875213Y-96401880D01*
X133894129Y-96422888D01*
X134047265Y-96534148D01*
X134047270Y-96534151D01*
X134220192Y-96611142D01*
X134220197Y-96611144D01*
X134405354Y-96650500D01*
X134405355Y-96650500D01*
X134594644Y-96650500D01*
X134594646Y-96650500D01*
X134779803Y-96611144D01*
X134952730Y-96534151D01*
X135105871Y-96422888D01*
X135232533Y-96282216D01*
X135327179Y-96118284D01*
X135385674Y-95938256D01*
X135405460Y-95750000D01*
X135385674Y-95561744D01*
X135327179Y-95381716D01*
X135232533Y-95217784D01*
X135105871Y-95077112D01*
X135105870Y-95077111D01*
X134952734Y-94965851D01*
X134952729Y-94965848D01*
X134779807Y-94888857D01*
X134779802Y-94888855D01*
X134634001Y-94857865D01*
X134594646Y-94849500D01*
X134405354Y-94849500D01*
X134372897Y-94856398D01*
X134220197Y-94888855D01*
X134220192Y-94888857D01*
X134047270Y-94965848D01*
X134047266Y-94965850D01*
X133993350Y-95005023D01*
X133927544Y-95028502D01*
X133859490Y-95012676D01*
X133810796Y-94962570D01*
X133796921Y-94894091D01*
X133813078Y-94842706D01*
X133827179Y-94818284D01*
X133885674Y-94638256D01*
X133905460Y-94450000D01*
X133885674Y-94261744D01*
X133849366Y-94150000D01*
X135194540Y-94150000D01*
X135214326Y-94338256D01*
X135214327Y-94338259D01*
X135272818Y-94518277D01*
X135272821Y-94518284D01*
X135367467Y-94682216D01*
X135452912Y-94777112D01*
X135494129Y-94822888D01*
X135647265Y-94934148D01*
X135647270Y-94934151D01*
X135820192Y-95011142D01*
X135820197Y-95011144D01*
X136005354Y-95050500D01*
X136005355Y-95050500D01*
X136194644Y-95050500D01*
X136194646Y-95050500D01*
X136379803Y-95011144D01*
X136552730Y-94934151D01*
X136705871Y-94822888D01*
X136832533Y-94682216D01*
X136927179Y-94518284D01*
X136985674Y-94338256D01*
X137005460Y-94150000D01*
X136985674Y-93961744D01*
X136949366Y-93850000D01*
X138694540Y-93850000D01*
X138714326Y-94038256D01*
X138714327Y-94038259D01*
X138772818Y-94218277D01*
X138772821Y-94218284D01*
X138867467Y-94382216D01*
X138989977Y-94518277D01*
X138994129Y-94522888D01*
X139081847Y-94586619D01*
X139124513Y-94641949D01*
X139130492Y-94711562D01*
X139098460Y-94772267D01*
X139098477Y-94772282D01*
X139098419Y-94772345D01*
X139097886Y-94773357D01*
X139095053Y-94776083D01*
X138967466Y-94917785D01*
X138872821Y-95081715D01*
X138872818Y-95081722D01*
X138822227Y-95237427D01*
X138814326Y-95261744D01*
X138794540Y-95450000D01*
X138814326Y-95638256D01*
X138814327Y-95638259D01*
X138872818Y-95818277D01*
X138872821Y-95818284D01*
X138967467Y-95982216D01*
X139056774Y-96081401D01*
X139094129Y-96122888D01*
X139247265Y-96234148D01*
X139247267Y-96234149D01*
X139247270Y-96234151D01*
X139253043Y-96236721D01*
X139306280Y-96281972D01*
X139326600Y-96348822D01*
X139307554Y-96416045D01*
X139255187Y-96462300D01*
X139253072Y-96463265D01*
X139250151Y-96464566D01*
X139247267Y-96465850D01*
X139247265Y-96465851D01*
X139094129Y-96577111D01*
X138967466Y-96717785D01*
X138872821Y-96881715D01*
X138872818Y-96881722D01*
X138814327Y-97061740D01*
X138814326Y-97061744D01*
X138794540Y-97250000D01*
X138814326Y-97438256D01*
X138814327Y-97438259D01*
X138872818Y-97618277D01*
X138872821Y-97618284D01*
X138967467Y-97782216D01*
X138985517Y-97802262D01*
X139094129Y-97922888D01*
X139247265Y-98034148D01*
X139247270Y-98034151D01*
X139420192Y-98111142D01*
X139420197Y-98111144D01*
X139605354Y-98150500D01*
X139605355Y-98150500D01*
X139794644Y-98150500D01*
X139794646Y-98150500D01*
X139979803Y-98111144D01*
X140152730Y-98034151D01*
X140305871Y-97922888D01*
X140432533Y-97782216D01*
X140527179Y-97618284D01*
X140585674Y-97438256D01*
X140605460Y-97250000D01*
X140585674Y-97061744D01*
X140527179Y-96881716D01*
X140432533Y-96717784D01*
X140305871Y-96577112D01*
X140305870Y-96577111D01*
X140152734Y-96465851D01*
X140152731Y-96465850D01*
X140152730Y-96465849D01*
X140146957Y-96463279D01*
X140093721Y-96418031D01*
X140073399Y-96351182D01*
X140092443Y-96283958D01*
X140144809Y-96237702D01*
X140146920Y-96236737D01*
X140152730Y-96234151D01*
X140305871Y-96122888D01*
X140432533Y-95982216D01*
X140527179Y-95818284D01*
X140585674Y-95638256D01*
X140589695Y-95600000D01*
X168294540Y-95600000D01*
X168314326Y-95788256D01*
X168314327Y-95788259D01*
X168372818Y-95968277D01*
X168372821Y-95968284D01*
X168467467Y-96132216D01*
X168572168Y-96248498D01*
X168594129Y-96272888D01*
X168747265Y-96384148D01*
X168747270Y-96384151D01*
X168920192Y-96461142D01*
X168920197Y-96461144D01*
X169105354Y-96500500D01*
X169105355Y-96500500D01*
X169294644Y-96500500D01*
X169294646Y-96500500D01*
X169479803Y-96461144D01*
X169652730Y-96384151D01*
X169805871Y-96272888D01*
X169932533Y-96132216D01*
X170027179Y-95968284D01*
X170085674Y-95788256D01*
X170105460Y-95600000D01*
X170085674Y-95411744D01*
X170027179Y-95231716D01*
X169932533Y-95067784D01*
X169805871Y-94927112D01*
X169805870Y-94927111D01*
X169652734Y-94815851D01*
X169652729Y-94815848D01*
X169479807Y-94738857D01*
X169479802Y-94738855D01*
X169334001Y-94707865D01*
X169294646Y-94699500D01*
X169105354Y-94699500D01*
X169072897Y-94706398D01*
X168920197Y-94738855D01*
X168920192Y-94738857D01*
X168747270Y-94815848D01*
X168747265Y-94815851D01*
X168594129Y-94927111D01*
X168467466Y-95067785D01*
X168372821Y-95231715D01*
X168372818Y-95231722D01*
X168314327Y-95411740D01*
X168314326Y-95411744D01*
X168294540Y-95600000D01*
X140589695Y-95600000D01*
X140605460Y-95450000D01*
X140585674Y-95261744D01*
X140527179Y-95081716D01*
X140432533Y-94917784D01*
X140305871Y-94777112D01*
X140218150Y-94713379D01*
X140175486Y-94658050D01*
X140169507Y-94588437D01*
X140201537Y-94527732D01*
X140201522Y-94527718D01*
X140201578Y-94527655D01*
X140202113Y-94526642D01*
X140204948Y-94523912D01*
X140205868Y-94522890D01*
X140205871Y-94522888D01*
X140332533Y-94382216D01*
X140427179Y-94218284D01*
X140459114Y-94120000D01*
X174354540Y-94120000D01*
X174374326Y-94308256D01*
X174374327Y-94308259D01*
X174432818Y-94488277D01*
X174432821Y-94488284D01*
X174527467Y-94652216D01*
X174635562Y-94772267D01*
X174654129Y-94792888D01*
X174807265Y-94904148D01*
X174807270Y-94904151D01*
X174980192Y-94981142D01*
X174980197Y-94981144D01*
X175165354Y-95020500D01*
X175165355Y-95020500D01*
X175354644Y-95020500D01*
X175354646Y-95020500D01*
X175539803Y-94981144D01*
X175712730Y-94904151D01*
X175865871Y-94792888D01*
X175992533Y-94652216D01*
X176058014Y-94538800D01*
X178439906Y-94538800D01*
X178458215Y-94689591D01*
X178512079Y-94831619D01*
X178598368Y-94956630D01*
X178712066Y-95057357D01*
X178846566Y-95127948D01*
X178920308Y-95146124D01*
X178994050Y-95164300D01*
X178994051Y-95164300D01*
X179145950Y-95164300D01*
X179195110Y-95152182D01*
X179293434Y-95127948D01*
X179427934Y-95057357D01*
X179541632Y-94956630D01*
X179627921Y-94831619D01*
X179681785Y-94689591D01*
X179700094Y-94538800D01*
X179681785Y-94388009D01*
X179627921Y-94245981D01*
X179580608Y-94177437D01*
X179558727Y-94111086D01*
X179576192Y-94043435D01*
X179580594Y-94036583D01*
X179627921Y-93968019D01*
X179681785Y-93825991D01*
X179700094Y-93675200D01*
X179681785Y-93524409D01*
X179627921Y-93382381D01*
X179541632Y-93257370D01*
X179427934Y-93156643D01*
X179293434Y-93086052D01*
X179293433Y-93086051D01*
X179293432Y-93086051D01*
X179145950Y-93049700D01*
X179145949Y-93049700D01*
X178994051Y-93049700D01*
X178994050Y-93049700D01*
X178846567Y-93086051D01*
X178712067Y-93156642D01*
X178712066Y-93156643D01*
X178607252Y-93249500D01*
X178598367Y-93257371D01*
X178512080Y-93382379D01*
X178512079Y-93382380D01*
X178458215Y-93524408D01*
X178456152Y-93541401D01*
X178439906Y-93675200D01*
X178458215Y-93825991D01*
X178512079Y-93968019D01*
X178525179Y-93986998D01*
X178559389Y-94036560D01*
X178581272Y-94102915D01*
X178563806Y-94170566D01*
X178559389Y-94177440D01*
X178512080Y-94245979D01*
X178512079Y-94245980D01*
X178460413Y-94382214D01*
X178458215Y-94388009D01*
X178439906Y-94538800D01*
X176058014Y-94538800D01*
X176087179Y-94488284D01*
X176145674Y-94308256D01*
X176165460Y-94120000D01*
X176145674Y-93931744D01*
X176087179Y-93751716D01*
X175992533Y-93587784D01*
X175865871Y-93447112D01*
X175865870Y-93447111D01*
X175712734Y-93335851D01*
X175712729Y-93335848D01*
X175539807Y-93258857D01*
X175539802Y-93258855D01*
X175394001Y-93227865D01*
X175354646Y-93219500D01*
X175165354Y-93219500D01*
X175132897Y-93226398D01*
X174980197Y-93258855D01*
X174980192Y-93258857D01*
X174807270Y-93335848D01*
X174807265Y-93335851D01*
X174654129Y-93447111D01*
X174527466Y-93587785D01*
X174432821Y-93751715D01*
X174432818Y-93751722D01*
X174374327Y-93931740D01*
X174374326Y-93931744D01*
X174354540Y-94120000D01*
X140459114Y-94120000D01*
X140485674Y-94038256D01*
X140505460Y-93850000D01*
X140485674Y-93661744D01*
X140427179Y-93481716D01*
X140332533Y-93317784D01*
X140205871Y-93177112D01*
X140177698Y-93156643D01*
X140052734Y-93065851D01*
X140052729Y-93065848D01*
X139879807Y-92988857D01*
X139879802Y-92988855D01*
X139734001Y-92957865D01*
X139694646Y-92949500D01*
X139505354Y-92949500D01*
X139472897Y-92956398D01*
X139320197Y-92988855D01*
X139320192Y-92988857D01*
X139147270Y-93065848D01*
X139147265Y-93065851D01*
X138994129Y-93177111D01*
X138867466Y-93317785D01*
X138772821Y-93481715D01*
X138772818Y-93481722D01*
X138714327Y-93661740D01*
X138714326Y-93661744D01*
X138694540Y-93850000D01*
X136949366Y-93850000D01*
X136927179Y-93781716D01*
X136832533Y-93617784D01*
X136705871Y-93477112D01*
X136705870Y-93477111D01*
X136552734Y-93365851D01*
X136552729Y-93365848D01*
X136379807Y-93288857D01*
X136379802Y-93288855D01*
X136231672Y-93257370D01*
X136194646Y-93249500D01*
X136005354Y-93249500D01*
X135972897Y-93256398D01*
X135820197Y-93288855D01*
X135820192Y-93288857D01*
X135647270Y-93365848D01*
X135647265Y-93365851D01*
X135494129Y-93477111D01*
X135367466Y-93617785D01*
X135272821Y-93781715D01*
X135272818Y-93781722D01*
X135221391Y-93940000D01*
X135214326Y-93961744D01*
X135194540Y-94150000D01*
X133849366Y-94150000D01*
X133829053Y-94087483D01*
X133827181Y-94081722D01*
X133827180Y-94081721D01*
X133827179Y-94081716D01*
X133732533Y-93917784D01*
X133605871Y-93777112D01*
X133583893Y-93761144D01*
X133452734Y-93665851D01*
X133452729Y-93665848D01*
X133279807Y-93588857D01*
X133279802Y-93588855D01*
X133102241Y-93551114D01*
X133040759Y-93517922D01*
X133006983Y-93456759D01*
X133004702Y-93442796D01*
X132985674Y-93261744D01*
X132927179Y-93081716D01*
X132832533Y-92917784D01*
X132705871Y-92777112D01*
X132666490Y-92748500D01*
X132552734Y-92665851D01*
X132552729Y-92665848D01*
X132379807Y-92588857D01*
X132379802Y-92588855D01*
X132234001Y-92557865D01*
X132194646Y-92549500D01*
X132005354Y-92549500D01*
X131972897Y-92556398D01*
X131820197Y-92588855D01*
X131820192Y-92588857D01*
X131647270Y-92665848D01*
X131647265Y-92665851D01*
X131494129Y-92777111D01*
X131367466Y-92917785D01*
X131272821Y-93081715D01*
X131272818Y-93081722D01*
X131215264Y-93258856D01*
X131214326Y-93261744D01*
X131194540Y-93450000D01*
X130205460Y-93450000D01*
X130185674Y-93261744D01*
X130127179Y-93081716D01*
X130032533Y-92917784D01*
X129905871Y-92777112D01*
X129866490Y-92748500D01*
X129752734Y-92665851D01*
X129752729Y-92665848D01*
X129579807Y-92588857D01*
X129579802Y-92588855D01*
X129434001Y-92557865D01*
X129394646Y-92549500D01*
X129205354Y-92549500D01*
X129172897Y-92556398D01*
X129020197Y-92588855D01*
X129020192Y-92588857D01*
X128847270Y-92665848D01*
X128847265Y-92665851D01*
X128694129Y-92777111D01*
X128567466Y-92917785D01*
X128472821Y-93081715D01*
X128472818Y-93081722D01*
X128415264Y-93258856D01*
X128414326Y-93261744D01*
X128394540Y-93450000D01*
X119360500Y-93450000D01*
X119360499Y-91932128D01*
X119354091Y-91872517D01*
X119336368Y-91825000D01*
X135294540Y-91825000D01*
X135314326Y-92013256D01*
X135314327Y-92013259D01*
X135372818Y-92193277D01*
X135372821Y-92193284D01*
X135467467Y-92357216D01*
X135542433Y-92440474D01*
X135594129Y-92497888D01*
X135747265Y-92609148D01*
X135747270Y-92609151D01*
X135920192Y-92686142D01*
X135920197Y-92686144D01*
X136105354Y-92725500D01*
X136105355Y-92725500D01*
X136294644Y-92725500D01*
X136294646Y-92725500D01*
X136479803Y-92686144D01*
X136652730Y-92609151D01*
X136805871Y-92497888D01*
X136932533Y-92357216D01*
X137027179Y-92193284D01*
X137085674Y-92013256D01*
X137088871Y-91982836D01*
X137115454Y-91918224D01*
X137172751Y-91878238D01*
X137242570Y-91875578D01*
X137302744Y-91911087D01*
X137334168Y-91973491D01*
X137335510Y-91982826D01*
X137341126Y-92036256D01*
X137341127Y-92036259D01*
X137399618Y-92216277D01*
X137399621Y-92216284D01*
X137494267Y-92380216D01*
X137548524Y-92440474D01*
X137620929Y-92520888D01*
X137774065Y-92632148D01*
X137774070Y-92632151D01*
X137946992Y-92709142D01*
X137946997Y-92709144D01*
X138132154Y-92748500D01*
X138132155Y-92748500D01*
X138321444Y-92748500D01*
X138321446Y-92748500D01*
X138506603Y-92709144D01*
X138679530Y-92632151D01*
X138832671Y-92520888D01*
X138959333Y-92380216D01*
X139053979Y-92216284D01*
X139112474Y-92036256D01*
X139132260Y-91848000D01*
X139112474Y-91659744D01*
X139053979Y-91479716D01*
X138959333Y-91315784D01*
X138832671Y-91175112D01*
X138823273Y-91168284D01*
X138679534Y-91063851D01*
X138679529Y-91063848D01*
X138506607Y-90986857D01*
X138506602Y-90986855D01*
X138360801Y-90955865D01*
X138321446Y-90947500D01*
X138132154Y-90947500D01*
X138099697Y-90954398D01*
X137946997Y-90986855D01*
X137946992Y-90986857D01*
X137774070Y-91063848D01*
X137774065Y-91063851D01*
X137620929Y-91175111D01*
X137494266Y-91315785D01*
X137399621Y-91479715D01*
X137399618Y-91479722D01*
X137341126Y-91659742D01*
X137341125Y-91659746D01*
X137337928Y-91690164D01*
X137311343Y-91754778D01*
X137254045Y-91794762D01*
X137184226Y-91797420D01*
X137124053Y-91761910D01*
X137092631Y-91699504D01*
X137091291Y-91690188D01*
X137085674Y-91636744D01*
X137068585Y-91584151D01*
X137027181Y-91456722D01*
X137027180Y-91456721D01*
X137027179Y-91456716D01*
X136932533Y-91292784D01*
X136805871Y-91152112D01*
X136734145Y-91100000D01*
X136652734Y-91040851D01*
X136652729Y-91040848D01*
X136479807Y-90963857D01*
X136479802Y-90963855D01*
X136334001Y-90932865D01*
X136294646Y-90924500D01*
X136105354Y-90924500D01*
X136072897Y-90931398D01*
X135920197Y-90963855D01*
X135920192Y-90963857D01*
X135747270Y-91040848D01*
X135747265Y-91040851D01*
X135594129Y-91152111D01*
X135467466Y-91292785D01*
X135372821Y-91456715D01*
X135372818Y-91456722D01*
X135316028Y-91631505D01*
X135314326Y-91636744D01*
X135294540Y-91825000D01*
X119336368Y-91825000D01*
X119303797Y-91737671D01*
X119303793Y-91737664D01*
X119217547Y-91622455D01*
X119217544Y-91622452D01*
X119102335Y-91536206D01*
X119102328Y-91536202D01*
X118967482Y-91485908D01*
X118967483Y-91485908D01*
X118907883Y-91479501D01*
X118907881Y-91479500D01*
X118907873Y-91479500D01*
X118907864Y-91479500D01*
X114212129Y-91479500D01*
X114212123Y-91479501D01*
X114152516Y-91485908D01*
X114017671Y-91536202D01*
X114017664Y-91536206D01*
X113902455Y-91622452D01*
X113902452Y-91622455D01*
X113816206Y-91737664D01*
X113816202Y-91737671D01*
X113765908Y-91872517D01*
X113759501Y-91932116D01*
X113759501Y-91932123D01*
X113759500Y-91932135D01*
X113759500Y-94027870D01*
X82744887Y-94027870D01*
X82712217Y-93986998D01*
X82705023Y-93917500D01*
X82736546Y-93855145D01*
X82755842Y-93838425D01*
X82836822Y-93781722D01*
X82941401Y-93708495D01*
X83108495Y-93541401D01*
X83244035Y-93347830D01*
X83343903Y-93133663D01*
X83405063Y-92905408D01*
X83405536Y-92900000D01*
X106494540Y-92900000D01*
X106514326Y-93088256D01*
X106514327Y-93088259D01*
X106572818Y-93268277D01*
X106572821Y-93268284D01*
X106667467Y-93432216D01*
X106765778Y-93541401D01*
X106794129Y-93572888D01*
X106947265Y-93684148D01*
X106947270Y-93684151D01*
X107120192Y-93761142D01*
X107120197Y-93761144D01*
X107305354Y-93800500D01*
X107305355Y-93800500D01*
X107494644Y-93800500D01*
X107494646Y-93800500D01*
X107679803Y-93761144D01*
X107852730Y-93684151D01*
X108005871Y-93572888D01*
X108132533Y-93432216D01*
X108227179Y-93268284D01*
X108285674Y-93088256D01*
X108305460Y-92900000D01*
X108285674Y-92711744D01*
X108227179Y-92531716D01*
X108132533Y-92367784D01*
X108005871Y-92227112D01*
X108005870Y-92227111D01*
X107852734Y-92115851D01*
X107852729Y-92115848D01*
X107679807Y-92038857D01*
X107679802Y-92038855D01*
X107534001Y-92007865D01*
X107494646Y-91999500D01*
X107305354Y-91999500D01*
X107272897Y-92006398D01*
X107120197Y-92038855D01*
X107120192Y-92038857D01*
X106947270Y-92115848D01*
X106947265Y-92115851D01*
X106794129Y-92227111D01*
X106667466Y-92367785D01*
X106572821Y-92531715D01*
X106572818Y-92531722D01*
X106514327Y-92711740D01*
X106514326Y-92711744D01*
X106494540Y-92900000D01*
X83405536Y-92900000D01*
X83425659Y-92670000D01*
X83405063Y-92434592D01*
X83343903Y-92206337D01*
X83244035Y-91992171D01*
X83237500Y-91982837D01*
X83108494Y-91798597D01*
X82941402Y-91631506D01*
X82941401Y-91631505D01*
X82755405Y-91501269D01*
X82711781Y-91446692D01*
X82704588Y-91377193D01*
X82736110Y-91314839D01*
X82755405Y-91298119D01*
X82835457Y-91242065D01*
X110259500Y-91242065D01*
X110274890Y-91427813D01*
X110274892Y-91427824D01*
X110335936Y-91668881D01*
X110435826Y-91896606D01*
X110571833Y-92104782D01*
X110571836Y-92104785D01*
X110740256Y-92287738D01*
X110936491Y-92440474D01*
X110936493Y-92440475D01*
X111105102Y-92531722D01*
X111155190Y-92558828D01*
X111390386Y-92639571D01*
X111635665Y-92680500D01*
X111884335Y-92680500D01*
X112129614Y-92639571D01*
X112364810Y-92558828D01*
X112583509Y-92440474D01*
X112779744Y-92287738D01*
X112948164Y-92104785D01*
X113084173Y-91896607D01*
X113184063Y-91668881D01*
X113245108Y-91427821D01*
X113245575Y-91422195D01*
X113260500Y-91242065D01*
X113260500Y-89700000D01*
X147044540Y-89700000D01*
X147064326Y-89888256D01*
X147064327Y-89888259D01*
X147122818Y-90068277D01*
X147122821Y-90068284D01*
X147217467Y-90232216D01*
X147307063Y-90331722D01*
X147344129Y-90372888D01*
X147497265Y-90484148D01*
X147497270Y-90484151D01*
X147670192Y-90561142D01*
X147670197Y-90561144D01*
X147855354Y-90600500D01*
X147855355Y-90600500D01*
X148044644Y-90600500D01*
X148044646Y-90600500D01*
X148229803Y-90561144D01*
X148402730Y-90484151D01*
X148555871Y-90372888D01*
X148682533Y-90232216D01*
X148777179Y-90068284D01*
X148835674Y-89888256D01*
X148855460Y-89700000D01*
X149194540Y-89700000D01*
X149214326Y-89888256D01*
X149214327Y-89888259D01*
X149272818Y-90068277D01*
X149272821Y-90068284D01*
X149367467Y-90232216D01*
X149457063Y-90331722D01*
X149494129Y-90372888D01*
X149647265Y-90484148D01*
X149647270Y-90484151D01*
X149820192Y-90561142D01*
X149820197Y-90561144D01*
X150005354Y-90600500D01*
X150005355Y-90600500D01*
X150194644Y-90600500D01*
X150194646Y-90600500D01*
X150379803Y-90561144D01*
X150552730Y-90484151D01*
X150705871Y-90372888D01*
X150832533Y-90232216D01*
X150927179Y-90068284D01*
X150985674Y-89888256D01*
X150994950Y-89800000D01*
X151394540Y-89800000D01*
X151414326Y-89988256D01*
X151414327Y-89988259D01*
X151472818Y-90168277D01*
X151472821Y-90168284D01*
X151567467Y-90332216D01*
X151693636Y-90472340D01*
X151694129Y-90472888D01*
X151847265Y-90584148D01*
X151847270Y-90584151D01*
X152020192Y-90661142D01*
X152020197Y-90661144D01*
X152205354Y-90700500D01*
X152205355Y-90700500D01*
X152394644Y-90700500D01*
X152394646Y-90700500D01*
X152579803Y-90661144D01*
X152752730Y-90584151D01*
X152826523Y-90530536D01*
X152892329Y-90507056D01*
X152960383Y-90522881D01*
X152972296Y-90530537D01*
X152977269Y-90534150D01*
X152977270Y-90534151D01*
X153150192Y-90611142D01*
X153150197Y-90611144D01*
X153335354Y-90650500D01*
X153335355Y-90650500D01*
X153524644Y-90650500D01*
X153524646Y-90650500D01*
X153709803Y-90611144D01*
X153882730Y-90534151D01*
X154035871Y-90422888D01*
X154162533Y-90282216D01*
X154257179Y-90118284D01*
X154315674Y-89938256D01*
X154335460Y-89750000D01*
X154315674Y-89561744D01*
X154257179Y-89381716D01*
X154162533Y-89217784D01*
X154035871Y-89077112D01*
X154029409Y-89072417D01*
X153882734Y-88965851D01*
X153882729Y-88965848D01*
X153709807Y-88888857D01*
X153709802Y-88888855D01*
X153564001Y-88857865D01*
X153524646Y-88849500D01*
X153335354Y-88849500D01*
X153302897Y-88856398D01*
X153150197Y-88888855D01*
X153150192Y-88888857D01*
X152977270Y-88965848D01*
X152977268Y-88965850D01*
X152903472Y-89019464D01*
X152837666Y-89042942D01*
X152769612Y-89027115D01*
X152757705Y-89019463D01*
X152752733Y-89015851D01*
X152752729Y-89015848D01*
X152579807Y-88938857D01*
X152579802Y-88938855D01*
X152434001Y-88907865D01*
X152394646Y-88899500D01*
X152205354Y-88899500D01*
X152172897Y-88906398D01*
X152020197Y-88938855D01*
X152020192Y-88938857D01*
X151847270Y-89015848D01*
X151847265Y-89015851D01*
X151694129Y-89127111D01*
X151567466Y-89267785D01*
X151472821Y-89431715D01*
X151472818Y-89431722D01*
X151445500Y-89515800D01*
X151414326Y-89611744D01*
X151394540Y-89800000D01*
X150994950Y-89800000D01*
X151005460Y-89700000D01*
X150985674Y-89511744D01*
X150927179Y-89331716D01*
X150832533Y-89167784D01*
X150705871Y-89027112D01*
X150705870Y-89027111D01*
X150552734Y-88915851D01*
X150552729Y-88915848D01*
X150379807Y-88838857D01*
X150379802Y-88838855D01*
X150209150Y-88802583D01*
X150194646Y-88799500D01*
X150005354Y-88799500D01*
X149990850Y-88802583D01*
X149820197Y-88838855D01*
X149820192Y-88838857D01*
X149647270Y-88915848D01*
X149647265Y-88915851D01*
X149494129Y-89027111D01*
X149367466Y-89167785D01*
X149272821Y-89331715D01*
X149272818Y-89331722D01*
X149218142Y-89500000D01*
X149214326Y-89511744D01*
X149194540Y-89700000D01*
X148855460Y-89700000D01*
X148835674Y-89511744D01*
X148777179Y-89331716D01*
X148682533Y-89167784D01*
X148555871Y-89027112D01*
X148555870Y-89027111D01*
X148402734Y-88915851D01*
X148402729Y-88915848D01*
X148229807Y-88838857D01*
X148229802Y-88838855D01*
X148059150Y-88802583D01*
X148044646Y-88799500D01*
X147855354Y-88799500D01*
X147840850Y-88802583D01*
X147670197Y-88838855D01*
X147670192Y-88838857D01*
X147497270Y-88915848D01*
X147497265Y-88915851D01*
X147344129Y-89027111D01*
X147217466Y-89167785D01*
X147122821Y-89331715D01*
X147122818Y-89331722D01*
X147068142Y-89500000D01*
X147064326Y-89511744D01*
X147044540Y-89700000D01*
X113260500Y-89700000D01*
X113260500Y-88917935D01*
X113258972Y-88899500D01*
X113256145Y-88865376D01*
X113245109Y-88732186D01*
X113245107Y-88732175D01*
X113186312Y-88500000D01*
X158994540Y-88500000D01*
X159014326Y-88688256D01*
X159014327Y-88688259D01*
X159072818Y-88868277D01*
X159072821Y-88868284D01*
X159167467Y-89032216D01*
X159257063Y-89131722D01*
X159294129Y-89172888D01*
X159447265Y-89284148D01*
X159447270Y-89284151D01*
X159620192Y-89361142D01*
X159620197Y-89361144D01*
X159805354Y-89400500D01*
X159805355Y-89400500D01*
X159994644Y-89400500D01*
X159994646Y-89400500D01*
X160179803Y-89361144D01*
X160235212Y-89336473D01*
X160304461Y-89327188D01*
X160367738Y-89356816D01*
X160404952Y-89415951D01*
X160408968Y-89462713D01*
X160394540Y-89600000D01*
X160414326Y-89788256D01*
X160414327Y-89788259D01*
X160472818Y-89968277D01*
X160472821Y-89968284D01*
X160567467Y-90132216D01*
X160628214Y-90199682D01*
X160694129Y-90272888D01*
X160847265Y-90384148D01*
X160847270Y-90384151D01*
X161020192Y-90461142D01*
X161020197Y-90461144D01*
X161205354Y-90500500D01*
X161205355Y-90500500D01*
X161377792Y-90500500D01*
X161444831Y-90520185D01*
X161490586Y-90572989D01*
X161501112Y-90637460D01*
X161494540Y-90700000D01*
X161514326Y-90888256D01*
X161514327Y-90888259D01*
X161572818Y-91068277D01*
X161572821Y-91068284D01*
X161667467Y-91232216D01*
X161742713Y-91315785D01*
X161794129Y-91372888D01*
X161947265Y-91484148D01*
X161947270Y-91484151D01*
X162120192Y-91561142D01*
X162120197Y-91561144D01*
X162305354Y-91600500D01*
X162305355Y-91600500D01*
X162494644Y-91600500D01*
X162494646Y-91600500D01*
X162679803Y-91561144D01*
X162852730Y-91484151D01*
X163005871Y-91372888D01*
X163132533Y-91232216D01*
X163227179Y-91068284D01*
X163285674Y-90888256D01*
X163294950Y-90800000D01*
X167994540Y-90800000D01*
X168014326Y-90988256D01*
X168014327Y-90988259D01*
X168072818Y-91168277D01*
X168072821Y-91168284D01*
X168167467Y-91332216D01*
X168253553Y-91427824D01*
X168294129Y-91472888D01*
X168447265Y-91584148D01*
X168447270Y-91584151D01*
X168620192Y-91661142D01*
X168620197Y-91661144D01*
X168805354Y-91700500D01*
X168805355Y-91700500D01*
X168994644Y-91700500D01*
X168994646Y-91700500D01*
X169179803Y-91661144D01*
X169352730Y-91584151D01*
X169505871Y-91472888D01*
X169632533Y-91332216D01*
X169727179Y-91168284D01*
X169785674Y-90988256D01*
X169805460Y-90800000D01*
X169788376Y-90637458D01*
X169800945Y-90568732D01*
X169848677Y-90517708D01*
X169911697Y-90500500D01*
X170094644Y-90500500D01*
X170094646Y-90500500D01*
X170279803Y-90461144D01*
X170452730Y-90384151D01*
X170605871Y-90272888D01*
X170732533Y-90132216D01*
X170827179Y-89968284D01*
X170885674Y-89788256D01*
X170905460Y-89600000D01*
X170885674Y-89411744D01*
X170827179Y-89231716D01*
X170732533Y-89067784D01*
X170605871Y-88927112D01*
X170605870Y-88927111D01*
X170452734Y-88815851D01*
X170452729Y-88815848D01*
X170279807Y-88738857D01*
X170279802Y-88738855D01*
X170134001Y-88707865D01*
X170094646Y-88699500D01*
X169905354Y-88699500D01*
X169872897Y-88706398D01*
X169720197Y-88738855D01*
X169720192Y-88738857D01*
X169547270Y-88815848D01*
X169547265Y-88815851D01*
X169394129Y-88927111D01*
X169267466Y-89067785D01*
X169172821Y-89231715D01*
X169172818Y-89231722D01*
X169117979Y-89400500D01*
X169114326Y-89411744D01*
X169094540Y-89600000D01*
X169111623Y-89762541D01*
X169099055Y-89831268D01*
X169051323Y-89882292D01*
X168988303Y-89899500D01*
X168805354Y-89899500D01*
X168772897Y-89906398D01*
X168620197Y-89938855D01*
X168620192Y-89938857D01*
X168447270Y-90015848D01*
X168447265Y-90015851D01*
X168294129Y-90127111D01*
X168167466Y-90267785D01*
X168072821Y-90431715D01*
X168072818Y-90431722D01*
X168014521Y-90611144D01*
X168014326Y-90611744D01*
X167994540Y-90800000D01*
X163294950Y-90800000D01*
X163305460Y-90700000D01*
X163285674Y-90511744D01*
X163229820Y-90339844D01*
X163227181Y-90331722D01*
X163227180Y-90331721D01*
X163227179Y-90331716D01*
X163132533Y-90167784D01*
X163005871Y-90027112D01*
X162990369Y-90015849D01*
X162852734Y-89915851D01*
X162852729Y-89915848D01*
X162679807Y-89838857D01*
X162679802Y-89838855D01*
X162534001Y-89807865D01*
X162494646Y-89799500D01*
X162322208Y-89799500D01*
X162255169Y-89779815D01*
X162209414Y-89727011D01*
X162198887Y-89662539D01*
X162205460Y-89600000D01*
X162185674Y-89411744D01*
X162127179Y-89231716D01*
X162032533Y-89067784D01*
X161905871Y-88927112D01*
X161905870Y-88927111D01*
X161752734Y-88815851D01*
X161752729Y-88815848D01*
X161579807Y-88738857D01*
X161579802Y-88738855D01*
X161434001Y-88707865D01*
X161394646Y-88699500D01*
X161205354Y-88699500D01*
X161172897Y-88706398D01*
X161020197Y-88738855D01*
X161020196Y-88738855D01*
X160964786Y-88763526D01*
X160895536Y-88772810D01*
X160832259Y-88743181D01*
X160795046Y-88684046D01*
X160791030Y-88637290D01*
X160805460Y-88500000D01*
X160785674Y-88311744D01*
X160766002Y-88251199D01*
X172245739Y-88251199D01*
X172265525Y-88439455D01*
X172265526Y-88439458D01*
X172324017Y-88619476D01*
X172324020Y-88619483D01*
X172418666Y-88783415D01*
X172509047Y-88883793D01*
X172545328Y-88924087D01*
X172698464Y-89035347D01*
X172698469Y-89035350D01*
X172871391Y-89112341D01*
X172871396Y-89112343D01*
X173056553Y-89151699D01*
X173056554Y-89151699D01*
X173245843Y-89151699D01*
X173245845Y-89151699D01*
X173431002Y-89112343D01*
X173603929Y-89035350D01*
X173690991Y-88972095D01*
X173756796Y-88948615D01*
X173824850Y-88964440D01*
X173873545Y-89014545D01*
X173887421Y-89083023D01*
X173874164Y-89125208D01*
X173875462Y-89125786D01*
X173872818Y-89131722D01*
X173814327Y-89311740D01*
X173814326Y-89311744D01*
X173794540Y-89500000D01*
X173814326Y-89688256D01*
X173814327Y-89688259D01*
X173872818Y-89868277D01*
X173872821Y-89868284D01*
X173967467Y-90032216D01*
X173999937Y-90068277D01*
X174089983Y-90168284D01*
X174094129Y-90172888D01*
X174107147Y-90182346D01*
X174131008Y-90199682D01*
X174173673Y-90255013D01*
X174179652Y-90324626D01*
X174147046Y-90386421D01*
X174131008Y-90400318D01*
X174094127Y-90427113D01*
X173967466Y-90567785D01*
X173872821Y-90731715D01*
X173872818Y-90731722D01*
X173814327Y-90911740D01*
X173814326Y-90911744D01*
X173794540Y-91100000D01*
X173814326Y-91288256D01*
X173814327Y-91288259D01*
X173872818Y-91468277D01*
X173872821Y-91468284D01*
X173967467Y-91632216D01*
X174077823Y-91754778D01*
X174094129Y-91772888D01*
X174247265Y-91884148D01*
X174247270Y-91884151D01*
X174420192Y-91961142D01*
X174420197Y-91961144D01*
X174605354Y-92000500D01*
X174605355Y-92000500D01*
X174794644Y-92000500D01*
X174794646Y-92000500D01*
X174979803Y-91961144D01*
X175152730Y-91884151D01*
X175305871Y-91772888D01*
X175432533Y-91632216D01*
X175527179Y-91468284D01*
X175585674Y-91288256D01*
X175605460Y-91100000D01*
X175585674Y-90911744D01*
X175527179Y-90731716D01*
X175432533Y-90567784D01*
X175305871Y-90427112D01*
X175268991Y-90400317D01*
X175226326Y-90344989D01*
X175220347Y-90275375D01*
X175252952Y-90213580D01*
X175268992Y-90199682D01*
X175277322Y-90193630D01*
X175305871Y-90172888D01*
X175432533Y-90032216D01*
X175527179Y-89868284D01*
X175585674Y-89688256D01*
X175605460Y-89500000D01*
X175585674Y-89311744D01*
X175527179Y-89131716D01*
X175432533Y-88967784D01*
X175305871Y-88827112D01*
X175290369Y-88815849D01*
X175152734Y-88715851D01*
X175152729Y-88715848D01*
X174979807Y-88638857D01*
X174979802Y-88638855D01*
X174834001Y-88607865D01*
X174794646Y-88599500D01*
X174605354Y-88599500D01*
X174572897Y-88606398D01*
X174420197Y-88638855D01*
X174420192Y-88638857D01*
X174247270Y-88715848D01*
X174247265Y-88715851D01*
X174160207Y-88779103D01*
X174094401Y-88802583D01*
X174026347Y-88786757D01*
X173977652Y-88736651D01*
X173963777Y-88668173D01*
X173977041Y-88625994D01*
X173975737Y-88625413D01*
X173978373Y-88619491D01*
X173978378Y-88619483D01*
X174036873Y-88439455D01*
X174056659Y-88251199D01*
X174036873Y-88062943D01*
X173978378Y-87882915D01*
X173883732Y-87718983D01*
X173757070Y-87578311D01*
X173757069Y-87578310D01*
X173603933Y-87467050D01*
X173603928Y-87467047D01*
X173431006Y-87390056D01*
X173431001Y-87390054D01*
X173285200Y-87359064D01*
X173245845Y-87350699D01*
X173056553Y-87350699D01*
X173024096Y-87357597D01*
X172871396Y-87390054D01*
X172871391Y-87390056D01*
X172698469Y-87467047D01*
X172698464Y-87467050D01*
X172545328Y-87578310D01*
X172418665Y-87718984D01*
X172324020Y-87882914D01*
X172324017Y-87882921D01*
X172268036Y-88055215D01*
X172265525Y-88062943D01*
X172245739Y-88251199D01*
X160766002Y-88251199D01*
X160727179Y-88131716D01*
X160632533Y-87967784D01*
X160505871Y-87827112D01*
X160505870Y-87827111D01*
X160352734Y-87715851D01*
X160352729Y-87715848D01*
X160179807Y-87638857D01*
X160179802Y-87638855D01*
X160034001Y-87607865D01*
X159994646Y-87599500D01*
X159805354Y-87599500D01*
X159772897Y-87606398D01*
X159620197Y-87638855D01*
X159620192Y-87638857D01*
X159447270Y-87715848D01*
X159447265Y-87715851D01*
X159294129Y-87827111D01*
X159167466Y-87967785D01*
X159072821Y-88131715D01*
X159072818Y-88131722D01*
X159014327Y-88311740D01*
X159014326Y-88311744D01*
X158994540Y-88500000D01*
X113186312Y-88500000D01*
X113184063Y-88491118D01*
X113084173Y-88263393D01*
X112948166Y-88055217D01*
X112926557Y-88031744D01*
X112779744Y-87872262D01*
X112583509Y-87719526D01*
X112583507Y-87719525D01*
X112583506Y-87719524D01*
X112364811Y-87601172D01*
X112364802Y-87601169D01*
X112129616Y-87520429D01*
X111884335Y-87479500D01*
X111635665Y-87479500D01*
X111390383Y-87520429D01*
X111155197Y-87601169D01*
X111155188Y-87601172D01*
X110936493Y-87719524D01*
X110740257Y-87872261D01*
X110571833Y-88055217D01*
X110435826Y-88263393D01*
X110335936Y-88491118D01*
X110274892Y-88732175D01*
X110274890Y-88732186D01*
X110259500Y-88917935D01*
X110259500Y-91242065D01*
X82835457Y-91242065D01*
X82941082Y-91168105D01*
X83108105Y-91001082D01*
X83243600Y-90807578D01*
X83343429Y-90593492D01*
X83343432Y-90593486D01*
X83391621Y-90413644D01*
X92187800Y-90413644D01*
X92194201Y-90473172D01*
X92194203Y-90473179D01*
X92244445Y-90607886D01*
X92244449Y-90607893D01*
X92330609Y-90722987D01*
X92330612Y-90722990D01*
X92445706Y-90809150D01*
X92445713Y-90809154D01*
X92580420Y-90859396D01*
X92580427Y-90859398D01*
X92639955Y-90865799D01*
X92639972Y-90865800D01*
X93287800Y-90865800D01*
X93287800Y-89951301D01*
X93395485Y-90000480D01*
X93502037Y-90015800D01*
X93573563Y-90015800D01*
X93680115Y-90000480D01*
X93787800Y-89951301D01*
X93787800Y-90865800D01*
X94435628Y-90865800D01*
X94435644Y-90865799D01*
X94495172Y-90859398D01*
X94495179Y-90859396D01*
X94629886Y-90809154D01*
X94629893Y-90809150D01*
X94744987Y-90722990D01*
X94744990Y-90722987D01*
X94831150Y-90607893D01*
X94831154Y-90607886D01*
X94880222Y-90476329D01*
X94922093Y-90420395D01*
X94987557Y-90395978D01*
X95055830Y-90410830D01*
X95084085Y-90431981D01*
X95206399Y-90554295D01*
X95262378Y-90593492D01*
X95399965Y-90689832D01*
X95399967Y-90689833D01*
X95399970Y-90689835D01*
X95614137Y-90789703D01*
X95842392Y-90850863D01*
X96013119Y-90865800D01*
X96077799Y-90871459D01*
X96077800Y-90871459D01*
X96077801Y-90871459D01*
X96142481Y-90865800D01*
X96313208Y-90850863D01*
X96541463Y-90789703D01*
X96755630Y-90689835D01*
X96949201Y-90554295D01*
X97116295Y-90387201D01*
X97246225Y-90201642D01*
X97300802Y-90158017D01*
X97370300Y-90150823D01*
X97432655Y-90182346D01*
X97449375Y-90201642D01*
X97579300Y-90387195D01*
X97579305Y-90387201D01*
X97746399Y-90554295D01*
X97802378Y-90593492D01*
X97939965Y-90689832D01*
X97939967Y-90689833D01*
X97939970Y-90689835D01*
X98154137Y-90789703D01*
X98382392Y-90850863D01*
X98553119Y-90865800D01*
X98617799Y-90871459D01*
X98617800Y-90871459D01*
X98617801Y-90871459D01*
X98682481Y-90865800D01*
X98853208Y-90850863D01*
X99081463Y-90789703D01*
X99295630Y-90689835D01*
X99489201Y-90554295D01*
X99656295Y-90387201D01*
X99791835Y-90193630D01*
X99891703Y-89979463D01*
X99952863Y-89751208D01*
X99973459Y-89515800D01*
X99952863Y-89280392D01*
X99891703Y-89052137D01*
X99791835Y-88837971D01*
X99786225Y-88829958D01*
X99656294Y-88644397D01*
X99489202Y-88477306D01*
X99489195Y-88477301D01*
X99295634Y-88341767D01*
X99295630Y-88341765D01*
X99224527Y-88308609D01*
X99081463Y-88241897D01*
X99081459Y-88241896D01*
X99081455Y-88241894D01*
X98853213Y-88180738D01*
X98853203Y-88180736D01*
X98617801Y-88160141D01*
X98617799Y-88160141D01*
X98382396Y-88180736D01*
X98382386Y-88180738D01*
X98154144Y-88241894D01*
X98154135Y-88241898D01*
X97939971Y-88341764D01*
X97939969Y-88341765D01*
X97746397Y-88477305D01*
X97579305Y-88644397D01*
X97449375Y-88829958D01*
X97394798Y-88873583D01*
X97325300Y-88880777D01*
X97262945Y-88849254D01*
X97246225Y-88829958D01*
X97116294Y-88644397D01*
X96949202Y-88477306D01*
X96949195Y-88477301D01*
X96755634Y-88341767D01*
X96755630Y-88341765D01*
X96684527Y-88308609D01*
X96541463Y-88241897D01*
X96541459Y-88241896D01*
X96541455Y-88241894D01*
X96313213Y-88180738D01*
X96313203Y-88180736D01*
X96077801Y-88160141D01*
X96077799Y-88160141D01*
X95842396Y-88180736D01*
X95842386Y-88180738D01*
X95614144Y-88241894D01*
X95614135Y-88241898D01*
X95399971Y-88341764D01*
X95399969Y-88341765D01*
X95206400Y-88477303D01*
X95084084Y-88599619D01*
X95022761Y-88633103D01*
X94953069Y-88628119D01*
X94897136Y-88586247D01*
X94880221Y-88555270D01*
X94831154Y-88423713D01*
X94831150Y-88423706D01*
X94744990Y-88308612D01*
X94744987Y-88308609D01*
X94629893Y-88222449D01*
X94629886Y-88222445D01*
X94495179Y-88172203D01*
X94495172Y-88172201D01*
X94435644Y-88165800D01*
X93787800Y-88165800D01*
X93787800Y-89080298D01*
X93680115Y-89031120D01*
X93573563Y-89015800D01*
X93502037Y-89015800D01*
X93395485Y-89031120D01*
X93287800Y-89080298D01*
X93287800Y-88165800D01*
X92639955Y-88165800D01*
X92580427Y-88172201D01*
X92580420Y-88172203D01*
X92445713Y-88222445D01*
X92445706Y-88222449D01*
X92330612Y-88308609D01*
X92330609Y-88308612D01*
X92244449Y-88423706D01*
X92244445Y-88423713D01*
X92194203Y-88558420D01*
X92194201Y-88558427D01*
X92187800Y-88617955D01*
X92187800Y-89265800D01*
X93104114Y-89265800D01*
X93078307Y-89305956D01*
X93037800Y-89443911D01*
X93037800Y-89587689D01*
X93078307Y-89725644D01*
X93104114Y-89765800D01*
X92187800Y-89765800D01*
X92187800Y-90413644D01*
X83391621Y-90413644D01*
X83400636Y-90380000D01*
X82503686Y-90380000D01*
X82529493Y-90339844D01*
X82570000Y-90201889D01*
X82570000Y-90058111D01*
X82529493Y-89920156D01*
X82503686Y-89880000D01*
X83400636Y-89880000D01*
X83400635Y-89879999D01*
X83343432Y-89666513D01*
X83343429Y-89666507D01*
X83243600Y-89452422D01*
X83243599Y-89452420D01*
X83108113Y-89258926D01*
X83108108Y-89258920D01*
X82986053Y-89136865D01*
X82952568Y-89075542D01*
X82957552Y-89005850D01*
X82999424Y-88949917D01*
X83030400Y-88933002D01*
X83148762Y-88888857D01*
X83162326Y-88883798D01*
X83162326Y-88883797D01*
X83162331Y-88883796D01*
X83277546Y-88797546D01*
X83363796Y-88682331D01*
X83414091Y-88547483D01*
X83420500Y-88487873D01*
X83420499Y-86692128D01*
X83414091Y-86632517D01*
X83404988Y-86608111D01*
X83363797Y-86497671D01*
X83363793Y-86497664D01*
X83313139Y-86429999D01*
X113980976Y-86429999D01*
X113980978Y-86430000D01*
X115026314Y-86430000D01*
X115000507Y-86470156D01*
X114960000Y-86608111D01*
X114960000Y-86751889D01*
X115000507Y-86889844D01*
X115026314Y-86930000D01*
X113980977Y-86930000D01*
X114000916Y-87049492D01*
X114081630Y-87284603D01*
X114081635Y-87284614D01*
X114199942Y-87503228D01*
X114199948Y-87503237D01*
X114352626Y-87699397D01*
X114352635Y-87699407D01*
X114535522Y-87867767D01*
X114535521Y-87867767D01*
X114743632Y-88003732D01*
X114971282Y-88103587D01*
X115212261Y-88164612D01*
X115212269Y-88164614D01*
X115397959Y-88180000D01*
X116310000Y-88180000D01*
X116310000Y-87180000D01*
X116810000Y-87180000D01*
X116810000Y-88180000D01*
X117722041Y-88180000D01*
X117907730Y-88164614D01*
X117907738Y-88164612D01*
X118148717Y-88103587D01*
X118376367Y-88003732D01*
X118584478Y-87867767D01*
X118767364Y-87699407D01*
X118767373Y-87699397D01*
X118920051Y-87503237D01*
X118920057Y-87503228D01*
X119038364Y-87284614D01*
X119038369Y-87284603D01*
X119119083Y-87049492D01*
X119139023Y-86930000D01*
X118093686Y-86930000D01*
X118119493Y-86889844D01*
X118160000Y-86751889D01*
X118160000Y-86608111D01*
X118142937Y-86550000D01*
X126994540Y-86550000D01*
X127014326Y-86738256D01*
X127014327Y-86738259D01*
X127072818Y-86918277D01*
X127072821Y-86918284D01*
X127167467Y-87082216D01*
X127257506Y-87182214D01*
X127294129Y-87222888D01*
X127447265Y-87334148D01*
X127447270Y-87334151D01*
X127620192Y-87411142D01*
X127620197Y-87411144D01*
X127805354Y-87450500D01*
X127805355Y-87450500D01*
X127994644Y-87450500D01*
X127994646Y-87450500D01*
X128179803Y-87411144D01*
X128352730Y-87334151D01*
X128505871Y-87222888D01*
X128632533Y-87082216D01*
X128727179Y-86918284D01*
X128785674Y-86738256D01*
X128794950Y-86650000D01*
X132194540Y-86650000D01*
X132214326Y-86838256D01*
X132214327Y-86838259D01*
X132272818Y-87018277D01*
X132272821Y-87018284D01*
X132367467Y-87182216D01*
X132459657Y-87284603D01*
X132494129Y-87322888D01*
X132647265Y-87434148D01*
X132647270Y-87434151D01*
X132820192Y-87511142D01*
X132820197Y-87511144D01*
X133005354Y-87550500D01*
X133005355Y-87550500D01*
X133194644Y-87550500D01*
X133194646Y-87550500D01*
X133379803Y-87511144D01*
X133552730Y-87434151D01*
X133705871Y-87322888D01*
X133832533Y-87182216D01*
X133927179Y-87018284D01*
X133985674Y-86838256D01*
X134005460Y-86650000D01*
X133985674Y-86461744D01*
X133927179Y-86281716D01*
X133832533Y-86117784D01*
X133829284Y-86112156D01*
X133831929Y-86110628D01*
X133812779Y-86057421D01*
X133828417Y-85989323D01*
X133829344Y-85987879D01*
X133829284Y-85987844D01*
X133858061Y-85938000D01*
X133927179Y-85818284D01*
X133985674Y-85638256D01*
X134005460Y-85450000D01*
X133985674Y-85261744D01*
X133927179Y-85081716D01*
X133832533Y-84917784D01*
X133829284Y-84912156D01*
X133831929Y-84910628D01*
X133812779Y-84857421D01*
X133828417Y-84789323D01*
X133829344Y-84787879D01*
X133829284Y-84787844D01*
X133911439Y-84645546D01*
X133927179Y-84618284D01*
X133985674Y-84438256D01*
X134005460Y-84250000D01*
X133985674Y-84061744D01*
X133927179Y-83881716D01*
X133858060Y-83761999D01*
X133841588Y-83694100D01*
X133858061Y-83638000D01*
X133858715Y-83636868D01*
X133927179Y-83518284D01*
X133985674Y-83338256D01*
X134005460Y-83150000D01*
X133985674Y-82961744D01*
X133965612Y-82900000D01*
X169104706Y-82900000D01*
X169123853Y-83143297D01*
X169123853Y-83143300D01*
X169123854Y-83143302D01*
X169179324Y-83374349D01*
X169180830Y-83380619D01*
X169274222Y-83606089D01*
X169401737Y-83814173D01*
X169401738Y-83814176D01*
X169401741Y-83814179D01*
X169560241Y-83999759D01*
X169703897Y-84122453D01*
X169745823Y-84158261D01*
X169745825Y-84158261D01*
X169751508Y-84161744D01*
X169953910Y-84285777D01*
X170179381Y-84379169D01*
X170179378Y-84379169D01*
X170179384Y-84379170D01*
X170179388Y-84379172D01*
X170416698Y-84436146D01*
X170660000Y-84455294D01*
X170903302Y-84436146D01*
X171140612Y-84379172D01*
X171366089Y-84285777D01*
X171551286Y-84172287D01*
X171618730Y-84154043D01*
X171685333Y-84175159D01*
X171715341Y-84203704D01*
X171792809Y-84307187D01*
X171792812Y-84307190D01*
X171907906Y-84393350D01*
X171907913Y-84393354D01*
X172042620Y-84443596D01*
X172042627Y-84443598D01*
X172102155Y-84449999D01*
X172102172Y-84450000D01*
X172950000Y-84450000D01*
X172950000Y-83391683D01*
X172978819Y-83409209D01*
X173124404Y-83450000D01*
X173237622Y-83450000D01*
X173349783Y-83434584D01*
X173450000Y-83391053D01*
X173450000Y-84450000D01*
X174297828Y-84450000D01*
X174297844Y-84449999D01*
X174357372Y-84443598D01*
X174357379Y-84443596D01*
X174492086Y-84393354D01*
X174492093Y-84393350D01*
X174607187Y-84307190D01*
X174607190Y-84307187D01*
X174693350Y-84192093D01*
X174693354Y-84192086D01*
X174743596Y-84057379D01*
X174743598Y-84057372D01*
X174749999Y-83997844D01*
X174750000Y-83997827D01*
X174750000Y-83150000D01*
X173694852Y-83150000D01*
X173743559Y-83012953D01*
X173753877Y-82862114D01*
X173723116Y-82714085D01*
X173689910Y-82650000D01*
X174750000Y-82650000D01*
X174750000Y-82250000D01*
X177294564Y-82250000D01*
X177314289Y-82576099D01*
X177373178Y-82897452D01*
X177470366Y-83209342D01*
X177470370Y-83209354D01*
X177470373Y-83209361D01*
X177604455Y-83507279D01*
X177755672Y-83757421D01*
X177773473Y-83786868D01*
X177974954Y-84044039D01*
X178205960Y-84275045D01*
X178463131Y-84476526D01*
X178463134Y-84476528D01*
X178463137Y-84476530D01*
X178742721Y-84645545D01*
X179040639Y-84779627D01*
X179040652Y-84779631D01*
X179040657Y-84779633D01*
X179266475Y-84850000D01*
X179352547Y-84876821D01*
X179673896Y-84935710D01*
X180000000Y-84955436D01*
X180326104Y-84935710D01*
X180647453Y-84876821D01*
X180959361Y-84779627D01*
X181257279Y-84645545D01*
X181536863Y-84476530D01*
X181794036Y-84275048D01*
X182025048Y-84044036D01*
X182226530Y-83786863D01*
X182395545Y-83507279D01*
X182529627Y-83209361D01*
X182626821Y-82897453D01*
X182685710Y-82576104D01*
X182705436Y-82250000D01*
X182685710Y-81923896D01*
X182626821Y-81602547D01*
X182620486Y-81582216D01*
X182529633Y-81290657D01*
X182529631Y-81290652D01*
X182529627Y-81290639D01*
X182395545Y-80992721D01*
X182226530Y-80713137D01*
X182226528Y-80713134D01*
X182226526Y-80713131D01*
X182025045Y-80455960D01*
X181794039Y-80224954D01*
X181536868Y-80023473D01*
X181529306Y-80018901D01*
X181257279Y-79854455D01*
X180959361Y-79720373D01*
X180959354Y-79720370D01*
X180959342Y-79720366D01*
X180647452Y-79623178D01*
X180326099Y-79564289D01*
X180000000Y-79544564D01*
X179673900Y-79564289D01*
X179352547Y-79623178D01*
X179040657Y-79720366D01*
X179040641Y-79720372D01*
X179040639Y-79720373D01*
X178742721Y-79854455D01*
X178672825Y-79896708D01*
X178463131Y-80023473D01*
X178205960Y-80224954D01*
X177974954Y-80455960D01*
X177773473Y-80713131D01*
X177646708Y-80922825D01*
X177604455Y-80992721D01*
X177493948Y-81238259D01*
X177470372Y-81290642D01*
X177470366Y-81290657D01*
X177373178Y-81602547D01*
X177314289Y-81923900D01*
X177294564Y-82250000D01*
X174750000Y-82250000D01*
X174750000Y-81802172D01*
X174749999Y-81802155D01*
X174743598Y-81742627D01*
X174743596Y-81742620D01*
X174693354Y-81607913D01*
X174693350Y-81607906D01*
X174607190Y-81492812D01*
X174607187Y-81492809D01*
X174492093Y-81406649D01*
X174492086Y-81406645D01*
X174357379Y-81356403D01*
X174357372Y-81356401D01*
X174297844Y-81350000D01*
X173450000Y-81350000D01*
X173450000Y-82408316D01*
X173421181Y-82390791D01*
X173275596Y-82350000D01*
X173162378Y-82350000D01*
X173050217Y-82365416D01*
X172950000Y-82408946D01*
X172950000Y-81350000D01*
X172102155Y-81350000D01*
X172042627Y-81356401D01*
X172042620Y-81356403D01*
X171907913Y-81406645D01*
X171907906Y-81406649D01*
X171792812Y-81492809D01*
X171715341Y-81596296D01*
X171659407Y-81638166D01*
X171589715Y-81643150D01*
X171551285Y-81627711D01*
X171366089Y-81514222D01*
X171140618Y-81420830D01*
X171140621Y-81420830D01*
X171034992Y-81395470D01*
X170903302Y-81363854D01*
X170903300Y-81363853D01*
X170903297Y-81363853D01*
X170660000Y-81344706D01*
X170416702Y-81363853D01*
X170416698Y-81363854D01*
X170189985Y-81418284D01*
X170179380Y-81420830D01*
X169953910Y-81514222D01*
X169745826Y-81641737D01*
X169745823Y-81641738D01*
X169560241Y-81800241D01*
X169401738Y-81985823D01*
X169401737Y-81985826D01*
X169274222Y-82193910D01*
X169180830Y-82419380D01*
X169180828Y-82419387D01*
X169180828Y-82419388D01*
X169157086Y-82518281D01*
X169123853Y-82656702D01*
X169104706Y-82900000D01*
X133965612Y-82900000D01*
X133927179Y-82781716D01*
X133886927Y-82711999D01*
X133870454Y-82644101D01*
X133886927Y-82588001D01*
X133927179Y-82518284D01*
X133985674Y-82338256D01*
X134005460Y-82150000D01*
X133985674Y-81961744D01*
X133927179Y-81781716D01*
X133858060Y-81661999D01*
X133841588Y-81594100D01*
X133858061Y-81538000D01*
X133927179Y-81418284D01*
X133985674Y-81238256D01*
X134005460Y-81050000D01*
X133985674Y-80861744D01*
X133927179Y-80681716D01*
X133832533Y-80517784D01*
X133726480Y-80400000D01*
X161394540Y-80400000D01*
X161414326Y-80588256D01*
X161414327Y-80588259D01*
X161472818Y-80768277D01*
X161472821Y-80768284D01*
X161567467Y-80932216D01*
X161694129Y-81072888D01*
X161847265Y-81184148D01*
X161847270Y-81184151D01*
X162020192Y-81261142D01*
X162020197Y-81261144D01*
X162205354Y-81300500D01*
X162205355Y-81300500D01*
X162394644Y-81300500D01*
X162394646Y-81300500D01*
X162579803Y-81261144D01*
X162752730Y-81184151D01*
X162905871Y-81072888D01*
X163032533Y-80932216D01*
X163127179Y-80768284D01*
X163185674Y-80588256D01*
X163205460Y-80400000D01*
X163185674Y-80211744D01*
X163127179Y-80031716D01*
X163032533Y-79867784D01*
X162905871Y-79727112D01*
X162896596Y-79720373D01*
X162752734Y-79615851D01*
X162752729Y-79615848D01*
X162579807Y-79538857D01*
X162579802Y-79538855D01*
X162434001Y-79507865D01*
X162394646Y-79499500D01*
X162205354Y-79499500D01*
X162172897Y-79506398D01*
X162020197Y-79538855D01*
X162020192Y-79538857D01*
X161847270Y-79615848D01*
X161847265Y-79615851D01*
X161694129Y-79727111D01*
X161567466Y-79867785D01*
X161472821Y-80031715D01*
X161472818Y-80031722D01*
X161421762Y-80188857D01*
X161414326Y-80211744D01*
X161394540Y-80400000D01*
X133726480Y-80400000D01*
X133705871Y-80377112D01*
X133705870Y-80377111D01*
X133552734Y-80265851D01*
X133552729Y-80265848D01*
X133379807Y-80188857D01*
X133379802Y-80188855D01*
X133234001Y-80157865D01*
X133194646Y-80149500D01*
X133005354Y-80149500D01*
X132972897Y-80156398D01*
X132820197Y-80188855D01*
X132820192Y-80188857D01*
X132647270Y-80265848D01*
X132647265Y-80265851D01*
X132494129Y-80377111D01*
X132367466Y-80517785D01*
X132272821Y-80681715D01*
X132272818Y-80681722D01*
X132214327Y-80861740D01*
X132214326Y-80861744D01*
X132194540Y-81050000D01*
X132214326Y-81238256D01*
X132214327Y-81238259D01*
X132272818Y-81418277D01*
X132272821Y-81418284D01*
X132341939Y-81538000D01*
X132358412Y-81605900D01*
X132341939Y-81662000D01*
X132272821Y-81781715D01*
X132272818Y-81781722D01*
X132226622Y-81923900D01*
X132214326Y-81961744D01*
X132194540Y-82150000D01*
X132214326Y-82338256D01*
X132214327Y-82338259D01*
X132272818Y-82518277D01*
X132272820Y-82518281D01*
X132272821Y-82518284D01*
X132306203Y-82576104D01*
X132313072Y-82588001D01*
X132329543Y-82655901D01*
X132313072Y-82711999D01*
X132272820Y-82781718D01*
X132272818Y-82781722D01*
X132222078Y-82937886D01*
X132214326Y-82961744D01*
X132194540Y-83150000D01*
X132214326Y-83338256D01*
X132214327Y-83338259D01*
X132272818Y-83518277D01*
X132272821Y-83518284D01*
X132341282Y-83636863D01*
X132341939Y-83638000D01*
X132358412Y-83705900D01*
X132341939Y-83762000D01*
X132272821Y-83881715D01*
X132272818Y-83881722D01*
X132215744Y-84057379D01*
X132214326Y-84061744D01*
X132194540Y-84250000D01*
X132214326Y-84438256D01*
X132214327Y-84438259D01*
X132272818Y-84618277D01*
X132272821Y-84618284D01*
X132370716Y-84787844D01*
X132368150Y-84789325D01*
X132387250Y-84843098D01*
X132371327Y-84911129D01*
X132370680Y-84912135D01*
X132370716Y-84912156D01*
X132272821Y-85081715D01*
X132272818Y-85081722D01*
X132216058Y-85256412D01*
X132214326Y-85261744D01*
X132194540Y-85450000D01*
X132214326Y-85638256D01*
X132214327Y-85638259D01*
X132272818Y-85818277D01*
X132272821Y-85818284D01*
X132370716Y-85987844D01*
X132368150Y-85989325D01*
X132387250Y-86043098D01*
X132371327Y-86111129D01*
X132370680Y-86112135D01*
X132370716Y-86112156D01*
X132272821Y-86281715D01*
X132272818Y-86281722D01*
X132224640Y-86430000D01*
X132214326Y-86461744D01*
X132194540Y-86650000D01*
X128794950Y-86650000D01*
X128805460Y-86550000D01*
X128785674Y-86361744D01*
X128727179Y-86181716D01*
X128658060Y-86061999D01*
X128641588Y-85994100D01*
X128658061Y-85938000D01*
X128727179Y-85818284D01*
X128785674Y-85638256D01*
X128805460Y-85450000D01*
X128785674Y-85261744D01*
X128727179Y-85081716D01*
X128658060Y-84961999D01*
X128641588Y-84894100D01*
X128658061Y-84838000D01*
X128676862Y-84805435D01*
X128727179Y-84718284D01*
X128785674Y-84538256D01*
X128805460Y-84350000D01*
X128785674Y-84161744D01*
X128727179Y-83981716D01*
X128632533Y-83817784D01*
X128629284Y-83812156D01*
X128631929Y-83810628D01*
X128612779Y-83757421D01*
X128628417Y-83689323D01*
X128629344Y-83687879D01*
X128629284Y-83687844D01*
X128658715Y-83636868D01*
X128727179Y-83518284D01*
X128785674Y-83338256D01*
X128805460Y-83150000D01*
X128785674Y-82961744D01*
X128727179Y-82781716D01*
X128686927Y-82711999D01*
X128670454Y-82644101D01*
X128686927Y-82588001D01*
X128727179Y-82518284D01*
X128785674Y-82338256D01*
X128805460Y-82150000D01*
X128785674Y-81961744D01*
X128727179Y-81781716D01*
X128658060Y-81661999D01*
X128641588Y-81594100D01*
X128658061Y-81538000D01*
X128727179Y-81418284D01*
X128785674Y-81238256D01*
X128805460Y-81050000D01*
X128785674Y-80861744D01*
X128727179Y-80681716D01*
X128632533Y-80517784D01*
X128505871Y-80377112D01*
X128505870Y-80377111D01*
X128352734Y-80265851D01*
X128352729Y-80265848D01*
X128179807Y-80188857D01*
X128179802Y-80188855D01*
X128034001Y-80157865D01*
X127994646Y-80149500D01*
X127805354Y-80149500D01*
X127772897Y-80156398D01*
X127620197Y-80188855D01*
X127620192Y-80188857D01*
X127447270Y-80265848D01*
X127447265Y-80265851D01*
X127294129Y-80377111D01*
X127167466Y-80517785D01*
X127072821Y-80681715D01*
X127072818Y-80681722D01*
X127014327Y-80861740D01*
X127014326Y-80861744D01*
X126994540Y-81050000D01*
X127014326Y-81238256D01*
X127014327Y-81238259D01*
X127072818Y-81418277D01*
X127072821Y-81418284D01*
X127141939Y-81538000D01*
X127158412Y-81605900D01*
X127141939Y-81662000D01*
X127072821Y-81781715D01*
X127072818Y-81781722D01*
X127026622Y-81923900D01*
X127014326Y-81961744D01*
X126994540Y-82150000D01*
X127014326Y-82338256D01*
X127014327Y-82338259D01*
X127072818Y-82518277D01*
X127072820Y-82518281D01*
X127072821Y-82518284D01*
X127106203Y-82576104D01*
X127113072Y-82588001D01*
X127129543Y-82655901D01*
X127113072Y-82711999D01*
X127072820Y-82781718D01*
X127072818Y-82781722D01*
X127022078Y-82937886D01*
X127014326Y-82961744D01*
X126994540Y-83150000D01*
X127014326Y-83338256D01*
X127014327Y-83338259D01*
X127072818Y-83518277D01*
X127072821Y-83518284D01*
X127170716Y-83687844D01*
X127168150Y-83689325D01*
X127187250Y-83743098D01*
X127171327Y-83811129D01*
X127170680Y-83812135D01*
X127170716Y-83812156D01*
X127072821Y-83981715D01*
X127072818Y-83981722D01*
X127015457Y-84158262D01*
X127014326Y-84161744D01*
X126994540Y-84350000D01*
X127014326Y-84538256D01*
X127014327Y-84538259D01*
X127072818Y-84718277D01*
X127072821Y-84718284D01*
X127113836Y-84789325D01*
X127141939Y-84838000D01*
X127158412Y-84905900D01*
X127141939Y-84962000D01*
X127072821Y-85081715D01*
X127072818Y-85081722D01*
X127016058Y-85256412D01*
X127014326Y-85261744D01*
X126994540Y-85450000D01*
X127014326Y-85638256D01*
X127014327Y-85638259D01*
X127072818Y-85818277D01*
X127072821Y-85818284D01*
X127141939Y-85938000D01*
X127158412Y-86005900D01*
X127141939Y-86062000D01*
X127072821Y-86181715D01*
X127072818Y-86181722D01*
X127018401Y-86349202D01*
X127014326Y-86361744D01*
X126994540Y-86550000D01*
X118142937Y-86550000D01*
X118119493Y-86470156D01*
X118093686Y-86430000D01*
X119139022Y-86430000D01*
X119139023Y-86429999D01*
X119119083Y-86310507D01*
X119038369Y-86075396D01*
X119038364Y-86075385D01*
X118920057Y-85856771D01*
X118920051Y-85856762D01*
X118767373Y-85660602D01*
X118767364Y-85660592D01*
X118584477Y-85492232D01*
X118584478Y-85492232D01*
X118376367Y-85356267D01*
X118148717Y-85256412D01*
X117907738Y-85195387D01*
X117907730Y-85195385D01*
X117722041Y-85180000D01*
X116810000Y-85180000D01*
X116810000Y-86180000D01*
X116310000Y-86180000D01*
X116310000Y-85180000D01*
X115397959Y-85180000D01*
X115212269Y-85195385D01*
X115212261Y-85195387D01*
X114971282Y-85256412D01*
X114743632Y-85356267D01*
X114535521Y-85492232D01*
X114352635Y-85660592D01*
X114352626Y-85660602D01*
X114199948Y-85856762D01*
X114199942Y-85856771D01*
X114081635Y-86075385D01*
X114081630Y-86075396D01*
X114000916Y-86310507D01*
X113980976Y-86429999D01*
X83313139Y-86429999D01*
X83277547Y-86382455D01*
X83277544Y-86382452D01*
X83162335Y-86296206D01*
X83162328Y-86296202D01*
X83027482Y-86245908D01*
X83027483Y-86245908D01*
X82967883Y-86239501D01*
X82967881Y-86239500D01*
X82967873Y-86239500D01*
X82967864Y-86239500D01*
X81172129Y-86239500D01*
X81172123Y-86239501D01*
X81112516Y-86245908D01*
X80977671Y-86296202D01*
X80977664Y-86296206D01*
X80862455Y-86382452D01*
X80862452Y-86382455D01*
X80776206Y-86497664D01*
X80776202Y-86497671D01*
X80725908Y-86632517D01*
X80724029Y-86650000D01*
X80719501Y-86692123D01*
X80719500Y-86692135D01*
X80719500Y-88487870D01*
X80719501Y-88487876D01*
X80725908Y-88547483D01*
X80776202Y-88682328D01*
X80776206Y-88682335D01*
X80862452Y-88797544D01*
X80862455Y-88797547D01*
X80977664Y-88883793D01*
X80977671Y-88883797D01*
X81039902Y-88907007D01*
X81109598Y-88933002D01*
X81165531Y-88974873D01*
X81189949Y-89040337D01*
X81175098Y-89108610D01*
X81153947Y-89136865D01*
X81031886Y-89258926D01*
X80896400Y-89452420D01*
X80896399Y-89452422D01*
X80796570Y-89666507D01*
X80796567Y-89666513D01*
X80739364Y-89879999D01*
X80739364Y-89880000D01*
X81636314Y-89880000D01*
X81610507Y-89920156D01*
X81570000Y-90058111D01*
X81570000Y-90201889D01*
X81610507Y-90339844D01*
X81636314Y-90380000D01*
X80739364Y-90380000D01*
X80796567Y-90593486D01*
X80796570Y-90593492D01*
X80896399Y-90807578D01*
X81031894Y-91001082D01*
X81198917Y-91168105D01*
X81384595Y-91298119D01*
X81428219Y-91352696D01*
X81435412Y-91422195D01*
X81403890Y-91484549D01*
X81384595Y-91501269D01*
X81198594Y-91631508D01*
X81031505Y-91798597D01*
X80895965Y-91992169D01*
X80895964Y-91992171D01*
X80796098Y-92206335D01*
X80796094Y-92206344D01*
X80734938Y-92434586D01*
X80734936Y-92434596D01*
X80714341Y-92669999D01*
X80714341Y-92670000D01*
X80734936Y-92905403D01*
X80734938Y-92905413D01*
X80796094Y-93133655D01*
X80796096Y-93133659D01*
X80796097Y-93133663D01*
X80881954Y-93317784D01*
X80895965Y-93347830D01*
X80895967Y-93347834D01*
X81031501Y-93541395D01*
X81031506Y-93541402D01*
X81198597Y-93708493D01*
X81198603Y-93708498D01*
X81384158Y-93838425D01*
X81427783Y-93893002D01*
X81434977Y-93962500D01*
X81403454Y-94024855D01*
X81384158Y-94041575D01*
X81198597Y-94171505D01*
X81031505Y-94338597D01*
X80895965Y-94532169D01*
X80895964Y-94532171D01*
X80812313Y-94711562D01*
X80799586Y-94738856D01*
X80796098Y-94746335D01*
X80796094Y-94746344D01*
X80734938Y-94974586D01*
X80734936Y-94974596D01*
X80714341Y-95209999D01*
X80714341Y-95210000D01*
X80734936Y-95445403D01*
X80734938Y-95445413D01*
X80796094Y-95673655D01*
X80796096Y-95673659D01*
X80796097Y-95673663D01*
X80886617Y-95867784D01*
X80895965Y-95887830D01*
X80895967Y-95887834D01*
X81031501Y-96081395D01*
X81031506Y-96081402D01*
X81198597Y-96248493D01*
X81198603Y-96248498D01*
X81384158Y-96378425D01*
X81427783Y-96433002D01*
X81434977Y-96502500D01*
X81403454Y-96564855D01*
X81384158Y-96581575D01*
X81198597Y-96711505D01*
X81031505Y-96878597D01*
X80895965Y-97072169D01*
X80895964Y-97072171D01*
X80796098Y-97286335D01*
X80796094Y-97286344D01*
X80734938Y-97514586D01*
X80734936Y-97514596D01*
X80714341Y-97749999D01*
X80714341Y-97750000D01*
X80734936Y-97985403D01*
X80734938Y-97985413D01*
X80796094Y-98213655D01*
X80796096Y-98213659D01*
X80796097Y-98213663D01*
X80895965Y-98427830D01*
X80895967Y-98427834D01*
X81031501Y-98621395D01*
X81031506Y-98621402D01*
X81198597Y-98788493D01*
X81198603Y-98788498D01*
X81384158Y-98918425D01*
X81427783Y-98973002D01*
X81434977Y-99042500D01*
X81403454Y-99104855D01*
X81384158Y-99121575D01*
X81198597Y-99251505D01*
X81031505Y-99418597D01*
X80895965Y-99612169D01*
X80895964Y-99612171D01*
X80796098Y-99826335D01*
X80796094Y-99826344D01*
X80734938Y-100054586D01*
X80734936Y-100054596D01*
X80714341Y-100289999D01*
X80714341Y-100290000D01*
X80734936Y-100525403D01*
X80734938Y-100525413D01*
X80796094Y-100753655D01*
X80796096Y-100753659D01*
X80796097Y-100753663D01*
X80895965Y-100967830D01*
X80895967Y-100967834D01*
X81031501Y-101161395D01*
X81031506Y-101161402D01*
X81198597Y-101328493D01*
X81198603Y-101328498D01*
X81384158Y-101458425D01*
X81427783Y-101513002D01*
X81434977Y-101582500D01*
X81403454Y-101644855D01*
X81384158Y-101661575D01*
X81198597Y-101791505D01*
X81031505Y-101958597D01*
X80895965Y-102152169D01*
X80895964Y-102152171D01*
X80796098Y-102366335D01*
X80796094Y-102366344D01*
X80734938Y-102594586D01*
X80734936Y-102594596D01*
X80714341Y-102829999D01*
X80714341Y-102830000D01*
X80734936Y-103065403D01*
X80734938Y-103065413D01*
X80796094Y-103293655D01*
X80796096Y-103293659D01*
X80796097Y-103293663D01*
X80895965Y-103507830D01*
X80895967Y-103507834D01*
X81031501Y-103701395D01*
X81031506Y-103701402D01*
X81198597Y-103868493D01*
X81198603Y-103868498D01*
X81384158Y-103998425D01*
X81427783Y-104053002D01*
X81434977Y-104122500D01*
X81403454Y-104184855D01*
X81384158Y-104201575D01*
X81198597Y-104331505D01*
X81031505Y-104498597D01*
X80895965Y-104692169D01*
X80895964Y-104692171D01*
X80796098Y-104906335D01*
X80796094Y-104906344D01*
X80734938Y-105134586D01*
X80734936Y-105134596D01*
X80714341Y-105369999D01*
X80714341Y-105370000D01*
X80734936Y-105605403D01*
X80734938Y-105605413D01*
X80796094Y-105833655D01*
X80796096Y-105833659D01*
X80796097Y-105833663D01*
X80837872Y-105923249D01*
X80895965Y-106047830D01*
X80895967Y-106047834D01*
X81031501Y-106241395D01*
X81031506Y-106241402D01*
X81198597Y-106408493D01*
X81198603Y-106408498D01*
X81384158Y-106538425D01*
X81427783Y-106593002D01*
X81434977Y-106662500D01*
X81403454Y-106724855D01*
X81384158Y-106741575D01*
X81198597Y-106871505D01*
X81031505Y-107038597D01*
X80895965Y-107232169D01*
X80895964Y-107232171D01*
X80796098Y-107446335D01*
X80796094Y-107446344D01*
X80734938Y-107674586D01*
X80734936Y-107674596D01*
X80714341Y-107909999D01*
X80714341Y-107910000D01*
X80734936Y-108145403D01*
X80734938Y-108145413D01*
X80796094Y-108373655D01*
X80796096Y-108373659D01*
X80796097Y-108373663D01*
X80888997Y-108572888D01*
X80895965Y-108587830D01*
X80895967Y-108587834D01*
X80974157Y-108699500D01*
X81017319Y-108761142D01*
X81031501Y-108781395D01*
X81031506Y-108781402D01*
X81198597Y-108948493D01*
X81198603Y-108948498D01*
X81384158Y-109078425D01*
X81427783Y-109133002D01*
X81434977Y-109202500D01*
X81403454Y-109264855D01*
X81384158Y-109281575D01*
X81198597Y-109411505D01*
X81031505Y-109578597D01*
X80895965Y-109772169D01*
X80895964Y-109772171D01*
X80796098Y-109986335D01*
X80796094Y-109986344D01*
X80734938Y-110214586D01*
X80734936Y-110214596D01*
X80714341Y-110449999D01*
X80714341Y-110450000D01*
X80734936Y-110685403D01*
X80734938Y-110685413D01*
X80796094Y-110913655D01*
X80796096Y-110913659D01*
X80796097Y-110913663D01*
X80877291Y-111087784D01*
X80895965Y-111127830D01*
X80895967Y-111127834D01*
X80968706Y-111231715D01*
X81017721Y-111301716D01*
X81031501Y-111321395D01*
X81031506Y-111321402D01*
X81198597Y-111488493D01*
X81198603Y-111488498D01*
X81384158Y-111618425D01*
X81427783Y-111673002D01*
X81434977Y-111742500D01*
X81403454Y-111804855D01*
X81384158Y-111821575D01*
X81198597Y-111951505D01*
X81031505Y-112118597D01*
X80895965Y-112312169D01*
X80895964Y-112312171D01*
X80796098Y-112526335D01*
X80796094Y-112526344D01*
X80734938Y-112754586D01*
X80734936Y-112754596D01*
X80714341Y-112989999D01*
X80714341Y-112990000D01*
X80734936Y-113225403D01*
X80734938Y-113225413D01*
X80796094Y-113453655D01*
X80796096Y-113453659D01*
X80796097Y-113453663D01*
X80867450Y-113606679D01*
X80895965Y-113667830D01*
X80895967Y-113667834D01*
X81031501Y-113861395D01*
X81031506Y-113861402D01*
X81198597Y-114028493D01*
X81198603Y-114028498D01*
X81384158Y-114158425D01*
X81427783Y-114213002D01*
X81434977Y-114282500D01*
X81403454Y-114344855D01*
X81384158Y-114361575D01*
X81198597Y-114491505D01*
X81031505Y-114658597D01*
X80895965Y-114852169D01*
X80895964Y-114852171D01*
X80796098Y-115066335D01*
X80796094Y-115066344D01*
X80734938Y-115294586D01*
X80734936Y-115294596D01*
X80714341Y-115529999D01*
X80714341Y-115530000D01*
X80734936Y-115765403D01*
X80734938Y-115765413D01*
X80796094Y-115993655D01*
X80796096Y-115993659D01*
X80796097Y-115993663D01*
X80879966Y-116173520D01*
X80895965Y-116207830D01*
X80895967Y-116207834D01*
X81031501Y-116401395D01*
X81031506Y-116401402D01*
X81198597Y-116568493D01*
X81198603Y-116568498D01*
X81384158Y-116698425D01*
X81427783Y-116753002D01*
X81434977Y-116822500D01*
X81403454Y-116884855D01*
X81384158Y-116901575D01*
X81198597Y-117031505D01*
X81031505Y-117198597D01*
X80895965Y-117392169D01*
X80895964Y-117392171D01*
X80796098Y-117606335D01*
X80796094Y-117606344D01*
X80734938Y-117834586D01*
X80734936Y-117834596D01*
X80714341Y-118069999D01*
X80714341Y-118070000D01*
X80734936Y-118305403D01*
X80734938Y-118305413D01*
X80796094Y-118533655D01*
X80796096Y-118533659D01*
X80796097Y-118533663D01*
X80842053Y-118632216D01*
X80895965Y-118747830D01*
X80895967Y-118747834D01*
X81031501Y-118941395D01*
X81031506Y-118941402D01*
X81198597Y-119108493D01*
X81198603Y-119108498D01*
X81384158Y-119238425D01*
X81427783Y-119293002D01*
X81434977Y-119362500D01*
X81403454Y-119424855D01*
X81384158Y-119441575D01*
X81198597Y-119571505D01*
X81031505Y-119738597D01*
X80895965Y-119932169D01*
X80895964Y-119932171D01*
X80796098Y-120146335D01*
X80796094Y-120146344D01*
X80734938Y-120374586D01*
X80734936Y-120374596D01*
X80714341Y-120609999D01*
X80714341Y-120610000D01*
X80080500Y-120610000D01*
X80080500Y-82100000D01*
X84294564Y-82100000D01*
X84314289Y-82426099D01*
X84373178Y-82747452D01*
X84470366Y-83059342D01*
X84470370Y-83059354D01*
X84470373Y-83059361D01*
X84604455Y-83357279D01*
X84754866Y-83606089D01*
X84773473Y-83636868D01*
X84974954Y-83894039D01*
X85205960Y-84125045D01*
X85463131Y-84326526D01*
X85463134Y-84326528D01*
X85463137Y-84326530D01*
X85742721Y-84495545D01*
X86040639Y-84629627D01*
X86040652Y-84629631D01*
X86040657Y-84629633D01*
X86325128Y-84718277D01*
X86352547Y-84726821D01*
X86673896Y-84785710D01*
X87000000Y-84805436D01*
X87326104Y-84785710D01*
X87647453Y-84726821D01*
X87959361Y-84629627D01*
X88257279Y-84495545D01*
X88536863Y-84326530D01*
X88794036Y-84125048D01*
X89025048Y-83894036D01*
X89226530Y-83636863D01*
X89395545Y-83357279D01*
X89529627Y-83059361D01*
X89626821Y-82747453D01*
X89685710Y-82426104D01*
X89705436Y-82100000D01*
X89685710Y-81773896D01*
X89626821Y-81452547D01*
X89599183Y-81363853D01*
X89529633Y-81140657D01*
X89529631Y-81140652D01*
X89529627Y-81140639D01*
X89395545Y-80842721D01*
X89226530Y-80563137D01*
X89226528Y-80563134D01*
X89226526Y-80563131D01*
X89025045Y-80305960D01*
X88794039Y-80074954D01*
X88536868Y-79873473D01*
X88505405Y-79854453D01*
X88257279Y-79704455D01*
X87959361Y-79570373D01*
X87959354Y-79570370D01*
X87959342Y-79570366D01*
X87647452Y-79473178D01*
X87326099Y-79414289D01*
X87000000Y-79394564D01*
X86673900Y-79414289D01*
X86352547Y-79473178D01*
X86040657Y-79570366D01*
X86040641Y-79570372D01*
X86040639Y-79570373D01*
X85939591Y-79615851D01*
X85742725Y-79704453D01*
X85742723Y-79704454D01*
X85463131Y-79873473D01*
X85205960Y-80074954D01*
X84974954Y-80305960D01*
X84773473Y-80563131D01*
X84649458Y-80768277D01*
X84604455Y-80842721D01*
X84536946Y-80992721D01*
X84470372Y-81140642D01*
X84470366Y-81140657D01*
X84373178Y-81452547D01*
X84314289Y-81773900D01*
X84294564Y-82100000D01*
X80080500Y-82100000D01*
X80080500Y-79224500D01*
X80100185Y-79157461D01*
X80152989Y-79111706D01*
X80204500Y-79100500D01*
X182945500Y-79100500D01*
X183012539Y-79120185D01*
G37*
%TD.AperFunction*%
%TD*%
M02*
