%TF.GenerationSoftware,KiCad,Pcbnew,7.0.9*%
%TF.CreationDate,2024-01-24T14:37:03-05:00*%
%TF.ProjectId,FinalPcbLayout,46696e61-6c50-4636-924c-61796f75742e,rev?*%
%TF.SameCoordinates,Original*%
%TF.FileFunction,Paste,Top*%
%TF.FilePolarity,Positive*%
%FSLAX46Y46*%
G04 Gerber Fmt 4.6, Leading zero omitted, Abs format (unit mm)*
G04 Created by KiCad (PCBNEW 7.0.9) date 2024-01-24 14:37:03*
%MOMM*%
%LPD*%
G01*
G04 APERTURE LIST*
G04 Aperture macros list*
%AMRoundRect*
0 Rectangle with rounded corners*
0 $1 Rounding radius*
0 $2 $3 $4 $5 $6 $7 $8 $9 X,Y pos of 4 corners*
0 Add a 4 corners polygon primitive as box body*
4,1,4,$2,$3,$4,$5,$6,$7,$8,$9,$2,$3,0*
0 Add four circle primitives for the rounded corners*
1,1,$1+$1,$2,$3*
1,1,$1+$1,$4,$5*
1,1,$1+$1,$6,$7*
1,1,$1+$1,$8,$9*
0 Add four rect primitives between the rounded corners*
20,1,$1+$1,$2,$3,$4,$5,0*
20,1,$1+$1,$4,$5,$6,$7,0*
20,1,$1+$1,$6,$7,$8,$9,0*
20,1,$1+$1,$8,$9,$2,$3,0*%
%AMFreePoly0*
4,1,57,0.269062,0.501116,0.276645,0.502317,0.296495,0.492202,0.317682,0.485319,0.322193,0.479109,0.329034,0.475624,0.407846,0.396811,0.411331,0.389971,0.417542,0.385459,0.424425,0.364272,0.434540,0.344423,0.433339,0.336840,0.435711,0.329540,0.435711,-0.329540,0.433339,-0.336840,0.434540,-0.344423,0.424425,-0.364272,0.417542,-0.385459,0.411331,-0.389971,0.407846,-0.396811,
0.329034,-0.475624,0.322193,-0.479109,0.317682,-0.485319,0.296495,-0.492202,0.276645,-0.502317,0.269062,-0.501116,0.261763,-0.503488,-0.261763,-0.503488,-0.269063,-0.501116,-0.276646,-0.502317,-0.296495,-0.492202,-0.317682,-0.485319,-0.322194,-0.479108,-0.329034,-0.475623,-0.407847,-0.396811,-0.411332,-0.389970,-0.417542,-0.385459,-0.424425,-0.364272,-0.434540,-0.344422,-0.433339,-0.336839,
-0.435711,-0.329540,-0.435711,0.329540,-0.433339,0.336839,-0.434540,0.344422,-0.424425,0.364272,-0.417542,0.385459,-0.411332,0.389970,-0.407847,0.396811,-0.329034,0.475623,-0.322194,0.479108,-0.317682,0.485319,-0.296495,0.492202,-0.276646,0.502317,-0.269063,0.501116,-0.261763,0.503488,0.261763,0.503488,0.269062,0.501116,0.269062,0.501116,$1*%
G04 Aperture macros list end*
%ADD10C,0.100000*%
%ADD11RoundRect,0.200000X0.275000X-0.200000X0.275000X0.200000X-0.275000X0.200000X-0.275000X-0.200000X0*%
%ADD12RoundRect,0.200000X-0.275000X0.200000X-0.275000X-0.200000X0.275000X-0.200000X0.275000X0.200000X0*%
%ADD13RoundRect,0.200000X0.200000X0.275000X-0.200000X0.275000X-0.200000X-0.275000X0.200000X-0.275000X0*%
%ADD14R,2.400000X0.740000*%
%ADD15RoundRect,0.225000X0.225000X0.250000X-0.225000X0.250000X-0.225000X-0.250000X0.225000X-0.250000X0*%
%ADD16RoundRect,0.225000X-0.225000X-0.250000X0.225000X-0.250000X0.225000X0.250000X-0.225000X0.250000X0*%
%ADD17R,1.780000X7.000000*%
%ADD18RoundRect,0.200000X-0.200000X-0.275000X0.200000X-0.275000X0.200000X0.275000X-0.200000X0.275000X0*%
%ADD19RoundRect,0.225000X0.250000X-0.225000X0.250000X0.225000X-0.250000X0.225000X-0.250000X-0.225000X0*%
%ADD20RoundRect,0.250000X-1.075000X-0.550000X1.075000X-0.550000X1.075000X0.550000X-1.075000X0.550000X0*%
%ADD21RoundRect,0.145000X-0.145000X0.145000X-0.145000X-0.145000X0.145000X-0.145000X0.145000X0.145000X0*%
%ADD22RoundRect,0.062500X-0.062500X0.375000X-0.062500X-0.375000X0.062500X-0.375000X0.062500X0.375000X0*%
%ADD23RoundRect,0.062500X-0.375000X0.062500X-0.375000X-0.062500X0.375000X-0.062500X0.375000X0.062500X0*%
%ADD24R,1.500000X2.000000*%
%ADD25R,3.800000X2.000000*%
%ADD26R,0.800000X1.500000*%
%ADD27RoundRect,0.362500X0.362500X0.637500X-0.362500X0.637500X-0.362500X-0.637500X0.362500X-0.637500X0*%
%ADD28RoundRect,0.218750X-0.256250X0.218750X-0.256250X-0.218750X0.256250X-0.218750X0.256250X0.218750X0*%
%ADD29RoundRect,0.225000X-0.250000X0.225000X-0.250000X-0.225000X0.250000X-0.225000X0.250000X0.225000X0*%
%ADD30RoundRect,0.250000X0.450000X-0.262500X0.450000X0.262500X-0.450000X0.262500X-0.450000X-0.262500X0*%
%ADD31R,3.200400X1.524000*%
%ADD32RoundRect,0.250000X0.475000X-0.250000X0.475000X0.250000X-0.475000X0.250000X-0.475000X-0.250000X0*%
%ADD33R,0.600000X0.800000*%
%ADD34R,0.350000X0.300000*%
%ADD35R,0.870000X0.235000*%
%ADD36R,0.650000X0.750000*%
%ADD37R,0.250000X0.500000*%
%ADD38RoundRect,0.150000X0.150000X-0.825000X0.150000X0.825000X-0.150000X0.825000X-0.150000X-0.825000X0*%
%ADD39R,1.400000X1.200000*%
%ADD40RoundRect,0.250000X-0.625000X0.312500X-0.625000X-0.312500X0.625000X-0.312500X0.625000X0.312500X0*%
%ADD41RoundRect,0.250000X0.250000X0.475000X-0.250000X0.475000X-0.250000X-0.475000X0.250000X-0.475000X0*%
%ADD42R,0.800000X0.950000*%
%ADD43FreePoly0,180.000000*%
%ADD44RoundRect,0.062500X0.375000X0.062500X-0.375000X0.062500X-0.375000X-0.062500X0.375000X-0.062500X0*%
%ADD45RoundRect,0.062500X0.062500X0.375000X-0.062500X0.375000X-0.062500X-0.375000X0.062500X-0.375000X0*%
%ADD46RoundRect,0.250000X-0.475000X0.250000X-0.475000X-0.250000X0.475000X-0.250000X0.475000X0.250000X0*%
%ADD47RoundRect,0.250000X0.312500X0.625000X-0.312500X0.625000X-0.312500X-0.625000X0.312500X-0.625000X0*%
%ADD48RoundRect,0.050000X0.075000X-0.250000X0.075000X0.250000X-0.075000X0.250000X-0.075000X-0.250000X0*%
%ADD49RoundRect,0.050000X0.250000X0.075000X-0.250000X0.075000X-0.250000X-0.075000X0.250000X-0.075000X0*%
%ADD50RoundRect,0.050000X-0.250000X-0.075000X0.250000X-0.075000X0.250000X0.075000X-0.250000X0.075000X0*%
%ADD51RoundRect,0.250000X-0.550000X1.075000X-0.550000X-1.075000X0.550000X-1.075000X0.550000X1.075000X0*%
%ADD52R,0.300000X0.700000*%
%ADD53R,1.000000X0.700000*%
%ADD54R,0.900000X1.500000*%
%ADD55R,1.500000X0.900000*%
%ADD56R,0.900000X0.900000*%
%ADD57RoundRect,0.249999X1.450001X-0.450001X1.450001X0.450001X-1.450001X0.450001X-1.450001X-0.450001X0*%
G04 APERTURE END LIST*
D10*
%TO.C,U3*%
X130525000Y-95370000D02*
X130675000Y-95370000D01*
X130675000Y-95370000D02*
X130675000Y-94750000D01*
X130675000Y-94750000D02*
X130525000Y-94750000D01*
X130525000Y-94750000D02*
X130525000Y-95370000D01*
G36*
X130525000Y-95370000D02*
G01*
X130675000Y-95370000D01*
X130675000Y-94750000D01*
X130525000Y-94750000D01*
X130525000Y-95370000D01*
G37*
X131025000Y-95050400D02*
X131175000Y-95050400D01*
X131175000Y-95050400D02*
X131175000Y-94575000D01*
X131175000Y-94575000D02*
X131025000Y-94575000D01*
X131025000Y-94575000D02*
X131025000Y-95050400D01*
G36*
X131025000Y-95050400D02*
G01*
X131175000Y-95050400D01*
X131175000Y-94575000D01*
X131025000Y-94575000D01*
X131025000Y-95050400D01*
G37*
X130025000Y-95050000D02*
X130175000Y-95050000D01*
X130175000Y-95050000D02*
X130175000Y-94574600D01*
X130175000Y-94574600D02*
X130025000Y-94574600D01*
X130025000Y-94574600D02*
X130025000Y-95050000D01*
G36*
X130025000Y-95050000D02*
G01*
X130175000Y-95050000D01*
X130175000Y-94574600D01*
X130025000Y-94574600D01*
X130025000Y-95050000D01*
G37*
X129400000Y-94950000D02*
X129550000Y-94950000D01*
X129550000Y-94950000D02*
X129550000Y-94450000D01*
X129550000Y-94450000D02*
X129400000Y-94450000D01*
X129400000Y-94450000D02*
X129400000Y-94950000D01*
G36*
X129400000Y-94950000D02*
G01*
X129550000Y-94950000D01*
X129550000Y-94450000D01*
X129400000Y-94450000D01*
X129400000Y-94950000D01*
G37*
X131850000Y-94950000D02*
X132000000Y-94950000D01*
X132000000Y-94950000D02*
X132000000Y-94450000D01*
X132000000Y-94450000D02*
X131850000Y-94450000D01*
X131850000Y-94450000D02*
X131850000Y-94950000D01*
G36*
X131850000Y-94950000D02*
G01*
X132000000Y-94950000D01*
X132000000Y-94450000D01*
X131850000Y-94450000D01*
X131850000Y-94950000D01*
G37*
X130525000Y-94450000D02*
X130675000Y-94450000D01*
X130675000Y-94450000D02*
X130675000Y-93830000D01*
X130675000Y-93830000D02*
X130525000Y-93830000D01*
X130525000Y-93830000D02*
X130525000Y-94450000D01*
G36*
X130525000Y-94450000D02*
G01*
X130675000Y-94450000D01*
X130675000Y-93830000D01*
X130525000Y-93830000D01*
X130525000Y-94450000D01*
G37*
X131025000Y-94275400D02*
X131175000Y-94275400D01*
X131175000Y-94275400D02*
X131175000Y-93800000D01*
X131175000Y-93800000D02*
X131025000Y-93800000D01*
X131025000Y-93800000D02*
X131025000Y-94275400D01*
G36*
X131025000Y-94275400D02*
G01*
X131175000Y-94275400D01*
X131175000Y-93800000D01*
X131025000Y-93800000D01*
X131025000Y-94275400D01*
G37*
X130025000Y-94275000D02*
X130175000Y-94275000D01*
X130175000Y-94275000D02*
X130175000Y-93799600D01*
X130175000Y-93799600D02*
X130025000Y-93799600D01*
X130025000Y-93799600D02*
X130025000Y-94275000D01*
G36*
X130025000Y-94275000D02*
G01*
X130175000Y-94275000D01*
X130175000Y-93799600D01*
X130025000Y-93799600D01*
X130025000Y-94275000D01*
G37*
%TD*%
D11*
%TO.C,R28*%
X135509000Y-122431400D03*
X135509000Y-120781400D03*
%TD*%
D12*
%TO.C,R22*%
X140106400Y-120743800D03*
X140106400Y-122393800D03*
%TD*%
D13*
%TO.C,R1*%
X111725000Y-105000000D03*
X110075000Y-105000000D03*
%TD*%
D14*
%TO.C,J1*%
X162102800Y-80365600D03*
X166002800Y-80365600D03*
X162102800Y-81635600D03*
X166002800Y-81635600D03*
X162102800Y-82905600D03*
X166002800Y-82905600D03*
X162102800Y-84175600D03*
X166002800Y-84175600D03*
X162102800Y-85445600D03*
X166002800Y-85445600D03*
%TD*%
D11*
%TO.C,R29*%
X174701200Y-91147400D03*
X174701200Y-89497400D03*
%TD*%
D15*
%TO.C,C24*%
X131790097Y-108921100D03*
X130240097Y-108921100D03*
%TD*%
D16*
%TO.C,C8*%
X98625000Y-118100000D03*
X100175000Y-118100000D03*
%TD*%
%TO.C,C17*%
X130800000Y-98150000D03*
X132350000Y-98150000D03*
%TD*%
D17*
%TO.C,L1*%
X94040000Y-111800000D03*
X99200000Y-111800000D03*
%TD*%
D11*
%TO.C,FB2*%
X154838400Y-113436400D03*
X154838400Y-111786400D03*
%TD*%
D18*
%TO.C,R12*%
X134475000Y-95750000D03*
X136125000Y-95750000D03*
%TD*%
D13*
%TO.C,R5*%
X109250000Y-108700000D03*
X107600000Y-108700000D03*
%TD*%
D19*
%TO.C,C3*%
X110200000Y-103300000D03*
X110200000Y-101750000D03*
%TD*%
D20*
%TO.C,C7*%
X91775000Y-123700000D03*
X95125000Y-123700000D03*
%TD*%
D21*
%TO.C,U2*%
X154487200Y-107793200D03*
X153767200Y-107793200D03*
X154487200Y-108513200D03*
X153767200Y-108513200D03*
D22*
X154877200Y-106715700D03*
X154377200Y-106715700D03*
X153877200Y-106715700D03*
X153377200Y-106715700D03*
D23*
X152689700Y-107403200D03*
X152689700Y-107903200D03*
X152689700Y-108403200D03*
X152689700Y-108903200D03*
D22*
X153377200Y-109590700D03*
X153877200Y-109590700D03*
X154377200Y-109590700D03*
X154877200Y-109590700D03*
D23*
X155564700Y-108903200D03*
X155564700Y-108403200D03*
X155564700Y-107903200D03*
X155564700Y-107403200D03*
%TD*%
D11*
%TO.C,R15*%
X140106400Y-125492600D03*
X140106400Y-123842600D03*
%TD*%
D24*
%TO.C,U4*%
X156000000Y-96450000D03*
X153700000Y-96450000D03*
X151400000Y-96450000D03*
D25*
X153700000Y-102750000D03*
%TD*%
D26*
%TO.C,J8*%
X154530000Y-89750000D03*
X153430000Y-89750000D03*
X152330000Y-89750000D03*
X151230000Y-89750000D03*
X150130000Y-89750000D03*
X149030000Y-89750000D03*
X147930000Y-89750000D03*
X146830000Y-89750000D03*
D27*
X158200000Y-92350000D03*
X158200000Y-84050000D03*
X144450000Y-92350000D03*
X144450000Y-84050000D03*
%TD*%
D11*
%TO.C,R16*%
X120142000Y-106849000D03*
X120142000Y-105199000D03*
%TD*%
D12*
%TO.C,R21*%
X132461000Y-120781400D03*
X132461000Y-122431400D03*
%TD*%
D11*
%TO.C,R26*%
X138582400Y-122418200D03*
X138582400Y-120768200D03*
%TD*%
D28*
%TO.C,D2*%
X117602000Y-114291000D03*
X117602000Y-115866000D03*
%TD*%
D29*
%TO.C,C21*%
X124657297Y-105250300D03*
X124657297Y-106800300D03*
%TD*%
D11*
%TO.C,R27*%
X137058400Y-122418200D03*
X137058400Y-120768200D03*
%TD*%
D30*
%TO.C,R25*%
X140157200Y-88709800D03*
X140157200Y-86884800D03*
%TD*%
D31*
%TO.C,D1*%
X107200000Y-123605000D03*
X107200000Y-116995000D03*
%TD*%
D17*
%TO.C,L2*%
X127820000Y-84050000D03*
X132980000Y-84050000D03*
%TD*%
D11*
%TO.C,R20*%
X130937000Y-122431400D03*
X130937000Y-120781400D03*
%TD*%
D32*
%TO.C,C18*%
X136200000Y-91825000D03*
X136200000Y-89925000D03*
%TD*%
D19*
%TO.C,C22*%
X130499297Y-106813300D03*
X130499297Y-105263300D03*
%TD*%
D29*
%TO.C,C13*%
X150650000Y-108525000D03*
X150650000Y-110075000D03*
%TD*%
D11*
%TO.C,R18*%
X117602000Y-118939400D03*
X117602000Y-117289400D03*
%TD*%
D19*
%TO.C,C20*%
X123191897Y-106800500D03*
X123191897Y-105250500D03*
%TD*%
D33*
%TO.C,Q4*%
X116895800Y-125299200D03*
X116195800Y-125299200D03*
D34*
X117470800Y-124324200D03*
D35*
X116505800Y-124324200D03*
D34*
X115620800Y-124324200D03*
%TD*%
D18*
%TO.C,R7*%
X105750000Y-92800000D03*
X107400000Y-92800000D03*
%TD*%
D33*
%TO.C,Q5*%
X116260800Y-95460000D03*
X116960800Y-95460000D03*
D34*
X115685800Y-96435000D03*
D35*
X116650800Y-96435000D03*
D34*
X117535800Y-96435000D03*
%TD*%
D36*
%TO.C,Q1*%
X107900000Y-113200000D03*
X108700000Y-113200000D03*
D37*
X107550000Y-114150000D03*
X108050000Y-114150000D03*
X108550000Y-114150000D03*
X109050000Y-114150000D03*
X109050000Y-112250000D03*
X108550000Y-112250000D03*
X108050000Y-112250000D03*
X107550000Y-112250000D03*
%TD*%
D19*
%TO.C,C1*%
X100100000Y-103850000D03*
X100100000Y-102300000D03*
%TD*%
D11*
%TO.C,FB1*%
X152298400Y-113436400D03*
X152298400Y-111786400D03*
%TD*%
%TO.C,R17*%
X121666000Y-106849000D03*
X121666000Y-105199000D03*
%TD*%
D38*
%TO.C,U7*%
X130303897Y-115931500D03*
X131573897Y-115931500D03*
X132843897Y-115931500D03*
X134113897Y-115931500D03*
X134113897Y-110981500D03*
X132843897Y-110981500D03*
X131573897Y-110981500D03*
X130303897Y-110981500D03*
%TD*%
D18*
%TO.C,R11*%
X134500000Y-97350000D03*
X136150000Y-97350000D03*
%TD*%
D12*
%TO.C,R2*%
X102500000Y-92550000D03*
X102500000Y-94200000D03*
%TD*%
D13*
%TO.C,R6*%
X107350000Y-94300000D03*
X105700000Y-94300000D03*
%TD*%
D39*
%TO.C,Y1*%
X126478297Y-106838300D03*
X128678297Y-106838300D03*
X128678297Y-105238300D03*
X126478297Y-105238300D03*
%TD*%
D40*
%TO.C,R3*%
X111700000Y-107037500D03*
X111700000Y-109962500D03*
%TD*%
D41*
%TO.C,C6*%
X109350000Y-106900000D03*
X107450000Y-106900000D03*
%TD*%
D19*
%TO.C,C15*%
X149700000Y-116075000D03*
X149700000Y-114525000D03*
%TD*%
D12*
%TO.C,R14*%
X148234400Y-121603000D03*
X148234400Y-123253000D03*
%TD*%
D29*
%TO.C,C23*%
X133985000Y-120831400D03*
X133985000Y-122381400D03*
%TD*%
D18*
%TO.C,R8*%
X148225000Y-106700000D03*
X149875000Y-106700000D03*
%TD*%
D19*
%TO.C,C5*%
X101900000Y-103875000D03*
X101900000Y-102325000D03*
%TD*%
D28*
%TO.C,D3*%
X115976400Y-114291100D03*
X115976400Y-115866100D03*
%TD*%
D29*
%TO.C,C2*%
X104000000Y-92600000D03*
X104000000Y-94150000D03*
%TD*%
D18*
%TO.C,R13*%
X126000000Y-95550000D03*
X127650000Y-95550000D03*
%TD*%
D42*
%TO.C,U5*%
X103000000Y-97300000D03*
X104000000Y-97300000D03*
D37*
X102250000Y-98250000D03*
X102750000Y-98250000D03*
X103250000Y-98250000D03*
X103750000Y-98250000D03*
X104250000Y-98250000D03*
X104750000Y-98250000D03*
X104750000Y-96350000D03*
X104250000Y-96350000D03*
X103750000Y-96350000D03*
X103250000Y-96350000D03*
X102750000Y-96350000D03*
X102250000Y-96350000D03*
%TD*%
D43*
%TO.C,U6*%
X126231397Y-115400000D03*
X126231397Y-114225000D03*
X126231397Y-113050000D03*
X126231397Y-111875000D03*
X125231397Y-115400000D03*
X125231397Y-114225000D03*
X125231397Y-113050000D03*
X125231397Y-111875000D03*
X124231397Y-115400000D03*
X124231397Y-114225000D03*
X124231397Y-113050000D03*
X124231397Y-111875000D03*
X123231397Y-115400000D03*
X123231397Y-114225000D03*
X123231397Y-113050000D03*
X123231397Y-111875000D03*
D44*
X128668897Y-116887500D03*
X128668897Y-116387500D03*
X128668897Y-115887500D03*
X128668897Y-115387500D03*
X128668897Y-114887500D03*
X128668897Y-114387500D03*
X128668897Y-113887500D03*
X128668897Y-113387500D03*
X128668897Y-112887500D03*
X128668897Y-112387500D03*
X128668897Y-111887500D03*
X128668897Y-111387500D03*
X128668897Y-110887500D03*
X128668897Y-110387500D03*
D45*
X127981397Y-109700000D03*
X127481397Y-109700000D03*
X126981397Y-109700000D03*
X126481397Y-109700000D03*
X125981397Y-109700000D03*
X125481397Y-109700000D03*
X124981397Y-109700000D03*
X124481397Y-109700000D03*
X123981397Y-109700000D03*
X123481397Y-109700000D03*
X122981397Y-109700000D03*
X122481397Y-109700000D03*
X121981397Y-109700000D03*
X121481397Y-109700000D03*
D44*
X120793897Y-110387500D03*
X120793897Y-110887500D03*
X120793897Y-111387500D03*
X120793897Y-111887500D03*
X120793897Y-112387500D03*
X120793897Y-112887500D03*
X120793897Y-113387500D03*
X120793897Y-113887500D03*
X120793897Y-114387500D03*
X120793897Y-114887500D03*
X120793897Y-115387500D03*
X120793897Y-115887500D03*
X120793897Y-116387500D03*
X120793897Y-116887500D03*
D45*
X121481397Y-117575000D03*
X121981397Y-117575000D03*
X122481397Y-117575000D03*
X122981397Y-117575000D03*
X123481397Y-117575000D03*
X123981397Y-117575000D03*
X124481397Y-117575000D03*
X124981397Y-117575000D03*
X125481397Y-117575000D03*
X125981397Y-117575000D03*
X126481397Y-117575000D03*
X126981397Y-117575000D03*
X127481397Y-117575000D03*
X127981397Y-117575000D03*
%TD*%
D19*
%TO.C,C14*%
X157429200Y-115976400D03*
X157429200Y-114426400D03*
%TD*%
%TO.C,C26*%
X176225200Y-91110400D03*
X176225200Y-89560400D03*
%TD*%
D46*
%TO.C,C12*%
X148477200Y-108340700D03*
X148477200Y-110240700D03*
%TD*%
D11*
%TO.C,R19*%
X115976400Y-118939400D03*
X115976400Y-117289400D03*
%TD*%
D13*
%TO.C,R10*%
X136150000Y-94150000D03*
X134500000Y-94150000D03*
%TD*%
D47*
%TO.C,R4*%
X105962500Y-110500000D03*
X103037500Y-110500000D03*
%TD*%
D13*
%TO.C,R9*%
X123214400Y-119193400D03*
X121564400Y-119193400D03*
%TD*%
D29*
%TO.C,C11*%
X146200000Y-101125000D03*
X146200000Y-102675000D03*
%TD*%
D41*
%TO.C,C9*%
X96800000Y-117700000D03*
X94900000Y-117700000D03*
%TD*%
D32*
%TO.C,C16*%
X125300000Y-92075000D03*
X125300000Y-90175000D03*
%TD*%
D46*
%TO.C,C10*%
X146200000Y-96800000D03*
X146200000Y-98700000D03*
%TD*%
D28*
%TO.C,D7*%
X139954000Y-90313700D03*
X139954000Y-91888700D03*
%TD*%
D48*
%TO.C,U3*%
X129850000Y-96350000D03*
X130350000Y-96350000D03*
X130850000Y-96350000D03*
X131350000Y-96350000D03*
D49*
X132100000Y-95950000D03*
X132100000Y-95450000D03*
X132100000Y-94950000D03*
X132100000Y-94450000D03*
D50*
X129300000Y-94450000D03*
X129300000Y-94950000D03*
X129300000Y-95450000D03*
X129300000Y-95950000D03*
%TD*%
D32*
%TO.C,C19*%
X138226800Y-91848000D03*
X138226800Y-89948000D03*
%TD*%
D51*
%TO.C,C25*%
X179500000Y-87825000D03*
X179500000Y-91175000D03*
%TD*%
D52*
%TO.C,J5*%
X121714000Y-121312400D03*
X122214000Y-121312400D03*
X122714000Y-121312400D03*
X123214000Y-121312400D03*
X123714000Y-121312400D03*
X124214000Y-121312400D03*
X125214000Y-121312400D03*
X125714000Y-121312400D03*
X126214000Y-121312400D03*
X126714000Y-121312400D03*
X127214000Y-121312400D03*
X127714000Y-121312400D03*
D53*
X127814000Y-122612400D03*
D52*
X126964000Y-122612400D03*
X126464000Y-122612400D03*
X125964000Y-122612400D03*
X125464000Y-122612400D03*
X124964000Y-122612400D03*
X124464000Y-122612400D03*
X123964000Y-122612400D03*
X123464000Y-122612400D03*
X122964000Y-122612400D03*
X122464000Y-122612400D03*
D53*
X121614000Y-122612400D03*
%TD*%
D54*
%TO.C,U1*%
X181610000Y-94120000D03*
X180340000Y-94120000D03*
X179070000Y-94120000D03*
X177800000Y-94120000D03*
X176530000Y-94120000D03*
X175260000Y-94120000D03*
X173990000Y-94120000D03*
X172720000Y-94120000D03*
X171450000Y-94120000D03*
X170180000Y-94120000D03*
X168910000Y-94120000D03*
X167640000Y-94120000D03*
X166370000Y-94120000D03*
X165100000Y-94120000D03*
D55*
X163850000Y-97150000D03*
X163850000Y-98420000D03*
X163850000Y-99690000D03*
X163850000Y-100960000D03*
X163850000Y-102230000D03*
X163850000Y-103500000D03*
X163850000Y-104770000D03*
X163850000Y-106040000D03*
X163850000Y-107310000D03*
X163850000Y-108580000D03*
D54*
X165100000Y-111620000D03*
X166370000Y-111620000D03*
X167640000Y-111620000D03*
X168910000Y-111620000D03*
X170180000Y-111620000D03*
X171450000Y-111620000D03*
X172720000Y-111620000D03*
X173990000Y-111620000D03*
X175260000Y-111620000D03*
X176530000Y-111620000D03*
X177800000Y-111620000D03*
X179070000Y-111620000D03*
X180340000Y-111620000D03*
X181610000Y-111620000D03*
D56*
X175290000Y-99970000D03*
X175290000Y-99970000D03*
X173890000Y-99970000D03*
X172490000Y-99970000D03*
X172490000Y-99970000D03*
X175290000Y-101370000D03*
X173890000Y-101370000D03*
X172490000Y-101370000D03*
X172490000Y-101370000D03*
X175290000Y-102770000D03*
X173890000Y-102770000D03*
X172490000Y-102770000D03*
%TD*%
D57*
%TO.C,C4*%
X106400000Y-103950000D03*
X106400000Y-99850000D03*
%TD*%
M02*
