%TF.GenerationSoftware,KiCad,Pcbnew,7.0.9*%
%TF.CreationDate,2024-01-24T14:37:03-05:00*%
%TF.ProjectId,FinalPcbLayout,46696e61-6c50-4636-924c-61796f75742e,rev?*%
%TF.SameCoordinates,Original*%
%TF.FileFunction,Soldermask,Bot*%
%TF.FilePolarity,Negative*%
%FSLAX46Y46*%
G04 Gerber Fmt 4.6, Leading zero omitted, Abs format (unit mm)*
G04 Created by KiCad (PCBNEW 7.0.9) date 2024-01-24 14:37:03*
%MOMM*%
%LPD*%
G01*
G04 APERTURE LIST*
%ADD10R,1.700000X1.700000*%
%ADD11O,1.700000X1.700000*%
%ADD12R,1.500000X1.050000*%
%ADD13O,1.500000X1.050000*%
%ADD14C,4.400000*%
%ADD15R,2.100000X2.100000*%
%ADD16C,2.100000*%
%ADD17O,1.100000X2.100000*%
%ADD18O,1.100000X2.600000*%
%ADD19R,4.600000X2.000000*%
%ADD20O,4.200000X2.000000*%
%ADD21O,2.000000X4.200000*%
G04 APERTURE END LIST*
D10*
%TO.C,J9*%
X93537800Y-89515800D03*
D11*
X96077800Y-89515800D03*
X98617800Y-89515800D03*
%TD*%
D12*
%TO.C,Q3*%
X144373600Y-124510800D03*
D13*
X144373600Y-123240800D03*
X144373600Y-121970800D03*
%TD*%
D14*
%TO.C,H4*%
X180000000Y-126000000D03*
%TD*%
D15*
%TO.C,J4*%
X158676000Y-125650000D03*
D16*
X161216000Y-125650000D03*
X163756000Y-125650000D03*
%TD*%
D10*
%TO.C,J6*%
X154840000Y-115957246D03*
D11*
X152300000Y-115957246D03*
%TD*%
D15*
%TO.C,SW1*%
X173200000Y-82900000D03*
D16*
X170660000Y-82900000D03*
%TD*%
D14*
%TO.C,H3*%
X180000000Y-82250000D03*
%TD*%
D15*
%TO.C,J2*%
X167820000Y-125650000D03*
D16*
X170360000Y-125650000D03*
X172900000Y-125650000D03*
%TD*%
D12*
%TO.C,Q2*%
X144373600Y-118973600D03*
D13*
X144373600Y-117703600D03*
X144373600Y-116433600D03*
%TD*%
D14*
%TO.C,H2*%
X86980000Y-126080000D03*
%TD*%
D10*
%TO.C,J7*%
X82070000Y-87590000D03*
D11*
X82070000Y-90130000D03*
X82070000Y-92670000D03*
X82070000Y-95210000D03*
X82070000Y-97750000D03*
X82070000Y-100290000D03*
X82070000Y-102830000D03*
X82070000Y-105370000D03*
X82070000Y-107910000D03*
X82070000Y-110450000D03*
X82070000Y-112990000D03*
X82070000Y-115530000D03*
X82070000Y-118070000D03*
X82070000Y-120610000D03*
%TD*%
D17*
%TO.C,J5*%
X120394000Y-121722400D03*
D18*
X120394000Y-127082400D03*
D17*
X129034000Y-121722400D03*
D18*
X129034000Y-127082400D03*
%TD*%
D19*
%TO.C,J3*%
X116560000Y-92980000D03*
D20*
X116560000Y-86680000D03*
D21*
X111760000Y-90080000D03*
%TD*%
D14*
%TO.C,H1*%
X87000000Y-82100000D03*
%TD*%
M02*
