%TF.GenerationSoftware,KiCad,Pcbnew,7.0.9*%
%TF.CreationDate,2024-01-24T14:37:03-05:00*%
%TF.ProjectId,FinalPcbLayout,46696e61-6c50-4636-924c-61796f75742e,rev?*%
%TF.SameCoordinates,Original*%
%TF.FileFunction,Legend,Top*%
%TF.FilePolarity,Positive*%
%FSLAX46Y46*%
G04 Gerber Fmt 4.6, Leading zero omitted, Abs format (unit mm)*
G04 Created by KiCad (PCBNEW 7.0.9) date 2024-01-24 14:37:03*
%MOMM*%
%LPD*%
G01*
G04 APERTURE LIST*
%ADD10C,0.250000*%
%ADD11C,0.150000*%
%ADD12C,0.100000*%
%ADD13C,0.120000*%
%ADD14C,0.152400*%
G04 APERTURE END LIST*
D10*
X87357819Y-118164631D02*
X86357819Y-118164631D01*
X86357819Y-118164631D02*
X86357819Y-117926536D01*
X86357819Y-117926536D02*
X86405438Y-117783679D01*
X86405438Y-117783679D02*
X86500676Y-117688441D01*
X86500676Y-117688441D02*
X86595914Y-117640822D01*
X86595914Y-117640822D02*
X86786390Y-117593203D01*
X86786390Y-117593203D02*
X86929247Y-117593203D01*
X86929247Y-117593203D02*
X87119723Y-117640822D01*
X87119723Y-117640822D02*
X87214961Y-117688441D01*
X87214961Y-117688441D02*
X87310200Y-117783679D01*
X87310200Y-117783679D02*
X87357819Y-117926536D01*
X87357819Y-117926536D02*
X87357819Y-118164631D01*
X87310200Y-116783679D02*
X87357819Y-116878917D01*
X87357819Y-116878917D02*
X87357819Y-117069393D01*
X87357819Y-117069393D02*
X87310200Y-117164631D01*
X87310200Y-117164631D02*
X87214961Y-117212250D01*
X87214961Y-117212250D02*
X86834009Y-117212250D01*
X86834009Y-117212250D02*
X86738771Y-117164631D01*
X86738771Y-117164631D02*
X86691152Y-117069393D01*
X86691152Y-117069393D02*
X86691152Y-116878917D01*
X86691152Y-116878917D02*
X86738771Y-116783679D01*
X86738771Y-116783679D02*
X86834009Y-116736060D01*
X86834009Y-116736060D02*
X86929247Y-116736060D01*
X86929247Y-116736060D02*
X87024485Y-117212250D01*
X87310200Y-116355107D02*
X87357819Y-116259869D01*
X87357819Y-116259869D02*
X87357819Y-116069393D01*
X87357819Y-116069393D02*
X87310200Y-115974155D01*
X87310200Y-115974155D02*
X87214961Y-115926536D01*
X87214961Y-115926536D02*
X87167342Y-115926536D01*
X87167342Y-115926536D02*
X87072104Y-115974155D01*
X87072104Y-115974155D02*
X87024485Y-116069393D01*
X87024485Y-116069393D02*
X87024485Y-116212250D01*
X87024485Y-116212250D02*
X86976866Y-116307488D01*
X86976866Y-116307488D02*
X86881628Y-116355107D01*
X86881628Y-116355107D02*
X86834009Y-116355107D01*
X86834009Y-116355107D02*
X86738771Y-116307488D01*
X86738771Y-116307488D02*
X86691152Y-116212250D01*
X86691152Y-116212250D02*
X86691152Y-116069393D01*
X86691152Y-116069393D02*
X86738771Y-115974155D01*
X87357819Y-115497964D02*
X86691152Y-115497964D01*
X86357819Y-115497964D02*
X86405438Y-115545583D01*
X86405438Y-115545583D02*
X86453057Y-115497964D01*
X86453057Y-115497964D02*
X86405438Y-115450345D01*
X86405438Y-115450345D02*
X86357819Y-115497964D01*
X86357819Y-115497964D02*
X86453057Y-115497964D01*
X86691152Y-114593203D02*
X87500676Y-114593203D01*
X87500676Y-114593203D02*
X87595914Y-114640822D01*
X87595914Y-114640822D02*
X87643533Y-114688441D01*
X87643533Y-114688441D02*
X87691152Y-114783679D01*
X87691152Y-114783679D02*
X87691152Y-114926536D01*
X87691152Y-114926536D02*
X87643533Y-115021774D01*
X87310200Y-114593203D02*
X87357819Y-114688441D01*
X87357819Y-114688441D02*
X87357819Y-114878917D01*
X87357819Y-114878917D02*
X87310200Y-114974155D01*
X87310200Y-114974155D02*
X87262580Y-115021774D01*
X87262580Y-115021774D02*
X87167342Y-115069393D01*
X87167342Y-115069393D02*
X86881628Y-115069393D01*
X86881628Y-115069393D02*
X86786390Y-115021774D01*
X86786390Y-115021774D02*
X86738771Y-114974155D01*
X86738771Y-114974155D02*
X86691152Y-114878917D01*
X86691152Y-114878917D02*
X86691152Y-114688441D01*
X86691152Y-114688441D02*
X86738771Y-114593203D01*
X86691152Y-114117012D02*
X87357819Y-114117012D01*
X86786390Y-114117012D02*
X86738771Y-114069393D01*
X86738771Y-114069393D02*
X86691152Y-113974155D01*
X86691152Y-113974155D02*
X86691152Y-113831298D01*
X86691152Y-113831298D02*
X86738771Y-113736060D01*
X86738771Y-113736060D02*
X86834009Y-113688441D01*
X86834009Y-113688441D02*
X87357819Y-113688441D01*
X87310200Y-112831298D02*
X87357819Y-112926536D01*
X87357819Y-112926536D02*
X87357819Y-113117012D01*
X87357819Y-113117012D02*
X87310200Y-113212250D01*
X87310200Y-113212250D02*
X87214961Y-113259869D01*
X87214961Y-113259869D02*
X86834009Y-113259869D01*
X86834009Y-113259869D02*
X86738771Y-113212250D01*
X86738771Y-113212250D02*
X86691152Y-113117012D01*
X86691152Y-113117012D02*
X86691152Y-112926536D01*
X86691152Y-112926536D02*
X86738771Y-112831298D01*
X86738771Y-112831298D02*
X86834009Y-112783679D01*
X86834009Y-112783679D02*
X86929247Y-112783679D01*
X86929247Y-112783679D02*
X87024485Y-113259869D01*
X87357819Y-112355107D02*
X86691152Y-112355107D01*
X86881628Y-112355107D02*
X86786390Y-112307488D01*
X86786390Y-112307488D02*
X86738771Y-112259869D01*
X86738771Y-112259869D02*
X86691152Y-112164631D01*
X86691152Y-112164631D02*
X86691152Y-112069393D01*
X87310200Y-111783678D02*
X87357819Y-111688440D01*
X87357819Y-111688440D02*
X87357819Y-111497964D01*
X87357819Y-111497964D02*
X87310200Y-111402726D01*
X87310200Y-111402726D02*
X87214961Y-111355107D01*
X87214961Y-111355107D02*
X87167342Y-111355107D01*
X87167342Y-111355107D02*
X87072104Y-111402726D01*
X87072104Y-111402726D02*
X87024485Y-111497964D01*
X87024485Y-111497964D02*
X87024485Y-111640821D01*
X87024485Y-111640821D02*
X86976866Y-111736059D01*
X86976866Y-111736059D02*
X86881628Y-111783678D01*
X86881628Y-111783678D02*
X86834009Y-111783678D01*
X86834009Y-111783678D02*
X86738771Y-111736059D01*
X86738771Y-111736059D02*
X86691152Y-111640821D01*
X86691152Y-111640821D02*
X86691152Y-111497964D01*
X86691152Y-111497964D02*
X86738771Y-111402726D01*
X87262580Y-110926535D02*
X87310200Y-110878916D01*
X87310200Y-110878916D02*
X87357819Y-110926535D01*
X87357819Y-110926535D02*
X87310200Y-110974154D01*
X87310200Y-110974154D02*
X87262580Y-110926535D01*
X87262580Y-110926535D02*
X87357819Y-110926535D01*
X86738771Y-110926535D02*
X86786390Y-110878916D01*
X86786390Y-110878916D02*
X86834009Y-110926535D01*
X86834009Y-110926535D02*
X86786390Y-110974154D01*
X86786390Y-110974154D02*
X86738771Y-110926535D01*
X86738771Y-110926535D02*
X86834009Y-110926535D01*
X86357819Y-109402726D02*
X87072104Y-109402726D01*
X87072104Y-109402726D02*
X87214961Y-109450345D01*
X87214961Y-109450345D02*
X87310200Y-109545583D01*
X87310200Y-109545583D02*
X87357819Y-109688440D01*
X87357819Y-109688440D02*
X87357819Y-109783678D01*
X87357819Y-108497964D02*
X86834009Y-108497964D01*
X86834009Y-108497964D02*
X86738771Y-108545583D01*
X86738771Y-108545583D02*
X86691152Y-108640821D01*
X86691152Y-108640821D02*
X86691152Y-108831297D01*
X86691152Y-108831297D02*
X86738771Y-108926535D01*
X87310200Y-108497964D02*
X87357819Y-108593202D01*
X87357819Y-108593202D02*
X87357819Y-108831297D01*
X87357819Y-108831297D02*
X87310200Y-108926535D01*
X87310200Y-108926535D02*
X87214961Y-108974154D01*
X87214961Y-108974154D02*
X87119723Y-108974154D01*
X87119723Y-108974154D02*
X87024485Y-108926535D01*
X87024485Y-108926535D02*
X86976866Y-108831297D01*
X86976866Y-108831297D02*
X86976866Y-108593202D01*
X86976866Y-108593202D02*
X86929247Y-108497964D01*
X87357819Y-108021773D02*
X86357819Y-108021773D01*
X86976866Y-107926535D02*
X87357819Y-107640821D01*
X86691152Y-107640821D02*
X87072104Y-108021773D01*
X87310200Y-106831297D02*
X87357819Y-106926535D01*
X87357819Y-106926535D02*
X87357819Y-107117011D01*
X87357819Y-107117011D02*
X87310200Y-107212249D01*
X87310200Y-107212249D02*
X87214961Y-107259868D01*
X87214961Y-107259868D02*
X86834009Y-107259868D01*
X86834009Y-107259868D02*
X86738771Y-107212249D01*
X86738771Y-107212249D02*
X86691152Y-107117011D01*
X86691152Y-107117011D02*
X86691152Y-106926535D01*
X86691152Y-106926535D02*
X86738771Y-106831297D01*
X86738771Y-106831297D02*
X86834009Y-106783678D01*
X86834009Y-106783678D02*
X86929247Y-106783678D01*
X86929247Y-106783678D02*
X87024485Y-107259868D01*
X87072104Y-105640820D02*
X87072104Y-105164630D01*
X87357819Y-105736058D02*
X86357819Y-105402725D01*
X86357819Y-105402725D02*
X87357819Y-105069392D01*
X87357819Y-104736058D02*
X86691152Y-104736058D01*
X86881628Y-104736058D02*
X86786390Y-104688439D01*
X86786390Y-104688439D02*
X86738771Y-104640820D01*
X86738771Y-104640820D02*
X86691152Y-104545582D01*
X86691152Y-104545582D02*
X86691152Y-104450344D01*
X87357819Y-104117010D02*
X86691152Y-104117010D01*
X86786390Y-104117010D02*
X86738771Y-104069391D01*
X86738771Y-104069391D02*
X86691152Y-103974153D01*
X86691152Y-103974153D02*
X86691152Y-103831296D01*
X86691152Y-103831296D02*
X86738771Y-103736058D01*
X86738771Y-103736058D02*
X86834009Y-103688439D01*
X86834009Y-103688439D02*
X87357819Y-103688439D01*
X86834009Y-103688439D02*
X86738771Y-103640820D01*
X86738771Y-103640820D02*
X86691152Y-103545582D01*
X86691152Y-103545582D02*
X86691152Y-103402725D01*
X86691152Y-103402725D02*
X86738771Y-103307486D01*
X86738771Y-103307486D02*
X86834009Y-103259867D01*
X86834009Y-103259867D02*
X87357819Y-103259867D01*
X87310200Y-102831296D02*
X87357819Y-102736058D01*
X87357819Y-102736058D02*
X87357819Y-102545582D01*
X87357819Y-102545582D02*
X87310200Y-102450344D01*
X87310200Y-102450344D02*
X87214961Y-102402725D01*
X87214961Y-102402725D02*
X87167342Y-102402725D01*
X87167342Y-102402725D02*
X87072104Y-102450344D01*
X87072104Y-102450344D02*
X87024485Y-102545582D01*
X87024485Y-102545582D02*
X87024485Y-102688439D01*
X87024485Y-102688439D02*
X86976866Y-102783677D01*
X86976866Y-102783677D02*
X86881628Y-102831296D01*
X86881628Y-102831296D02*
X86834009Y-102831296D01*
X86834009Y-102831296D02*
X86738771Y-102783677D01*
X86738771Y-102783677D02*
X86691152Y-102688439D01*
X86691152Y-102688439D02*
X86691152Y-102545582D01*
X86691152Y-102545582D02*
X86738771Y-102450344D01*
X86691152Y-102117010D02*
X86691152Y-101736058D01*
X86357819Y-101974153D02*
X87214961Y-101974153D01*
X87214961Y-101974153D02*
X87310200Y-101926534D01*
X87310200Y-101926534D02*
X87357819Y-101831296D01*
X87357819Y-101831296D02*
X87357819Y-101736058D01*
X87357819Y-101402724D02*
X86691152Y-101402724D01*
X86881628Y-101402724D02*
X86786390Y-101355105D01*
X86786390Y-101355105D02*
X86738771Y-101307486D01*
X86738771Y-101307486D02*
X86691152Y-101212248D01*
X86691152Y-101212248D02*
X86691152Y-101117010D01*
X87357819Y-100640819D02*
X87310200Y-100736057D01*
X87310200Y-100736057D02*
X87262580Y-100783676D01*
X87262580Y-100783676D02*
X87167342Y-100831295D01*
X87167342Y-100831295D02*
X86881628Y-100831295D01*
X86881628Y-100831295D02*
X86786390Y-100783676D01*
X86786390Y-100783676D02*
X86738771Y-100736057D01*
X86738771Y-100736057D02*
X86691152Y-100640819D01*
X86691152Y-100640819D02*
X86691152Y-100497962D01*
X86691152Y-100497962D02*
X86738771Y-100402724D01*
X86738771Y-100402724D02*
X86786390Y-100355105D01*
X86786390Y-100355105D02*
X86881628Y-100307486D01*
X86881628Y-100307486D02*
X87167342Y-100307486D01*
X87167342Y-100307486D02*
X87262580Y-100355105D01*
X87262580Y-100355105D02*
X87310200Y-100402724D01*
X87310200Y-100402724D02*
X87357819Y-100497962D01*
X87357819Y-100497962D02*
X87357819Y-100640819D01*
X86691152Y-99878914D02*
X87357819Y-99878914D01*
X86786390Y-99878914D02*
X86738771Y-99831295D01*
X86738771Y-99831295D02*
X86691152Y-99736057D01*
X86691152Y-99736057D02*
X86691152Y-99593200D01*
X86691152Y-99593200D02*
X86738771Y-99497962D01*
X86738771Y-99497962D02*
X86834009Y-99450343D01*
X86834009Y-99450343D02*
X87357819Y-99450343D01*
X86691152Y-98545581D02*
X87500676Y-98545581D01*
X87500676Y-98545581D02*
X87595914Y-98593200D01*
X87595914Y-98593200D02*
X87643533Y-98640819D01*
X87643533Y-98640819D02*
X87691152Y-98736057D01*
X87691152Y-98736057D02*
X87691152Y-98878914D01*
X87691152Y-98878914D02*
X87643533Y-98974152D01*
X87310200Y-98545581D02*
X87357819Y-98640819D01*
X87357819Y-98640819D02*
X87357819Y-98831295D01*
X87357819Y-98831295D02*
X87310200Y-98926533D01*
X87310200Y-98926533D02*
X87262580Y-98974152D01*
X87262580Y-98974152D02*
X87167342Y-99021771D01*
X87167342Y-99021771D02*
X86881628Y-99021771D01*
X86881628Y-99021771D02*
X86786390Y-98974152D01*
X86786390Y-98974152D02*
X86738771Y-98926533D01*
X86738771Y-98926533D02*
X86691152Y-98831295D01*
X86691152Y-98831295D02*
X86691152Y-98640819D01*
X86691152Y-98640819D02*
X86738771Y-98545581D01*
X87310200Y-98021771D02*
X87357819Y-98021771D01*
X87357819Y-98021771D02*
X87453057Y-98069390D01*
X87453057Y-98069390D02*
X87500676Y-98117009D01*
X86357819Y-96974152D02*
X86357819Y-96402724D01*
X87357819Y-96688438D02*
X86357819Y-96688438D01*
X86691152Y-96164628D02*
X87357819Y-95926533D01*
X86691152Y-95688438D02*
X87357819Y-95926533D01*
X87357819Y-95926533D02*
X87595914Y-96021771D01*
X87595914Y-96021771D02*
X87643533Y-96069390D01*
X87643533Y-96069390D02*
X87691152Y-96164628D01*
X87357819Y-95307485D02*
X86691152Y-95307485D01*
X86881628Y-95307485D02*
X86786390Y-95259866D01*
X86786390Y-95259866D02*
X86738771Y-95212247D01*
X86738771Y-95212247D02*
X86691152Y-95117009D01*
X86691152Y-95117009D02*
X86691152Y-95021771D01*
X87357819Y-94259866D02*
X86834009Y-94259866D01*
X86834009Y-94259866D02*
X86738771Y-94307485D01*
X86738771Y-94307485D02*
X86691152Y-94402723D01*
X86691152Y-94402723D02*
X86691152Y-94593199D01*
X86691152Y-94593199D02*
X86738771Y-94688437D01*
X87310200Y-94259866D02*
X87357819Y-94355104D01*
X87357819Y-94355104D02*
X87357819Y-94593199D01*
X87357819Y-94593199D02*
X87310200Y-94688437D01*
X87310200Y-94688437D02*
X87214961Y-94736056D01*
X87214961Y-94736056D02*
X87119723Y-94736056D01*
X87119723Y-94736056D02*
X87024485Y-94688437D01*
X87024485Y-94688437D02*
X86976866Y-94593199D01*
X86976866Y-94593199D02*
X86976866Y-94355104D01*
X86976866Y-94355104D02*
X86929247Y-94259866D01*
X87262580Y-92450342D02*
X87310200Y-92497961D01*
X87310200Y-92497961D02*
X87357819Y-92640818D01*
X87357819Y-92640818D02*
X87357819Y-92736056D01*
X87357819Y-92736056D02*
X87310200Y-92878913D01*
X87310200Y-92878913D02*
X87214961Y-92974151D01*
X87214961Y-92974151D02*
X87119723Y-93021770D01*
X87119723Y-93021770D02*
X86929247Y-93069389D01*
X86929247Y-93069389D02*
X86786390Y-93069389D01*
X86786390Y-93069389D02*
X86595914Y-93021770D01*
X86595914Y-93021770D02*
X86500676Y-92974151D01*
X86500676Y-92974151D02*
X86405438Y-92878913D01*
X86405438Y-92878913D02*
X86357819Y-92736056D01*
X86357819Y-92736056D02*
X86357819Y-92640818D01*
X86357819Y-92640818D02*
X86405438Y-92497961D01*
X86405438Y-92497961D02*
X86453057Y-92450342D01*
X87357819Y-91878913D02*
X87310200Y-91974151D01*
X87310200Y-91974151D02*
X87262580Y-92021770D01*
X87262580Y-92021770D02*
X87167342Y-92069389D01*
X87167342Y-92069389D02*
X86881628Y-92069389D01*
X86881628Y-92069389D02*
X86786390Y-92021770D01*
X86786390Y-92021770D02*
X86738771Y-91974151D01*
X86738771Y-91974151D02*
X86691152Y-91878913D01*
X86691152Y-91878913D02*
X86691152Y-91736056D01*
X86691152Y-91736056D02*
X86738771Y-91640818D01*
X86738771Y-91640818D02*
X86786390Y-91593199D01*
X86786390Y-91593199D02*
X86881628Y-91545580D01*
X86881628Y-91545580D02*
X87167342Y-91545580D01*
X87167342Y-91545580D02*
X87262580Y-91593199D01*
X87262580Y-91593199D02*
X87310200Y-91640818D01*
X87310200Y-91640818D02*
X87357819Y-91736056D01*
X87357819Y-91736056D02*
X87357819Y-91878913D01*
X87357819Y-91117008D02*
X86691152Y-91117008D01*
X86881628Y-91117008D02*
X86786390Y-91069389D01*
X86786390Y-91069389D02*
X86738771Y-91021770D01*
X86738771Y-91021770D02*
X86691152Y-90926532D01*
X86691152Y-90926532D02*
X86691152Y-90831294D01*
X87357819Y-90497960D02*
X86691152Y-90497960D01*
X86881628Y-90497960D02*
X86786390Y-90450341D01*
X86786390Y-90450341D02*
X86738771Y-90402722D01*
X86738771Y-90402722D02*
X86691152Y-90307484D01*
X86691152Y-90307484D02*
X86691152Y-90212246D01*
X87310200Y-89497960D02*
X87357819Y-89593198D01*
X87357819Y-89593198D02*
X87357819Y-89783674D01*
X87357819Y-89783674D02*
X87310200Y-89878912D01*
X87310200Y-89878912D02*
X87214961Y-89926531D01*
X87214961Y-89926531D02*
X86834009Y-89926531D01*
X86834009Y-89926531D02*
X86738771Y-89878912D01*
X86738771Y-89878912D02*
X86691152Y-89783674D01*
X86691152Y-89783674D02*
X86691152Y-89593198D01*
X86691152Y-89593198D02*
X86738771Y-89497960D01*
X86738771Y-89497960D02*
X86834009Y-89450341D01*
X86834009Y-89450341D02*
X86929247Y-89450341D01*
X86929247Y-89450341D02*
X87024485Y-89926531D01*
X87357819Y-89021769D02*
X86691152Y-89021769D01*
X86357819Y-89021769D02*
X86405438Y-89069388D01*
X86405438Y-89069388D02*
X86453057Y-89021769D01*
X86453057Y-89021769D02*
X86405438Y-88974150D01*
X86405438Y-88974150D02*
X86357819Y-89021769D01*
X86357819Y-89021769D02*
X86453057Y-89021769D01*
X87357819Y-88117008D02*
X86834009Y-88117008D01*
X86834009Y-88117008D02*
X86738771Y-88164627D01*
X86738771Y-88164627D02*
X86691152Y-88259865D01*
X86691152Y-88259865D02*
X86691152Y-88450341D01*
X86691152Y-88450341D02*
X86738771Y-88545579D01*
X87310200Y-88117008D02*
X87357819Y-88212246D01*
X87357819Y-88212246D02*
X87357819Y-88450341D01*
X87357819Y-88450341D02*
X87310200Y-88545579D01*
X87310200Y-88545579D02*
X87214961Y-88593198D01*
X87214961Y-88593198D02*
X87119723Y-88593198D01*
X87119723Y-88593198D02*
X87024485Y-88545579D01*
X87024485Y-88545579D02*
X86976866Y-88450341D01*
X86976866Y-88450341D02*
X86976866Y-88212246D01*
X86976866Y-88212246D02*
X86929247Y-88117008D01*
X87967819Y-117878917D02*
X88682104Y-117878917D01*
X88682104Y-117878917D02*
X88824961Y-117926536D01*
X88824961Y-117926536D02*
X88920200Y-118021774D01*
X88920200Y-118021774D02*
X88967819Y-118164631D01*
X88967819Y-118164631D02*
X88967819Y-118259869D01*
X88967819Y-116926536D02*
X88967819Y-117402726D01*
X88967819Y-117402726D02*
X87967819Y-117402726D01*
X88872580Y-116021774D02*
X88920200Y-116069393D01*
X88920200Y-116069393D02*
X88967819Y-116212250D01*
X88967819Y-116212250D02*
X88967819Y-116307488D01*
X88967819Y-116307488D02*
X88920200Y-116450345D01*
X88920200Y-116450345D02*
X88824961Y-116545583D01*
X88824961Y-116545583D02*
X88729723Y-116593202D01*
X88729723Y-116593202D02*
X88539247Y-116640821D01*
X88539247Y-116640821D02*
X88396390Y-116640821D01*
X88396390Y-116640821D02*
X88205914Y-116593202D01*
X88205914Y-116593202D02*
X88110676Y-116545583D01*
X88110676Y-116545583D02*
X88015438Y-116450345D01*
X88015438Y-116450345D02*
X87967819Y-116307488D01*
X87967819Y-116307488D02*
X87967819Y-116212250D01*
X87967819Y-116212250D02*
X88015438Y-116069393D01*
X88015438Y-116069393D02*
X88063057Y-116021774D01*
X87967819Y-115307488D02*
X88682104Y-115307488D01*
X88682104Y-115307488D02*
X88824961Y-115355107D01*
X88824961Y-115355107D02*
X88920200Y-115450345D01*
X88920200Y-115450345D02*
X88967819Y-115593202D01*
X88967819Y-115593202D02*
X88967819Y-115688440D01*
X88967819Y-114355107D02*
X88967819Y-114831297D01*
X88967819Y-114831297D02*
X87967819Y-114831297D01*
X88872580Y-113450345D02*
X88920200Y-113497964D01*
X88920200Y-113497964D02*
X88967819Y-113640821D01*
X88967819Y-113640821D02*
X88967819Y-113736059D01*
X88967819Y-113736059D02*
X88920200Y-113878916D01*
X88920200Y-113878916D02*
X88824961Y-113974154D01*
X88824961Y-113974154D02*
X88729723Y-114021773D01*
X88729723Y-114021773D02*
X88539247Y-114069392D01*
X88539247Y-114069392D02*
X88396390Y-114069392D01*
X88396390Y-114069392D02*
X88205914Y-114021773D01*
X88205914Y-114021773D02*
X88110676Y-113974154D01*
X88110676Y-113974154D02*
X88015438Y-113878916D01*
X88015438Y-113878916D02*
X87967819Y-113736059D01*
X87967819Y-113736059D02*
X87967819Y-113640821D01*
X87967819Y-113640821D02*
X88015438Y-113497964D01*
X88015438Y-113497964D02*
X88063057Y-113450345D01*
X87967819Y-112736059D02*
X88682104Y-112736059D01*
X88682104Y-112736059D02*
X88824961Y-112783678D01*
X88824961Y-112783678D02*
X88920200Y-112878916D01*
X88920200Y-112878916D02*
X88967819Y-113021773D01*
X88967819Y-113021773D02*
X88967819Y-113117011D01*
X88967819Y-111783678D02*
X88967819Y-112259868D01*
X88967819Y-112259868D02*
X87967819Y-112259868D01*
X88872580Y-110878916D02*
X88920200Y-110926535D01*
X88920200Y-110926535D02*
X88967819Y-111069392D01*
X88967819Y-111069392D02*
X88967819Y-111164630D01*
X88967819Y-111164630D02*
X88920200Y-111307487D01*
X88920200Y-111307487D02*
X88824961Y-111402725D01*
X88824961Y-111402725D02*
X88729723Y-111450344D01*
X88729723Y-111450344D02*
X88539247Y-111497963D01*
X88539247Y-111497963D02*
X88396390Y-111497963D01*
X88396390Y-111497963D02*
X88205914Y-111450344D01*
X88205914Y-111450344D02*
X88110676Y-111402725D01*
X88110676Y-111402725D02*
X88015438Y-111307487D01*
X88015438Y-111307487D02*
X87967819Y-111164630D01*
X87967819Y-111164630D02*
X87967819Y-111069392D01*
X87967819Y-111069392D02*
X88015438Y-110926535D01*
X88015438Y-110926535D02*
X88063057Y-110878916D01*
X87967819Y-110164630D02*
X88682104Y-110164630D01*
X88682104Y-110164630D02*
X88824961Y-110212249D01*
X88824961Y-110212249D02*
X88920200Y-110307487D01*
X88920200Y-110307487D02*
X88967819Y-110450344D01*
X88967819Y-110450344D02*
X88967819Y-110545582D01*
X88967819Y-109212249D02*
X88967819Y-109688439D01*
X88967819Y-109688439D02*
X87967819Y-109688439D01*
X88872580Y-108307487D02*
X88920200Y-108355106D01*
X88920200Y-108355106D02*
X88967819Y-108497963D01*
X88967819Y-108497963D02*
X88967819Y-108593201D01*
X88967819Y-108593201D02*
X88920200Y-108736058D01*
X88920200Y-108736058D02*
X88824961Y-108831296D01*
X88824961Y-108831296D02*
X88729723Y-108878915D01*
X88729723Y-108878915D02*
X88539247Y-108926534D01*
X88539247Y-108926534D02*
X88396390Y-108926534D01*
X88396390Y-108926534D02*
X88205914Y-108878915D01*
X88205914Y-108878915D02*
X88110676Y-108831296D01*
X88110676Y-108831296D02*
X88015438Y-108736058D01*
X88015438Y-108736058D02*
X87967819Y-108593201D01*
X87967819Y-108593201D02*
X87967819Y-108497963D01*
X87967819Y-108497963D02*
X88015438Y-108355106D01*
X88015438Y-108355106D02*
X88063057Y-108307487D01*
D11*
X128079698Y-67593780D02*
X127508274Y-67595873D01*
X127793986Y-67594826D02*
X127790324Y-66594833D01*
X127790324Y-66594833D02*
X127695609Y-66738038D01*
X127695609Y-66738038D02*
X127600721Y-66833624D01*
X127600721Y-66833624D02*
X127505658Y-66881592D01*
X128695080Y-66591519D02*
X128790317Y-66591171D01*
X128790317Y-66591171D02*
X128885729Y-66638441D01*
X128885729Y-66638441D02*
X128933522Y-66685885D01*
X128933522Y-66685885D02*
X128981489Y-66780948D01*
X128981489Y-66780948D02*
X129029806Y-66971249D01*
X129029806Y-66971249D02*
X129030678Y-67209342D01*
X129030678Y-67209342D02*
X128983757Y-67399991D01*
X128983757Y-67399991D02*
X128936487Y-67495403D01*
X128936487Y-67495403D02*
X128889042Y-67543196D01*
X128889042Y-67543196D02*
X128793979Y-67591164D01*
X128793979Y-67591164D02*
X128698742Y-67591513D01*
X128698742Y-67591513D02*
X128603330Y-67544243D01*
X128603330Y-67544243D02*
X128555537Y-67496798D01*
X128555537Y-67496798D02*
X128507569Y-67401735D01*
X128507569Y-67401735D02*
X128459253Y-67211435D01*
X128459253Y-67211435D02*
X128458381Y-66973341D01*
X128458381Y-66973341D02*
X128505302Y-66782692D01*
X128505302Y-66782692D02*
X128552572Y-66687280D01*
X128552572Y-66687280D02*
X128600016Y-66639487D01*
X128600016Y-66639487D02*
X128695080Y-66591519D01*
X129984447Y-67586804D02*
X129413023Y-67588897D01*
X129698735Y-67587850D02*
X129695073Y-66587857D01*
X129695073Y-66587857D02*
X129600359Y-66731062D01*
X129600359Y-66731062D02*
X129505470Y-66826648D01*
X129505470Y-66826648D02*
X129410407Y-66874616D01*
X130412667Y-67489997D02*
X130460460Y-67537441D01*
X130460460Y-67537441D02*
X130413016Y-67585235D01*
X130413016Y-67585235D02*
X130365223Y-67537790D01*
X130365223Y-67537790D02*
X130412667Y-67489997D01*
X130412667Y-67489997D02*
X130413016Y-67585235D01*
X131076016Y-66582800D02*
X131171253Y-66582451D01*
X131171253Y-66582451D02*
X131266665Y-66629721D01*
X131266665Y-66629721D02*
X131314458Y-66677165D01*
X131314458Y-66677165D02*
X131362425Y-66772228D01*
X131362425Y-66772228D02*
X131410742Y-66962529D01*
X131410742Y-66962529D02*
X131411614Y-67200622D01*
X131411614Y-67200622D02*
X131364693Y-67391272D01*
X131364693Y-67391272D02*
X131317423Y-67486684D01*
X131317423Y-67486684D02*
X131269978Y-67534477D01*
X131269978Y-67534477D02*
X131174915Y-67582444D01*
X131174915Y-67582444D02*
X131079678Y-67582793D01*
X131079678Y-67582793D02*
X130984266Y-67535523D01*
X130984266Y-67535523D02*
X130936473Y-67488079D01*
X130936473Y-67488079D02*
X130888505Y-67393016D01*
X130888505Y-67393016D02*
X130840189Y-67202715D01*
X130840189Y-67202715D02*
X130839317Y-66964622D01*
X130839317Y-66964622D02*
X130886238Y-66773972D01*
X130886238Y-66773972D02*
X130933508Y-66678560D01*
X130933508Y-66678560D02*
X130980952Y-66630767D01*
X130980952Y-66630767D02*
X131076016Y-66582800D01*
X131742678Y-66580358D02*
X132361721Y-66578091D01*
X132361721Y-66578091D02*
X132029785Y-66960262D01*
X132029785Y-66960262D02*
X132172641Y-66959739D01*
X132172641Y-66959739D02*
X132268053Y-67007009D01*
X132268053Y-67007009D02*
X132315846Y-67054453D01*
X132315846Y-67054453D02*
X132363814Y-67149516D01*
X132363814Y-67149516D02*
X132364686Y-67387610D01*
X132364686Y-67387610D02*
X132317416Y-67483021D01*
X132317416Y-67483021D02*
X132269972Y-67530815D01*
X132269972Y-67530815D02*
X132174909Y-67578782D01*
X132174909Y-67578782D02*
X131889196Y-67579828D01*
X131889196Y-67579828D02*
X131793784Y-67532558D01*
X131793784Y-67532558D02*
X131745991Y-67485114D01*
X132980765Y-66575824D02*
X133076002Y-66575475D01*
X133076002Y-66575475D02*
X133171414Y-66622745D01*
X133171414Y-66622745D02*
X133219207Y-66670190D01*
X133219207Y-66670190D02*
X133267175Y-66765253D01*
X133267175Y-66765253D02*
X133315491Y-66955553D01*
X133315491Y-66955553D02*
X133316363Y-67193647D01*
X133316363Y-67193647D02*
X133269442Y-67384296D01*
X133269442Y-67384296D02*
X133222172Y-67479708D01*
X133222172Y-67479708D02*
X133174728Y-67527501D01*
X133174728Y-67527501D02*
X133079664Y-67575469D01*
X133079664Y-67575469D02*
X132984427Y-67575817D01*
X132984427Y-67575817D02*
X132889015Y-67528547D01*
X132889015Y-67528547D02*
X132841222Y-67481103D01*
X132841222Y-67481103D02*
X132793255Y-67386040D01*
X132793255Y-67386040D02*
X132744938Y-67195739D01*
X132744938Y-67195739D02*
X132744066Y-66957646D01*
X132744066Y-66957646D02*
X132790987Y-66766997D01*
X132790987Y-66766997D02*
X132838257Y-66671585D01*
X132838257Y-66671585D02*
X132885702Y-66623792D01*
X132885702Y-66623792D02*
X132980765Y-66575824D01*
X133647427Y-66573383D02*
X134314089Y-66570941D01*
X134314089Y-66570941D02*
X133889183Y-67572504D01*
X135460601Y-67566749D02*
X135458160Y-66900087D01*
X135458509Y-66995324D02*
X135505953Y-66947531D01*
X135505953Y-66947531D02*
X135601016Y-66899564D01*
X135601016Y-66899564D02*
X135743872Y-66899040D01*
X135743872Y-66899040D02*
X135839284Y-66946310D01*
X135839284Y-66946310D02*
X135887251Y-67041373D01*
X135887251Y-67041373D02*
X135889170Y-67565179D01*
X135887251Y-67041373D02*
X135934521Y-66945962D01*
X135934521Y-66945962D02*
X136029584Y-66897994D01*
X136029584Y-66897994D02*
X136172441Y-66897471D01*
X136172441Y-66897471D02*
X136267853Y-66944741D01*
X136267853Y-66944741D02*
X136315820Y-67039804D01*
X136315820Y-67039804D02*
X136317738Y-67563610D01*
X136793925Y-67561866D02*
X136791484Y-66895204D01*
X136791833Y-66990441D02*
X136839277Y-66942648D01*
X136839277Y-66942648D02*
X136934340Y-66894681D01*
X136934340Y-66894681D02*
X137077196Y-66894157D01*
X137077196Y-66894157D02*
X137172608Y-66941427D01*
X137172608Y-66941427D02*
X137220576Y-67036490D01*
X137220576Y-67036490D02*
X137222494Y-67560296D01*
X137220576Y-67036490D02*
X137267845Y-66941079D01*
X137267845Y-66941079D02*
X137362909Y-66893111D01*
X137362909Y-66893111D02*
X137505765Y-66892588D01*
X137505765Y-66892588D02*
X137601177Y-66939858D01*
X137601177Y-66939858D02*
X137649144Y-67034921D01*
X137649144Y-67034921D02*
X137651062Y-67558727D01*
X82128169Y-78600003D02*
X82088876Y-67870973D01*
X183158169Y-78230003D02*
X183118876Y-67500973D01*
X82091024Y-68457389D02*
X183121024Y-68087389D01*
X82091024Y-68457389D02*
X183121024Y-68087389D01*
X82091024Y-68457389D02*
X83215373Y-67866847D01*
X82091024Y-68457389D02*
X83219668Y-69039680D01*
X183121024Y-68087389D02*
X181996675Y-68677931D01*
X183121024Y-68087389D02*
X181992380Y-67505098D01*
X90722619Y-85464133D02*
X91436904Y-85464133D01*
X91436904Y-85464133D02*
X91579761Y-85511752D01*
X91579761Y-85511752D02*
X91675000Y-85606990D01*
X91675000Y-85606990D02*
X91722619Y-85749847D01*
X91722619Y-85749847D02*
X91722619Y-85845085D01*
X91722619Y-84940323D02*
X91722619Y-84749847D01*
X91722619Y-84749847D02*
X91675000Y-84654609D01*
X91675000Y-84654609D02*
X91627380Y-84606990D01*
X91627380Y-84606990D02*
X91484523Y-84511752D01*
X91484523Y-84511752D02*
X91294047Y-84464133D01*
X91294047Y-84464133D02*
X90913095Y-84464133D01*
X90913095Y-84464133D02*
X90817857Y-84511752D01*
X90817857Y-84511752D02*
X90770238Y-84559371D01*
X90770238Y-84559371D02*
X90722619Y-84654609D01*
X90722619Y-84654609D02*
X90722619Y-84845085D01*
X90722619Y-84845085D02*
X90770238Y-84940323D01*
X90770238Y-84940323D02*
X90817857Y-84987942D01*
X90817857Y-84987942D02*
X90913095Y-85035561D01*
X90913095Y-85035561D02*
X91151190Y-85035561D01*
X91151190Y-85035561D02*
X91246428Y-84987942D01*
X91246428Y-84987942D02*
X91294047Y-84940323D01*
X91294047Y-84940323D02*
X91341666Y-84845085D01*
X91341666Y-84845085D02*
X91341666Y-84654609D01*
X91341666Y-84654609D02*
X91294047Y-84559371D01*
X91294047Y-84559371D02*
X91246428Y-84511752D01*
X91246428Y-84511752D02*
X91151190Y-84464133D01*
X136040019Y-119493857D02*
X135563828Y-119827190D01*
X136040019Y-120065285D02*
X135040019Y-120065285D01*
X135040019Y-120065285D02*
X135040019Y-119684333D01*
X135040019Y-119684333D02*
X135087638Y-119589095D01*
X135087638Y-119589095D02*
X135135257Y-119541476D01*
X135135257Y-119541476D02*
X135230495Y-119493857D01*
X135230495Y-119493857D02*
X135373352Y-119493857D01*
X135373352Y-119493857D02*
X135468590Y-119541476D01*
X135468590Y-119541476D02*
X135516209Y-119589095D01*
X135516209Y-119589095D02*
X135563828Y-119684333D01*
X135563828Y-119684333D02*
X135563828Y-120065285D01*
X135135257Y-119112904D02*
X135087638Y-119065285D01*
X135087638Y-119065285D02*
X135040019Y-118970047D01*
X135040019Y-118970047D02*
X135040019Y-118731952D01*
X135040019Y-118731952D02*
X135087638Y-118636714D01*
X135087638Y-118636714D02*
X135135257Y-118589095D01*
X135135257Y-118589095D02*
X135230495Y-118541476D01*
X135230495Y-118541476D02*
X135325733Y-118541476D01*
X135325733Y-118541476D02*
X135468590Y-118589095D01*
X135468590Y-118589095D02*
X136040019Y-119160523D01*
X136040019Y-119160523D02*
X136040019Y-118541476D01*
X135468590Y-117970047D02*
X135420971Y-118065285D01*
X135420971Y-118065285D02*
X135373352Y-118112904D01*
X135373352Y-118112904D02*
X135278114Y-118160523D01*
X135278114Y-118160523D02*
X135230495Y-118160523D01*
X135230495Y-118160523D02*
X135135257Y-118112904D01*
X135135257Y-118112904D02*
X135087638Y-118065285D01*
X135087638Y-118065285D02*
X135040019Y-117970047D01*
X135040019Y-117970047D02*
X135040019Y-117779571D01*
X135040019Y-117779571D02*
X135087638Y-117684333D01*
X135087638Y-117684333D02*
X135135257Y-117636714D01*
X135135257Y-117636714D02*
X135230495Y-117589095D01*
X135230495Y-117589095D02*
X135278114Y-117589095D01*
X135278114Y-117589095D02*
X135373352Y-117636714D01*
X135373352Y-117636714D02*
X135420971Y-117684333D01*
X135420971Y-117684333D02*
X135468590Y-117779571D01*
X135468590Y-117779571D02*
X135468590Y-117970047D01*
X135468590Y-117970047D02*
X135516209Y-118065285D01*
X135516209Y-118065285D02*
X135563828Y-118112904D01*
X135563828Y-118112904D02*
X135659066Y-118160523D01*
X135659066Y-118160523D02*
X135849542Y-118160523D01*
X135849542Y-118160523D02*
X135944780Y-118112904D01*
X135944780Y-118112904D02*
X135992400Y-118065285D01*
X135992400Y-118065285D02*
X136040019Y-117970047D01*
X136040019Y-117970047D02*
X136040019Y-117779571D01*
X136040019Y-117779571D02*
X135992400Y-117684333D01*
X135992400Y-117684333D02*
X135944780Y-117636714D01*
X135944780Y-117636714D02*
X135849542Y-117589095D01*
X135849542Y-117589095D02*
X135659066Y-117589095D01*
X135659066Y-117589095D02*
X135563828Y-117636714D01*
X135563828Y-117636714D02*
X135516209Y-117684333D01*
X135516209Y-117684333D02*
X135468590Y-117779571D01*
X140637419Y-119456257D02*
X140161228Y-119789590D01*
X140637419Y-120027685D02*
X139637419Y-120027685D01*
X139637419Y-120027685D02*
X139637419Y-119646733D01*
X139637419Y-119646733D02*
X139685038Y-119551495D01*
X139685038Y-119551495D02*
X139732657Y-119503876D01*
X139732657Y-119503876D02*
X139827895Y-119456257D01*
X139827895Y-119456257D02*
X139970752Y-119456257D01*
X139970752Y-119456257D02*
X140065990Y-119503876D01*
X140065990Y-119503876D02*
X140113609Y-119551495D01*
X140113609Y-119551495D02*
X140161228Y-119646733D01*
X140161228Y-119646733D02*
X140161228Y-120027685D01*
X139732657Y-119075304D02*
X139685038Y-119027685D01*
X139685038Y-119027685D02*
X139637419Y-118932447D01*
X139637419Y-118932447D02*
X139637419Y-118694352D01*
X139637419Y-118694352D02*
X139685038Y-118599114D01*
X139685038Y-118599114D02*
X139732657Y-118551495D01*
X139732657Y-118551495D02*
X139827895Y-118503876D01*
X139827895Y-118503876D02*
X139923133Y-118503876D01*
X139923133Y-118503876D02*
X140065990Y-118551495D01*
X140065990Y-118551495D02*
X140637419Y-119122923D01*
X140637419Y-119122923D02*
X140637419Y-118503876D01*
X139732657Y-118122923D02*
X139685038Y-118075304D01*
X139685038Y-118075304D02*
X139637419Y-117980066D01*
X139637419Y-117980066D02*
X139637419Y-117741971D01*
X139637419Y-117741971D02*
X139685038Y-117646733D01*
X139685038Y-117646733D02*
X139732657Y-117599114D01*
X139732657Y-117599114D02*
X139827895Y-117551495D01*
X139827895Y-117551495D02*
X139923133Y-117551495D01*
X139923133Y-117551495D02*
X140065990Y-117599114D01*
X140065990Y-117599114D02*
X140637419Y-118170542D01*
X140637419Y-118170542D02*
X140637419Y-117551495D01*
X109229819Y-105191666D02*
X108753628Y-105524999D01*
X109229819Y-105763094D02*
X108229819Y-105763094D01*
X108229819Y-105763094D02*
X108229819Y-105382142D01*
X108229819Y-105382142D02*
X108277438Y-105286904D01*
X108277438Y-105286904D02*
X108325057Y-105239285D01*
X108325057Y-105239285D02*
X108420295Y-105191666D01*
X108420295Y-105191666D02*
X108563152Y-105191666D01*
X108563152Y-105191666D02*
X108658390Y-105239285D01*
X108658390Y-105239285D02*
X108706009Y-105286904D01*
X108706009Y-105286904D02*
X108753628Y-105382142D01*
X108753628Y-105382142D02*
X108753628Y-105763094D01*
X109229819Y-104239285D02*
X109229819Y-104810713D01*
X109229819Y-104524999D02*
X108229819Y-104524999D01*
X108229819Y-104524999D02*
X108372676Y-104620237D01*
X108372676Y-104620237D02*
X108467914Y-104715475D01*
X108467914Y-104715475D02*
X108515533Y-104810713D01*
X147514457Y-123437638D02*
X147466838Y-123532876D01*
X147466838Y-123532876D02*
X147371600Y-123628114D01*
X147371600Y-123628114D02*
X147228742Y-123770971D01*
X147228742Y-123770971D02*
X147181123Y-123866209D01*
X147181123Y-123866209D02*
X147181123Y-123961447D01*
X147419219Y-123913828D02*
X147371600Y-124009066D01*
X147371600Y-124009066D02*
X147276361Y-124104304D01*
X147276361Y-124104304D02*
X147085885Y-124151923D01*
X147085885Y-124151923D02*
X146752552Y-124151923D01*
X146752552Y-124151923D02*
X146562076Y-124104304D01*
X146562076Y-124104304D02*
X146466838Y-124009066D01*
X146466838Y-124009066D02*
X146419219Y-123913828D01*
X146419219Y-123913828D02*
X146419219Y-123723352D01*
X146419219Y-123723352D02*
X146466838Y-123628114D01*
X146466838Y-123628114D02*
X146562076Y-123532876D01*
X146562076Y-123532876D02*
X146752552Y-123485257D01*
X146752552Y-123485257D02*
X147085885Y-123485257D01*
X147085885Y-123485257D02*
X147276361Y-123532876D01*
X147276361Y-123532876D02*
X147371600Y-123628114D01*
X147371600Y-123628114D02*
X147419219Y-123723352D01*
X147419219Y-123723352D02*
X147419219Y-123913828D01*
X146419219Y-123151923D02*
X146419219Y-122532876D01*
X146419219Y-122532876D02*
X146800171Y-122866209D01*
X146800171Y-122866209D02*
X146800171Y-122723352D01*
X146800171Y-122723352D02*
X146847790Y-122628114D01*
X146847790Y-122628114D02*
X146895409Y-122580495D01*
X146895409Y-122580495D02*
X146990647Y-122532876D01*
X146990647Y-122532876D02*
X147228742Y-122532876D01*
X147228742Y-122532876D02*
X147323980Y-122580495D01*
X147323980Y-122580495D02*
X147371600Y-122628114D01*
X147371600Y-122628114D02*
X147419219Y-122723352D01*
X147419219Y-122723352D02*
X147419219Y-123009066D01*
X147419219Y-123009066D02*
X147371600Y-123104304D01*
X147371600Y-123104304D02*
X147323980Y-123151923D01*
X179238095Y-123254819D02*
X179238095Y-122254819D01*
X179238095Y-122731009D02*
X179809523Y-122731009D01*
X179809523Y-123254819D02*
X179809523Y-122254819D01*
X180714285Y-122588152D02*
X180714285Y-123254819D01*
X180476190Y-122207200D02*
X180238095Y-122921485D01*
X180238095Y-122921485D02*
X180857142Y-122921485D01*
X163636666Y-86714819D02*
X163636666Y-87429104D01*
X163636666Y-87429104D02*
X163589047Y-87571961D01*
X163589047Y-87571961D02*
X163493809Y-87667200D01*
X163493809Y-87667200D02*
X163350952Y-87714819D01*
X163350952Y-87714819D02*
X163255714Y-87714819D01*
X164636666Y-87714819D02*
X164065238Y-87714819D01*
X164350952Y-87714819D02*
X164350952Y-86714819D01*
X164350952Y-86714819D02*
X164255714Y-86857676D01*
X164255714Y-86857676D02*
X164160476Y-86952914D01*
X164160476Y-86952914D02*
X164065238Y-87000533D01*
X173394819Y-92212857D02*
X172918628Y-92546190D01*
X173394819Y-92784285D02*
X172394819Y-92784285D01*
X172394819Y-92784285D02*
X172394819Y-92403333D01*
X172394819Y-92403333D02*
X172442438Y-92308095D01*
X172442438Y-92308095D02*
X172490057Y-92260476D01*
X172490057Y-92260476D02*
X172585295Y-92212857D01*
X172585295Y-92212857D02*
X172728152Y-92212857D01*
X172728152Y-92212857D02*
X172823390Y-92260476D01*
X172823390Y-92260476D02*
X172871009Y-92308095D01*
X172871009Y-92308095D02*
X172918628Y-92403333D01*
X172918628Y-92403333D02*
X172918628Y-92784285D01*
X172490057Y-91831904D02*
X172442438Y-91784285D01*
X172442438Y-91784285D02*
X172394819Y-91689047D01*
X172394819Y-91689047D02*
X172394819Y-91450952D01*
X172394819Y-91450952D02*
X172442438Y-91355714D01*
X172442438Y-91355714D02*
X172490057Y-91308095D01*
X172490057Y-91308095D02*
X172585295Y-91260476D01*
X172585295Y-91260476D02*
X172680533Y-91260476D01*
X172680533Y-91260476D02*
X172823390Y-91308095D01*
X172823390Y-91308095D02*
X173394819Y-91879523D01*
X173394819Y-91879523D02*
X173394819Y-91260476D01*
X173394819Y-90784285D02*
X173394819Y-90593809D01*
X173394819Y-90593809D02*
X173347200Y-90498571D01*
X173347200Y-90498571D02*
X173299580Y-90450952D01*
X173299580Y-90450952D02*
X173156723Y-90355714D01*
X173156723Y-90355714D02*
X172966247Y-90308095D01*
X172966247Y-90308095D02*
X172585295Y-90308095D01*
X172585295Y-90308095D02*
X172490057Y-90355714D01*
X172490057Y-90355714D02*
X172442438Y-90403333D01*
X172442438Y-90403333D02*
X172394819Y-90498571D01*
X172394819Y-90498571D02*
X172394819Y-90689047D01*
X172394819Y-90689047D02*
X172442438Y-90784285D01*
X172442438Y-90784285D02*
X172490057Y-90831904D01*
X172490057Y-90831904D02*
X172585295Y-90879523D01*
X172585295Y-90879523D02*
X172823390Y-90879523D01*
X172823390Y-90879523D02*
X172918628Y-90831904D01*
X172918628Y-90831904D02*
X172966247Y-90784285D01*
X172966247Y-90784285D02*
X173013866Y-90689047D01*
X173013866Y-90689047D02*
X173013866Y-90498571D01*
X173013866Y-90498571D02*
X172966247Y-90403333D01*
X172966247Y-90403333D02*
X172918628Y-90355714D01*
X172918628Y-90355714D02*
X172823390Y-90308095D01*
X133607142Y-109309580D02*
X133559523Y-109357200D01*
X133559523Y-109357200D02*
X133416666Y-109404819D01*
X133416666Y-109404819D02*
X133321428Y-109404819D01*
X133321428Y-109404819D02*
X133178571Y-109357200D01*
X133178571Y-109357200D02*
X133083333Y-109261961D01*
X133083333Y-109261961D02*
X133035714Y-109166723D01*
X133035714Y-109166723D02*
X132988095Y-108976247D01*
X132988095Y-108976247D02*
X132988095Y-108833390D01*
X132988095Y-108833390D02*
X133035714Y-108642914D01*
X133035714Y-108642914D02*
X133083333Y-108547676D01*
X133083333Y-108547676D02*
X133178571Y-108452438D01*
X133178571Y-108452438D02*
X133321428Y-108404819D01*
X133321428Y-108404819D02*
X133416666Y-108404819D01*
X133416666Y-108404819D02*
X133559523Y-108452438D01*
X133559523Y-108452438D02*
X133607142Y-108500057D01*
X133988095Y-108500057D02*
X134035714Y-108452438D01*
X134035714Y-108452438D02*
X134130952Y-108404819D01*
X134130952Y-108404819D02*
X134369047Y-108404819D01*
X134369047Y-108404819D02*
X134464285Y-108452438D01*
X134464285Y-108452438D02*
X134511904Y-108500057D01*
X134511904Y-108500057D02*
X134559523Y-108595295D01*
X134559523Y-108595295D02*
X134559523Y-108690533D01*
X134559523Y-108690533D02*
X134511904Y-108833390D01*
X134511904Y-108833390D02*
X133940476Y-109404819D01*
X133940476Y-109404819D02*
X134559523Y-109404819D01*
X135416666Y-108738152D02*
X135416666Y-109404819D01*
X135178571Y-108357200D02*
X134940476Y-109071485D01*
X134940476Y-109071485D02*
X135559523Y-109071485D01*
X101783333Y-118469580D02*
X101735714Y-118517200D01*
X101735714Y-118517200D02*
X101592857Y-118564819D01*
X101592857Y-118564819D02*
X101497619Y-118564819D01*
X101497619Y-118564819D02*
X101354762Y-118517200D01*
X101354762Y-118517200D02*
X101259524Y-118421961D01*
X101259524Y-118421961D02*
X101211905Y-118326723D01*
X101211905Y-118326723D02*
X101164286Y-118136247D01*
X101164286Y-118136247D02*
X101164286Y-117993390D01*
X101164286Y-117993390D02*
X101211905Y-117802914D01*
X101211905Y-117802914D02*
X101259524Y-117707676D01*
X101259524Y-117707676D02*
X101354762Y-117612438D01*
X101354762Y-117612438D02*
X101497619Y-117564819D01*
X101497619Y-117564819D02*
X101592857Y-117564819D01*
X101592857Y-117564819D02*
X101735714Y-117612438D01*
X101735714Y-117612438D02*
X101783333Y-117660057D01*
X102354762Y-117993390D02*
X102259524Y-117945771D01*
X102259524Y-117945771D02*
X102211905Y-117898152D01*
X102211905Y-117898152D02*
X102164286Y-117802914D01*
X102164286Y-117802914D02*
X102164286Y-117755295D01*
X102164286Y-117755295D02*
X102211905Y-117660057D01*
X102211905Y-117660057D02*
X102259524Y-117612438D01*
X102259524Y-117612438D02*
X102354762Y-117564819D01*
X102354762Y-117564819D02*
X102545238Y-117564819D01*
X102545238Y-117564819D02*
X102640476Y-117612438D01*
X102640476Y-117612438D02*
X102688095Y-117660057D01*
X102688095Y-117660057D02*
X102735714Y-117755295D01*
X102735714Y-117755295D02*
X102735714Y-117802914D01*
X102735714Y-117802914D02*
X102688095Y-117898152D01*
X102688095Y-117898152D02*
X102640476Y-117945771D01*
X102640476Y-117945771D02*
X102545238Y-117993390D01*
X102545238Y-117993390D02*
X102354762Y-117993390D01*
X102354762Y-117993390D02*
X102259524Y-118041009D01*
X102259524Y-118041009D02*
X102211905Y-118088628D01*
X102211905Y-118088628D02*
X102164286Y-118183866D01*
X102164286Y-118183866D02*
X102164286Y-118374342D01*
X102164286Y-118374342D02*
X102211905Y-118469580D01*
X102211905Y-118469580D02*
X102259524Y-118517200D01*
X102259524Y-118517200D02*
X102354762Y-118564819D01*
X102354762Y-118564819D02*
X102545238Y-118564819D01*
X102545238Y-118564819D02*
X102640476Y-118517200D01*
X102640476Y-118517200D02*
X102688095Y-118469580D01*
X102688095Y-118469580D02*
X102735714Y-118374342D01*
X102735714Y-118374342D02*
X102735714Y-118183866D01*
X102735714Y-118183866D02*
X102688095Y-118088628D01*
X102688095Y-118088628D02*
X102640476Y-118041009D01*
X102640476Y-118041009D02*
X102545238Y-117993390D01*
X127757142Y-98609580D02*
X127709523Y-98657200D01*
X127709523Y-98657200D02*
X127566666Y-98704819D01*
X127566666Y-98704819D02*
X127471428Y-98704819D01*
X127471428Y-98704819D02*
X127328571Y-98657200D01*
X127328571Y-98657200D02*
X127233333Y-98561961D01*
X127233333Y-98561961D02*
X127185714Y-98466723D01*
X127185714Y-98466723D02*
X127138095Y-98276247D01*
X127138095Y-98276247D02*
X127138095Y-98133390D01*
X127138095Y-98133390D02*
X127185714Y-97942914D01*
X127185714Y-97942914D02*
X127233333Y-97847676D01*
X127233333Y-97847676D02*
X127328571Y-97752438D01*
X127328571Y-97752438D02*
X127471428Y-97704819D01*
X127471428Y-97704819D02*
X127566666Y-97704819D01*
X127566666Y-97704819D02*
X127709523Y-97752438D01*
X127709523Y-97752438D02*
X127757142Y-97800057D01*
X128709523Y-98704819D02*
X128138095Y-98704819D01*
X128423809Y-98704819D02*
X128423809Y-97704819D01*
X128423809Y-97704819D02*
X128328571Y-97847676D01*
X128328571Y-97847676D02*
X128233333Y-97942914D01*
X128233333Y-97942914D02*
X128138095Y-97990533D01*
X129042857Y-97704819D02*
X129709523Y-97704819D01*
X129709523Y-97704819D02*
X129280952Y-98704819D01*
X96453333Y-106854819D02*
X95977143Y-106854819D01*
X95977143Y-106854819D02*
X95977143Y-105854819D01*
X97310476Y-106854819D02*
X96739048Y-106854819D01*
X97024762Y-106854819D02*
X97024762Y-105854819D01*
X97024762Y-105854819D02*
X96929524Y-105997676D01*
X96929524Y-105997676D02*
X96834286Y-106092914D01*
X96834286Y-106092914D02*
X96739048Y-106140533D01*
X156191809Y-113432533D02*
X156191809Y-113765866D01*
X156715619Y-113765866D02*
X155715619Y-113765866D01*
X155715619Y-113765866D02*
X155715619Y-113289676D01*
X156191809Y-112575390D02*
X156239428Y-112432533D01*
X156239428Y-112432533D02*
X156287047Y-112384914D01*
X156287047Y-112384914D02*
X156382285Y-112337295D01*
X156382285Y-112337295D02*
X156525142Y-112337295D01*
X156525142Y-112337295D02*
X156620380Y-112384914D01*
X156620380Y-112384914D02*
X156668000Y-112432533D01*
X156668000Y-112432533D02*
X156715619Y-112527771D01*
X156715619Y-112527771D02*
X156715619Y-112908723D01*
X156715619Y-112908723D02*
X155715619Y-112908723D01*
X155715619Y-112908723D02*
X155715619Y-112575390D01*
X155715619Y-112575390D02*
X155763238Y-112480152D01*
X155763238Y-112480152D02*
X155810857Y-112432533D01*
X155810857Y-112432533D02*
X155906095Y-112384914D01*
X155906095Y-112384914D02*
X156001333Y-112384914D01*
X156001333Y-112384914D02*
X156096571Y-112432533D01*
X156096571Y-112432533D02*
X156144190Y-112480152D01*
X156144190Y-112480152D02*
X156191809Y-112575390D01*
X156191809Y-112575390D02*
X156191809Y-112908723D01*
X155810857Y-111956342D02*
X155763238Y-111908723D01*
X155763238Y-111908723D02*
X155715619Y-111813485D01*
X155715619Y-111813485D02*
X155715619Y-111575390D01*
X155715619Y-111575390D02*
X155763238Y-111480152D01*
X155763238Y-111480152D02*
X155810857Y-111432533D01*
X155810857Y-111432533D02*
X155906095Y-111384914D01*
X155906095Y-111384914D02*
X156001333Y-111384914D01*
X156001333Y-111384914D02*
X156144190Y-111432533D01*
X156144190Y-111432533D02*
X156715619Y-112003961D01*
X156715619Y-112003961D02*
X156715619Y-111384914D01*
X137757142Y-96204819D02*
X137423809Y-95728628D01*
X137185714Y-96204819D02*
X137185714Y-95204819D01*
X137185714Y-95204819D02*
X137566666Y-95204819D01*
X137566666Y-95204819D02*
X137661904Y-95252438D01*
X137661904Y-95252438D02*
X137709523Y-95300057D01*
X137709523Y-95300057D02*
X137757142Y-95395295D01*
X137757142Y-95395295D02*
X137757142Y-95538152D01*
X137757142Y-95538152D02*
X137709523Y-95633390D01*
X137709523Y-95633390D02*
X137661904Y-95681009D01*
X137661904Y-95681009D02*
X137566666Y-95728628D01*
X137566666Y-95728628D02*
X137185714Y-95728628D01*
X138709523Y-96204819D02*
X138138095Y-96204819D01*
X138423809Y-96204819D02*
X138423809Y-95204819D01*
X138423809Y-95204819D02*
X138328571Y-95347676D01*
X138328571Y-95347676D02*
X138233333Y-95442914D01*
X138233333Y-95442914D02*
X138138095Y-95490533D01*
X139090476Y-95300057D02*
X139138095Y-95252438D01*
X139138095Y-95252438D02*
X139233333Y-95204819D01*
X139233333Y-95204819D02*
X139471428Y-95204819D01*
X139471428Y-95204819D02*
X139566666Y-95252438D01*
X139566666Y-95252438D02*
X139614285Y-95300057D01*
X139614285Y-95300057D02*
X139661904Y-95395295D01*
X139661904Y-95395295D02*
X139661904Y-95490533D01*
X139661904Y-95490533D02*
X139614285Y-95633390D01*
X139614285Y-95633390D02*
X139042857Y-96204819D01*
X139042857Y-96204819D02*
X139661904Y-96204819D01*
X108258333Y-110584819D02*
X107925000Y-110108628D01*
X107686905Y-110584819D02*
X107686905Y-109584819D01*
X107686905Y-109584819D02*
X108067857Y-109584819D01*
X108067857Y-109584819D02*
X108163095Y-109632438D01*
X108163095Y-109632438D02*
X108210714Y-109680057D01*
X108210714Y-109680057D02*
X108258333Y-109775295D01*
X108258333Y-109775295D02*
X108258333Y-109918152D01*
X108258333Y-109918152D02*
X108210714Y-110013390D01*
X108210714Y-110013390D02*
X108163095Y-110061009D01*
X108163095Y-110061009D02*
X108067857Y-110108628D01*
X108067857Y-110108628D02*
X107686905Y-110108628D01*
X109163095Y-109584819D02*
X108686905Y-109584819D01*
X108686905Y-109584819D02*
X108639286Y-110061009D01*
X108639286Y-110061009D02*
X108686905Y-110013390D01*
X108686905Y-110013390D02*
X108782143Y-109965771D01*
X108782143Y-109965771D02*
X109020238Y-109965771D01*
X109020238Y-109965771D02*
X109115476Y-110013390D01*
X109115476Y-110013390D02*
X109163095Y-110061009D01*
X109163095Y-110061009D02*
X109210714Y-110156247D01*
X109210714Y-110156247D02*
X109210714Y-110394342D01*
X109210714Y-110394342D02*
X109163095Y-110489580D01*
X109163095Y-110489580D02*
X109115476Y-110537200D01*
X109115476Y-110537200D02*
X109020238Y-110584819D01*
X109020238Y-110584819D02*
X108782143Y-110584819D01*
X108782143Y-110584819D02*
X108686905Y-110537200D01*
X108686905Y-110537200D02*
X108639286Y-110489580D01*
X112109580Y-102706666D02*
X112157200Y-102754285D01*
X112157200Y-102754285D02*
X112204819Y-102897142D01*
X112204819Y-102897142D02*
X112204819Y-102992380D01*
X112204819Y-102992380D02*
X112157200Y-103135237D01*
X112157200Y-103135237D02*
X112061961Y-103230475D01*
X112061961Y-103230475D02*
X111966723Y-103278094D01*
X111966723Y-103278094D02*
X111776247Y-103325713D01*
X111776247Y-103325713D02*
X111633390Y-103325713D01*
X111633390Y-103325713D02*
X111442914Y-103278094D01*
X111442914Y-103278094D02*
X111347676Y-103230475D01*
X111347676Y-103230475D02*
X111252438Y-103135237D01*
X111252438Y-103135237D02*
X111204819Y-102992380D01*
X111204819Y-102992380D02*
X111204819Y-102897142D01*
X111204819Y-102897142D02*
X111252438Y-102754285D01*
X111252438Y-102754285D02*
X111300057Y-102706666D01*
X111204819Y-102373332D02*
X111204819Y-101754285D01*
X111204819Y-101754285D02*
X111585771Y-102087618D01*
X111585771Y-102087618D02*
X111585771Y-101944761D01*
X111585771Y-101944761D02*
X111633390Y-101849523D01*
X111633390Y-101849523D02*
X111681009Y-101801904D01*
X111681009Y-101801904D02*
X111776247Y-101754285D01*
X111776247Y-101754285D02*
X112014342Y-101754285D01*
X112014342Y-101754285D02*
X112109580Y-101801904D01*
X112109580Y-101801904D02*
X112157200Y-101849523D01*
X112157200Y-101849523D02*
X112204819Y-101944761D01*
X112204819Y-101944761D02*
X112204819Y-102230475D01*
X112204819Y-102230475D02*
X112157200Y-102325713D01*
X112157200Y-102325713D02*
X112109580Y-102373332D01*
X93283333Y-120859580D02*
X93235714Y-120907200D01*
X93235714Y-120907200D02*
X93092857Y-120954819D01*
X93092857Y-120954819D02*
X92997619Y-120954819D01*
X92997619Y-120954819D02*
X92854762Y-120907200D01*
X92854762Y-120907200D02*
X92759524Y-120811961D01*
X92759524Y-120811961D02*
X92711905Y-120716723D01*
X92711905Y-120716723D02*
X92664286Y-120526247D01*
X92664286Y-120526247D02*
X92664286Y-120383390D01*
X92664286Y-120383390D02*
X92711905Y-120192914D01*
X92711905Y-120192914D02*
X92759524Y-120097676D01*
X92759524Y-120097676D02*
X92854762Y-120002438D01*
X92854762Y-120002438D02*
X92997619Y-119954819D01*
X92997619Y-119954819D02*
X93092857Y-119954819D01*
X93092857Y-119954819D02*
X93235714Y-120002438D01*
X93235714Y-120002438D02*
X93283333Y-120050057D01*
X93616667Y-119954819D02*
X94283333Y-119954819D01*
X94283333Y-119954819D02*
X93854762Y-120954819D01*
X152615295Y-104988273D02*
X152615295Y-105797796D01*
X152615295Y-105797796D02*
X152662914Y-105893034D01*
X152662914Y-105893034D02*
X152710533Y-105940654D01*
X152710533Y-105940654D02*
X152805771Y-105988273D01*
X152805771Y-105988273D02*
X152996247Y-105988273D01*
X152996247Y-105988273D02*
X153091485Y-105940654D01*
X153091485Y-105940654D02*
X153139104Y-105893034D01*
X153139104Y-105893034D02*
X153186723Y-105797796D01*
X153186723Y-105797796D02*
X153186723Y-104988273D01*
X153615295Y-105083511D02*
X153662914Y-105035892D01*
X153662914Y-105035892D02*
X153758152Y-104988273D01*
X153758152Y-104988273D02*
X153996247Y-104988273D01*
X153996247Y-104988273D02*
X154091485Y-105035892D01*
X154091485Y-105035892D02*
X154139104Y-105083511D01*
X154139104Y-105083511D02*
X154186723Y-105178749D01*
X154186723Y-105178749D02*
X154186723Y-105273987D01*
X154186723Y-105273987D02*
X154139104Y-105416844D01*
X154139104Y-105416844D02*
X153567676Y-105988273D01*
X153567676Y-105988273D02*
X154186723Y-105988273D01*
X139131219Y-125310457D02*
X138655028Y-125643790D01*
X139131219Y-125881885D02*
X138131219Y-125881885D01*
X138131219Y-125881885D02*
X138131219Y-125500933D01*
X138131219Y-125500933D02*
X138178838Y-125405695D01*
X138178838Y-125405695D02*
X138226457Y-125358076D01*
X138226457Y-125358076D02*
X138321695Y-125310457D01*
X138321695Y-125310457D02*
X138464552Y-125310457D01*
X138464552Y-125310457D02*
X138559790Y-125358076D01*
X138559790Y-125358076D02*
X138607409Y-125405695D01*
X138607409Y-125405695D02*
X138655028Y-125500933D01*
X138655028Y-125500933D02*
X138655028Y-125881885D01*
X139131219Y-124358076D02*
X139131219Y-124929504D01*
X139131219Y-124643790D02*
X138131219Y-124643790D01*
X138131219Y-124643790D02*
X138274076Y-124739028D01*
X138274076Y-124739028D02*
X138369314Y-124834266D01*
X138369314Y-124834266D02*
X138416933Y-124929504D01*
X138131219Y-123453314D02*
X138131219Y-123929504D01*
X138131219Y-123929504D02*
X138607409Y-123977123D01*
X138607409Y-123977123D02*
X138559790Y-123929504D01*
X138559790Y-123929504D02*
X138512171Y-123834266D01*
X138512171Y-123834266D02*
X138512171Y-123596171D01*
X138512171Y-123596171D02*
X138559790Y-123500933D01*
X138559790Y-123500933D02*
X138607409Y-123453314D01*
X138607409Y-123453314D02*
X138702647Y-123405695D01*
X138702647Y-123405695D02*
X138940742Y-123405695D01*
X138940742Y-123405695D02*
X139035980Y-123453314D01*
X139035980Y-123453314D02*
X139083600Y-123500933D01*
X139083600Y-123500933D02*
X139131219Y-123596171D01*
X139131219Y-123596171D02*
X139131219Y-123834266D01*
X139131219Y-123834266D02*
X139083600Y-123929504D01*
X139083600Y-123929504D02*
X139035980Y-123977123D01*
X148438095Y-102054819D02*
X148438095Y-102864342D01*
X148438095Y-102864342D02*
X148485714Y-102959580D01*
X148485714Y-102959580D02*
X148533333Y-103007200D01*
X148533333Y-103007200D02*
X148628571Y-103054819D01*
X148628571Y-103054819D02*
X148819047Y-103054819D01*
X148819047Y-103054819D02*
X148914285Y-103007200D01*
X148914285Y-103007200D02*
X148961904Y-102959580D01*
X148961904Y-102959580D02*
X149009523Y-102864342D01*
X149009523Y-102864342D02*
X149009523Y-102054819D01*
X149914285Y-102388152D02*
X149914285Y-103054819D01*
X149676190Y-102007200D02*
X149438095Y-102721485D01*
X149438095Y-102721485D02*
X150057142Y-102721485D01*
X160882666Y-120734819D02*
X160882666Y-121449104D01*
X160882666Y-121449104D02*
X160835047Y-121591961D01*
X160835047Y-121591961D02*
X160739809Y-121687200D01*
X160739809Y-121687200D02*
X160596952Y-121734819D01*
X160596952Y-121734819D02*
X160501714Y-121734819D01*
X161787428Y-121068152D02*
X161787428Y-121734819D01*
X161549333Y-120687200D02*
X161311238Y-121401485D01*
X161311238Y-121401485D02*
X161930285Y-121401485D01*
X148166666Y-87554819D02*
X148166666Y-88269104D01*
X148166666Y-88269104D02*
X148119047Y-88411961D01*
X148119047Y-88411961D02*
X148023809Y-88507200D01*
X148023809Y-88507200D02*
X147880952Y-88554819D01*
X147880952Y-88554819D02*
X147785714Y-88554819D01*
X148785714Y-87983390D02*
X148690476Y-87935771D01*
X148690476Y-87935771D02*
X148642857Y-87888152D01*
X148642857Y-87888152D02*
X148595238Y-87792914D01*
X148595238Y-87792914D02*
X148595238Y-87745295D01*
X148595238Y-87745295D02*
X148642857Y-87650057D01*
X148642857Y-87650057D02*
X148690476Y-87602438D01*
X148690476Y-87602438D02*
X148785714Y-87554819D01*
X148785714Y-87554819D02*
X148976190Y-87554819D01*
X148976190Y-87554819D02*
X149071428Y-87602438D01*
X149071428Y-87602438D02*
X149119047Y-87650057D01*
X149119047Y-87650057D02*
X149166666Y-87745295D01*
X149166666Y-87745295D02*
X149166666Y-87792914D01*
X149166666Y-87792914D02*
X149119047Y-87888152D01*
X149119047Y-87888152D02*
X149071428Y-87935771D01*
X149071428Y-87935771D02*
X148976190Y-87983390D01*
X148976190Y-87983390D02*
X148785714Y-87983390D01*
X148785714Y-87983390D02*
X148690476Y-88031009D01*
X148690476Y-88031009D02*
X148642857Y-88078628D01*
X148642857Y-88078628D02*
X148595238Y-88173866D01*
X148595238Y-88173866D02*
X148595238Y-88364342D01*
X148595238Y-88364342D02*
X148642857Y-88459580D01*
X148642857Y-88459580D02*
X148690476Y-88507200D01*
X148690476Y-88507200D02*
X148785714Y-88554819D01*
X148785714Y-88554819D02*
X148976190Y-88554819D01*
X148976190Y-88554819D02*
X149071428Y-88507200D01*
X149071428Y-88507200D02*
X149119047Y-88459580D01*
X149119047Y-88459580D02*
X149166666Y-88364342D01*
X149166666Y-88364342D02*
X149166666Y-88173866D01*
X149166666Y-88173866D02*
X149119047Y-88078628D01*
X149119047Y-88078628D02*
X149071428Y-88031009D01*
X149071428Y-88031009D02*
X148976190Y-87983390D01*
X120596819Y-103835657D02*
X120120628Y-104168990D01*
X120596819Y-104407085D02*
X119596819Y-104407085D01*
X119596819Y-104407085D02*
X119596819Y-104026133D01*
X119596819Y-104026133D02*
X119644438Y-103930895D01*
X119644438Y-103930895D02*
X119692057Y-103883276D01*
X119692057Y-103883276D02*
X119787295Y-103835657D01*
X119787295Y-103835657D02*
X119930152Y-103835657D01*
X119930152Y-103835657D02*
X120025390Y-103883276D01*
X120025390Y-103883276D02*
X120073009Y-103930895D01*
X120073009Y-103930895D02*
X120120628Y-104026133D01*
X120120628Y-104026133D02*
X120120628Y-104407085D01*
X120596819Y-102883276D02*
X120596819Y-103454704D01*
X120596819Y-103168990D02*
X119596819Y-103168990D01*
X119596819Y-103168990D02*
X119739676Y-103264228D01*
X119739676Y-103264228D02*
X119834914Y-103359466D01*
X119834914Y-103359466D02*
X119882533Y-103454704D01*
X119596819Y-102026133D02*
X119596819Y-102216609D01*
X119596819Y-102216609D02*
X119644438Y-102311847D01*
X119644438Y-102311847D02*
X119692057Y-102359466D01*
X119692057Y-102359466D02*
X119834914Y-102454704D01*
X119834914Y-102454704D02*
X120025390Y-102502323D01*
X120025390Y-102502323D02*
X120406342Y-102502323D01*
X120406342Y-102502323D02*
X120501580Y-102454704D01*
X120501580Y-102454704D02*
X120549200Y-102407085D01*
X120549200Y-102407085D02*
X120596819Y-102311847D01*
X120596819Y-102311847D02*
X120596819Y-102121371D01*
X120596819Y-102121371D02*
X120549200Y-102026133D01*
X120549200Y-102026133D02*
X120501580Y-101978514D01*
X120501580Y-101978514D02*
X120406342Y-101930895D01*
X120406342Y-101930895D02*
X120168247Y-101930895D01*
X120168247Y-101930895D02*
X120073009Y-101978514D01*
X120073009Y-101978514D02*
X120025390Y-102026133D01*
X120025390Y-102026133D02*
X119977771Y-102121371D01*
X119977771Y-102121371D02*
X119977771Y-102311847D01*
X119977771Y-102311847D02*
X120025390Y-102407085D01*
X120025390Y-102407085D02*
X120073009Y-102454704D01*
X120073009Y-102454704D02*
X120168247Y-102502323D01*
X132992019Y-119429857D02*
X132515828Y-119763190D01*
X132992019Y-120001285D02*
X131992019Y-120001285D01*
X131992019Y-120001285D02*
X131992019Y-119620333D01*
X131992019Y-119620333D02*
X132039638Y-119525095D01*
X132039638Y-119525095D02*
X132087257Y-119477476D01*
X132087257Y-119477476D02*
X132182495Y-119429857D01*
X132182495Y-119429857D02*
X132325352Y-119429857D01*
X132325352Y-119429857D02*
X132420590Y-119477476D01*
X132420590Y-119477476D02*
X132468209Y-119525095D01*
X132468209Y-119525095D02*
X132515828Y-119620333D01*
X132515828Y-119620333D02*
X132515828Y-120001285D01*
X132087257Y-119048904D02*
X132039638Y-119001285D01*
X132039638Y-119001285D02*
X131992019Y-118906047D01*
X131992019Y-118906047D02*
X131992019Y-118667952D01*
X131992019Y-118667952D02*
X132039638Y-118572714D01*
X132039638Y-118572714D02*
X132087257Y-118525095D01*
X132087257Y-118525095D02*
X132182495Y-118477476D01*
X132182495Y-118477476D02*
X132277733Y-118477476D01*
X132277733Y-118477476D02*
X132420590Y-118525095D01*
X132420590Y-118525095D02*
X132992019Y-119096523D01*
X132992019Y-119096523D02*
X132992019Y-118477476D01*
X132992019Y-117525095D02*
X132992019Y-118096523D01*
X132992019Y-117810809D02*
X131992019Y-117810809D01*
X131992019Y-117810809D02*
X132134876Y-117906047D01*
X132134876Y-117906047D02*
X132230114Y-118001285D01*
X132230114Y-118001285D02*
X132277733Y-118096523D01*
X139137019Y-119497357D02*
X138660828Y-119830690D01*
X139137019Y-120068785D02*
X138137019Y-120068785D01*
X138137019Y-120068785D02*
X138137019Y-119687833D01*
X138137019Y-119687833D02*
X138184638Y-119592595D01*
X138184638Y-119592595D02*
X138232257Y-119544976D01*
X138232257Y-119544976D02*
X138327495Y-119497357D01*
X138327495Y-119497357D02*
X138470352Y-119497357D01*
X138470352Y-119497357D02*
X138565590Y-119544976D01*
X138565590Y-119544976D02*
X138613209Y-119592595D01*
X138613209Y-119592595D02*
X138660828Y-119687833D01*
X138660828Y-119687833D02*
X138660828Y-120068785D01*
X138232257Y-119116404D02*
X138184638Y-119068785D01*
X138184638Y-119068785D02*
X138137019Y-118973547D01*
X138137019Y-118973547D02*
X138137019Y-118735452D01*
X138137019Y-118735452D02*
X138184638Y-118640214D01*
X138184638Y-118640214D02*
X138232257Y-118592595D01*
X138232257Y-118592595D02*
X138327495Y-118544976D01*
X138327495Y-118544976D02*
X138422733Y-118544976D01*
X138422733Y-118544976D02*
X138565590Y-118592595D01*
X138565590Y-118592595D02*
X139137019Y-119164023D01*
X139137019Y-119164023D02*
X139137019Y-118544976D01*
X138137019Y-117687833D02*
X138137019Y-117878309D01*
X138137019Y-117878309D02*
X138184638Y-117973547D01*
X138184638Y-117973547D02*
X138232257Y-118021166D01*
X138232257Y-118021166D02*
X138375114Y-118116404D01*
X138375114Y-118116404D02*
X138565590Y-118164023D01*
X138565590Y-118164023D02*
X138946542Y-118164023D01*
X138946542Y-118164023D02*
X139041780Y-118116404D01*
X139041780Y-118116404D02*
X139089400Y-118068785D01*
X139089400Y-118068785D02*
X139137019Y-117973547D01*
X139137019Y-117973547D02*
X139137019Y-117783071D01*
X139137019Y-117783071D02*
X139089400Y-117687833D01*
X139089400Y-117687833D02*
X139041780Y-117640214D01*
X139041780Y-117640214D02*
X138946542Y-117592595D01*
X138946542Y-117592595D02*
X138708447Y-117592595D01*
X138708447Y-117592595D02*
X138613209Y-117640214D01*
X138613209Y-117640214D02*
X138565590Y-117687833D01*
X138565590Y-117687833D02*
X138517971Y-117783071D01*
X138517971Y-117783071D02*
X138517971Y-117973547D01*
X138517971Y-117973547D02*
X138565590Y-118068785D01*
X138565590Y-118068785D02*
X138613209Y-118116404D01*
X138613209Y-118116404D02*
X138708447Y-118164023D01*
X118054922Y-113429094D02*
X117054922Y-113429094D01*
X117054922Y-113429094D02*
X117054922Y-113190999D01*
X117054922Y-113190999D02*
X117102541Y-113048142D01*
X117102541Y-113048142D02*
X117197779Y-112952904D01*
X117197779Y-112952904D02*
X117293017Y-112905285D01*
X117293017Y-112905285D02*
X117483493Y-112857666D01*
X117483493Y-112857666D02*
X117626350Y-112857666D01*
X117626350Y-112857666D02*
X117816826Y-112905285D01*
X117816826Y-112905285D02*
X117912064Y-112952904D01*
X117912064Y-112952904D02*
X118007303Y-113048142D01*
X118007303Y-113048142D02*
X118054922Y-113190999D01*
X118054922Y-113190999D02*
X118054922Y-113429094D01*
X117150160Y-112476713D02*
X117102541Y-112429094D01*
X117102541Y-112429094D02*
X117054922Y-112333856D01*
X117054922Y-112333856D02*
X117054922Y-112095761D01*
X117054922Y-112095761D02*
X117102541Y-112000523D01*
X117102541Y-112000523D02*
X117150160Y-111952904D01*
X117150160Y-111952904D02*
X117245398Y-111905285D01*
X117245398Y-111905285D02*
X117340636Y-111905285D01*
X117340636Y-111905285D02*
X117483493Y-111952904D01*
X117483493Y-111952904D02*
X118054922Y-112524332D01*
X118054922Y-112524332D02*
X118054922Y-111905285D01*
X125024677Y-103823557D02*
X125072297Y-103871176D01*
X125072297Y-103871176D02*
X125119916Y-104014033D01*
X125119916Y-104014033D02*
X125119916Y-104109271D01*
X125119916Y-104109271D02*
X125072297Y-104252128D01*
X125072297Y-104252128D02*
X124977058Y-104347366D01*
X124977058Y-104347366D02*
X124881820Y-104394985D01*
X124881820Y-104394985D02*
X124691344Y-104442604D01*
X124691344Y-104442604D02*
X124548487Y-104442604D01*
X124548487Y-104442604D02*
X124358011Y-104394985D01*
X124358011Y-104394985D02*
X124262773Y-104347366D01*
X124262773Y-104347366D02*
X124167535Y-104252128D01*
X124167535Y-104252128D02*
X124119916Y-104109271D01*
X124119916Y-104109271D02*
X124119916Y-104014033D01*
X124119916Y-104014033D02*
X124167535Y-103871176D01*
X124167535Y-103871176D02*
X124215154Y-103823557D01*
X124215154Y-103442604D02*
X124167535Y-103394985D01*
X124167535Y-103394985D02*
X124119916Y-103299747D01*
X124119916Y-103299747D02*
X124119916Y-103061652D01*
X124119916Y-103061652D02*
X124167535Y-102966414D01*
X124167535Y-102966414D02*
X124215154Y-102918795D01*
X124215154Y-102918795D02*
X124310392Y-102871176D01*
X124310392Y-102871176D02*
X124405630Y-102871176D01*
X124405630Y-102871176D02*
X124548487Y-102918795D01*
X124548487Y-102918795D02*
X125119916Y-103490223D01*
X125119916Y-103490223D02*
X125119916Y-102871176D01*
X125119916Y-101918795D02*
X125119916Y-102490223D01*
X125119916Y-102204509D02*
X124119916Y-102204509D01*
X124119916Y-102204509D02*
X124262773Y-102299747D01*
X124262773Y-102299747D02*
X124358011Y-102394985D01*
X124358011Y-102394985D02*
X124405630Y-102490223D01*
X137592219Y-119497357D02*
X137116028Y-119830690D01*
X137592219Y-120068785D02*
X136592219Y-120068785D01*
X136592219Y-120068785D02*
X136592219Y-119687833D01*
X136592219Y-119687833D02*
X136639838Y-119592595D01*
X136639838Y-119592595D02*
X136687457Y-119544976D01*
X136687457Y-119544976D02*
X136782695Y-119497357D01*
X136782695Y-119497357D02*
X136925552Y-119497357D01*
X136925552Y-119497357D02*
X137020790Y-119544976D01*
X137020790Y-119544976D02*
X137068409Y-119592595D01*
X137068409Y-119592595D02*
X137116028Y-119687833D01*
X137116028Y-119687833D02*
X137116028Y-120068785D01*
X136687457Y-119116404D02*
X136639838Y-119068785D01*
X136639838Y-119068785D02*
X136592219Y-118973547D01*
X136592219Y-118973547D02*
X136592219Y-118735452D01*
X136592219Y-118735452D02*
X136639838Y-118640214D01*
X136639838Y-118640214D02*
X136687457Y-118592595D01*
X136687457Y-118592595D02*
X136782695Y-118544976D01*
X136782695Y-118544976D02*
X136877933Y-118544976D01*
X136877933Y-118544976D02*
X137020790Y-118592595D01*
X137020790Y-118592595D02*
X137592219Y-119164023D01*
X137592219Y-119164023D02*
X137592219Y-118544976D01*
X136592219Y-118211642D02*
X136592219Y-117544976D01*
X136592219Y-117544976D02*
X137592219Y-117973547D01*
X142288419Y-88440157D02*
X141812228Y-88773490D01*
X142288419Y-89011585D02*
X141288419Y-89011585D01*
X141288419Y-89011585D02*
X141288419Y-88630633D01*
X141288419Y-88630633D02*
X141336038Y-88535395D01*
X141336038Y-88535395D02*
X141383657Y-88487776D01*
X141383657Y-88487776D02*
X141478895Y-88440157D01*
X141478895Y-88440157D02*
X141621752Y-88440157D01*
X141621752Y-88440157D02*
X141716990Y-88487776D01*
X141716990Y-88487776D02*
X141764609Y-88535395D01*
X141764609Y-88535395D02*
X141812228Y-88630633D01*
X141812228Y-88630633D02*
X141812228Y-89011585D01*
X141383657Y-88059204D02*
X141336038Y-88011585D01*
X141336038Y-88011585D02*
X141288419Y-87916347D01*
X141288419Y-87916347D02*
X141288419Y-87678252D01*
X141288419Y-87678252D02*
X141336038Y-87583014D01*
X141336038Y-87583014D02*
X141383657Y-87535395D01*
X141383657Y-87535395D02*
X141478895Y-87487776D01*
X141478895Y-87487776D02*
X141574133Y-87487776D01*
X141574133Y-87487776D02*
X141716990Y-87535395D01*
X141716990Y-87535395D02*
X142288419Y-88106823D01*
X142288419Y-88106823D02*
X142288419Y-87487776D01*
X141288419Y-86583014D02*
X141288419Y-87059204D01*
X141288419Y-87059204D02*
X141764609Y-87106823D01*
X141764609Y-87106823D02*
X141716990Y-87059204D01*
X141716990Y-87059204D02*
X141669371Y-86963966D01*
X141669371Y-86963966D02*
X141669371Y-86725871D01*
X141669371Y-86725871D02*
X141716990Y-86630633D01*
X141716990Y-86630633D02*
X141764609Y-86583014D01*
X141764609Y-86583014D02*
X141859847Y-86535395D01*
X141859847Y-86535395D02*
X142097942Y-86535395D01*
X142097942Y-86535395D02*
X142193180Y-86583014D01*
X142193180Y-86583014D02*
X142240800Y-86630633D01*
X142240800Y-86630633D02*
X142288419Y-86725871D01*
X142288419Y-86725871D02*
X142288419Y-86963966D01*
X142288419Y-86963966D02*
X142240800Y-87059204D01*
X142240800Y-87059204D02*
X142193180Y-87106823D01*
X107654819Y-121038094D02*
X106654819Y-121038094D01*
X106654819Y-121038094D02*
X106654819Y-120799999D01*
X106654819Y-120799999D02*
X106702438Y-120657142D01*
X106702438Y-120657142D02*
X106797676Y-120561904D01*
X106797676Y-120561904D02*
X106892914Y-120514285D01*
X106892914Y-120514285D02*
X107083390Y-120466666D01*
X107083390Y-120466666D02*
X107226247Y-120466666D01*
X107226247Y-120466666D02*
X107416723Y-120514285D01*
X107416723Y-120514285D02*
X107511961Y-120561904D01*
X107511961Y-120561904D02*
X107607200Y-120657142D01*
X107607200Y-120657142D02*
X107654819Y-120799999D01*
X107654819Y-120799999D02*
X107654819Y-121038094D01*
X107654819Y-119514285D02*
X107654819Y-120085713D01*
X107654819Y-119799999D02*
X106654819Y-119799999D01*
X106654819Y-119799999D02*
X106797676Y-119895237D01*
X106797676Y-119895237D02*
X106892914Y-119990475D01*
X106892914Y-119990475D02*
X106940533Y-120085713D01*
X130433333Y-84304819D02*
X129957143Y-84304819D01*
X129957143Y-84304819D02*
X129957143Y-83304819D01*
X130719048Y-83400057D02*
X130766667Y-83352438D01*
X130766667Y-83352438D02*
X130861905Y-83304819D01*
X130861905Y-83304819D02*
X131100000Y-83304819D01*
X131100000Y-83304819D02*
X131195238Y-83352438D01*
X131195238Y-83352438D02*
X131242857Y-83400057D01*
X131242857Y-83400057D02*
X131290476Y-83495295D01*
X131290476Y-83495295D02*
X131290476Y-83590533D01*
X131290476Y-83590533D02*
X131242857Y-83733390D01*
X131242857Y-83733390D02*
X130671429Y-84304819D01*
X130671429Y-84304819D02*
X131290476Y-84304819D01*
X131468019Y-119429857D02*
X130991828Y-119763190D01*
X131468019Y-120001285D02*
X130468019Y-120001285D01*
X130468019Y-120001285D02*
X130468019Y-119620333D01*
X130468019Y-119620333D02*
X130515638Y-119525095D01*
X130515638Y-119525095D02*
X130563257Y-119477476D01*
X130563257Y-119477476D02*
X130658495Y-119429857D01*
X130658495Y-119429857D02*
X130801352Y-119429857D01*
X130801352Y-119429857D02*
X130896590Y-119477476D01*
X130896590Y-119477476D02*
X130944209Y-119525095D01*
X130944209Y-119525095D02*
X130991828Y-119620333D01*
X130991828Y-119620333D02*
X130991828Y-120001285D01*
X130563257Y-119048904D02*
X130515638Y-119001285D01*
X130515638Y-119001285D02*
X130468019Y-118906047D01*
X130468019Y-118906047D02*
X130468019Y-118667952D01*
X130468019Y-118667952D02*
X130515638Y-118572714D01*
X130515638Y-118572714D02*
X130563257Y-118525095D01*
X130563257Y-118525095D02*
X130658495Y-118477476D01*
X130658495Y-118477476D02*
X130753733Y-118477476D01*
X130753733Y-118477476D02*
X130896590Y-118525095D01*
X130896590Y-118525095D02*
X131468019Y-119096523D01*
X131468019Y-119096523D02*
X131468019Y-118477476D01*
X130468019Y-117858428D02*
X130468019Y-117763190D01*
X130468019Y-117763190D02*
X130515638Y-117667952D01*
X130515638Y-117667952D02*
X130563257Y-117620333D01*
X130563257Y-117620333D02*
X130658495Y-117572714D01*
X130658495Y-117572714D02*
X130848971Y-117525095D01*
X130848971Y-117525095D02*
X131087066Y-117525095D01*
X131087066Y-117525095D02*
X131277542Y-117572714D01*
X131277542Y-117572714D02*
X131372780Y-117620333D01*
X131372780Y-117620333D02*
X131420400Y-117667952D01*
X131420400Y-117667952D02*
X131468019Y-117763190D01*
X131468019Y-117763190D02*
X131468019Y-117858428D01*
X131468019Y-117858428D02*
X131420400Y-117953666D01*
X131420400Y-117953666D02*
X131372780Y-118001285D01*
X131372780Y-118001285D02*
X131277542Y-118048904D01*
X131277542Y-118048904D02*
X131087066Y-118096523D01*
X131087066Y-118096523D02*
X130848971Y-118096523D01*
X130848971Y-118096523D02*
X130658495Y-118048904D01*
X130658495Y-118048904D02*
X130563257Y-118001285D01*
X130563257Y-118001285D02*
X130515638Y-117953666D01*
X130515638Y-117953666D02*
X130468019Y-117858428D01*
X136605180Y-88442057D02*
X136652800Y-88489676D01*
X136652800Y-88489676D02*
X136700419Y-88632533D01*
X136700419Y-88632533D02*
X136700419Y-88727771D01*
X136700419Y-88727771D02*
X136652800Y-88870628D01*
X136652800Y-88870628D02*
X136557561Y-88965866D01*
X136557561Y-88965866D02*
X136462323Y-89013485D01*
X136462323Y-89013485D02*
X136271847Y-89061104D01*
X136271847Y-89061104D02*
X136128990Y-89061104D01*
X136128990Y-89061104D02*
X135938514Y-89013485D01*
X135938514Y-89013485D02*
X135843276Y-88965866D01*
X135843276Y-88965866D02*
X135748038Y-88870628D01*
X135748038Y-88870628D02*
X135700419Y-88727771D01*
X135700419Y-88727771D02*
X135700419Y-88632533D01*
X135700419Y-88632533D02*
X135748038Y-88489676D01*
X135748038Y-88489676D02*
X135795657Y-88442057D01*
X136700419Y-87489676D02*
X136700419Y-88061104D01*
X136700419Y-87775390D02*
X135700419Y-87775390D01*
X135700419Y-87775390D02*
X135843276Y-87870628D01*
X135843276Y-87870628D02*
X135938514Y-87965866D01*
X135938514Y-87965866D02*
X135986133Y-88061104D01*
X136128990Y-86918247D02*
X136081371Y-87013485D01*
X136081371Y-87013485D02*
X136033752Y-87061104D01*
X136033752Y-87061104D02*
X135938514Y-87108723D01*
X135938514Y-87108723D02*
X135890895Y-87108723D01*
X135890895Y-87108723D02*
X135795657Y-87061104D01*
X135795657Y-87061104D02*
X135748038Y-87013485D01*
X135748038Y-87013485D02*
X135700419Y-86918247D01*
X135700419Y-86918247D02*
X135700419Y-86727771D01*
X135700419Y-86727771D02*
X135748038Y-86632533D01*
X135748038Y-86632533D02*
X135795657Y-86584914D01*
X135795657Y-86584914D02*
X135890895Y-86537295D01*
X135890895Y-86537295D02*
X135938514Y-86537295D01*
X135938514Y-86537295D02*
X136033752Y-86584914D01*
X136033752Y-86584914D02*
X136081371Y-86632533D01*
X136081371Y-86632533D02*
X136128990Y-86727771D01*
X136128990Y-86727771D02*
X136128990Y-86918247D01*
X136128990Y-86918247D02*
X136176609Y-87013485D01*
X136176609Y-87013485D02*
X136224228Y-87061104D01*
X136224228Y-87061104D02*
X136319466Y-87108723D01*
X136319466Y-87108723D02*
X136509942Y-87108723D01*
X136509942Y-87108723D02*
X136605180Y-87061104D01*
X136605180Y-87061104D02*
X136652800Y-87013485D01*
X136652800Y-87013485D02*
X136700419Y-86918247D01*
X136700419Y-86918247D02*
X136700419Y-86727771D01*
X136700419Y-86727771D02*
X136652800Y-86632533D01*
X136652800Y-86632533D02*
X136605180Y-86584914D01*
X136605180Y-86584914D02*
X136509942Y-86537295D01*
X136509942Y-86537295D02*
X136319466Y-86537295D01*
X136319466Y-86537295D02*
X136224228Y-86584914D01*
X136224228Y-86584914D02*
X136176609Y-86632533D01*
X136176609Y-86632533D02*
X136128990Y-86727771D01*
X132255877Y-106694157D02*
X132303497Y-106741776D01*
X132303497Y-106741776D02*
X132351116Y-106884633D01*
X132351116Y-106884633D02*
X132351116Y-106979871D01*
X132351116Y-106979871D02*
X132303497Y-107122728D01*
X132303497Y-107122728D02*
X132208258Y-107217966D01*
X132208258Y-107217966D02*
X132113020Y-107265585D01*
X132113020Y-107265585D02*
X131922544Y-107313204D01*
X131922544Y-107313204D02*
X131779687Y-107313204D01*
X131779687Y-107313204D02*
X131589211Y-107265585D01*
X131589211Y-107265585D02*
X131493973Y-107217966D01*
X131493973Y-107217966D02*
X131398735Y-107122728D01*
X131398735Y-107122728D02*
X131351116Y-106979871D01*
X131351116Y-106979871D02*
X131351116Y-106884633D01*
X131351116Y-106884633D02*
X131398735Y-106741776D01*
X131398735Y-106741776D02*
X131446354Y-106694157D01*
X131446354Y-106313204D02*
X131398735Y-106265585D01*
X131398735Y-106265585D02*
X131351116Y-106170347D01*
X131351116Y-106170347D02*
X131351116Y-105932252D01*
X131351116Y-105932252D02*
X131398735Y-105837014D01*
X131398735Y-105837014D02*
X131446354Y-105789395D01*
X131446354Y-105789395D02*
X131541592Y-105741776D01*
X131541592Y-105741776D02*
X131636830Y-105741776D01*
X131636830Y-105741776D02*
X131779687Y-105789395D01*
X131779687Y-105789395D02*
X132351116Y-106360823D01*
X132351116Y-106360823D02*
X132351116Y-105741776D01*
X131446354Y-105360823D02*
X131398735Y-105313204D01*
X131398735Y-105313204D02*
X131351116Y-105217966D01*
X131351116Y-105217966D02*
X131351116Y-104979871D01*
X131351116Y-104979871D02*
X131398735Y-104884633D01*
X131398735Y-104884633D02*
X131446354Y-104837014D01*
X131446354Y-104837014D02*
X131541592Y-104789395D01*
X131541592Y-104789395D02*
X131636830Y-104789395D01*
X131636830Y-104789395D02*
X131779687Y-104837014D01*
X131779687Y-104837014D02*
X132351116Y-105408442D01*
X132351116Y-105408442D02*
X132351116Y-104789395D01*
X153004819Y-122413333D02*
X153719104Y-122413333D01*
X153719104Y-122413333D02*
X153861961Y-122460952D01*
X153861961Y-122460952D02*
X153957200Y-122556190D01*
X153957200Y-122556190D02*
X154004819Y-122699047D01*
X154004819Y-122699047D02*
X154004819Y-122794285D01*
X153004819Y-121508571D02*
X153004819Y-121699047D01*
X153004819Y-121699047D02*
X153052438Y-121794285D01*
X153052438Y-121794285D02*
X153100057Y-121841904D01*
X153100057Y-121841904D02*
X153242914Y-121937142D01*
X153242914Y-121937142D02*
X153433390Y-121984761D01*
X153433390Y-121984761D02*
X153814342Y-121984761D01*
X153814342Y-121984761D02*
X153909580Y-121937142D01*
X153909580Y-121937142D02*
X153957200Y-121889523D01*
X153957200Y-121889523D02*
X154004819Y-121794285D01*
X154004819Y-121794285D02*
X154004819Y-121603809D01*
X154004819Y-121603809D02*
X153957200Y-121508571D01*
X153957200Y-121508571D02*
X153909580Y-121460952D01*
X153909580Y-121460952D02*
X153814342Y-121413333D01*
X153814342Y-121413333D02*
X153576247Y-121413333D01*
X153576247Y-121413333D02*
X153481009Y-121460952D01*
X153481009Y-121460952D02*
X153433390Y-121508571D01*
X153433390Y-121508571D02*
X153385771Y-121603809D01*
X153385771Y-121603809D02*
X153385771Y-121794285D01*
X153385771Y-121794285D02*
X153433390Y-121889523D01*
X153433390Y-121889523D02*
X153481009Y-121937142D01*
X153481009Y-121937142D02*
X153576247Y-121984761D01*
X151749580Y-106852857D02*
X151797200Y-106900476D01*
X151797200Y-106900476D02*
X151844819Y-107043333D01*
X151844819Y-107043333D02*
X151844819Y-107138571D01*
X151844819Y-107138571D02*
X151797200Y-107281428D01*
X151797200Y-107281428D02*
X151701961Y-107376666D01*
X151701961Y-107376666D02*
X151606723Y-107424285D01*
X151606723Y-107424285D02*
X151416247Y-107471904D01*
X151416247Y-107471904D02*
X151273390Y-107471904D01*
X151273390Y-107471904D02*
X151082914Y-107424285D01*
X151082914Y-107424285D02*
X150987676Y-107376666D01*
X150987676Y-107376666D02*
X150892438Y-107281428D01*
X150892438Y-107281428D02*
X150844819Y-107138571D01*
X150844819Y-107138571D02*
X150844819Y-107043333D01*
X150844819Y-107043333D02*
X150892438Y-106900476D01*
X150892438Y-106900476D02*
X150940057Y-106852857D01*
X151844819Y-105900476D02*
X151844819Y-106471904D01*
X151844819Y-106186190D02*
X150844819Y-106186190D01*
X150844819Y-106186190D02*
X150987676Y-106281428D01*
X150987676Y-106281428D02*
X151082914Y-106376666D01*
X151082914Y-106376666D02*
X151130533Y-106471904D01*
X150844819Y-105567142D02*
X150844819Y-104948095D01*
X150844819Y-104948095D02*
X151225771Y-105281428D01*
X151225771Y-105281428D02*
X151225771Y-105138571D01*
X151225771Y-105138571D02*
X151273390Y-105043333D01*
X151273390Y-105043333D02*
X151321009Y-104995714D01*
X151321009Y-104995714D02*
X151416247Y-104948095D01*
X151416247Y-104948095D02*
X151654342Y-104948095D01*
X151654342Y-104948095D02*
X151749580Y-104995714D01*
X151749580Y-104995714D02*
X151797200Y-105043333D01*
X151797200Y-105043333D02*
X151844819Y-105138571D01*
X151844819Y-105138571D02*
X151844819Y-105424285D01*
X151844819Y-105424285D02*
X151797200Y-105519523D01*
X151797200Y-105519523D02*
X151749580Y-105567142D01*
X118056819Y-121563457D02*
X117580628Y-121896790D01*
X118056819Y-122134885D02*
X117056819Y-122134885D01*
X117056819Y-122134885D02*
X117056819Y-121753933D01*
X117056819Y-121753933D02*
X117104438Y-121658695D01*
X117104438Y-121658695D02*
X117152057Y-121611076D01*
X117152057Y-121611076D02*
X117247295Y-121563457D01*
X117247295Y-121563457D02*
X117390152Y-121563457D01*
X117390152Y-121563457D02*
X117485390Y-121611076D01*
X117485390Y-121611076D02*
X117533009Y-121658695D01*
X117533009Y-121658695D02*
X117580628Y-121753933D01*
X117580628Y-121753933D02*
X117580628Y-122134885D01*
X118056819Y-120611076D02*
X118056819Y-121182504D01*
X118056819Y-120896790D02*
X117056819Y-120896790D01*
X117056819Y-120896790D02*
X117199676Y-120992028D01*
X117199676Y-120992028D02*
X117294914Y-121087266D01*
X117294914Y-121087266D02*
X117342533Y-121182504D01*
X117485390Y-120039647D02*
X117437771Y-120134885D01*
X117437771Y-120134885D02*
X117390152Y-120182504D01*
X117390152Y-120182504D02*
X117294914Y-120230123D01*
X117294914Y-120230123D02*
X117247295Y-120230123D01*
X117247295Y-120230123D02*
X117152057Y-120182504D01*
X117152057Y-120182504D02*
X117104438Y-120134885D01*
X117104438Y-120134885D02*
X117056819Y-120039647D01*
X117056819Y-120039647D02*
X117056819Y-119849171D01*
X117056819Y-119849171D02*
X117104438Y-119753933D01*
X117104438Y-119753933D02*
X117152057Y-119706314D01*
X117152057Y-119706314D02*
X117247295Y-119658695D01*
X117247295Y-119658695D02*
X117294914Y-119658695D01*
X117294914Y-119658695D02*
X117390152Y-119706314D01*
X117390152Y-119706314D02*
X117437771Y-119753933D01*
X117437771Y-119753933D02*
X117485390Y-119849171D01*
X117485390Y-119849171D02*
X117485390Y-120039647D01*
X117485390Y-120039647D02*
X117533009Y-120134885D01*
X117533009Y-120134885D02*
X117580628Y-120182504D01*
X117580628Y-120182504D02*
X117675866Y-120230123D01*
X117675866Y-120230123D02*
X117866342Y-120230123D01*
X117866342Y-120230123D02*
X117961580Y-120182504D01*
X117961580Y-120182504D02*
X118009200Y-120134885D01*
X118009200Y-120134885D02*
X118056819Y-120039647D01*
X118056819Y-120039647D02*
X118056819Y-119849171D01*
X118056819Y-119849171D02*
X118009200Y-119753933D01*
X118009200Y-119753933D02*
X117961580Y-119706314D01*
X117961580Y-119706314D02*
X117866342Y-119658695D01*
X117866342Y-119658695D02*
X117675866Y-119658695D01*
X117675866Y-119658695D02*
X117580628Y-119706314D01*
X117580628Y-119706314D02*
X117533009Y-119753933D01*
X117533009Y-119753933D02*
X117485390Y-119849171D01*
X123551477Y-103823557D02*
X123599097Y-103871176D01*
X123599097Y-103871176D02*
X123646716Y-104014033D01*
X123646716Y-104014033D02*
X123646716Y-104109271D01*
X123646716Y-104109271D02*
X123599097Y-104252128D01*
X123599097Y-104252128D02*
X123503858Y-104347366D01*
X123503858Y-104347366D02*
X123408620Y-104394985D01*
X123408620Y-104394985D02*
X123218144Y-104442604D01*
X123218144Y-104442604D02*
X123075287Y-104442604D01*
X123075287Y-104442604D02*
X122884811Y-104394985D01*
X122884811Y-104394985D02*
X122789573Y-104347366D01*
X122789573Y-104347366D02*
X122694335Y-104252128D01*
X122694335Y-104252128D02*
X122646716Y-104109271D01*
X122646716Y-104109271D02*
X122646716Y-104014033D01*
X122646716Y-104014033D02*
X122694335Y-103871176D01*
X122694335Y-103871176D02*
X122741954Y-103823557D01*
X122741954Y-103442604D02*
X122694335Y-103394985D01*
X122694335Y-103394985D02*
X122646716Y-103299747D01*
X122646716Y-103299747D02*
X122646716Y-103061652D01*
X122646716Y-103061652D02*
X122694335Y-102966414D01*
X122694335Y-102966414D02*
X122741954Y-102918795D01*
X122741954Y-102918795D02*
X122837192Y-102871176D01*
X122837192Y-102871176D02*
X122932430Y-102871176D01*
X122932430Y-102871176D02*
X123075287Y-102918795D01*
X123075287Y-102918795D02*
X123646716Y-103490223D01*
X123646716Y-103490223D02*
X123646716Y-102871176D01*
X122646716Y-102252128D02*
X122646716Y-102156890D01*
X122646716Y-102156890D02*
X122694335Y-102061652D01*
X122694335Y-102061652D02*
X122741954Y-102014033D01*
X122741954Y-102014033D02*
X122837192Y-101966414D01*
X122837192Y-101966414D02*
X123027668Y-101918795D01*
X123027668Y-101918795D02*
X123265763Y-101918795D01*
X123265763Y-101918795D02*
X123456239Y-101966414D01*
X123456239Y-101966414D02*
X123551477Y-102014033D01*
X123551477Y-102014033D02*
X123599097Y-102061652D01*
X123599097Y-102061652D02*
X123646716Y-102156890D01*
X123646716Y-102156890D02*
X123646716Y-102252128D01*
X123646716Y-102252128D02*
X123599097Y-102347366D01*
X123599097Y-102347366D02*
X123551477Y-102394985D01*
X123551477Y-102394985D02*
X123456239Y-102442604D01*
X123456239Y-102442604D02*
X123265763Y-102490223D01*
X123265763Y-102490223D02*
X123027668Y-102490223D01*
X123027668Y-102490223D02*
X122837192Y-102442604D01*
X122837192Y-102442604D02*
X122741954Y-102394985D01*
X122741954Y-102394985D02*
X122694335Y-102347366D01*
X122694335Y-102347366D02*
X122646716Y-102252128D01*
X116414761Y-127570057D02*
X116319523Y-127522438D01*
X116319523Y-127522438D02*
X116224285Y-127427200D01*
X116224285Y-127427200D02*
X116081428Y-127284342D01*
X116081428Y-127284342D02*
X115986190Y-127236723D01*
X115986190Y-127236723D02*
X115890952Y-127236723D01*
X115938571Y-127474819D02*
X115843333Y-127427200D01*
X115843333Y-127427200D02*
X115748095Y-127331961D01*
X115748095Y-127331961D02*
X115700476Y-127141485D01*
X115700476Y-127141485D02*
X115700476Y-126808152D01*
X115700476Y-126808152D02*
X115748095Y-126617676D01*
X115748095Y-126617676D02*
X115843333Y-126522438D01*
X115843333Y-126522438D02*
X115938571Y-126474819D01*
X115938571Y-126474819D02*
X116129047Y-126474819D01*
X116129047Y-126474819D02*
X116224285Y-126522438D01*
X116224285Y-126522438D02*
X116319523Y-126617676D01*
X116319523Y-126617676D02*
X116367142Y-126808152D01*
X116367142Y-126808152D02*
X116367142Y-127141485D01*
X116367142Y-127141485D02*
X116319523Y-127331961D01*
X116319523Y-127331961D02*
X116224285Y-127427200D01*
X116224285Y-127427200D02*
X116129047Y-127474819D01*
X116129047Y-127474819D02*
X115938571Y-127474819D01*
X117224285Y-126808152D02*
X117224285Y-127474819D01*
X116986190Y-126427200D02*
X116748095Y-127141485D01*
X116748095Y-127141485D02*
X117367142Y-127141485D01*
X106233333Y-91754819D02*
X105900000Y-91278628D01*
X105661905Y-91754819D02*
X105661905Y-90754819D01*
X105661905Y-90754819D02*
X106042857Y-90754819D01*
X106042857Y-90754819D02*
X106138095Y-90802438D01*
X106138095Y-90802438D02*
X106185714Y-90850057D01*
X106185714Y-90850057D02*
X106233333Y-90945295D01*
X106233333Y-90945295D02*
X106233333Y-91088152D01*
X106233333Y-91088152D02*
X106185714Y-91183390D01*
X106185714Y-91183390D02*
X106138095Y-91231009D01*
X106138095Y-91231009D02*
X106042857Y-91278628D01*
X106042857Y-91278628D02*
X105661905Y-91278628D01*
X106566667Y-90754819D02*
X107233333Y-90754819D01*
X107233333Y-90754819D02*
X106804762Y-91754819D01*
X116515561Y-98305857D02*
X116420323Y-98258238D01*
X116420323Y-98258238D02*
X116325085Y-98163000D01*
X116325085Y-98163000D02*
X116182228Y-98020142D01*
X116182228Y-98020142D02*
X116086990Y-97972523D01*
X116086990Y-97972523D02*
X115991752Y-97972523D01*
X116039371Y-98210619D02*
X115944133Y-98163000D01*
X115944133Y-98163000D02*
X115848895Y-98067761D01*
X115848895Y-98067761D02*
X115801276Y-97877285D01*
X115801276Y-97877285D02*
X115801276Y-97543952D01*
X115801276Y-97543952D02*
X115848895Y-97353476D01*
X115848895Y-97353476D02*
X115944133Y-97258238D01*
X115944133Y-97258238D02*
X116039371Y-97210619D01*
X116039371Y-97210619D02*
X116229847Y-97210619D01*
X116229847Y-97210619D02*
X116325085Y-97258238D01*
X116325085Y-97258238D02*
X116420323Y-97353476D01*
X116420323Y-97353476D02*
X116467942Y-97543952D01*
X116467942Y-97543952D02*
X116467942Y-97877285D01*
X116467942Y-97877285D02*
X116420323Y-98067761D01*
X116420323Y-98067761D02*
X116325085Y-98163000D01*
X116325085Y-98163000D02*
X116229847Y-98210619D01*
X116229847Y-98210619D02*
X116039371Y-98210619D01*
X117372704Y-97210619D02*
X116896514Y-97210619D01*
X116896514Y-97210619D02*
X116848895Y-97686809D01*
X116848895Y-97686809D02*
X116896514Y-97639190D01*
X116896514Y-97639190D02*
X116991752Y-97591571D01*
X116991752Y-97591571D02*
X117229847Y-97591571D01*
X117229847Y-97591571D02*
X117325085Y-97639190D01*
X117325085Y-97639190D02*
X117372704Y-97686809D01*
X117372704Y-97686809D02*
X117420323Y-97782047D01*
X117420323Y-97782047D02*
X117420323Y-98020142D01*
X117420323Y-98020142D02*
X117372704Y-98115380D01*
X117372704Y-98115380D02*
X117325085Y-98163000D01*
X117325085Y-98163000D02*
X117229847Y-98210619D01*
X117229847Y-98210619D02*
X116991752Y-98210619D01*
X116991752Y-98210619D02*
X116896514Y-98163000D01*
X116896514Y-98163000D02*
X116848895Y-98115380D01*
X106950057Y-112915238D02*
X106902438Y-113010476D01*
X106902438Y-113010476D02*
X106807200Y-113105714D01*
X106807200Y-113105714D02*
X106664342Y-113248571D01*
X106664342Y-113248571D02*
X106616723Y-113343809D01*
X106616723Y-113343809D02*
X106616723Y-113439047D01*
X106854819Y-113391428D02*
X106807200Y-113486666D01*
X106807200Y-113486666D02*
X106711961Y-113581904D01*
X106711961Y-113581904D02*
X106521485Y-113629523D01*
X106521485Y-113629523D02*
X106188152Y-113629523D01*
X106188152Y-113629523D02*
X105997676Y-113581904D01*
X105997676Y-113581904D02*
X105902438Y-113486666D01*
X105902438Y-113486666D02*
X105854819Y-113391428D01*
X105854819Y-113391428D02*
X105854819Y-113200952D01*
X105854819Y-113200952D02*
X105902438Y-113105714D01*
X105902438Y-113105714D02*
X105997676Y-113010476D01*
X105997676Y-113010476D02*
X106188152Y-112962857D01*
X106188152Y-112962857D02*
X106521485Y-112962857D01*
X106521485Y-112962857D02*
X106711961Y-113010476D01*
X106711961Y-113010476D02*
X106807200Y-113105714D01*
X106807200Y-113105714D02*
X106854819Y-113200952D01*
X106854819Y-113200952D02*
X106854819Y-113391428D01*
X106854819Y-112010476D02*
X106854819Y-112581904D01*
X106854819Y-112296190D02*
X105854819Y-112296190D01*
X105854819Y-112296190D02*
X105997676Y-112391428D01*
X105997676Y-112391428D02*
X106092914Y-112486666D01*
X106092914Y-112486666D02*
X106140533Y-112581904D01*
X100309580Y-105726666D02*
X100357200Y-105774285D01*
X100357200Y-105774285D02*
X100404819Y-105917142D01*
X100404819Y-105917142D02*
X100404819Y-106012380D01*
X100404819Y-106012380D02*
X100357200Y-106155237D01*
X100357200Y-106155237D02*
X100261961Y-106250475D01*
X100261961Y-106250475D02*
X100166723Y-106298094D01*
X100166723Y-106298094D02*
X99976247Y-106345713D01*
X99976247Y-106345713D02*
X99833390Y-106345713D01*
X99833390Y-106345713D02*
X99642914Y-106298094D01*
X99642914Y-106298094D02*
X99547676Y-106250475D01*
X99547676Y-106250475D02*
X99452438Y-106155237D01*
X99452438Y-106155237D02*
X99404819Y-106012380D01*
X99404819Y-106012380D02*
X99404819Y-105917142D01*
X99404819Y-105917142D02*
X99452438Y-105774285D01*
X99452438Y-105774285D02*
X99500057Y-105726666D01*
X100404819Y-104774285D02*
X100404819Y-105345713D01*
X100404819Y-105059999D02*
X99404819Y-105059999D01*
X99404819Y-105059999D02*
X99547676Y-105155237D01*
X99547676Y-105155237D02*
X99642914Y-105250475D01*
X99642914Y-105250475D02*
X99690533Y-105345713D01*
X150799409Y-113444733D02*
X150799409Y-113778066D01*
X151323219Y-113778066D02*
X150323219Y-113778066D01*
X150323219Y-113778066D02*
X150323219Y-113301876D01*
X150799409Y-112587590D02*
X150847028Y-112444733D01*
X150847028Y-112444733D02*
X150894647Y-112397114D01*
X150894647Y-112397114D02*
X150989885Y-112349495D01*
X150989885Y-112349495D02*
X151132742Y-112349495D01*
X151132742Y-112349495D02*
X151227980Y-112397114D01*
X151227980Y-112397114D02*
X151275600Y-112444733D01*
X151275600Y-112444733D02*
X151323219Y-112539971D01*
X151323219Y-112539971D02*
X151323219Y-112920923D01*
X151323219Y-112920923D02*
X150323219Y-112920923D01*
X150323219Y-112920923D02*
X150323219Y-112587590D01*
X150323219Y-112587590D02*
X150370838Y-112492352D01*
X150370838Y-112492352D02*
X150418457Y-112444733D01*
X150418457Y-112444733D02*
X150513695Y-112397114D01*
X150513695Y-112397114D02*
X150608933Y-112397114D01*
X150608933Y-112397114D02*
X150704171Y-112444733D01*
X150704171Y-112444733D02*
X150751790Y-112492352D01*
X150751790Y-112492352D02*
X150799409Y-112587590D01*
X150799409Y-112587590D02*
X150799409Y-112920923D01*
X151323219Y-111397114D02*
X151323219Y-111968542D01*
X151323219Y-111682828D02*
X150323219Y-111682828D01*
X150323219Y-111682828D02*
X150466076Y-111778066D01*
X150466076Y-111778066D02*
X150561314Y-111873304D01*
X150561314Y-111873304D02*
X150608933Y-111968542D01*
X122120819Y-103823457D02*
X121644628Y-104156790D01*
X122120819Y-104394885D02*
X121120819Y-104394885D01*
X121120819Y-104394885D02*
X121120819Y-104013933D01*
X121120819Y-104013933D02*
X121168438Y-103918695D01*
X121168438Y-103918695D02*
X121216057Y-103871076D01*
X121216057Y-103871076D02*
X121311295Y-103823457D01*
X121311295Y-103823457D02*
X121454152Y-103823457D01*
X121454152Y-103823457D02*
X121549390Y-103871076D01*
X121549390Y-103871076D02*
X121597009Y-103918695D01*
X121597009Y-103918695D02*
X121644628Y-104013933D01*
X121644628Y-104013933D02*
X121644628Y-104394885D01*
X122120819Y-102871076D02*
X122120819Y-103442504D01*
X122120819Y-103156790D02*
X121120819Y-103156790D01*
X121120819Y-103156790D02*
X121263676Y-103252028D01*
X121263676Y-103252028D02*
X121358914Y-103347266D01*
X121358914Y-103347266D02*
X121406533Y-103442504D01*
X121120819Y-102537742D02*
X121120819Y-101871076D01*
X121120819Y-101871076D02*
X122120819Y-102299647D01*
X135092716Y-114218404D02*
X135902239Y-114218404D01*
X135902239Y-114218404D02*
X135997477Y-114170785D01*
X135997477Y-114170785D02*
X136045097Y-114123166D01*
X136045097Y-114123166D02*
X136092716Y-114027928D01*
X136092716Y-114027928D02*
X136092716Y-113837452D01*
X136092716Y-113837452D02*
X136045097Y-113742214D01*
X136045097Y-113742214D02*
X135997477Y-113694595D01*
X135997477Y-113694595D02*
X135902239Y-113646976D01*
X135902239Y-113646976D02*
X135092716Y-113646976D01*
X135092716Y-113266023D02*
X135092716Y-112599357D01*
X135092716Y-112599357D02*
X136092716Y-113027928D01*
X137757142Y-97904819D02*
X137423809Y-97428628D01*
X137185714Y-97904819D02*
X137185714Y-96904819D01*
X137185714Y-96904819D02*
X137566666Y-96904819D01*
X137566666Y-96904819D02*
X137661904Y-96952438D01*
X137661904Y-96952438D02*
X137709523Y-97000057D01*
X137709523Y-97000057D02*
X137757142Y-97095295D01*
X137757142Y-97095295D02*
X137757142Y-97238152D01*
X137757142Y-97238152D02*
X137709523Y-97333390D01*
X137709523Y-97333390D02*
X137661904Y-97381009D01*
X137661904Y-97381009D02*
X137566666Y-97428628D01*
X137566666Y-97428628D02*
X137185714Y-97428628D01*
X138709523Y-97904819D02*
X138138095Y-97904819D01*
X138423809Y-97904819D02*
X138423809Y-96904819D01*
X138423809Y-96904819D02*
X138328571Y-97047676D01*
X138328571Y-97047676D02*
X138233333Y-97142914D01*
X138233333Y-97142914D02*
X138138095Y-97190533D01*
X139661904Y-97904819D02*
X139090476Y-97904819D01*
X139376190Y-97904819D02*
X139376190Y-96904819D01*
X139376190Y-96904819D02*
X139280952Y-97047676D01*
X139280952Y-97047676D02*
X139185714Y-97142914D01*
X139185714Y-97142914D02*
X139090476Y-97190533D01*
X169606667Y-87537200D02*
X169749524Y-87584819D01*
X169749524Y-87584819D02*
X169987619Y-87584819D01*
X169987619Y-87584819D02*
X170082857Y-87537200D01*
X170082857Y-87537200D02*
X170130476Y-87489580D01*
X170130476Y-87489580D02*
X170178095Y-87394342D01*
X170178095Y-87394342D02*
X170178095Y-87299104D01*
X170178095Y-87299104D02*
X170130476Y-87203866D01*
X170130476Y-87203866D02*
X170082857Y-87156247D01*
X170082857Y-87156247D02*
X169987619Y-87108628D01*
X169987619Y-87108628D02*
X169797143Y-87061009D01*
X169797143Y-87061009D02*
X169701905Y-87013390D01*
X169701905Y-87013390D02*
X169654286Y-86965771D01*
X169654286Y-86965771D02*
X169606667Y-86870533D01*
X169606667Y-86870533D02*
X169606667Y-86775295D01*
X169606667Y-86775295D02*
X169654286Y-86680057D01*
X169654286Y-86680057D02*
X169701905Y-86632438D01*
X169701905Y-86632438D02*
X169797143Y-86584819D01*
X169797143Y-86584819D02*
X170035238Y-86584819D01*
X170035238Y-86584819D02*
X170178095Y-86632438D01*
X170511429Y-86584819D02*
X170749524Y-87584819D01*
X170749524Y-87584819D02*
X170940000Y-86870533D01*
X170940000Y-86870533D02*
X171130476Y-87584819D01*
X171130476Y-87584819D02*
X171368572Y-86584819D01*
X172273333Y-87584819D02*
X171701905Y-87584819D01*
X171987619Y-87584819D02*
X171987619Y-86584819D01*
X171987619Y-86584819D02*
X171892381Y-86727676D01*
X171892381Y-86727676D02*
X171797143Y-86822914D01*
X171797143Y-86822914D02*
X171701905Y-86870533D01*
X102944819Y-91186666D02*
X102468628Y-91519999D01*
X102944819Y-91758094D02*
X101944819Y-91758094D01*
X101944819Y-91758094D02*
X101944819Y-91377142D01*
X101944819Y-91377142D02*
X101992438Y-91281904D01*
X101992438Y-91281904D02*
X102040057Y-91234285D01*
X102040057Y-91234285D02*
X102135295Y-91186666D01*
X102135295Y-91186666D02*
X102278152Y-91186666D01*
X102278152Y-91186666D02*
X102373390Y-91234285D01*
X102373390Y-91234285D02*
X102421009Y-91281904D01*
X102421009Y-91281904D02*
X102468628Y-91377142D01*
X102468628Y-91377142D02*
X102468628Y-91758094D01*
X102040057Y-90805713D02*
X101992438Y-90758094D01*
X101992438Y-90758094D02*
X101944819Y-90662856D01*
X101944819Y-90662856D02*
X101944819Y-90424761D01*
X101944819Y-90424761D02*
X101992438Y-90329523D01*
X101992438Y-90329523D02*
X102040057Y-90281904D01*
X102040057Y-90281904D02*
X102135295Y-90234285D01*
X102135295Y-90234285D02*
X102230533Y-90234285D01*
X102230533Y-90234285D02*
X102373390Y-90281904D01*
X102373390Y-90281904D02*
X102944819Y-90853332D01*
X102944819Y-90853332D02*
X102944819Y-90234285D01*
X106358333Y-96184819D02*
X106025000Y-95708628D01*
X105786905Y-96184819D02*
X105786905Y-95184819D01*
X105786905Y-95184819D02*
X106167857Y-95184819D01*
X106167857Y-95184819D02*
X106263095Y-95232438D01*
X106263095Y-95232438D02*
X106310714Y-95280057D01*
X106310714Y-95280057D02*
X106358333Y-95375295D01*
X106358333Y-95375295D02*
X106358333Y-95518152D01*
X106358333Y-95518152D02*
X106310714Y-95613390D01*
X106310714Y-95613390D02*
X106263095Y-95661009D01*
X106263095Y-95661009D02*
X106167857Y-95708628D01*
X106167857Y-95708628D02*
X105786905Y-95708628D01*
X107215476Y-95184819D02*
X107025000Y-95184819D01*
X107025000Y-95184819D02*
X106929762Y-95232438D01*
X106929762Y-95232438D02*
X106882143Y-95280057D01*
X106882143Y-95280057D02*
X106786905Y-95422914D01*
X106786905Y-95422914D02*
X106739286Y-95613390D01*
X106739286Y-95613390D02*
X106739286Y-95994342D01*
X106739286Y-95994342D02*
X106786905Y-96089580D01*
X106786905Y-96089580D02*
X106834524Y-96137200D01*
X106834524Y-96137200D02*
X106929762Y-96184819D01*
X106929762Y-96184819D02*
X107120238Y-96184819D01*
X107120238Y-96184819D02*
X107215476Y-96137200D01*
X107215476Y-96137200D02*
X107263095Y-96089580D01*
X107263095Y-96089580D02*
X107310714Y-95994342D01*
X107310714Y-95994342D02*
X107310714Y-95756247D01*
X107310714Y-95756247D02*
X107263095Y-95661009D01*
X107263095Y-95661009D02*
X107215476Y-95613390D01*
X107215476Y-95613390D02*
X107120238Y-95565771D01*
X107120238Y-95565771D02*
X106929762Y-95565771D01*
X106929762Y-95565771D02*
X106834524Y-95613390D01*
X106834524Y-95613390D02*
X106786905Y-95661009D01*
X106786905Y-95661009D02*
X106739286Y-95756247D01*
X127102106Y-103566928D02*
X127102106Y-104043119D01*
X126768773Y-103043119D02*
X127102106Y-103566928D01*
X127102106Y-103566928D02*
X127435439Y-103043119D01*
X128292582Y-104043119D02*
X127721154Y-104043119D01*
X128006868Y-104043119D02*
X128006868Y-103043119D01*
X128006868Y-103043119D02*
X127911630Y-103185976D01*
X127911630Y-103185976D02*
X127816392Y-103281214D01*
X127816392Y-103281214D02*
X127721154Y-103328833D01*
X113974819Y-108666666D02*
X113498628Y-108999999D01*
X113974819Y-109238094D02*
X112974819Y-109238094D01*
X112974819Y-109238094D02*
X112974819Y-108857142D01*
X112974819Y-108857142D02*
X113022438Y-108761904D01*
X113022438Y-108761904D02*
X113070057Y-108714285D01*
X113070057Y-108714285D02*
X113165295Y-108666666D01*
X113165295Y-108666666D02*
X113308152Y-108666666D01*
X113308152Y-108666666D02*
X113403390Y-108714285D01*
X113403390Y-108714285D02*
X113451009Y-108761904D01*
X113451009Y-108761904D02*
X113498628Y-108857142D01*
X113498628Y-108857142D02*
X113498628Y-109238094D01*
X112974819Y-108333332D02*
X112974819Y-107714285D01*
X112974819Y-107714285D02*
X113355771Y-108047618D01*
X113355771Y-108047618D02*
X113355771Y-107904761D01*
X113355771Y-107904761D02*
X113403390Y-107809523D01*
X113403390Y-107809523D02*
X113451009Y-107761904D01*
X113451009Y-107761904D02*
X113546247Y-107714285D01*
X113546247Y-107714285D02*
X113784342Y-107714285D01*
X113784342Y-107714285D02*
X113879580Y-107761904D01*
X113879580Y-107761904D02*
X113927200Y-107809523D01*
X113927200Y-107809523D02*
X113974819Y-107904761D01*
X113974819Y-107904761D02*
X113974819Y-108190475D01*
X113974819Y-108190475D02*
X113927200Y-108285713D01*
X113927200Y-108285713D02*
X113879580Y-108333332D01*
X106299580Y-107036666D02*
X106347200Y-107084285D01*
X106347200Y-107084285D02*
X106394819Y-107227142D01*
X106394819Y-107227142D02*
X106394819Y-107322380D01*
X106394819Y-107322380D02*
X106347200Y-107465237D01*
X106347200Y-107465237D02*
X106251961Y-107560475D01*
X106251961Y-107560475D02*
X106156723Y-107608094D01*
X106156723Y-107608094D02*
X105966247Y-107655713D01*
X105966247Y-107655713D02*
X105823390Y-107655713D01*
X105823390Y-107655713D02*
X105632914Y-107608094D01*
X105632914Y-107608094D02*
X105537676Y-107560475D01*
X105537676Y-107560475D02*
X105442438Y-107465237D01*
X105442438Y-107465237D02*
X105394819Y-107322380D01*
X105394819Y-107322380D02*
X105394819Y-107227142D01*
X105394819Y-107227142D02*
X105442438Y-107084285D01*
X105442438Y-107084285D02*
X105490057Y-107036666D01*
X105394819Y-106179523D02*
X105394819Y-106369999D01*
X105394819Y-106369999D02*
X105442438Y-106465237D01*
X105442438Y-106465237D02*
X105490057Y-106512856D01*
X105490057Y-106512856D02*
X105632914Y-106608094D01*
X105632914Y-106608094D02*
X105823390Y-106655713D01*
X105823390Y-106655713D02*
X106204342Y-106655713D01*
X106204342Y-106655713D02*
X106299580Y-106608094D01*
X106299580Y-106608094D02*
X106347200Y-106560475D01*
X106347200Y-106560475D02*
X106394819Y-106465237D01*
X106394819Y-106465237D02*
X106394819Y-106274761D01*
X106394819Y-106274761D02*
X106347200Y-106179523D01*
X106347200Y-106179523D02*
X106299580Y-106131904D01*
X106299580Y-106131904D02*
X106204342Y-106084285D01*
X106204342Y-106084285D02*
X105966247Y-106084285D01*
X105966247Y-106084285D02*
X105871009Y-106131904D01*
X105871009Y-106131904D02*
X105823390Y-106179523D01*
X105823390Y-106179523D02*
X105775771Y-106274761D01*
X105775771Y-106274761D02*
X105775771Y-106465237D01*
X105775771Y-106465237D02*
X105823390Y-106560475D01*
X105823390Y-106560475D02*
X105871009Y-106608094D01*
X105871009Y-106608094D02*
X105966247Y-106655713D01*
X148629580Y-115942857D02*
X148677200Y-115990476D01*
X148677200Y-115990476D02*
X148724819Y-116133333D01*
X148724819Y-116133333D02*
X148724819Y-116228571D01*
X148724819Y-116228571D02*
X148677200Y-116371428D01*
X148677200Y-116371428D02*
X148581961Y-116466666D01*
X148581961Y-116466666D02*
X148486723Y-116514285D01*
X148486723Y-116514285D02*
X148296247Y-116561904D01*
X148296247Y-116561904D02*
X148153390Y-116561904D01*
X148153390Y-116561904D02*
X147962914Y-116514285D01*
X147962914Y-116514285D02*
X147867676Y-116466666D01*
X147867676Y-116466666D02*
X147772438Y-116371428D01*
X147772438Y-116371428D02*
X147724819Y-116228571D01*
X147724819Y-116228571D02*
X147724819Y-116133333D01*
X147724819Y-116133333D02*
X147772438Y-115990476D01*
X147772438Y-115990476D02*
X147820057Y-115942857D01*
X148724819Y-114990476D02*
X148724819Y-115561904D01*
X148724819Y-115276190D02*
X147724819Y-115276190D01*
X147724819Y-115276190D02*
X147867676Y-115371428D01*
X147867676Y-115371428D02*
X147962914Y-115466666D01*
X147962914Y-115466666D02*
X148010533Y-115561904D01*
X147724819Y-114085714D02*
X147724819Y-114561904D01*
X147724819Y-114561904D02*
X148201009Y-114609523D01*
X148201009Y-114609523D02*
X148153390Y-114561904D01*
X148153390Y-114561904D02*
X148105771Y-114466666D01*
X148105771Y-114466666D02*
X148105771Y-114228571D01*
X148105771Y-114228571D02*
X148153390Y-114133333D01*
X148153390Y-114133333D02*
X148201009Y-114085714D01*
X148201009Y-114085714D02*
X148296247Y-114038095D01*
X148296247Y-114038095D02*
X148534342Y-114038095D01*
X148534342Y-114038095D02*
X148629580Y-114085714D01*
X148629580Y-114085714D02*
X148677200Y-114133333D01*
X148677200Y-114133333D02*
X148724819Y-114228571D01*
X148724819Y-114228571D02*
X148724819Y-114466666D01*
X148724819Y-114466666D02*
X148677200Y-114561904D01*
X148677200Y-114561904D02*
X148629580Y-114609523D01*
X150119219Y-123070857D02*
X149643028Y-123404190D01*
X150119219Y-123642285D02*
X149119219Y-123642285D01*
X149119219Y-123642285D02*
X149119219Y-123261333D01*
X149119219Y-123261333D02*
X149166838Y-123166095D01*
X149166838Y-123166095D02*
X149214457Y-123118476D01*
X149214457Y-123118476D02*
X149309695Y-123070857D01*
X149309695Y-123070857D02*
X149452552Y-123070857D01*
X149452552Y-123070857D02*
X149547790Y-123118476D01*
X149547790Y-123118476D02*
X149595409Y-123166095D01*
X149595409Y-123166095D02*
X149643028Y-123261333D01*
X149643028Y-123261333D02*
X149643028Y-123642285D01*
X150119219Y-122118476D02*
X150119219Y-122689904D01*
X150119219Y-122404190D02*
X149119219Y-122404190D01*
X149119219Y-122404190D02*
X149262076Y-122499428D01*
X149262076Y-122499428D02*
X149357314Y-122594666D01*
X149357314Y-122594666D02*
X149404933Y-122689904D01*
X149452552Y-121261333D02*
X150119219Y-121261333D01*
X149071600Y-121499428D02*
X149785885Y-121737523D01*
X149785885Y-121737523D02*
X149785885Y-121118476D01*
X134420780Y-119493857D02*
X134468400Y-119541476D01*
X134468400Y-119541476D02*
X134516019Y-119684333D01*
X134516019Y-119684333D02*
X134516019Y-119779571D01*
X134516019Y-119779571D02*
X134468400Y-119922428D01*
X134468400Y-119922428D02*
X134373161Y-120017666D01*
X134373161Y-120017666D02*
X134277923Y-120065285D01*
X134277923Y-120065285D02*
X134087447Y-120112904D01*
X134087447Y-120112904D02*
X133944590Y-120112904D01*
X133944590Y-120112904D02*
X133754114Y-120065285D01*
X133754114Y-120065285D02*
X133658876Y-120017666D01*
X133658876Y-120017666D02*
X133563638Y-119922428D01*
X133563638Y-119922428D02*
X133516019Y-119779571D01*
X133516019Y-119779571D02*
X133516019Y-119684333D01*
X133516019Y-119684333D02*
X133563638Y-119541476D01*
X133563638Y-119541476D02*
X133611257Y-119493857D01*
X133611257Y-119112904D02*
X133563638Y-119065285D01*
X133563638Y-119065285D02*
X133516019Y-118970047D01*
X133516019Y-118970047D02*
X133516019Y-118731952D01*
X133516019Y-118731952D02*
X133563638Y-118636714D01*
X133563638Y-118636714D02*
X133611257Y-118589095D01*
X133611257Y-118589095D02*
X133706495Y-118541476D01*
X133706495Y-118541476D02*
X133801733Y-118541476D01*
X133801733Y-118541476D02*
X133944590Y-118589095D01*
X133944590Y-118589095D02*
X134516019Y-119160523D01*
X134516019Y-119160523D02*
X134516019Y-118541476D01*
X133516019Y-118208142D02*
X133516019Y-117589095D01*
X133516019Y-117589095D02*
X133896971Y-117922428D01*
X133896971Y-117922428D02*
X133896971Y-117779571D01*
X133896971Y-117779571D02*
X133944590Y-117684333D01*
X133944590Y-117684333D02*
X133992209Y-117636714D01*
X133992209Y-117636714D02*
X134087447Y-117589095D01*
X134087447Y-117589095D02*
X134325542Y-117589095D01*
X134325542Y-117589095D02*
X134420780Y-117636714D01*
X134420780Y-117636714D02*
X134468400Y-117684333D01*
X134468400Y-117684333D02*
X134516019Y-117779571D01*
X134516019Y-117779571D02*
X134516019Y-118065285D01*
X134516019Y-118065285D02*
X134468400Y-118160523D01*
X134468400Y-118160523D02*
X134420780Y-118208142D01*
X148883333Y-105754819D02*
X148550000Y-105278628D01*
X148311905Y-105754819D02*
X148311905Y-104754819D01*
X148311905Y-104754819D02*
X148692857Y-104754819D01*
X148692857Y-104754819D02*
X148788095Y-104802438D01*
X148788095Y-104802438D02*
X148835714Y-104850057D01*
X148835714Y-104850057D02*
X148883333Y-104945295D01*
X148883333Y-104945295D02*
X148883333Y-105088152D01*
X148883333Y-105088152D02*
X148835714Y-105183390D01*
X148835714Y-105183390D02*
X148788095Y-105231009D01*
X148788095Y-105231009D02*
X148692857Y-105278628D01*
X148692857Y-105278628D02*
X148311905Y-105278628D01*
X149454762Y-105183390D02*
X149359524Y-105135771D01*
X149359524Y-105135771D02*
X149311905Y-105088152D01*
X149311905Y-105088152D02*
X149264286Y-104992914D01*
X149264286Y-104992914D02*
X149264286Y-104945295D01*
X149264286Y-104945295D02*
X149311905Y-104850057D01*
X149311905Y-104850057D02*
X149359524Y-104802438D01*
X149359524Y-104802438D02*
X149454762Y-104754819D01*
X149454762Y-104754819D02*
X149645238Y-104754819D01*
X149645238Y-104754819D02*
X149740476Y-104802438D01*
X149740476Y-104802438D02*
X149788095Y-104850057D01*
X149788095Y-104850057D02*
X149835714Y-104945295D01*
X149835714Y-104945295D02*
X149835714Y-104992914D01*
X149835714Y-104992914D02*
X149788095Y-105088152D01*
X149788095Y-105088152D02*
X149740476Y-105135771D01*
X149740476Y-105135771D02*
X149645238Y-105183390D01*
X149645238Y-105183390D02*
X149454762Y-105183390D01*
X149454762Y-105183390D02*
X149359524Y-105231009D01*
X149359524Y-105231009D02*
X149311905Y-105278628D01*
X149311905Y-105278628D02*
X149264286Y-105373866D01*
X149264286Y-105373866D02*
X149264286Y-105564342D01*
X149264286Y-105564342D02*
X149311905Y-105659580D01*
X149311905Y-105659580D02*
X149359524Y-105707200D01*
X149359524Y-105707200D02*
X149454762Y-105754819D01*
X149454762Y-105754819D02*
X149645238Y-105754819D01*
X149645238Y-105754819D02*
X149740476Y-105707200D01*
X149740476Y-105707200D02*
X149788095Y-105659580D01*
X149788095Y-105659580D02*
X149835714Y-105564342D01*
X149835714Y-105564342D02*
X149835714Y-105373866D01*
X149835714Y-105373866D02*
X149788095Y-105278628D01*
X149788095Y-105278628D02*
X149740476Y-105231009D01*
X149740476Y-105231009D02*
X149645238Y-105183390D01*
X102269580Y-105726666D02*
X102317200Y-105774285D01*
X102317200Y-105774285D02*
X102364819Y-105917142D01*
X102364819Y-105917142D02*
X102364819Y-106012380D01*
X102364819Y-106012380D02*
X102317200Y-106155237D01*
X102317200Y-106155237D02*
X102221961Y-106250475D01*
X102221961Y-106250475D02*
X102126723Y-106298094D01*
X102126723Y-106298094D02*
X101936247Y-106345713D01*
X101936247Y-106345713D02*
X101793390Y-106345713D01*
X101793390Y-106345713D02*
X101602914Y-106298094D01*
X101602914Y-106298094D02*
X101507676Y-106250475D01*
X101507676Y-106250475D02*
X101412438Y-106155237D01*
X101412438Y-106155237D02*
X101364819Y-106012380D01*
X101364819Y-106012380D02*
X101364819Y-105917142D01*
X101364819Y-105917142D02*
X101412438Y-105774285D01*
X101412438Y-105774285D02*
X101460057Y-105726666D01*
X101364819Y-104821904D02*
X101364819Y-105298094D01*
X101364819Y-105298094D02*
X101841009Y-105345713D01*
X101841009Y-105345713D02*
X101793390Y-105298094D01*
X101793390Y-105298094D02*
X101745771Y-105202856D01*
X101745771Y-105202856D02*
X101745771Y-104964761D01*
X101745771Y-104964761D02*
X101793390Y-104869523D01*
X101793390Y-104869523D02*
X101841009Y-104821904D01*
X101841009Y-104821904D02*
X101936247Y-104774285D01*
X101936247Y-104774285D02*
X102174342Y-104774285D01*
X102174342Y-104774285D02*
X102269580Y-104821904D01*
X102269580Y-104821904D02*
X102317200Y-104869523D01*
X102317200Y-104869523D02*
X102364819Y-104964761D01*
X102364819Y-104964761D02*
X102364819Y-105202856D01*
X102364819Y-105202856D02*
X102317200Y-105298094D01*
X102317200Y-105298094D02*
X102269580Y-105345713D01*
X116276922Y-113404194D02*
X115276922Y-113404194D01*
X115276922Y-113404194D02*
X115276922Y-113166099D01*
X115276922Y-113166099D02*
X115324541Y-113023242D01*
X115324541Y-113023242D02*
X115419779Y-112928004D01*
X115419779Y-112928004D02*
X115515017Y-112880385D01*
X115515017Y-112880385D02*
X115705493Y-112832766D01*
X115705493Y-112832766D02*
X115848350Y-112832766D01*
X115848350Y-112832766D02*
X116038826Y-112880385D01*
X116038826Y-112880385D02*
X116134064Y-112928004D01*
X116134064Y-112928004D02*
X116229303Y-113023242D01*
X116229303Y-113023242D02*
X116276922Y-113166099D01*
X116276922Y-113166099D02*
X116276922Y-113404194D01*
X115276922Y-112499432D02*
X115276922Y-111880385D01*
X115276922Y-111880385D02*
X115657874Y-112213718D01*
X115657874Y-112213718D02*
X115657874Y-112070861D01*
X115657874Y-112070861D02*
X115705493Y-111975623D01*
X115705493Y-111975623D02*
X115753112Y-111928004D01*
X115753112Y-111928004D02*
X115848350Y-111880385D01*
X115848350Y-111880385D02*
X116086445Y-111880385D01*
X116086445Y-111880385D02*
X116181683Y-111928004D01*
X116181683Y-111928004D02*
X116229303Y-111975623D01*
X116229303Y-111975623D02*
X116276922Y-112070861D01*
X116276922Y-112070861D02*
X116276922Y-112356575D01*
X116276922Y-112356575D02*
X116229303Y-112451813D01*
X116229303Y-112451813D02*
X116181683Y-112499432D01*
X175738095Y-82704819D02*
X175738095Y-81704819D01*
X175738095Y-82181009D02*
X176309523Y-82181009D01*
X176309523Y-82704819D02*
X176309523Y-81704819D01*
X176690476Y-81704819D02*
X177309523Y-81704819D01*
X177309523Y-81704819D02*
X176976190Y-82085771D01*
X176976190Y-82085771D02*
X177119047Y-82085771D01*
X177119047Y-82085771D02*
X177214285Y-82133390D01*
X177214285Y-82133390D02*
X177261904Y-82181009D01*
X177261904Y-82181009D02*
X177309523Y-82276247D01*
X177309523Y-82276247D02*
X177309523Y-82514342D01*
X177309523Y-82514342D02*
X177261904Y-82609580D01*
X177261904Y-82609580D02*
X177214285Y-82657200D01*
X177214285Y-82657200D02*
X177119047Y-82704819D01*
X177119047Y-82704819D02*
X176833333Y-82704819D01*
X176833333Y-82704819D02*
X176738095Y-82657200D01*
X176738095Y-82657200D02*
X176690476Y-82609580D01*
X104339580Y-91146666D02*
X104387200Y-91194285D01*
X104387200Y-91194285D02*
X104434819Y-91337142D01*
X104434819Y-91337142D02*
X104434819Y-91432380D01*
X104434819Y-91432380D02*
X104387200Y-91575237D01*
X104387200Y-91575237D02*
X104291961Y-91670475D01*
X104291961Y-91670475D02*
X104196723Y-91718094D01*
X104196723Y-91718094D02*
X104006247Y-91765713D01*
X104006247Y-91765713D02*
X103863390Y-91765713D01*
X103863390Y-91765713D02*
X103672914Y-91718094D01*
X103672914Y-91718094D02*
X103577676Y-91670475D01*
X103577676Y-91670475D02*
X103482438Y-91575237D01*
X103482438Y-91575237D02*
X103434819Y-91432380D01*
X103434819Y-91432380D02*
X103434819Y-91337142D01*
X103434819Y-91337142D02*
X103482438Y-91194285D01*
X103482438Y-91194285D02*
X103530057Y-91146666D01*
X103530057Y-90765713D02*
X103482438Y-90718094D01*
X103482438Y-90718094D02*
X103434819Y-90622856D01*
X103434819Y-90622856D02*
X103434819Y-90384761D01*
X103434819Y-90384761D02*
X103482438Y-90289523D01*
X103482438Y-90289523D02*
X103530057Y-90241904D01*
X103530057Y-90241904D02*
X103625295Y-90194285D01*
X103625295Y-90194285D02*
X103720533Y-90194285D01*
X103720533Y-90194285D02*
X103863390Y-90241904D01*
X103863390Y-90241904D02*
X104434819Y-90813332D01*
X104434819Y-90813332D02*
X104434819Y-90194285D01*
X126182142Y-94574819D02*
X125848809Y-94098628D01*
X125610714Y-94574819D02*
X125610714Y-93574819D01*
X125610714Y-93574819D02*
X125991666Y-93574819D01*
X125991666Y-93574819D02*
X126086904Y-93622438D01*
X126086904Y-93622438D02*
X126134523Y-93670057D01*
X126134523Y-93670057D02*
X126182142Y-93765295D01*
X126182142Y-93765295D02*
X126182142Y-93908152D01*
X126182142Y-93908152D02*
X126134523Y-94003390D01*
X126134523Y-94003390D02*
X126086904Y-94051009D01*
X126086904Y-94051009D02*
X125991666Y-94098628D01*
X125991666Y-94098628D02*
X125610714Y-94098628D01*
X127134523Y-94574819D02*
X126563095Y-94574819D01*
X126848809Y-94574819D02*
X126848809Y-93574819D01*
X126848809Y-93574819D02*
X126753571Y-93717676D01*
X126753571Y-93717676D02*
X126658333Y-93812914D01*
X126658333Y-93812914D02*
X126563095Y-93860533D01*
X127467857Y-93574819D02*
X128086904Y-93574819D01*
X128086904Y-93574819D02*
X127753571Y-93955771D01*
X127753571Y-93955771D02*
X127896428Y-93955771D01*
X127896428Y-93955771D02*
X127991666Y-94003390D01*
X127991666Y-94003390D02*
X128039285Y-94051009D01*
X128039285Y-94051009D02*
X128086904Y-94146247D01*
X128086904Y-94146247D02*
X128086904Y-94384342D01*
X128086904Y-94384342D02*
X128039285Y-94479580D01*
X128039285Y-94479580D02*
X127991666Y-94527200D01*
X127991666Y-94527200D02*
X127896428Y-94574819D01*
X127896428Y-94574819D02*
X127610714Y-94574819D01*
X127610714Y-94574819D02*
X127515476Y-94527200D01*
X127515476Y-94527200D02*
X127467857Y-94479580D01*
X106154819Y-98261904D02*
X106964342Y-98261904D01*
X106964342Y-98261904D02*
X107059580Y-98214285D01*
X107059580Y-98214285D02*
X107107200Y-98166666D01*
X107107200Y-98166666D02*
X107154819Y-98071428D01*
X107154819Y-98071428D02*
X107154819Y-97880952D01*
X107154819Y-97880952D02*
X107107200Y-97785714D01*
X107107200Y-97785714D02*
X107059580Y-97738095D01*
X107059580Y-97738095D02*
X106964342Y-97690476D01*
X106964342Y-97690476D02*
X106154819Y-97690476D01*
X106154819Y-96738095D02*
X106154819Y-97214285D01*
X106154819Y-97214285D02*
X106631009Y-97261904D01*
X106631009Y-97261904D02*
X106583390Y-97214285D01*
X106583390Y-97214285D02*
X106535771Y-97119047D01*
X106535771Y-97119047D02*
X106535771Y-96880952D01*
X106535771Y-96880952D02*
X106583390Y-96785714D01*
X106583390Y-96785714D02*
X106631009Y-96738095D01*
X106631009Y-96738095D02*
X106726247Y-96690476D01*
X106726247Y-96690476D02*
X106964342Y-96690476D01*
X106964342Y-96690476D02*
X107059580Y-96738095D01*
X107059580Y-96738095D02*
X107107200Y-96785714D01*
X107107200Y-96785714D02*
X107154819Y-96880952D01*
X107154819Y-96880952D02*
X107154819Y-97119047D01*
X107154819Y-97119047D02*
X107107200Y-97214285D01*
X107107200Y-97214285D02*
X107059580Y-97261904D01*
X170026666Y-120734819D02*
X170026666Y-121449104D01*
X170026666Y-121449104D02*
X169979047Y-121591961D01*
X169979047Y-121591961D02*
X169883809Y-121687200D01*
X169883809Y-121687200D02*
X169740952Y-121734819D01*
X169740952Y-121734819D02*
X169645714Y-121734819D01*
X170455238Y-120830057D02*
X170502857Y-120782438D01*
X170502857Y-120782438D02*
X170598095Y-120734819D01*
X170598095Y-120734819D02*
X170836190Y-120734819D01*
X170836190Y-120734819D02*
X170931428Y-120782438D01*
X170931428Y-120782438D02*
X170979047Y-120830057D01*
X170979047Y-120830057D02*
X171026666Y-120925295D01*
X171026666Y-120925295D02*
X171026666Y-121020533D01*
X171026666Y-121020533D02*
X170979047Y-121163390D01*
X170979047Y-121163390D02*
X170407619Y-121734819D01*
X170407619Y-121734819D02*
X171026666Y-121734819D01*
X118836716Y-113086604D02*
X119646239Y-113086604D01*
X119646239Y-113086604D02*
X119741477Y-113038985D01*
X119741477Y-113038985D02*
X119789097Y-112991366D01*
X119789097Y-112991366D02*
X119836716Y-112896128D01*
X119836716Y-112896128D02*
X119836716Y-112705652D01*
X119836716Y-112705652D02*
X119789097Y-112610414D01*
X119789097Y-112610414D02*
X119741477Y-112562795D01*
X119741477Y-112562795D02*
X119646239Y-112515176D01*
X119646239Y-112515176D02*
X118836716Y-112515176D01*
X118836716Y-111610414D02*
X118836716Y-111800890D01*
X118836716Y-111800890D02*
X118884335Y-111896128D01*
X118884335Y-111896128D02*
X118931954Y-111943747D01*
X118931954Y-111943747D02*
X119074811Y-112038985D01*
X119074811Y-112038985D02*
X119265287Y-112086604D01*
X119265287Y-112086604D02*
X119646239Y-112086604D01*
X119646239Y-112086604D02*
X119741477Y-112038985D01*
X119741477Y-112038985D02*
X119789097Y-111991366D01*
X119789097Y-111991366D02*
X119836716Y-111896128D01*
X119836716Y-111896128D02*
X119836716Y-111705652D01*
X119836716Y-111705652D02*
X119789097Y-111610414D01*
X119789097Y-111610414D02*
X119741477Y-111562795D01*
X119741477Y-111562795D02*
X119646239Y-111515176D01*
X119646239Y-111515176D02*
X119408144Y-111515176D01*
X119408144Y-111515176D02*
X119312906Y-111562795D01*
X119312906Y-111562795D02*
X119265287Y-111610414D01*
X119265287Y-111610414D02*
X119217668Y-111705652D01*
X119217668Y-111705652D02*
X119217668Y-111896128D01*
X119217668Y-111896128D02*
X119265287Y-111991366D01*
X119265287Y-111991366D02*
X119312906Y-112038985D01*
X119312906Y-112038985D02*
X119408144Y-112086604D01*
X157839580Y-118762857D02*
X157887200Y-118810476D01*
X157887200Y-118810476D02*
X157934819Y-118953333D01*
X157934819Y-118953333D02*
X157934819Y-119048571D01*
X157934819Y-119048571D02*
X157887200Y-119191428D01*
X157887200Y-119191428D02*
X157791961Y-119286666D01*
X157791961Y-119286666D02*
X157696723Y-119334285D01*
X157696723Y-119334285D02*
X157506247Y-119381904D01*
X157506247Y-119381904D02*
X157363390Y-119381904D01*
X157363390Y-119381904D02*
X157172914Y-119334285D01*
X157172914Y-119334285D02*
X157077676Y-119286666D01*
X157077676Y-119286666D02*
X156982438Y-119191428D01*
X156982438Y-119191428D02*
X156934819Y-119048571D01*
X156934819Y-119048571D02*
X156934819Y-118953333D01*
X156934819Y-118953333D02*
X156982438Y-118810476D01*
X156982438Y-118810476D02*
X157030057Y-118762857D01*
X157934819Y-117810476D02*
X157934819Y-118381904D01*
X157934819Y-118096190D02*
X156934819Y-118096190D01*
X156934819Y-118096190D02*
X157077676Y-118191428D01*
X157077676Y-118191428D02*
X157172914Y-118286666D01*
X157172914Y-118286666D02*
X157220533Y-118381904D01*
X157268152Y-116953333D02*
X157934819Y-116953333D01*
X156887200Y-117191428D02*
X157601485Y-117429523D01*
X157601485Y-117429523D02*
X157601485Y-116810476D01*
X147514457Y-117748038D02*
X147466838Y-117843276D01*
X147466838Y-117843276D02*
X147371600Y-117938514D01*
X147371600Y-117938514D02*
X147228742Y-118081371D01*
X147228742Y-118081371D02*
X147181123Y-118176609D01*
X147181123Y-118176609D02*
X147181123Y-118271847D01*
X147419219Y-118224228D02*
X147371600Y-118319466D01*
X147371600Y-118319466D02*
X147276361Y-118414704D01*
X147276361Y-118414704D02*
X147085885Y-118462323D01*
X147085885Y-118462323D02*
X146752552Y-118462323D01*
X146752552Y-118462323D02*
X146562076Y-118414704D01*
X146562076Y-118414704D02*
X146466838Y-118319466D01*
X146466838Y-118319466D02*
X146419219Y-118224228D01*
X146419219Y-118224228D02*
X146419219Y-118033752D01*
X146419219Y-118033752D02*
X146466838Y-117938514D01*
X146466838Y-117938514D02*
X146562076Y-117843276D01*
X146562076Y-117843276D02*
X146752552Y-117795657D01*
X146752552Y-117795657D02*
X147085885Y-117795657D01*
X147085885Y-117795657D02*
X147276361Y-117843276D01*
X147276361Y-117843276D02*
X147371600Y-117938514D01*
X147371600Y-117938514D02*
X147419219Y-118033752D01*
X147419219Y-118033752D02*
X147419219Y-118224228D01*
X146514457Y-117414704D02*
X146466838Y-117367085D01*
X146466838Y-117367085D02*
X146419219Y-117271847D01*
X146419219Y-117271847D02*
X146419219Y-117033752D01*
X146419219Y-117033752D02*
X146466838Y-116938514D01*
X146466838Y-116938514D02*
X146514457Y-116890895D01*
X146514457Y-116890895D02*
X146609695Y-116843276D01*
X146609695Y-116843276D02*
X146704933Y-116843276D01*
X146704933Y-116843276D02*
X146847790Y-116890895D01*
X146847790Y-116890895D02*
X147419219Y-117462323D01*
X147419219Y-117462323D02*
X147419219Y-116843276D01*
X176584780Y-88069657D02*
X176632400Y-88117276D01*
X176632400Y-88117276D02*
X176680019Y-88260133D01*
X176680019Y-88260133D02*
X176680019Y-88355371D01*
X176680019Y-88355371D02*
X176632400Y-88498228D01*
X176632400Y-88498228D02*
X176537161Y-88593466D01*
X176537161Y-88593466D02*
X176441923Y-88641085D01*
X176441923Y-88641085D02*
X176251447Y-88688704D01*
X176251447Y-88688704D02*
X176108590Y-88688704D01*
X176108590Y-88688704D02*
X175918114Y-88641085D01*
X175918114Y-88641085D02*
X175822876Y-88593466D01*
X175822876Y-88593466D02*
X175727638Y-88498228D01*
X175727638Y-88498228D02*
X175680019Y-88355371D01*
X175680019Y-88355371D02*
X175680019Y-88260133D01*
X175680019Y-88260133D02*
X175727638Y-88117276D01*
X175727638Y-88117276D02*
X175775257Y-88069657D01*
X175775257Y-87688704D02*
X175727638Y-87641085D01*
X175727638Y-87641085D02*
X175680019Y-87545847D01*
X175680019Y-87545847D02*
X175680019Y-87307752D01*
X175680019Y-87307752D02*
X175727638Y-87212514D01*
X175727638Y-87212514D02*
X175775257Y-87164895D01*
X175775257Y-87164895D02*
X175870495Y-87117276D01*
X175870495Y-87117276D02*
X175965733Y-87117276D01*
X175965733Y-87117276D02*
X176108590Y-87164895D01*
X176108590Y-87164895D02*
X176680019Y-87736323D01*
X176680019Y-87736323D02*
X176680019Y-87117276D01*
X175680019Y-86260133D02*
X175680019Y-86450609D01*
X175680019Y-86450609D02*
X175727638Y-86545847D01*
X175727638Y-86545847D02*
X175775257Y-86593466D01*
X175775257Y-86593466D02*
X175918114Y-86688704D01*
X175918114Y-86688704D02*
X176108590Y-86736323D01*
X176108590Y-86736323D02*
X176489542Y-86736323D01*
X176489542Y-86736323D02*
X176584780Y-86688704D01*
X176584780Y-86688704D02*
X176632400Y-86641085D01*
X176632400Y-86641085D02*
X176680019Y-86545847D01*
X176680019Y-86545847D02*
X176680019Y-86355371D01*
X176680019Y-86355371D02*
X176632400Y-86260133D01*
X176632400Y-86260133D02*
X176584780Y-86212514D01*
X176584780Y-86212514D02*
X176489542Y-86164895D01*
X176489542Y-86164895D02*
X176251447Y-86164895D01*
X176251447Y-86164895D02*
X176156209Y-86212514D01*
X176156209Y-86212514D02*
X176108590Y-86260133D01*
X176108590Y-86260133D02*
X176060971Y-86355371D01*
X176060971Y-86355371D02*
X176060971Y-86545847D01*
X176060971Y-86545847D02*
X176108590Y-86641085D01*
X176108590Y-86641085D02*
X176156209Y-86688704D01*
X176156209Y-86688704D02*
X176251447Y-86736323D01*
X147039580Y-109933557D02*
X147087200Y-109981176D01*
X147087200Y-109981176D02*
X147134819Y-110124033D01*
X147134819Y-110124033D02*
X147134819Y-110219271D01*
X147134819Y-110219271D02*
X147087200Y-110362128D01*
X147087200Y-110362128D02*
X146991961Y-110457366D01*
X146991961Y-110457366D02*
X146896723Y-110504985D01*
X146896723Y-110504985D02*
X146706247Y-110552604D01*
X146706247Y-110552604D02*
X146563390Y-110552604D01*
X146563390Y-110552604D02*
X146372914Y-110504985D01*
X146372914Y-110504985D02*
X146277676Y-110457366D01*
X146277676Y-110457366D02*
X146182438Y-110362128D01*
X146182438Y-110362128D02*
X146134819Y-110219271D01*
X146134819Y-110219271D02*
X146134819Y-110124033D01*
X146134819Y-110124033D02*
X146182438Y-109981176D01*
X146182438Y-109981176D02*
X146230057Y-109933557D01*
X147134819Y-108981176D02*
X147134819Y-109552604D01*
X147134819Y-109266890D02*
X146134819Y-109266890D01*
X146134819Y-109266890D02*
X146277676Y-109362128D01*
X146277676Y-109362128D02*
X146372914Y-109457366D01*
X146372914Y-109457366D02*
X146420533Y-109552604D01*
X146230057Y-108600223D02*
X146182438Y-108552604D01*
X146182438Y-108552604D02*
X146134819Y-108457366D01*
X146134819Y-108457366D02*
X146134819Y-108219271D01*
X146134819Y-108219271D02*
X146182438Y-108124033D01*
X146182438Y-108124033D02*
X146230057Y-108076414D01*
X146230057Y-108076414D02*
X146325295Y-108028795D01*
X146325295Y-108028795D02*
X146420533Y-108028795D01*
X146420533Y-108028795D02*
X146563390Y-108076414D01*
X146563390Y-108076414D02*
X147134819Y-108647842D01*
X147134819Y-108647842D02*
X147134819Y-108028795D01*
X116431219Y-121563457D02*
X115955028Y-121896790D01*
X116431219Y-122134885D02*
X115431219Y-122134885D01*
X115431219Y-122134885D02*
X115431219Y-121753933D01*
X115431219Y-121753933D02*
X115478838Y-121658695D01*
X115478838Y-121658695D02*
X115526457Y-121611076D01*
X115526457Y-121611076D02*
X115621695Y-121563457D01*
X115621695Y-121563457D02*
X115764552Y-121563457D01*
X115764552Y-121563457D02*
X115859790Y-121611076D01*
X115859790Y-121611076D02*
X115907409Y-121658695D01*
X115907409Y-121658695D02*
X115955028Y-121753933D01*
X115955028Y-121753933D02*
X115955028Y-122134885D01*
X116431219Y-120611076D02*
X116431219Y-121182504D01*
X116431219Y-120896790D02*
X115431219Y-120896790D01*
X115431219Y-120896790D02*
X115574076Y-120992028D01*
X115574076Y-120992028D02*
X115669314Y-121087266D01*
X115669314Y-121087266D02*
X115716933Y-121182504D01*
X116431219Y-120134885D02*
X116431219Y-119944409D01*
X116431219Y-119944409D02*
X116383600Y-119849171D01*
X116383600Y-119849171D02*
X116335980Y-119801552D01*
X116335980Y-119801552D02*
X116193123Y-119706314D01*
X116193123Y-119706314D02*
X116002647Y-119658695D01*
X116002647Y-119658695D02*
X115621695Y-119658695D01*
X115621695Y-119658695D02*
X115526457Y-119706314D01*
X115526457Y-119706314D02*
X115478838Y-119753933D01*
X115478838Y-119753933D02*
X115431219Y-119849171D01*
X115431219Y-119849171D02*
X115431219Y-120039647D01*
X115431219Y-120039647D02*
X115478838Y-120134885D01*
X115478838Y-120134885D02*
X115526457Y-120182504D01*
X115526457Y-120182504D02*
X115621695Y-120230123D01*
X115621695Y-120230123D02*
X115859790Y-120230123D01*
X115859790Y-120230123D02*
X115955028Y-120182504D01*
X115955028Y-120182504D02*
X116002647Y-120134885D01*
X116002647Y-120134885D02*
X116050266Y-120039647D01*
X116050266Y-120039647D02*
X116050266Y-119849171D01*
X116050266Y-119849171D02*
X116002647Y-119753933D01*
X116002647Y-119753933D02*
X115955028Y-119706314D01*
X115955028Y-119706314D02*
X115859790Y-119658695D01*
X137757142Y-94604819D02*
X137423809Y-94128628D01*
X137185714Y-94604819D02*
X137185714Y-93604819D01*
X137185714Y-93604819D02*
X137566666Y-93604819D01*
X137566666Y-93604819D02*
X137661904Y-93652438D01*
X137661904Y-93652438D02*
X137709523Y-93700057D01*
X137709523Y-93700057D02*
X137757142Y-93795295D01*
X137757142Y-93795295D02*
X137757142Y-93938152D01*
X137757142Y-93938152D02*
X137709523Y-94033390D01*
X137709523Y-94033390D02*
X137661904Y-94081009D01*
X137661904Y-94081009D02*
X137566666Y-94128628D01*
X137566666Y-94128628D02*
X137185714Y-94128628D01*
X138709523Y-94604819D02*
X138138095Y-94604819D01*
X138423809Y-94604819D02*
X138423809Y-93604819D01*
X138423809Y-93604819D02*
X138328571Y-93747676D01*
X138328571Y-93747676D02*
X138233333Y-93842914D01*
X138233333Y-93842914D02*
X138138095Y-93890533D01*
X139328571Y-93604819D02*
X139423809Y-93604819D01*
X139423809Y-93604819D02*
X139519047Y-93652438D01*
X139519047Y-93652438D02*
X139566666Y-93700057D01*
X139566666Y-93700057D02*
X139614285Y-93795295D01*
X139614285Y-93795295D02*
X139661904Y-93985771D01*
X139661904Y-93985771D02*
X139661904Y-94223866D01*
X139661904Y-94223866D02*
X139614285Y-94414342D01*
X139614285Y-94414342D02*
X139566666Y-94509580D01*
X139566666Y-94509580D02*
X139519047Y-94557200D01*
X139519047Y-94557200D02*
X139423809Y-94604819D01*
X139423809Y-94604819D02*
X139328571Y-94604819D01*
X139328571Y-94604819D02*
X139233333Y-94557200D01*
X139233333Y-94557200D02*
X139185714Y-94509580D01*
X139185714Y-94509580D02*
X139138095Y-94414342D01*
X139138095Y-94414342D02*
X139090476Y-94223866D01*
X139090476Y-94223866D02*
X139090476Y-93985771D01*
X139090476Y-93985771D02*
X139138095Y-93795295D01*
X139138095Y-93795295D02*
X139185714Y-93700057D01*
X139185714Y-93700057D02*
X139233333Y-93652438D01*
X139233333Y-93652438D02*
X139328571Y-93604819D01*
X104333333Y-112774819D02*
X104000000Y-112298628D01*
X103761905Y-112774819D02*
X103761905Y-111774819D01*
X103761905Y-111774819D02*
X104142857Y-111774819D01*
X104142857Y-111774819D02*
X104238095Y-111822438D01*
X104238095Y-111822438D02*
X104285714Y-111870057D01*
X104285714Y-111870057D02*
X104333333Y-111965295D01*
X104333333Y-111965295D02*
X104333333Y-112108152D01*
X104333333Y-112108152D02*
X104285714Y-112203390D01*
X104285714Y-112203390D02*
X104238095Y-112251009D01*
X104238095Y-112251009D02*
X104142857Y-112298628D01*
X104142857Y-112298628D02*
X103761905Y-112298628D01*
X105190476Y-112108152D02*
X105190476Y-112774819D01*
X104952381Y-111727200D02*
X104714286Y-112441485D01*
X104714286Y-112441485D02*
X105333333Y-112441485D01*
X119822933Y-119749819D02*
X119489600Y-119273628D01*
X119251505Y-119749819D02*
X119251505Y-118749819D01*
X119251505Y-118749819D02*
X119632457Y-118749819D01*
X119632457Y-118749819D02*
X119727695Y-118797438D01*
X119727695Y-118797438D02*
X119775314Y-118845057D01*
X119775314Y-118845057D02*
X119822933Y-118940295D01*
X119822933Y-118940295D02*
X119822933Y-119083152D01*
X119822933Y-119083152D02*
X119775314Y-119178390D01*
X119775314Y-119178390D02*
X119727695Y-119226009D01*
X119727695Y-119226009D02*
X119632457Y-119273628D01*
X119632457Y-119273628D02*
X119251505Y-119273628D01*
X120299124Y-119749819D02*
X120489600Y-119749819D01*
X120489600Y-119749819D02*
X120584838Y-119702200D01*
X120584838Y-119702200D02*
X120632457Y-119654580D01*
X120632457Y-119654580D02*
X120727695Y-119511723D01*
X120727695Y-119511723D02*
X120775314Y-119321247D01*
X120775314Y-119321247D02*
X120775314Y-118940295D01*
X120775314Y-118940295D02*
X120727695Y-118845057D01*
X120727695Y-118845057D02*
X120680076Y-118797438D01*
X120680076Y-118797438D02*
X120584838Y-118749819D01*
X120584838Y-118749819D02*
X120394362Y-118749819D01*
X120394362Y-118749819D02*
X120299124Y-118797438D01*
X120299124Y-118797438D02*
X120251505Y-118845057D01*
X120251505Y-118845057D02*
X120203886Y-118940295D01*
X120203886Y-118940295D02*
X120203886Y-119178390D01*
X120203886Y-119178390D02*
X120251505Y-119273628D01*
X120251505Y-119273628D02*
X120299124Y-119321247D01*
X120299124Y-119321247D02*
X120394362Y-119368866D01*
X120394362Y-119368866D02*
X120584838Y-119368866D01*
X120584838Y-119368866D02*
X120680076Y-119321247D01*
X120680076Y-119321247D02*
X120727695Y-119273628D01*
X120727695Y-119273628D02*
X120775314Y-119178390D01*
X147989580Y-102542857D02*
X148037200Y-102590476D01*
X148037200Y-102590476D02*
X148084819Y-102733333D01*
X148084819Y-102733333D02*
X148084819Y-102828571D01*
X148084819Y-102828571D02*
X148037200Y-102971428D01*
X148037200Y-102971428D02*
X147941961Y-103066666D01*
X147941961Y-103066666D02*
X147846723Y-103114285D01*
X147846723Y-103114285D02*
X147656247Y-103161904D01*
X147656247Y-103161904D02*
X147513390Y-103161904D01*
X147513390Y-103161904D02*
X147322914Y-103114285D01*
X147322914Y-103114285D02*
X147227676Y-103066666D01*
X147227676Y-103066666D02*
X147132438Y-102971428D01*
X147132438Y-102971428D02*
X147084819Y-102828571D01*
X147084819Y-102828571D02*
X147084819Y-102733333D01*
X147084819Y-102733333D02*
X147132438Y-102590476D01*
X147132438Y-102590476D02*
X147180057Y-102542857D01*
X148084819Y-101590476D02*
X148084819Y-102161904D01*
X148084819Y-101876190D02*
X147084819Y-101876190D01*
X147084819Y-101876190D02*
X147227676Y-101971428D01*
X147227676Y-101971428D02*
X147322914Y-102066666D01*
X147322914Y-102066666D02*
X147370533Y-102161904D01*
X148084819Y-100638095D02*
X148084819Y-101209523D01*
X148084819Y-100923809D02*
X147084819Y-100923809D01*
X147084819Y-100923809D02*
X147227676Y-101019047D01*
X147227676Y-101019047D02*
X147322914Y-101114285D01*
X147322914Y-101114285D02*
X147370533Y-101209523D01*
X95683333Y-119739580D02*
X95635714Y-119787200D01*
X95635714Y-119787200D02*
X95492857Y-119834819D01*
X95492857Y-119834819D02*
X95397619Y-119834819D01*
X95397619Y-119834819D02*
X95254762Y-119787200D01*
X95254762Y-119787200D02*
X95159524Y-119691961D01*
X95159524Y-119691961D02*
X95111905Y-119596723D01*
X95111905Y-119596723D02*
X95064286Y-119406247D01*
X95064286Y-119406247D02*
X95064286Y-119263390D01*
X95064286Y-119263390D02*
X95111905Y-119072914D01*
X95111905Y-119072914D02*
X95159524Y-118977676D01*
X95159524Y-118977676D02*
X95254762Y-118882438D01*
X95254762Y-118882438D02*
X95397619Y-118834819D01*
X95397619Y-118834819D02*
X95492857Y-118834819D01*
X95492857Y-118834819D02*
X95635714Y-118882438D01*
X95635714Y-118882438D02*
X95683333Y-118930057D01*
X96159524Y-119834819D02*
X96350000Y-119834819D01*
X96350000Y-119834819D02*
X96445238Y-119787200D01*
X96445238Y-119787200D02*
X96492857Y-119739580D01*
X96492857Y-119739580D02*
X96588095Y-119596723D01*
X96588095Y-119596723D02*
X96635714Y-119406247D01*
X96635714Y-119406247D02*
X96635714Y-119025295D01*
X96635714Y-119025295D02*
X96588095Y-118930057D01*
X96588095Y-118930057D02*
X96540476Y-118882438D01*
X96540476Y-118882438D02*
X96445238Y-118834819D01*
X96445238Y-118834819D02*
X96254762Y-118834819D01*
X96254762Y-118834819D02*
X96159524Y-118882438D01*
X96159524Y-118882438D02*
X96111905Y-118930057D01*
X96111905Y-118930057D02*
X96064286Y-119025295D01*
X96064286Y-119025295D02*
X96064286Y-119263390D01*
X96064286Y-119263390D02*
X96111905Y-119358628D01*
X96111905Y-119358628D02*
X96159524Y-119406247D01*
X96159524Y-119406247D02*
X96254762Y-119453866D01*
X96254762Y-119453866D02*
X96445238Y-119453866D01*
X96445238Y-119453866D02*
X96540476Y-119406247D01*
X96540476Y-119406247D02*
X96588095Y-119358628D01*
X96588095Y-119358628D02*
X96635714Y-119263390D01*
X123979580Y-91767857D02*
X124027200Y-91815476D01*
X124027200Y-91815476D02*
X124074819Y-91958333D01*
X124074819Y-91958333D02*
X124074819Y-92053571D01*
X124074819Y-92053571D02*
X124027200Y-92196428D01*
X124027200Y-92196428D02*
X123931961Y-92291666D01*
X123931961Y-92291666D02*
X123836723Y-92339285D01*
X123836723Y-92339285D02*
X123646247Y-92386904D01*
X123646247Y-92386904D02*
X123503390Y-92386904D01*
X123503390Y-92386904D02*
X123312914Y-92339285D01*
X123312914Y-92339285D02*
X123217676Y-92291666D01*
X123217676Y-92291666D02*
X123122438Y-92196428D01*
X123122438Y-92196428D02*
X123074819Y-92053571D01*
X123074819Y-92053571D02*
X123074819Y-91958333D01*
X123074819Y-91958333D02*
X123122438Y-91815476D01*
X123122438Y-91815476D02*
X123170057Y-91767857D01*
X124074819Y-90815476D02*
X124074819Y-91386904D01*
X124074819Y-91101190D02*
X123074819Y-91101190D01*
X123074819Y-91101190D02*
X123217676Y-91196428D01*
X123217676Y-91196428D02*
X123312914Y-91291666D01*
X123312914Y-91291666D02*
X123360533Y-91386904D01*
X123074819Y-89958333D02*
X123074819Y-90148809D01*
X123074819Y-90148809D02*
X123122438Y-90244047D01*
X123122438Y-90244047D02*
X123170057Y-90291666D01*
X123170057Y-90291666D02*
X123312914Y-90386904D01*
X123312914Y-90386904D02*
X123503390Y-90434523D01*
X123503390Y-90434523D02*
X123884342Y-90434523D01*
X123884342Y-90434523D02*
X123979580Y-90386904D01*
X123979580Y-90386904D02*
X124027200Y-90339285D01*
X124027200Y-90339285D02*
X124074819Y-90244047D01*
X124074819Y-90244047D02*
X124074819Y-90053571D01*
X124074819Y-90053571D02*
X124027200Y-89958333D01*
X124027200Y-89958333D02*
X123979580Y-89910714D01*
X123979580Y-89910714D02*
X123884342Y-89863095D01*
X123884342Y-89863095D02*
X123646247Y-89863095D01*
X123646247Y-89863095D02*
X123551009Y-89910714D01*
X123551009Y-89910714D02*
X123503390Y-89958333D01*
X123503390Y-89958333D02*
X123455771Y-90053571D01*
X123455771Y-90053571D02*
X123455771Y-90244047D01*
X123455771Y-90244047D02*
X123503390Y-90339285D01*
X123503390Y-90339285D02*
X123551009Y-90386904D01*
X123551009Y-90386904D02*
X123646247Y-90434523D01*
X148239580Y-98392857D02*
X148287200Y-98440476D01*
X148287200Y-98440476D02*
X148334819Y-98583333D01*
X148334819Y-98583333D02*
X148334819Y-98678571D01*
X148334819Y-98678571D02*
X148287200Y-98821428D01*
X148287200Y-98821428D02*
X148191961Y-98916666D01*
X148191961Y-98916666D02*
X148096723Y-98964285D01*
X148096723Y-98964285D02*
X147906247Y-99011904D01*
X147906247Y-99011904D02*
X147763390Y-99011904D01*
X147763390Y-99011904D02*
X147572914Y-98964285D01*
X147572914Y-98964285D02*
X147477676Y-98916666D01*
X147477676Y-98916666D02*
X147382438Y-98821428D01*
X147382438Y-98821428D02*
X147334819Y-98678571D01*
X147334819Y-98678571D02*
X147334819Y-98583333D01*
X147334819Y-98583333D02*
X147382438Y-98440476D01*
X147382438Y-98440476D02*
X147430057Y-98392857D01*
X148334819Y-97440476D02*
X148334819Y-98011904D01*
X148334819Y-97726190D02*
X147334819Y-97726190D01*
X147334819Y-97726190D02*
X147477676Y-97821428D01*
X147477676Y-97821428D02*
X147572914Y-97916666D01*
X147572914Y-97916666D02*
X147620533Y-98011904D01*
X147334819Y-96821428D02*
X147334819Y-96726190D01*
X147334819Y-96726190D02*
X147382438Y-96630952D01*
X147382438Y-96630952D02*
X147430057Y-96583333D01*
X147430057Y-96583333D02*
X147525295Y-96535714D01*
X147525295Y-96535714D02*
X147715771Y-96488095D01*
X147715771Y-96488095D02*
X147953866Y-96488095D01*
X147953866Y-96488095D02*
X148144342Y-96535714D01*
X148144342Y-96535714D02*
X148239580Y-96583333D01*
X148239580Y-96583333D02*
X148287200Y-96630952D01*
X148287200Y-96630952D02*
X148334819Y-96726190D01*
X148334819Y-96726190D02*
X148334819Y-96821428D01*
X148334819Y-96821428D02*
X148287200Y-96916666D01*
X148287200Y-96916666D02*
X148239580Y-96964285D01*
X148239580Y-96964285D02*
X148144342Y-97011904D01*
X148144342Y-97011904D02*
X147953866Y-97059523D01*
X147953866Y-97059523D02*
X147715771Y-97059523D01*
X147715771Y-97059523D02*
X147525295Y-97011904D01*
X147525295Y-97011904D02*
X147430057Y-96964285D01*
X147430057Y-96964285D02*
X147382438Y-96916666D01*
X147382438Y-96916666D02*
X147334819Y-96821428D01*
X141882019Y-91839294D02*
X140882019Y-91839294D01*
X140882019Y-91839294D02*
X140882019Y-91601199D01*
X140882019Y-91601199D02*
X140929638Y-91458342D01*
X140929638Y-91458342D02*
X141024876Y-91363104D01*
X141024876Y-91363104D02*
X141120114Y-91315485D01*
X141120114Y-91315485D02*
X141310590Y-91267866D01*
X141310590Y-91267866D02*
X141453447Y-91267866D01*
X141453447Y-91267866D02*
X141643923Y-91315485D01*
X141643923Y-91315485D02*
X141739161Y-91363104D01*
X141739161Y-91363104D02*
X141834400Y-91458342D01*
X141834400Y-91458342D02*
X141882019Y-91601199D01*
X141882019Y-91601199D02*
X141882019Y-91839294D01*
X140882019Y-90934532D02*
X140882019Y-90267866D01*
X140882019Y-90267866D02*
X141882019Y-90696437D01*
X86218095Y-123334819D02*
X86218095Y-122334819D01*
X86218095Y-122811009D02*
X86789523Y-122811009D01*
X86789523Y-123334819D02*
X86789523Y-122334819D01*
X87218095Y-122430057D02*
X87265714Y-122382438D01*
X87265714Y-122382438D02*
X87360952Y-122334819D01*
X87360952Y-122334819D02*
X87599047Y-122334819D01*
X87599047Y-122334819D02*
X87694285Y-122382438D01*
X87694285Y-122382438D02*
X87741904Y-122430057D01*
X87741904Y-122430057D02*
X87789523Y-122525295D01*
X87789523Y-122525295D02*
X87789523Y-122620533D01*
X87789523Y-122620533D02*
X87741904Y-122763390D01*
X87741904Y-122763390D02*
X87170476Y-123334819D01*
X87170476Y-123334819D02*
X87789523Y-123334819D01*
D12*
X129838095Y-92207419D02*
X129838095Y-93016942D01*
X129838095Y-93016942D02*
X129885714Y-93112180D01*
X129885714Y-93112180D02*
X129933333Y-93159800D01*
X129933333Y-93159800D02*
X130028571Y-93207419D01*
X130028571Y-93207419D02*
X130219047Y-93207419D01*
X130219047Y-93207419D02*
X130314285Y-93159800D01*
X130314285Y-93159800D02*
X130361904Y-93112180D01*
X130361904Y-93112180D02*
X130409523Y-93016942D01*
X130409523Y-93016942D02*
X130409523Y-92207419D01*
X130790476Y-92207419D02*
X131409523Y-92207419D01*
X131409523Y-92207419D02*
X131076190Y-92588371D01*
X131076190Y-92588371D02*
X131219047Y-92588371D01*
X131219047Y-92588371D02*
X131314285Y-92635990D01*
X131314285Y-92635990D02*
X131361904Y-92683609D01*
X131361904Y-92683609D02*
X131409523Y-92778847D01*
X131409523Y-92778847D02*
X131409523Y-93016942D01*
X131409523Y-93016942D02*
X131361904Y-93112180D01*
X131361904Y-93112180D02*
X131314285Y-93159800D01*
X131314285Y-93159800D02*
X131219047Y-93207419D01*
X131219047Y-93207419D02*
X130933333Y-93207419D01*
X130933333Y-93207419D02*
X130838095Y-93159800D01*
X130838095Y-93159800D02*
X130790476Y-93112180D01*
D11*
X138579980Y-88464257D02*
X138627600Y-88511876D01*
X138627600Y-88511876D02*
X138675219Y-88654733D01*
X138675219Y-88654733D02*
X138675219Y-88749971D01*
X138675219Y-88749971D02*
X138627600Y-88892828D01*
X138627600Y-88892828D02*
X138532361Y-88988066D01*
X138532361Y-88988066D02*
X138437123Y-89035685D01*
X138437123Y-89035685D02*
X138246647Y-89083304D01*
X138246647Y-89083304D02*
X138103790Y-89083304D01*
X138103790Y-89083304D02*
X137913314Y-89035685D01*
X137913314Y-89035685D02*
X137818076Y-88988066D01*
X137818076Y-88988066D02*
X137722838Y-88892828D01*
X137722838Y-88892828D02*
X137675219Y-88749971D01*
X137675219Y-88749971D02*
X137675219Y-88654733D01*
X137675219Y-88654733D02*
X137722838Y-88511876D01*
X137722838Y-88511876D02*
X137770457Y-88464257D01*
X138675219Y-87511876D02*
X138675219Y-88083304D01*
X138675219Y-87797590D02*
X137675219Y-87797590D01*
X137675219Y-87797590D02*
X137818076Y-87892828D01*
X137818076Y-87892828D02*
X137913314Y-87988066D01*
X137913314Y-87988066D02*
X137960933Y-88083304D01*
X138675219Y-87035685D02*
X138675219Y-86845209D01*
X138675219Y-86845209D02*
X138627600Y-86749971D01*
X138627600Y-86749971D02*
X138579980Y-86702352D01*
X138579980Y-86702352D02*
X138437123Y-86607114D01*
X138437123Y-86607114D02*
X138246647Y-86559495D01*
X138246647Y-86559495D02*
X137865695Y-86559495D01*
X137865695Y-86559495D02*
X137770457Y-86607114D01*
X137770457Y-86607114D02*
X137722838Y-86654733D01*
X137722838Y-86654733D02*
X137675219Y-86749971D01*
X137675219Y-86749971D02*
X137675219Y-86940447D01*
X137675219Y-86940447D02*
X137722838Y-87035685D01*
X137722838Y-87035685D02*
X137770457Y-87083304D01*
X137770457Y-87083304D02*
X137865695Y-87130923D01*
X137865695Y-87130923D02*
X138103790Y-87130923D01*
X138103790Y-87130923D02*
X138199028Y-87083304D01*
X138199028Y-87083304D02*
X138246647Y-87035685D01*
X138246647Y-87035685D02*
X138294266Y-86940447D01*
X138294266Y-86940447D02*
X138294266Y-86749971D01*
X138294266Y-86749971D02*
X138246647Y-86654733D01*
X138246647Y-86654733D02*
X138199028Y-86607114D01*
X138199028Y-86607114D02*
X138103790Y-86559495D01*
X81736666Y-84274819D02*
X81736666Y-84989104D01*
X81736666Y-84989104D02*
X81689047Y-85131961D01*
X81689047Y-85131961D02*
X81593809Y-85227200D01*
X81593809Y-85227200D02*
X81450952Y-85274819D01*
X81450952Y-85274819D02*
X81355714Y-85274819D01*
X82117619Y-84274819D02*
X82784285Y-84274819D01*
X82784285Y-84274819D02*
X82355714Y-85274819D01*
X180837142Y-85959580D02*
X180789523Y-86007200D01*
X180789523Y-86007200D02*
X180646666Y-86054819D01*
X180646666Y-86054819D02*
X180551428Y-86054819D01*
X180551428Y-86054819D02*
X180408571Y-86007200D01*
X180408571Y-86007200D02*
X180313333Y-85911961D01*
X180313333Y-85911961D02*
X180265714Y-85816723D01*
X180265714Y-85816723D02*
X180218095Y-85626247D01*
X180218095Y-85626247D02*
X180218095Y-85483390D01*
X180218095Y-85483390D02*
X180265714Y-85292914D01*
X180265714Y-85292914D02*
X180313333Y-85197676D01*
X180313333Y-85197676D02*
X180408571Y-85102438D01*
X180408571Y-85102438D02*
X180551428Y-85054819D01*
X180551428Y-85054819D02*
X180646666Y-85054819D01*
X180646666Y-85054819D02*
X180789523Y-85102438D01*
X180789523Y-85102438D02*
X180837142Y-85150057D01*
X181218095Y-85150057D02*
X181265714Y-85102438D01*
X181265714Y-85102438D02*
X181360952Y-85054819D01*
X181360952Y-85054819D02*
X181599047Y-85054819D01*
X181599047Y-85054819D02*
X181694285Y-85102438D01*
X181694285Y-85102438D02*
X181741904Y-85150057D01*
X181741904Y-85150057D02*
X181789523Y-85245295D01*
X181789523Y-85245295D02*
X181789523Y-85340533D01*
X181789523Y-85340533D02*
X181741904Y-85483390D01*
X181741904Y-85483390D02*
X181170476Y-86054819D01*
X181170476Y-86054819D02*
X181789523Y-86054819D01*
X182694285Y-85054819D02*
X182218095Y-85054819D01*
X182218095Y-85054819D02*
X182170476Y-85531009D01*
X182170476Y-85531009D02*
X182218095Y-85483390D01*
X182218095Y-85483390D02*
X182313333Y-85435771D01*
X182313333Y-85435771D02*
X182551428Y-85435771D01*
X182551428Y-85435771D02*
X182646666Y-85483390D01*
X182646666Y-85483390D02*
X182694285Y-85531009D01*
X182694285Y-85531009D02*
X182741904Y-85626247D01*
X182741904Y-85626247D02*
X182741904Y-85864342D01*
X182741904Y-85864342D02*
X182694285Y-85959580D01*
X182694285Y-85959580D02*
X182646666Y-86007200D01*
X182646666Y-86007200D02*
X182551428Y-86054819D01*
X182551428Y-86054819D02*
X182313333Y-86054819D01*
X182313333Y-86054819D02*
X182218095Y-86007200D01*
X182218095Y-86007200D02*
X182170476Y-85959580D01*
X124380666Y-125506219D02*
X124380666Y-126220504D01*
X124380666Y-126220504D02*
X124333047Y-126363361D01*
X124333047Y-126363361D02*
X124237809Y-126458600D01*
X124237809Y-126458600D02*
X124094952Y-126506219D01*
X124094952Y-126506219D02*
X123999714Y-126506219D01*
X125333047Y-125506219D02*
X124856857Y-125506219D01*
X124856857Y-125506219D02*
X124809238Y-125982409D01*
X124809238Y-125982409D02*
X124856857Y-125934790D01*
X124856857Y-125934790D02*
X124952095Y-125887171D01*
X124952095Y-125887171D02*
X125190190Y-125887171D01*
X125190190Y-125887171D02*
X125285428Y-125934790D01*
X125285428Y-125934790D02*
X125333047Y-125982409D01*
X125333047Y-125982409D02*
X125380666Y-126077647D01*
X125380666Y-126077647D02*
X125380666Y-126315742D01*
X125380666Y-126315742D02*
X125333047Y-126410980D01*
X125333047Y-126410980D02*
X125285428Y-126458600D01*
X125285428Y-126458600D02*
X125190190Y-126506219D01*
X125190190Y-126506219D02*
X124952095Y-126506219D01*
X124952095Y-126506219D02*
X124856857Y-126458600D01*
X124856857Y-126458600D02*
X124809238Y-126410980D01*
X116256666Y-89404819D02*
X116256666Y-90119104D01*
X116256666Y-90119104D02*
X116209047Y-90261961D01*
X116209047Y-90261961D02*
X116113809Y-90357200D01*
X116113809Y-90357200D02*
X115970952Y-90404819D01*
X115970952Y-90404819D02*
X115875714Y-90404819D01*
X116637619Y-89404819D02*
X117256666Y-89404819D01*
X117256666Y-89404819D02*
X116923333Y-89785771D01*
X116923333Y-89785771D02*
X117066190Y-89785771D01*
X117066190Y-89785771D02*
X117161428Y-89833390D01*
X117161428Y-89833390D02*
X117209047Y-89881009D01*
X117209047Y-89881009D02*
X117256666Y-89976247D01*
X117256666Y-89976247D02*
X117256666Y-90214342D01*
X117256666Y-90214342D02*
X117209047Y-90309580D01*
X117209047Y-90309580D02*
X117161428Y-90357200D01*
X117161428Y-90357200D02*
X117066190Y-90404819D01*
X117066190Y-90404819D02*
X116780476Y-90404819D01*
X116780476Y-90404819D02*
X116685238Y-90357200D01*
X116685238Y-90357200D02*
X116637619Y-90309580D01*
X189854819Y-103631904D02*
X190664342Y-103631904D01*
X190664342Y-103631904D02*
X190759580Y-103584285D01*
X190759580Y-103584285D02*
X190807200Y-103536666D01*
X190807200Y-103536666D02*
X190854819Y-103441428D01*
X190854819Y-103441428D02*
X190854819Y-103250952D01*
X190854819Y-103250952D02*
X190807200Y-103155714D01*
X190807200Y-103155714D02*
X190759580Y-103108095D01*
X190759580Y-103108095D02*
X190664342Y-103060476D01*
X190664342Y-103060476D02*
X189854819Y-103060476D01*
X190854819Y-102060476D02*
X190854819Y-102631904D01*
X190854819Y-102346190D02*
X189854819Y-102346190D01*
X189854819Y-102346190D02*
X189997676Y-102441428D01*
X189997676Y-102441428D02*
X190092914Y-102536666D01*
X190092914Y-102536666D02*
X190140533Y-102631904D01*
X186269104Y-107631905D02*
X186269104Y-107155715D01*
X186554819Y-107727143D02*
X185554819Y-107393810D01*
X185554819Y-107393810D02*
X186554819Y-107060477D01*
X185888152Y-106727143D02*
X186554819Y-106727143D01*
X185983390Y-106727143D02*
X185935771Y-106679524D01*
X185935771Y-106679524D02*
X185888152Y-106584286D01*
X185888152Y-106584286D02*
X185888152Y-106441429D01*
X185888152Y-106441429D02*
X185935771Y-106346191D01*
X185935771Y-106346191D02*
X186031009Y-106298572D01*
X186031009Y-106298572D02*
X186554819Y-106298572D01*
X185888152Y-105965238D02*
X185888152Y-105584286D01*
X185554819Y-105822381D02*
X186411961Y-105822381D01*
X186411961Y-105822381D02*
X186507200Y-105774762D01*
X186507200Y-105774762D02*
X186554819Y-105679524D01*
X186554819Y-105679524D02*
X186554819Y-105584286D01*
X186507200Y-104870000D02*
X186554819Y-104965238D01*
X186554819Y-104965238D02*
X186554819Y-105155714D01*
X186554819Y-105155714D02*
X186507200Y-105250952D01*
X186507200Y-105250952D02*
X186411961Y-105298571D01*
X186411961Y-105298571D02*
X186031009Y-105298571D01*
X186031009Y-105298571D02*
X185935771Y-105250952D01*
X185935771Y-105250952D02*
X185888152Y-105155714D01*
X185888152Y-105155714D02*
X185888152Y-104965238D01*
X185888152Y-104965238D02*
X185935771Y-104870000D01*
X185935771Y-104870000D02*
X186031009Y-104822381D01*
X186031009Y-104822381D02*
X186126247Y-104822381D01*
X186126247Y-104822381D02*
X186221485Y-105298571D01*
X185888152Y-104393809D02*
X186554819Y-104393809D01*
X185983390Y-104393809D02*
X185935771Y-104346190D01*
X185935771Y-104346190D02*
X185888152Y-104250952D01*
X185888152Y-104250952D02*
X185888152Y-104108095D01*
X185888152Y-104108095D02*
X185935771Y-104012857D01*
X185935771Y-104012857D02*
X186031009Y-103965238D01*
X186031009Y-103965238D02*
X186554819Y-103965238D01*
X185888152Y-103489047D02*
X186554819Y-103489047D01*
X185983390Y-103489047D02*
X185935771Y-103441428D01*
X185935771Y-103441428D02*
X185888152Y-103346190D01*
X185888152Y-103346190D02*
X185888152Y-103203333D01*
X185888152Y-103203333D02*
X185935771Y-103108095D01*
X185935771Y-103108095D02*
X186031009Y-103060476D01*
X186031009Y-103060476D02*
X186554819Y-103060476D01*
X186554819Y-102155714D02*
X186031009Y-102155714D01*
X186031009Y-102155714D02*
X185935771Y-102203333D01*
X185935771Y-102203333D02*
X185888152Y-102298571D01*
X185888152Y-102298571D02*
X185888152Y-102489047D01*
X185888152Y-102489047D02*
X185935771Y-102584285D01*
X186507200Y-102155714D02*
X186554819Y-102250952D01*
X186554819Y-102250952D02*
X186554819Y-102489047D01*
X186554819Y-102489047D02*
X186507200Y-102584285D01*
X186507200Y-102584285D02*
X186411961Y-102631904D01*
X186411961Y-102631904D02*
X186316723Y-102631904D01*
X186316723Y-102631904D02*
X186221485Y-102584285D01*
X186221485Y-102584285D02*
X186173866Y-102489047D01*
X186173866Y-102489047D02*
X186173866Y-102250952D01*
X186173866Y-102250952D02*
X186126247Y-102155714D01*
X186269104Y-100965237D02*
X186269104Y-100489047D01*
X186554819Y-101060475D02*
X185554819Y-100727142D01*
X185554819Y-100727142D02*
X186554819Y-100393809D01*
X186554819Y-100060475D02*
X185888152Y-100060475D01*
X186078628Y-100060475D02*
X185983390Y-100012856D01*
X185983390Y-100012856D02*
X185935771Y-99965237D01*
X185935771Y-99965237D02*
X185888152Y-99869999D01*
X185888152Y-99869999D02*
X185888152Y-99774761D01*
X186507200Y-99060475D02*
X186554819Y-99155713D01*
X186554819Y-99155713D02*
X186554819Y-99346189D01*
X186554819Y-99346189D02*
X186507200Y-99441427D01*
X186507200Y-99441427D02*
X186411961Y-99489046D01*
X186411961Y-99489046D02*
X186031009Y-99489046D01*
X186031009Y-99489046D02*
X185935771Y-99441427D01*
X185935771Y-99441427D02*
X185888152Y-99346189D01*
X185888152Y-99346189D02*
X185888152Y-99155713D01*
X185888152Y-99155713D02*
X185935771Y-99060475D01*
X185935771Y-99060475D02*
X186031009Y-99012856D01*
X186031009Y-99012856D02*
X186126247Y-99012856D01*
X186126247Y-99012856D02*
X186221485Y-99489046D01*
X186554819Y-98155713D02*
X186031009Y-98155713D01*
X186031009Y-98155713D02*
X185935771Y-98203332D01*
X185935771Y-98203332D02*
X185888152Y-98298570D01*
X185888152Y-98298570D02*
X185888152Y-98489046D01*
X185888152Y-98489046D02*
X185935771Y-98584284D01*
X186507200Y-98155713D02*
X186554819Y-98250951D01*
X186554819Y-98250951D02*
X186554819Y-98489046D01*
X186554819Y-98489046D02*
X186507200Y-98584284D01*
X186507200Y-98584284D02*
X186411961Y-98631903D01*
X186411961Y-98631903D02*
X186316723Y-98631903D01*
X186316723Y-98631903D02*
X186221485Y-98584284D01*
X186221485Y-98584284D02*
X186173866Y-98489046D01*
X186173866Y-98489046D02*
X186173866Y-98250951D01*
X186173866Y-98250951D02*
X186126247Y-98155713D01*
X91064819Y-82471904D02*
X90064819Y-82471904D01*
X90541009Y-82471904D02*
X90541009Y-81900476D01*
X91064819Y-81900476D02*
X90064819Y-81900476D01*
X91064819Y-80900476D02*
X91064819Y-81471904D01*
X91064819Y-81186190D02*
X90064819Y-81186190D01*
X90064819Y-81186190D02*
X90207676Y-81281428D01*
X90207676Y-81281428D02*
X90302914Y-81376666D01*
X90302914Y-81376666D02*
X90350533Y-81471904D01*
X104109580Y-102066666D02*
X104157200Y-102114285D01*
X104157200Y-102114285D02*
X104204819Y-102257142D01*
X104204819Y-102257142D02*
X104204819Y-102352380D01*
X104204819Y-102352380D02*
X104157200Y-102495237D01*
X104157200Y-102495237D02*
X104061961Y-102590475D01*
X104061961Y-102590475D02*
X103966723Y-102638094D01*
X103966723Y-102638094D02*
X103776247Y-102685713D01*
X103776247Y-102685713D02*
X103633390Y-102685713D01*
X103633390Y-102685713D02*
X103442914Y-102638094D01*
X103442914Y-102638094D02*
X103347676Y-102590475D01*
X103347676Y-102590475D02*
X103252438Y-102495237D01*
X103252438Y-102495237D02*
X103204819Y-102352380D01*
X103204819Y-102352380D02*
X103204819Y-102257142D01*
X103204819Y-102257142D02*
X103252438Y-102114285D01*
X103252438Y-102114285D02*
X103300057Y-102066666D01*
X103538152Y-101209523D02*
X104204819Y-101209523D01*
X103157200Y-101447618D02*
X103871485Y-101685713D01*
X103871485Y-101685713D02*
X103871485Y-101066666D01*
D13*
%TO.C,J9*%
X93337800Y-85415800D02*
X93337800Y-79415800D01*
X93157800Y-88405800D02*
X93157800Y-88075800D01*
X96457800Y-79415800D02*
X96457800Y-85415800D01*
X98237800Y-88472871D02*
X98237800Y-88075800D01*
X93577800Y-85415800D02*
X93577800Y-79415800D01*
X93157800Y-85415800D02*
X93157800Y-79415800D01*
X99947800Y-85415800D02*
X92207800Y-85415800D01*
X95697800Y-79415800D02*
X96457800Y-79415800D01*
X93917800Y-88405800D02*
X93917800Y-88075800D01*
X95697800Y-85415800D02*
X95697800Y-79415800D01*
X98237800Y-85415800D02*
X98237800Y-79415800D01*
X93157800Y-79415800D02*
X93917800Y-79415800D01*
X92207800Y-85415800D02*
X92207800Y-88075800D01*
X98237800Y-79415800D02*
X98997800Y-79415800D01*
X95697800Y-88472871D02*
X95697800Y-88075800D01*
X93817800Y-85415800D02*
X93817800Y-79415800D01*
X93537800Y-90785800D02*
X92267800Y-90785800D01*
X98997800Y-88472871D02*
X98997800Y-88075800D01*
X92207800Y-88075800D02*
X99947800Y-88075800D01*
X93457800Y-85415800D02*
X93457800Y-79415800D01*
X97347800Y-88075800D02*
X97347800Y-85415800D01*
X93217800Y-85415800D02*
X93217800Y-79415800D01*
X98997800Y-79415800D02*
X98997800Y-85415800D01*
X92267800Y-90785800D02*
X92267800Y-89515800D01*
X93917800Y-79415800D02*
X93917800Y-85415800D01*
X94807800Y-88075800D02*
X94807800Y-85415800D01*
X93697800Y-85415800D02*
X93697800Y-79415800D01*
X96457800Y-88472871D02*
X96457800Y-88075800D01*
X99947800Y-88075800D02*
X99947800Y-85415800D01*
%TO.C,R28*%
X134986500Y-121843658D02*
X134986500Y-121369142D01*
X136031500Y-121843658D02*
X136031500Y-121369142D01*
%TO.C,R22*%
X140628900Y-121331542D02*
X140628900Y-121806058D01*
X139583900Y-121331542D02*
X139583900Y-121806058D01*
%TO.C,R1*%
X111137258Y-105522500D02*
X110662742Y-105522500D01*
X111137258Y-104477500D02*
X110662742Y-104477500D01*
%TO.C,Q3*%
X146223600Y-125040800D02*
X146223600Y-121440800D01*
X141773600Y-123240800D02*
G75*
G03*
X146212078Y-125079278I2600000J0D01*
G01*
X146212078Y-121402322D02*
G75*
G03*
X141773600Y-123240800I-1838478J-1838478D01*
G01*
%TO.C,J1*%
X160962800Y-79735600D02*
X162287800Y-79735600D01*
X162287800Y-79670600D02*
X162287800Y-79735600D01*
X162287800Y-79670600D02*
X165817800Y-79670600D01*
X162287800Y-86075600D02*
X162287800Y-86140600D01*
X162287800Y-86140600D02*
X165817800Y-86140600D01*
X165817800Y-79670600D02*
X165817800Y-79735600D01*
X165817800Y-86075600D02*
X165817800Y-86140600D01*
%TO.C,R29*%
X174178700Y-90559658D02*
X174178700Y-90085142D01*
X175223700Y-90559658D02*
X175223700Y-90085142D01*
%TO.C,C24*%
X131155677Y-109431100D02*
X130874517Y-109431100D01*
X131155677Y-108411100D02*
X130874517Y-108411100D01*
%TO.C,C8*%
X99259420Y-117590000D02*
X99540580Y-117590000D01*
X99259420Y-118610000D02*
X99540580Y-118610000D01*
%TO.C,C17*%
X131434420Y-97640000D02*
X131715580Y-97640000D01*
X131434420Y-98660000D02*
X131715580Y-98660000D01*
%TO.C,L1*%
X92210000Y-107140000D02*
X92210000Y-108040000D01*
X92210000Y-107140000D02*
X101030000Y-107140000D01*
X92210000Y-116460000D02*
X92210000Y-115560000D01*
X92210000Y-116460000D02*
X101030000Y-116460000D01*
X101030000Y-107140000D02*
X101030000Y-108040000D01*
X101030000Y-116460000D02*
X101030000Y-115560000D01*
%TO.C,FB2*%
X154315900Y-112848658D02*
X154315900Y-112374142D01*
X155360900Y-112848658D02*
X155360900Y-112374142D01*
%TO.C,R12*%
X135062742Y-95227500D02*
X135537258Y-95227500D01*
X135062742Y-96272500D02*
X135537258Y-96272500D01*
%TO.C,R5*%
X108662258Y-109222500D02*
X108187742Y-109222500D01*
X108662258Y-108177500D02*
X108187742Y-108177500D01*
%TO.C,C3*%
X109690000Y-102665580D02*
X109690000Y-102384420D01*
X110710000Y-102665580D02*
X110710000Y-102384420D01*
%TO.C,C7*%
X91190000Y-122504437D02*
X91190000Y-122640000D01*
X91190000Y-122504437D02*
X92254437Y-121440000D01*
X91190000Y-124895563D02*
X91190000Y-124760000D01*
X91190000Y-124895563D02*
X92254437Y-125960000D01*
X92254437Y-121440000D02*
X95710000Y-121440000D01*
X92254437Y-125960000D02*
X95710000Y-125960000D01*
X95710000Y-121440000D02*
X95710000Y-122640000D01*
X95710000Y-125960000D02*
X95710000Y-124760000D01*
%TO.C,U2*%
X152517200Y-106543200D02*
X152992200Y-106543200D01*
X155737200Y-107018200D02*
X155737200Y-106543200D01*
X152517200Y-107018200D02*
X152517200Y-106543200D01*
X155737200Y-109288200D02*
X155737200Y-109763200D01*
X152517200Y-109288200D02*
X152517200Y-109763200D01*
X155737200Y-109763200D02*
X155262200Y-109763200D01*
X152517200Y-109763200D02*
X152992200Y-109763200D01*
%TO.C,R15*%
X139583900Y-124904858D02*
X139583900Y-124430342D01*
X140628900Y-124904858D02*
X140628900Y-124430342D01*
%TO.C,U4*%
X157110000Y-95500000D02*
X157110000Y-101510000D01*
X150290000Y-97750000D02*
X150290000Y-101510000D01*
X157110000Y-101510000D02*
X155850000Y-101510000D01*
X150290000Y-101510000D02*
X151550000Y-101510000D01*
%TO.C,J4*%
X156816000Y-128620000D02*
X156816000Y-129260000D01*
X156816000Y-129260000D02*
X157216000Y-129260000D01*
X157056000Y-122280000D02*
X157056000Y-129020000D01*
X157056000Y-122280000D02*
X165376000Y-122280000D01*
X157056000Y-123400000D02*
X165376000Y-123400000D01*
X157056000Y-128500000D02*
X165376000Y-128500000D01*
X157056000Y-129020000D02*
X165376000Y-129020000D01*
X165376000Y-122280000D02*
X165376000Y-129020000D01*
%TO.C,J8*%
X158235000Y-95010000D02*
X158235000Y-93610000D01*
X158235000Y-95010000D02*
X144415000Y-95010000D01*
X158235000Y-85310000D02*
X158235000Y-91090000D01*
X158235000Y-82790000D02*
X158235000Y-80290000D01*
X158235000Y-80290000D02*
X144415000Y-80290000D01*
X144415000Y-95010000D02*
X144415000Y-93610000D01*
X144415000Y-91090000D02*
X144415000Y-85310000D01*
X144415000Y-82790000D02*
X144415000Y-80290000D01*
%TO.C,R16*%
X119619500Y-106261258D02*
X119619500Y-105786742D01*
X120664500Y-106261258D02*
X120664500Y-105786742D01*
%TO.C,R21*%
X132983500Y-121369142D02*
X132983500Y-121843658D01*
X131938500Y-121369142D02*
X131938500Y-121843658D01*
%TO.C,R26*%
X138059900Y-121830458D02*
X138059900Y-121355942D01*
X139104900Y-121830458D02*
X139104900Y-121355942D01*
%TO.C,D2*%
X118337000Y-113593500D02*
X116867000Y-113593500D01*
X116867000Y-113593500D02*
X116867000Y-115878500D01*
X118337000Y-115878500D02*
X118337000Y-113593500D01*
%TO.C,C21*%
X125167297Y-105884720D02*
X125167297Y-106165880D01*
X124147297Y-105884720D02*
X124147297Y-106165880D01*
%TO.C,R27*%
X136535900Y-121830458D02*
X136535900Y-121355942D01*
X137580900Y-121830458D02*
X137580900Y-121355942D01*
%TO.C,R25*%
X139422200Y-88024364D02*
X139422200Y-87570236D01*
X140892200Y-88024364D02*
X140892200Y-87570236D01*
D14*
%TO.C,D1*%
X106565000Y-125687800D02*
X107835000Y-125687800D01*
X107200000Y-125687800D02*
X106565000Y-124925800D01*
X107200000Y-125687800D02*
X106692000Y-124925800D01*
X107200000Y-125687800D02*
X106819000Y-124925800D01*
X107200000Y-125687800D02*
X106946000Y-124925800D01*
X107200000Y-125687800D02*
X107073000Y-124925800D01*
X107200000Y-125687800D02*
X107327000Y-124925800D01*
X107200000Y-125687800D02*
X107454000Y-124925800D01*
X107200000Y-125687800D02*
X107581000Y-124925800D01*
X107200000Y-125687800D02*
X107708000Y-124925800D01*
X107200000Y-125687800D02*
X107835000Y-124925800D01*
X106565000Y-124925800D02*
X107835000Y-124925800D01*
X107200000Y-124699740D02*
X107200000Y-125941800D01*
X103961500Y-123983000D02*
X105267060Y-123983000D01*
X109132940Y-123983000D02*
X110438500Y-123983000D01*
X110438500Y-123983000D02*
X110438500Y-116617000D01*
X103961500Y-116617000D02*
X103961500Y-123983000D01*
X105267060Y-116617000D02*
X103961500Y-116617000D01*
X110438500Y-116617000D02*
X109132940Y-116617000D01*
D13*
%TO.C,L2*%
X125990000Y-79390000D02*
X125990000Y-80290000D01*
X125990000Y-79390000D02*
X134810000Y-79390000D01*
X125990000Y-88710000D02*
X125990000Y-87810000D01*
X125990000Y-88710000D02*
X134810000Y-88710000D01*
X134810000Y-79390000D02*
X134810000Y-80290000D01*
X134810000Y-88710000D02*
X134810000Y-87810000D01*
%TO.C,R20*%
X130414500Y-121843658D02*
X130414500Y-121369142D01*
X131459500Y-121843658D02*
X131459500Y-121369142D01*
%TO.C,C18*%
X135465000Y-91136252D02*
X135465000Y-90613748D01*
X136935000Y-91136252D02*
X136935000Y-90613748D01*
%TO.C,C22*%
X129989297Y-106178880D02*
X129989297Y-105897720D01*
X131009297Y-106178880D02*
X131009297Y-105897720D01*
%TO.C,J6*%
X156110000Y-114687246D02*
X156110000Y-115957246D01*
X154840000Y-114687246D02*
X156110000Y-114687246D01*
X152680000Y-117000175D02*
X152680000Y-117397246D01*
X151920000Y-117000175D02*
X151920000Y-117397246D01*
X155220000Y-117067246D02*
X155220000Y-117397246D01*
X154460000Y-117067246D02*
X154460000Y-117397246D01*
X156170000Y-117397246D02*
X150970000Y-117397246D01*
X153570000Y-117397246D02*
X153570000Y-120057246D01*
X150970000Y-117397246D02*
X150970000Y-120057246D01*
X156170000Y-120057246D02*
X156170000Y-117397246D01*
X155220000Y-120057246D02*
X155220000Y-126057246D01*
X155160000Y-120057246D02*
X155160000Y-126057246D01*
X155040000Y-120057246D02*
X155040000Y-126057246D01*
X154920000Y-120057246D02*
X154920000Y-126057246D01*
X154800000Y-120057246D02*
X154800000Y-126057246D01*
X154680000Y-120057246D02*
X154680000Y-126057246D01*
X154560000Y-120057246D02*
X154560000Y-126057246D01*
X152680000Y-120057246D02*
X152680000Y-126057246D01*
X150970000Y-120057246D02*
X156170000Y-120057246D01*
X155220000Y-126057246D02*
X154460000Y-126057246D01*
X154460000Y-126057246D02*
X154460000Y-120057246D01*
X152680000Y-126057246D02*
X151920000Y-126057246D01*
X151920000Y-126057246D02*
X151920000Y-120057246D01*
%TO.C,C13*%
X151160000Y-109159420D02*
X151160000Y-109440580D01*
X150140000Y-109159420D02*
X150140000Y-109440580D01*
%TO.C,R18*%
X117079500Y-118351658D02*
X117079500Y-117877142D01*
X118124500Y-118351658D02*
X118124500Y-117877142D01*
%TO.C,C20*%
X122681897Y-106166080D02*
X122681897Y-105884920D01*
X123701897Y-106166080D02*
X123701897Y-105884920D01*
%TO.C,Q4*%
X117745800Y-126124200D02*
X117745800Y-126024200D01*
X117745800Y-126124200D02*
X115795800Y-126124200D01*
X115795800Y-123824200D02*
X117295800Y-123824200D01*
%TO.C,R7*%
X106337742Y-92277500D02*
X106812258Y-92277500D01*
X106337742Y-93322500D02*
X106812258Y-93322500D01*
%TO.C,Q5*%
X115410800Y-94635000D02*
X115410800Y-94735000D01*
X115410800Y-94635000D02*
X117360800Y-94635000D01*
X117360800Y-96935000D02*
X115860800Y-96935000D01*
%TO.C,Q1*%
X107180000Y-114700000D02*
X107180000Y-112700000D01*
X109420000Y-112700000D02*
X109420000Y-113700000D01*
%TO.C,C1*%
X99590000Y-103215580D02*
X99590000Y-102934420D01*
X100610000Y-103215580D02*
X100610000Y-102934420D01*
%TO.C,FB1*%
X151775900Y-112848658D02*
X151775900Y-112374142D01*
X152820900Y-112848658D02*
X152820900Y-112374142D01*
%TO.C,R17*%
X121143500Y-106261258D02*
X121143500Y-105786742D01*
X122188500Y-106261258D02*
X122188500Y-105786742D01*
%TO.C,U7*%
X129648897Y-113456500D02*
X129648897Y-116906500D01*
X129648897Y-113456500D02*
X129648897Y-111506500D01*
X134768897Y-113456500D02*
X134768897Y-115406500D01*
X134768897Y-113456500D02*
X134768897Y-111506500D01*
%TO.C,R11*%
X135087742Y-96827500D02*
X135562258Y-96827500D01*
X135087742Y-97872500D02*
X135562258Y-97872500D01*
%TO.C,SW1*%
X175060000Y-79930000D02*
X175060000Y-79290000D01*
X175060000Y-79290000D02*
X174660000Y-79290000D01*
X174820000Y-86270000D02*
X174820000Y-79530000D01*
X174820000Y-86270000D02*
X169040000Y-86270000D01*
X174820000Y-85150000D02*
X169040000Y-85150000D01*
X174820000Y-80050000D02*
X169040000Y-80050000D01*
X174820000Y-79530000D02*
X169040000Y-79530000D01*
X169040000Y-86270000D02*
X169040000Y-79530000D01*
%TO.C,R2*%
X103022500Y-93137742D02*
X103022500Y-93612258D01*
X101977500Y-93137742D02*
X101977500Y-93612258D01*
%TO.C,R6*%
X106762258Y-94822500D02*
X106287742Y-94822500D01*
X106762258Y-93777500D02*
X106287742Y-93777500D01*
%TO.C,Y1*%
X125578297Y-104438300D02*
X125578297Y-107638300D01*
X125578297Y-107638300D02*
X129578297Y-107638300D01*
%TO.C,R3*%
X112610000Y-107772936D02*
X112610000Y-109227064D01*
X110790000Y-107772936D02*
X110790000Y-109227064D01*
%TO.C,C6*%
X108661252Y-107635000D02*
X108138748Y-107635000D01*
X108661252Y-106165000D02*
X108138748Y-106165000D01*
%TO.C,C15*%
X149190000Y-115440580D02*
X149190000Y-115159420D01*
X150210000Y-115440580D02*
X150210000Y-115159420D01*
%TO.C,R14*%
X148756900Y-122190742D02*
X148756900Y-122665258D01*
X147711900Y-122190742D02*
X147711900Y-122665258D01*
%TO.C,C23*%
X134495000Y-121465820D02*
X134495000Y-121746980D01*
X133475000Y-121465820D02*
X133475000Y-121746980D01*
%TO.C,R8*%
X148812742Y-106177500D02*
X149287258Y-106177500D01*
X148812742Y-107222500D02*
X149287258Y-107222500D01*
%TO.C,C5*%
X101390000Y-103240580D02*
X101390000Y-102959420D01*
X102410000Y-103240580D02*
X102410000Y-102959420D01*
%TO.C,D3*%
X116711400Y-113593600D02*
X115241400Y-113593600D01*
X115241400Y-113593600D02*
X115241400Y-115878600D01*
X116711400Y-115878600D02*
X116711400Y-113593600D01*
%TO.C,C2*%
X104510000Y-93234420D02*
X104510000Y-93515580D01*
X103490000Y-93234420D02*
X103490000Y-93515580D01*
%TO.C,R13*%
X126587742Y-95027500D02*
X127062258Y-95027500D01*
X126587742Y-96072500D02*
X127062258Y-96072500D01*
%TO.C,U5*%
X101500000Y-99000000D02*
X101500000Y-97800000D01*
X103000000Y-99000000D02*
X101500000Y-99000000D01*
X101880000Y-98550000D02*
X101880000Y-96180000D01*
X105120000Y-96800000D02*
X105120000Y-97800000D01*
%TO.C,J2*%
X165960000Y-128620000D02*
X165960000Y-129260000D01*
X165960000Y-129260000D02*
X166360000Y-129260000D01*
X166200000Y-122280000D02*
X166200000Y-129020000D01*
X166200000Y-122280000D02*
X174520000Y-122280000D01*
X166200000Y-123400000D02*
X174520000Y-123400000D01*
X166200000Y-128500000D02*
X174520000Y-128500000D01*
X166200000Y-129020000D02*
X174520000Y-129020000D01*
X174520000Y-122280000D02*
X174520000Y-129020000D01*
%TO.C,U6*%
X128841397Y-109527500D02*
X128841397Y-110002500D01*
X128366397Y-117747500D02*
X128841397Y-117747500D01*
X128366397Y-109527500D02*
X128841397Y-109527500D01*
X121096397Y-117747500D02*
X120621397Y-117747500D01*
X121096397Y-109527500D02*
X120621397Y-109527500D01*
X120621397Y-117747500D02*
X120621397Y-117272500D01*
X120621397Y-109527500D02*
X120621397Y-110002500D01*
%TO.C,C14*%
X156919200Y-115341980D02*
X156919200Y-115060820D01*
X157939200Y-115341980D02*
X157939200Y-115060820D01*
%TO.C,Q2*%
X146223600Y-119503600D02*
X146223600Y-115903600D01*
X141773600Y-117703600D02*
G75*
G03*
X146212078Y-119542078I2600000J0D01*
G01*
X146212078Y-115865122D02*
G75*
G03*
X141773600Y-117703600I-1838478J-1838478D01*
G01*
%TO.C,C26*%
X175715200Y-90475980D02*
X175715200Y-90194820D01*
X176735200Y-90475980D02*
X176735200Y-90194820D01*
%TO.C,C12*%
X149212200Y-109029448D02*
X149212200Y-109551952D01*
X147742200Y-109029448D02*
X147742200Y-109551952D01*
%TO.C,R19*%
X115453900Y-118351658D02*
X115453900Y-117877142D01*
X116498900Y-118351658D02*
X116498900Y-117877142D01*
%TO.C,R10*%
X135562258Y-94672500D02*
X135087742Y-94672500D01*
X135562258Y-93627500D02*
X135087742Y-93627500D01*
%TO.C,R4*%
X105227064Y-111410000D02*
X103772936Y-111410000D01*
X105227064Y-109590000D02*
X103772936Y-109590000D01*
%TO.C,R9*%
X122626658Y-119715900D02*
X122152142Y-119715900D01*
X122626658Y-118670900D02*
X122152142Y-118670900D01*
%TO.C,C11*%
X146710000Y-101759420D02*
X146710000Y-102040580D01*
X145690000Y-101759420D02*
X145690000Y-102040580D01*
%TO.C,C9*%
X96111252Y-118435000D02*
X95588748Y-118435000D01*
X96111252Y-116965000D02*
X95588748Y-116965000D01*
%TO.C,C16*%
X124565000Y-91386252D02*
X124565000Y-90863748D01*
X126035000Y-91386252D02*
X126035000Y-90863748D01*
%TO.C,C10*%
X146935000Y-97488748D02*
X146935000Y-98011252D01*
X145465000Y-97488748D02*
X145465000Y-98011252D01*
%TO.C,D7*%
X140689000Y-89616200D02*
X139219000Y-89616200D01*
X139219000Y-89616200D02*
X139219000Y-91901200D01*
X140689000Y-91901200D02*
X140689000Y-89616200D01*
%TO.C,C19*%
X137491800Y-91159252D02*
X137491800Y-90636748D01*
X138961800Y-91159252D02*
X138961800Y-90636748D01*
%TO.C,J7*%
X80740000Y-88860000D02*
X80740000Y-121940000D01*
X80740000Y-88860000D02*
X83400000Y-88860000D01*
X80740000Y-121940000D02*
X83400000Y-121940000D01*
X82070000Y-86260000D02*
X83400000Y-86260000D01*
X83400000Y-86260000D02*
X83400000Y-87590000D01*
X83400000Y-88860000D02*
X83400000Y-121940000D01*
%TO.C,C25*%
X180695563Y-87240000D02*
X180560000Y-87240000D01*
X180695563Y-87240000D02*
X181760000Y-88304437D01*
X178304437Y-87240000D02*
X178440000Y-87240000D01*
X178304437Y-87240000D02*
X177240000Y-88304437D01*
X181760000Y-88304437D02*
X181760000Y-91760000D01*
X177240000Y-88304437D02*
X177240000Y-91760000D01*
X181760000Y-91760000D02*
X180560000Y-91760000D01*
X177240000Y-91760000D02*
X178440000Y-91760000D01*
%TO.C,J5*%
X119964000Y-120402400D02*
X129464000Y-120402400D01*
X119964000Y-122902400D02*
X119964000Y-125602400D01*
X119964000Y-128762400D02*
X119964000Y-128552400D01*
X121589000Y-120252400D02*
X121814000Y-120252400D01*
X129464000Y-125652400D02*
X129464000Y-122927400D01*
X129464000Y-128752400D02*
X129464000Y-128527400D01*
%TO.C,J3*%
X121460000Y-93980000D02*
X121460000Y-92680000D01*
X121160000Y-93680000D02*
X119160000Y-93680000D01*
X121160000Y-79180000D02*
X121160000Y-93680000D01*
X119760000Y-93980000D02*
X121460000Y-93980000D01*
X113960000Y-93680000D02*
X111960000Y-93680000D01*
X111960000Y-93680000D02*
X111960000Y-92380000D01*
X111960000Y-87780000D02*
X111960000Y-79180000D01*
X111960000Y-79180000D02*
X121160000Y-79180000D01*
%TO.C,U1*%
X189100000Y-93870000D02*
X182350000Y-93870000D01*
X189100000Y-93870000D02*
X189100000Y-111870000D01*
X164350000Y-93870000D02*
X163600000Y-93870000D01*
X163600000Y-93870000D02*
X163600000Y-94620000D01*
X163600000Y-94620000D02*
X163600000Y-96370000D01*
X163600000Y-111120000D02*
X163600000Y-109370000D01*
X189100000Y-111870000D02*
X182350000Y-111870000D01*
X183160000Y-111870000D02*
X183160000Y-93870000D01*
X164350000Y-111870000D02*
X163600000Y-111870000D01*
X163600000Y-111870000D02*
X163600000Y-111120000D01*
%TO.C,C4*%
X104690000Y-103061252D02*
X104690000Y-100738748D01*
X108110000Y-103061252D02*
X108110000Y-100738748D01*
%TD*%
M02*
