%TF.GenerationSoftware,KiCad,Pcbnew,7.0.9*%
%TF.CreationDate,2024-01-24T14:37:03-05:00*%
%TF.ProjectId,FinalPcbLayout,46696e61-6c50-4636-924c-61796f75742e,rev?*%
%TF.SameCoordinates,Original*%
%TF.FileFunction,Legend,Bot*%
%TF.FilePolarity,Positive*%
%FSLAX46Y46*%
G04 Gerber Fmt 4.6, Leading zero omitted, Abs format (unit mm)*
G04 Created by KiCad (PCBNEW 7.0.9) date 2024-01-24 14:37:03*
%MOMM*%
%LPD*%
G01*
G04 APERTURE LIST*
%ADD10C,0.150000*%
%ADD11C,0.300000*%
G04 APERTURE END LIST*
D10*
X153847800Y-120532760D02*
X153895419Y-120675617D01*
X153895419Y-120675617D02*
X153895419Y-120913712D01*
X153895419Y-120913712D02*
X153847800Y-121008950D01*
X153847800Y-121008950D02*
X153800180Y-121056569D01*
X153800180Y-121056569D02*
X153704942Y-121104188D01*
X153704942Y-121104188D02*
X153609704Y-121104188D01*
X153609704Y-121104188D02*
X153514466Y-121056569D01*
X153514466Y-121056569D02*
X153466847Y-121008950D01*
X153466847Y-121008950D02*
X153419228Y-120913712D01*
X153419228Y-120913712D02*
X153371609Y-120723236D01*
X153371609Y-120723236D02*
X153323990Y-120627998D01*
X153323990Y-120627998D02*
X153276371Y-120580379D01*
X153276371Y-120580379D02*
X153181133Y-120532760D01*
X153181133Y-120532760D02*
X153085895Y-120532760D01*
X153085895Y-120532760D02*
X152990657Y-120580379D01*
X152990657Y-120580379D02*
X152943038Y-120627998D01*
X152943038Y-120627998D02*
X152895419Y-120723236D01*
X152895419Y-120723236D02*
X152895419Y-120961331D01*
X152895419Y-120961331D02*
X152943038Y-121104188D01*
X153228752Y-121532760D02*
X154228752Y-121532760D01*
X153276371Y-121532760D02*
X153228752Y-121627998D01*
X153228752Y-121627998D02*
X153228752Y-121818474D01*
X153228752Y-121818474D02*
X153276371Y-121913712D01*
X153276371Y-121913712D02*
X153323990Y-121961331D01*
X153323990Y-121961331D02*
X153419228Y-122008950D01*
X153419228Y-122008950D02*
X153704942Y-122008950D01*
X153704942Y-122008950D02*
X153800180Y-121961331D01*
X153800180Y-121961331D02*
X153847800Y-121913712D01*
X153847800Y-121913712D02*
X153895419Y-121818474D01*
X153895419Y-121818474D02*
X153895419Y-121627998D01*
X153895419Y-121627998D02*
X153847800Y-121532760D01*
X153847800Y-122818474D02*
X153895419Y-122723236D01*
X153895419Y-122723236D02*
X153895419Y-122532760D01*
X153895419Y-122532760D02*
X153847800Y-122437522D01*
X153847800Y-122437522D02*
X153752561Y-122389903D01*
X153752561Y-122389903D02*
X153371609Y-122389903D01*
X153371609Y-122389903D02*
X153276371Y-122437522D01*
X153276371Y-122437522D02*
X153228752Y-122532760D01*
X153228752Y-122532760D02*
X153228752Y-122723236D01*
X153228752Y-122723236D02*
X153276371Y-122818474D01*
X153276371Y-122818474D02*
X153371609Y-122866093D01*
X153371609Y-122866093D02*
X153466847Y-122866093D01*
X153466847Y-122866093D02*
X153562085Y-122389903D01*
X153895419Y-123723236D02*
X153371609Y-123723236D01*
X153371609Y-123723236D02*
X153276371Y-123675617D01*
X153276371Y-123675617D02*
X153228752Y-123580379D01*
X153228752Y-123580379D02*
X153228752Y-123389903D01*
X153228752Y-123389903D02*
X153276371Y-123294665D01*
X153847800Y-123723236D02*
X153895419Y-123627998D01*
X153895419Y-123627998D02*
X153895419Y-123389903D01*
X153895419Y-123389903D02*
X153847800Y-123294665D01*
X153847800Y-123294665D02*
X153752561Y-123247046D01*
X153752561Y-123247046D02*
X153657323Y-123247046D01*
X153657323Y-123247046D02*
X153562085Y-123294665D01*
X153562085Y-123294665D02*
X153514466Y-123389903D01*
X153514466Y-123389903D02*
X153514466Y-123627998D01*
X153514466Y-123627998D02*
X153466847Y-123723236D01*
X153895419Y-124199427D02*
X152895419Y-124199427D01*
X153514466Y-124294665D02*
X153895419Y-124580379D01*
X153228752Y-124580379D02*
X153609704Y-124199427D01*
X153847800Y-125389903D02*
X153895419Y-125294665D01*
X153895419Y-125294665D02*
X153895419Y-125104189D01*
X153895419Y-125104189D02*
X153847800Y-125008951D01*
X153847800Y-125008951D02*
X153752561Y-124961332D01*
X153752561Y-124961332D02*
X153371609Y-124961332D01*
X153371609Y-124961332D02*
X153276371Y-125008951D01*
X153276371Y-125008951D02*
X153228752Y-125104189D01*
X153228752Y-125104189D02*
X153228752Y-125294665D01*
X153228752Y-125294665D02*
X153276371Y-125389903D01*
X153276371Y-125389903D02*
X153371609Y-125437522D01*
X153371609Y-125437522D02*
X153466847Y-125437522D01*
X153466847Y-125437522D02*
X153562085Y-124961332D01*
X153895419Y-125866094D02*
X153228752Y-125866094D01*
X153419228Y-125866094D02*
X153323990Y-125913713D01*
X153323990Y-125913713D02*
X153276371Y-125961332D01*
X153276371Y-125961332D02*
X153228752Y-126056570D01*
X153228752Y-126056570D02*
X153228752Y-126151808D01*
D11*
X92856257Y-92069025D02*
X92784828Y-91926168D01*
X92784828Y-91926168D02*
X92784828Y-91711882D01*
X92784828Y-91711882D02*
X92856257Y-91497596D01*
X92856257Y-91497596D02*
X92999114Y-91354739D01*
X92999114Y-91354739D02*
X93141971Y-91283310D01*
X93141971Y-91283310D02*
X93427685Y-91211882D01*
X93427685Y-91211882D02*
X93641971Y-91211882D01*
X93641971Y-91211882D02*
X93927685Y-91283310D01*
X93927685Y-91283310D02*
X94070542Y-91354739D01*
X94070542Y-91354739D02*
X94213400Y-91497596D01*
X94213400Y-91497596D02*
X94284828Y-91711882D01*
X94284828Y-91711882D02*
X94284828Y-91854739D01*
X94284828Y-91854739D02*
X94213400Y-92069025D01*
X94213400Y-92069025D02*
X94141971Y-92140453D01*
X94141971Y-92140453D02*
X93641971Y-92140453D01*
X93641971Y-92140453D02*
X93641971Y-91854739D01*
X94284828Y-92783310D02*
X92784828Y-92783310D01*
X92784828Y-92783310D02*
X94284828Y-93640453D01*
X94284828Y-93640453D02*
X92784828Y-93640453D01*
X94284828Y-94354739D02*
X92784828Y-94354739D01*
X92784828Y-94354739D02*
X92784828Y-94711882D01*
X92784828Y-94711882D02*
X92856257Y-94926168D01*
X92856257Y-94926168D02*
X92999114Y-95069025D01*
X92999114Y-95069025D02*
X93141971Y-95140454D01*
X93141971Y-95140454D02*
X93427685Y-95211882D01*
X93427685Y-95211882D02*
X93641971Y-95211882D01*
X93641971Y-95211882D02*
X93927685Y-95140454D01*
X93927685Y-95140454D02*
X94070542Y-95069025D01*
X94070542Y-95069025D02*
X94213400Y-94926168D01*
X94213400Y-94926168D02*
X94284828Y-94711882D01*
X94284828Y-94711882D02*
X94284828Y-94354739D01*
X96128400Y-91283310D02*
X96128400Y-92426168D01*
X96699828Y-91854739D02*
X95556971Y-91854739D01*
X95199828Y-92997596D02*
X95199828Y-93926168D01*
X95199828Y-93926168D02*
X95771257Y-93426168D01*
X95771257Y-93426168D02*
X95771257Y-93640453D01*
X95771257Y-93640453D02*
X95842685Y-93783311D01*
X95842685Y-93783311D02*
X95914114Y-93854739D01*
X95914114Y-93854739D02*
X96056971Y-93926168D01*
X96056971Y-93926168D02*
X96414114Y-93926168D01*
X96414114Y-93926168D02*
X96556971Y-93854739D01*
X96556971Y-93854739D02*
X96628400Y-93783311D01*
X96628400Y-93783311D02*
X96699828Y-93640453D01*
X96699828Y-93640453D02*
X96699828Y-93211882D01*
X96699828Y-93211882D02*
X96628400Y-93069025D01*
X96628400Y-93069025D02*
X96556971Y-92997596D01*
X95199828Y-94354739D02*
X96699828Y-94854739D01*
X96699828Y-94854739D02*
X95199828Y-95354739D01*
X95199828Y-95711881D02*
X95199828Y-96640453D01*
X95199828Y-96640453D02*
X95771257Y-96140453D01*
X95771257Y-96140453D02*
X95771257Y-96354738D01*
X95771257Y-96354738D02*
X95842685Y-96497596D01*
X95842685Y-96497596D02*
X95914114Y-96569024D01*
X95914114Y-96569024D02*
X96056971Y-96640453D01*
X96056971Y-96640453D02*
X96414114Y-96640453D01*
X96414114Y-96640453D02*
X96556971Y-96569024D01*
X96556971Y-96569024D02*
X96628400Y-96497596D01*
X96628400Y-96497596D02*
X96699828Y-96354738D01*
X96699828Y-96354738D02*
X96699828Y-95926167D01*
X96699828Y-95926167D02*
X96628400Y-95783310D01*
X96628400Y-95783310D02*
X96556971Y-95711881D01*
X98543400Y-91283310D02*
X98543400Y-92426168D01*
X99114828Y-91854739D02*
X97971971Y-91854739D01*
X99114828Y-93926168D02*
X99114828Y-93069025D01*
X99114828Y-93497596D02*
X97614828Y-93497596D01*
X97614828Y-93497596D02*
X97829114Y-93354739D01*
X97829114Y-93354739D02*
X97971971Y-93211882D01*
X97971971Y-93211882D02*
X98043400Y-93069025D01*
X97757685Y-94497596D02*
X97686257Y-94569024D01*
X97686257Y-94569024D02*
X97614828Y-94711882D01*
X97614828Y-94711882D02*
X97614828Y-95069024D01*
X97614828Y-95069024D02*
X97686257Y-95211882D01*
X97686257Y-95211882D02*
X97757685Y-95283310D01*
X97757685Y-95283310D02*
X97900542Y-95354739D01*
X97900542Y-95354739D02*
X98043400Y-95354739D01*
X98043400Y-95354739D02*
X98257685Y-95283310D01*
X98257685Y-95283310D02*
X99114828Y-94426167D01*
X99114828Y-94426167D02*
X99114828Y-95354739D01*
X89507824Y-87695600D02*
X88364967Y-87695600D01*
X88936395Y-88267028D02*
X88936395Y-87124171D01*
X87793538Y-86767028D02*
X86864966Y-86767028D01*
X86864966Y-86767028D02*
X87364966Y-87338457D01*
X87364966Y-87338457D02*
X87150681Y-87338457D01*
X87150681Y-87338457D02*
X87007824Y-87409885D01*
X87007824Y-87409885D02*
X86936395Y-87481314D01*
X86936395Y-87481314D02*
X86864966Y-87624171D01*
X86864966Y-87624171D02*
X86864966Y-87981314D01*
X86864966Y-87981314D02*
X86936395Y-88124171D01*
X86936395Y-88124171D02*
X87007824Y-88195600D01*
X87007824Y-88195600D02*
X87150681Y-88267028D01*
X87150681Y-88267028D02*
X87579252Y-88267028D01*
X87579252Y-88267028D02*
X87722109Y-88195600D01*
X87722109Y-88195600D02*
X87793538Y-88124171D01*
X86436395Y-86767028D02*
X85936395Y-88267028D01*
X85936395Y-88267028D02*
X85436395Y-86767028D01*
X85079253Y-86767028D02*
X84150681Y-86767028D01*
X84150681Y-86767028D02*
X84650681Y-87338457D01*
X84650681Y-87338457D02*
X84436396Y-87338457D01*
X84436396Y-87338457D02*
X84293539Y-87409885D01*
X84293539Y-87409885D02*
X84222110Y-87481314D01*
X84222110Y-87481314D02*
X84150681Y-87624171D01*
X84150681Y-87624171D02*
X84150681Y-87981314D01*
X84150681Y-87981314D02*
X84222110Y-88124171D01*
X84222110Y-88124171D02*
X84293539Y-88195600D01*
X84293539Y-88195600D02*
X84436396Y-88267028D01*
X84436396Y-88267028D02*
X84864967Y-88267028D01*
X84864967Y-88267028D02*
X85007824Y-88195600D01*
X85007824Y-88195600D02*
X85079253Y-88124171D01*
X87293539Y-89253457D02*
X87436397Y-89182028D01*
X87436397Y-89182028D02*
X87650682Y-89182028D01*
X87650682Y-89182028D02*
X87864968Y-89253457D01*
X87864968Y-89253457D02*
X88007825Y-89396314D01*
X88007825Y-89396314D02*
X88079254Y-89539171D01*
X88079254Y-89539171D02*
X88150682Y-89824885D01*
X88150682Y-89824885D02*
X88150682Y-90039171D01*
X88150682Y-90039171D02*
X88079254Y-90324885D01*
X88079254Y-90324885D02*
X88007825Y-90467742D01*
X88007825Y-90467742D02*
X87864968Y-90610600D01*
X87864968Y-90610600D02*
X87650682Y-90682028D01*
X87650682Y-90682028D02*
X87507825Y-90682028D01*
X87507825Y-90682028D02*
X87293539Y-90610600D01*
X87293539Y-90610600D02*
X87222111Y-90539171D01*
X87222111Y-90539171D02*
X87222111Y-90039171D01*
X87222111Y-90039171D02*
X87507825Y-90039171D01*
X86579254Y-90682028D02*
X86579254Y-89182028D01*
X86579254Y-89182028D02*
X85722111Y-90682028D01*
X85722111Y-90682028D02*
X85722111Y-89182028D01*
X85007825Y-90682028D02*
X85007825Y-89182028D01*
X85007825Y-89182028D02*
X84650682Y-89182028D01*
X84650682Y-89182028D02*
X84436396Y-89253457D01*
X84436396Y-89253457D02*
X84293539Y-89396314D01*
X84293539Y-89396314D02*
X84222110Y-89539171D01*
X84222110Y-89539171D02*
X84150682Y-89824885D01*
X84150682Y-89824885D02*
X84150682Y-90039171D01*
X84150682Y-90039171D02*
X84222110Y-90324885D01*
X84222110Y-90324885D02*
X84293539Y-90467742D01*
X84293539Y-90467742D02*
X84436396Y-90610600D01*
X84436396Y-90610600D02*
X84650682Y-90682028D01*
X84650682Y-90682028D02*
X85007825Y-90682028D01*
D10*
X119621419Y-81076969D02*
X119621419Y-80600779D01*
X119621419Y-80600779D02*
X120097609Y-80553160D01*
X120097609Y-80553160D02*
X120049990Y-80600779D01*
X120049990Y-80600779D02*
X120002371Y-80696017D01*
X120002371Y-80696017D02*
X120002371Y-80934112D01*
X120002371Y-80934112D02*
X120049990Y-81029350D01*
X120049990Y-81029350D02*
X120097609Y-81076969D01*
X120097609Y-81076969D02*
X120192847Y-81124588D01*
X120192847Y-81124588D02*
X120430942Y-81124588D01*
X120430942Y-81124588D02*
X120526180Y-81076969D01*
X120526180Y-81076969D02*
X120573800Y-81029350D01*
X120573800Y-81029350D02*
X120621419Y-80934112D01*
X120621419Y-80934112D02*
X120621419Y-80696017D01*
X120621419Y-80696017D02*
X120573800Y-80600779D01*
X120573800Y-80600779D02*
X120526180Y-80553160D01*
X120240466Y-81553160D02*
X120240466Y-82315065D01*
X120621419Y-83315064D02*
X120621419Y-82743636D01*
X120621419Y-83029350D02*
X119621419Y-83029350D01*
X119621419Y-83029350D02*
X119764276Y-82934112D01*
X119764276Y-82934112D02*
X119859514Y-82838874D01*
X119859514Y-82838874D02*
X119907133Y-82743636D01*
X119716657Y-83696017D02*
X119669038Y-83743636D01*
X119669038Y-83743636D02*
X119621419Y-83838874D01*
X119621419Y-83838874D02*
X119621419Y-84076969D01*
X119621419Y-84076969D02*
X119669038Y-84172207D01*
X119669038Y-84172207D02*
X119716657Y-84219826D01*
X119716657Y-84219826D02*
X119811895Y-84267445D01*
X119811895Y-84267445D02*
X119907133Y-84267445D01*
X119907133Y-84267445D02*
X120049990Y-84219826D01*
X120049990Y-84219826D02*
X120621419Y-83648398D01*
X120621419Y-83648398D02*
X120621419Y-84267445D01*
X119621419Y-84553160D02*
X120621419Y-84886493D01*
X120621419Y-84886493D02*
X119621419Y-85219826D01*
X120240466Y-86315065D02*
X120240466Y-87076970D01*
X119954752Y-87553160D02*
X120240466Y-88315065D01*
X120240466Y-88315065D02*
X120526180Y-87553160D01*
X121002371Y-88696017D02*
X120954752Y-88743636D01*
X120954752Y-88743636D02*
X120811895Y-88838874D01*
X120811895Y-88838874D02*
X120716657Y-88886493D01*
X120716657Y-88886493D02*
X120573800Y-88934112D01*
X120573800Y-88934112D02*
X120335704Y-88981731D01*
X120335704Y-88981731D02*
X120145228Y-88981731D01*
X120145228Y-88981731D02*
X119907133Y-88934112D01*
X119907133Y-88934112D02*
X119764276Y-88886493D01*
X119764276Y-88886493D02*
X119669038Y-88838874D01*
X119669038Y-88838874D02*
X119526180Y-88743636D01*
X119526180Y-88743636D02*
X119478561Y-88696017D01*
X119669038Y-89981731D02*
X119621419Y-89886493D01*
X119621419Y-89886493D02*
X119621419Y-89743636D01*
X119621419Y-89743636D02*
X119669038Y-89600779D01*
X119669038Y-89600779D02*
X119764276Y-89505541D01*
X119764276Y-89505541D02*
X119859514Y-89457922D01*
X119859514Y-89457922D02*
X120049990Y-89410303D01*
X120049990Y-89410303D02*
X120192847Y-89410303D01*
X120192847Y-89410303D02*
X120383323Y-89457922D01*
X120383323Y-89457922D02*
X120478561Y-89505541D01*
X120478561Y-89505541D02*
X120573800Y-89600779D01*
X120573800Y-89600779D02*
X120621419Y-89743636D01*
X120621419Y-89743636D02*
X120621419Y-89838874D01*
X120621419Y-89838874D02*
X120573800Y-89981731D01*
X120573800Y-89981731D02*
X120526180Y-90029350D01*
X120526180Y-90029350D02*
X120192847Y-90029350D01*
X120192847Y-90029350D02*
X120192847Y-89838874D01*
X119954752Y-90457922D02*
X120621419Y-90457922D01*
X120049990Y-90457922D02*
X120002371Y-90505541D01*
X120002371Y-90505541D02*
X119954752Y-90600779D01*
X119954752Y-90600779D02*
X119954752Y-90743636D01*
X119954752Y-90743636D02*
X120002371Y-90838874D01*
X120002371Y-90838874D02*
X120097609Y-90886493D01*
X120097609Y-90886493D02*
X120621419Y-90886493D01*
X120621419Y-91791255D02*
X119621419Y-91791255D01*
X120573800Y-91791255D02*
X120621419Y-91696017D01*
X120621419Y-91696017D02*
X120621419Y-91505541D01*
X120621419Y-91505541D02*
X120573800Y-91410303D01*
X120573800Y-91410303D02*
X120526180Y-91362684D01*
X120526180Y-91362684D02*
X120430942Y-91315065D01*
X120430942Y-91315065D02*
X120145228Y-91315065D01*
X120145228Y-91315065D02*
X120049990Y-91362684D01*
X120049990Y-91362684D02*
X120002371Y-91410303D01*
X120002371Y-91410303D02*
X119954752Y-91505541D01*
X119954752Y-91505541D02*
X119954752Y-91696017D01*
X119954752Y-91696017D02*
X120002371Y-91791255D01*
X168918980Y-120186607D02*
X168966600Y-120138988D01*
X168966600Y-120138988D02*
X169014219Y-119996131D01*
X169014219Y-119996131D02*
X169014219Y-119900893D01*
X169014219Y-119900893D02*
X168966600Y-119758036D01*
X168966600Y-119758036D02*
X168871361Y-119662798D01*
X168871361Y-119662798D02*
X168776123Y-119615179D01*
X168776123Y-119615179D02*
X168585647Y-119567560D01*
X168585647Y-119567560D02*
X168442790Y-119567560D01*
X168442790Y-119567560D02*
X168252314Y-119615179D01*
X168252314Y-119615179D02*
X168157076Y-119662798D01*
X168157076Y-119662798D02*
X168061838Y-119758036D01*
X168061838Y-119758036D02*
X168014219Y-119900893D01*
X168014219Y-119900893D02*
X168014219Y-119996131D01*
X168014219Y-119996131D02*
X168061838Y-120138988D01*
X168061838Y-120138988D02*
X168109457Y-120186607D01*
X168014219Y-120805655D02*
X168014219Y-120996131D01*
X168014219Y-120996131D02*
X168061838Y-121091369D01*
X168061838Y-121091369D02*
X168157076Y-121186607D01*
X168157076Y-121186607D02*
X168347552Y-121234226D01*
X168347552Y-121234226D02*
X168680885Y-121234226D01*
X168680885Y-121234226D02*
X168871361Y-121186607D01*
X168871361Y-121186607D02*
X168966600Y-121091369D01*
X168966600Y-121091369D02*
X169014219Y-120996131D01*
X169014219Y-120996131D02*
X169014219Y-120805655D01*
X169014219Y-120805655D02*
X168966600Y-120710417D01*
X168966600Y-120710417D02*
X168871361Y-120615179D01*
X168871361Y-120615179D02*
X168680885Y-120567560D01*
X168680885Y-120567560D02*
X168347552Y-120567560D01*
X168347552Y-120567560D02*
X168157076Y-120615179D01*
X168157076Y-120615179D02*
X168061838Y-120710417D01*
X168061838Y-120710417D02*
X168014219Y-120805655D01*
X169014219Y-121662798D02*
X168014219Y-121662798D01*
X168014219Y-121662798D02*
X168014219Y-122043750D01*
X168014219Y-122043750D02*
X168061838Y-122138988D01*
X168061838Y-122138988D02*
X168109457Y-122186607D01*
X168109457Y-122186607D02*
X168204695Y-122234226D01*
X168204695Y-122234226D02*
X168347552Y-122234226D01*
X168347552Y-122234226D02*
X168442790Y-122186607D01*
X168442790Y-122186607D02*
X168490409Y-122138988D01*
X168490409Y-122138988D02*
X168538028Y-122043750D01*
X168538028Y-122043750D02*
X168538028Y-121662798D01*
X169014219Y-122662798D02*
X168014219Y-122662798D01*
X170528980Y-120186607D02*
X170576600Y-120138988D01*
X170576600Y-120138988D02*
X170624219Y-119996131D01*
X170624219Y-119996131D02*
X170624219Y-119900893D01*
X170624219Y-119900893D02*
X170576600Y-119758036D01*
X170576600Y-119758036D02*
X170481361Y-119662798D01*
X170481361Y-119662798D02*
X170386123Y-119615179D01*
X170386123Y-119615179D02*
X170195647Y-119567560D01*
X170195647Y-119567560D02*
X170052790Y-119567560D01*
X170052790Y-119567560D02*
X169862314Y-119615179D01*
X169862314Y-119615179D02*
X169767076Y-119662798D01*
X169767076Y-119662798D02*
X169671838Y-119758036D01*
X169671838Y-119758036D02*
X169624219Y-119900893D01*
X169624219Y-119900893D02*
X169624219Y-119996131D01*
X169624219Y-119996131D02*
X169671838Y-120138988D01*
X169671838Y-120138988D02*
X169719457Y-120186607D01*
X170624219Y-120615179D02*
X169624219Y-120615179D01*
X170624219Y-121091369D02*
X169624219Y-121091369D01*
X169624219Y-121091369D02*
X169624219Y-121472321D01*
X169624219Y-121472321D02*
X169671838Y-121567559D01*
X169671838Y-121567559D02*
X169719457Y-121615178D01*
X169719457Y-121615178D02*
X169814695Y-121662797D01*
X169814695Y-121662797D02*
X169957552Y-121662797D01*
X169957552Y-121662797D02*
X170052790Y-121615178D01*
X170052790Y-121615178D02*
X170100409Y-121567559D01*
X170100409Y-121567559D02*
X170148028Y-121472321D01*
X170148028Y-121472321D02*
X170148028Y-121091369D01*
X169624219Y-122281845D02*
X169624219Y-122472321D01*
X169624219Y-122472321D02*
X169671838Y-122567559D01*
X169671838Y-122567559D02*
X169767076Y-122662797D01*
X169767076Y-122662797D02*
X169957552Y-122710416D01*
X169957552Y-122710416D02*
X170290885Y-122710416D01*
X170290885Y-122710416D02*
X170481361Y-122662797D01*
X170481361Y-122662797D02*
X170576600Y-122567559D01*
X170576600Y-122567559D02*
X170624219Y-122472321D01*
X170624219Y-122472321D02*
X170624219Y-122281845D01*
X170624219Y-122281845D02*
X170576600Y-122186607D01*
X170576600Y-122186607D02*
X170481361Y-122091369D01*
X170481361Y-122091369D02*
X170290885Y-122043750D01*
X170290885Y-122043750D02*
X169957552Y-122043750D01*
X169957552Y-122043750D02*
X169767076Y-122091369D01*
X169767076Y-122091369D02*
X169671838Y-122186607D01*
X169671838Y-122186607D02*
X169624219Y-122281845D01*
X172186600Y-119567560D02*
X172234219Y-119710417D01*
X172234219Y-119710417D02*
X172234219Y-119948512D01*
X172234219Y-119948512D02*
X172186600Y-120043750D01*
X172186600Y-120043750D02*
X172138980Y-120091369D01*
X172138980Y-120091369D02*
X172043742Y-120138988D01*
X172043742Y-120138988D02*
X171948504Y-120138988D01*
X171948504Y-120138988D02*
X171853266Y-120091369D01*
X171853266Y-120091369D02*
X171805647Y-120043750D01*
X171805647Y-120043750D02*
X171758028Y-119948512D01*
X171758028Y-119948512D02*
X171710409Y-119758036D01*
X171710409Y-119758036D02*
X171662790Y-119662798D01*
X171662790Y-119662798D02*
X171615171Y-119615179D01*
X171615171Y-119615179D02*
X171519933Y-119567560D01*
X171519933Y-119567560D02*
X171424695Y-119567560D01*
X171424695Y-119567560D02*
X171329457Y-119615179D01*
X171329457Y-119615179D02*
X171281838Y-119662798D01*
X171281838Y-119662798D02*
X171234219Y-119758036D01*
X171234219Y-119758036D02*
X171234219Y-119996131D01*
X171234219Y-119996131D02*
X171281838Y-120138988D01*
X172138980Y-121138988D02*
X172186600Y-121091369D01*
X172186600Y-121091369D02*
X172234219Y-120948512D01*
X172234219Y-120948512D02*
X172234219Y-120853274D01*
X172234219Y-120853274D02*
X172186600Y-120710417D01*
X172186600Y-120710417D02*
X172091361Y-120615179D01*
X172091361Y-120615179D02*
X171996123Y-120567560D01*
X171996123Y-120567560D02*
X171805647Y-120519941D01*
X171805647Y-120519941D02*
X171662790Y-120519941D01*
X171662790Y-120519941D02*
X171472314Y-120567560D01*
X171472314Y-120567560D02*
X171377076Y-120615179D01*
X171377076Y-120615179D02*
X171281838Y-120710417D01*
X171281838Y-120710417D02*
X171234219Y-120853274D01*
X171234219Y-120853274D02*
X171234219Y-120948512D01*
X171234219Y-120948512D02*
X171281838Y-121091369D01*
X171281838Y-121091369D02*
X171329457Y-121138988D01*
X172234219Y-122043750D02*
X172234219Y-121567560D01*
X172234219Y-121567560D02*
X171234219Y-121567560D01*
X172234219Y-122377084D02*
X171234219Y-122377084D01*
X172234219Y-122948512D02*
X171662790Y-122519941D01*
X171234219Y-122948512D02*
X171805647Y-122377084D01*
X160124219Y-120802569D02*
X160124219Y-120326379D01*
X160124219Y-120326379D02*
X159124219Y-120326379D01*
X160124219Y-121135903D02*
X159457552Y-121135903D01*
X159124219Y-121135903D02*
X159171838Y-121088284D01*
X159171838Y-121088284D02*
X159219457Y-121135903D01*
X159219457Y-121135903D02*
X159171838Y-121183522D01*
X159171838Y-121183522D02*
X159124219Y-121135903D01*
X159124219Y-121135903D02*
X159219457Y-121135903D01*
X160124219Y-121612093D02*
X159457552Y-121612093D01*
X159552790Y-121612093D02*
X159505171Y-121659712D01*
X159505171Y-121659712D02*
X159457552Y-121754950D01*
X159457552Y-121754950D02*
X159457552Y-121897807D01*
X159457552Y-121897807D02*
X159505171Y-121993045D01*
X159505171Y-121993045D02*
X159600409Y-122040664D01*
X159600409Y-122040664D02*
X160124219Y-122040664D01*
X159600409Y-122040664D02*
X159505171Y-122088283D01*
X159505171Y-122088283D02*
X159457552Y-122183521D01*
X159457552Y-122183521D02*
X159457552Y-122326378D01*
X159457552Y-122326378D02*
X159505171Y-122421617D01*
X159505171Y-122421617D02*
X159600409Y-122469236D01*
X159600409Y-122469236D02*
X160124219Y-122469236D01*
X160124219Y-122945426D02*
X159457552Y-122945426D01*
X159124219Y-122945426D02*
X159171838Y-122897807D01*
X159171838Y-122897807D02*
X159219457Y-122945426D01*
X159219457Y-122945426D02*
X159171838Y-122993045D01*
X159171838Y-122993045D02*
X159124219Y-122945426D01*
X159124219Y-122945426D02*
X159219457Y-122945426D01*
X159457552Y-123278759D02*
X159457552Y-123659711D01*
X159124219Y-123421616D02*
X159981361Y-123421616D01*
X159981361Y-123421616D02*
X160076600Y-123469235D01*
X160076600Y-123469235D02*
X160124219Y-123564473D01*
X160124219Y-123564473D02*
X160124219Y-123659711D01*
X161734219Y-120326379D02*
X160734219Y-120326379D01*
X160734219Y-120326379D02*
X160734219Y-120707331D01*
X160734219Y-120707331D02*
X160781838Y-120802569D01*
X160781838Y-120802569D02*
X160829457Y-120850188D01*
X160829457Y-120850188D02*
X160924695Y-120897807D01*
X160924695Y-120897807D02*
X161067552Y-120897807D01*
X161067552Y-120897807D02*
X161162790Y-120850188D01*
X161162790Y-120850188D02*
X161210409Y-120802569D01*
X161210409Y-120802569D02*
X161258028Y-120707331D01*
X161258028Y-120707331D02*
X161258028Y-120326379D01*
X160734219Y-121231141D02*
X161734219Y-121469236D01*
X161734219Y-121469236D02*
X161019933Y-121659712D01*
X161019933Y-121659712D02*
X161734219Y-121850188D01*
X161734219Y-121850188D02*
X160734219Y-122088284D01*
X161734219Y-122469236D02*
X160734219Y-122469236D01*
X160734219Y-122469236D02*
X161448504Y-122802569D01*
X161448504Y-122802569D02*
X160734219Y-123135902D01*
X160734219Y-123135902D02*
X161734219Y-123135902D01*
X163248980Y-120897807D02*
X163296600Y-120850188D01*
X163296600Y-120850188D02*
X163344219Y-120707331D01*
X163344219Y-120707331D02*
X163344219Y-120612093D01*
X163344219Y-120612093D02*
X163296600Y-120469236D01*
X163296600Y-120469236D02*
X163201361Y-120373998D01*
X163201361Y-120373998D02*
X163106123Y-120326379D01*
X163106123Y-120326379D02*
X162915647Y-120278760D01*
X162915647Y-120278760D02*
X162772790Y-120278760D01*
X162772790Y-120278760D02*
X162582314Y-120326379D01*
X162582314Y-120326379D02*
X162487076Y-120373998D01*
X162487076Y-120373998D02*
X162391838Y-120469236D01*
X162391838Y-120469236D02*
X162344219Y-120612093D01*
X162344219Y-120612093D02*
X162344219Y-120707331D01*
X162344219Y-120707331D02*
X162391838Y-120850188D01*
X162391838Y-120850188D02*
X162439457Y-120897807D01*
X163296600Y-121278760D02*
X163344219Y-121421617D01*
X163344219Y-121421617D02*
X163344219Y-121659712D01*
X163344219Y-121659712D02*
X163296600Y-121754950D01*
X163296600Y-121754950D02*
X163248980Y-121802569D01*
X163248980Y-121802569D02*
X163153742Y-121850188D01*
X163153742Y-121850188D02*
X163058504Y-121850188D01*
X163058504Y-121850188D02*
X162963266Y-121802569D01*
X162963266Y-121802569D02*
X162915647Y-121754950D01*
X162915647Y-121754950D02*
X162868028Y-121659712D01*
X162868028Y-121659712D02*
X162820409Y-121469236D01*
X162820409Y-121469236D02*
X162772790Y-121373998D01*
X162772790Y-121373998D02*
X162725171Y-121326379D01*
X162725171Y-121326379D02*
X162629933Y-121278760D01*
X162629933Y-121278760D02*
X162534695Y-121278760D01*
X162534695Y-121278760D02*
X162439457Y-121326379D01*
X162439457Y-121326379D02*
X162391838Y-121373998D01*
X162391838Y-121373998D02*
X162344219Y-121469236D01*
X162344219Y-121469236D02*
X162344219Y-121707331D01*
X162344219Y-121707331D02*
X162391838Y-121850188D01*
D11*
X117344060Y-80353257D02*
X116744060Y-80353257D01*
X116486917Y-81296114D02*
X117344060Y-81296114D01*
X117344060Y-81296114D02*
X117344060Y-79496114D01*
X117344060Y-79496114D02*
X116486917Y-79496114D01*
X114686918Y-81124685D02*
X114772632Y-81210400D01*
X114772632Y-81210400D02*
X115029775Y-81296114D01*
X115029775Y-81296114D02*
X115201203Y-81296114D01*
X115201203Y-81296114D02*
X115458346Y-81210400D01*
X115458346Y-81210400D02*
X115629775Y-81038971D01*
X115629775Y-81038971D02*
X115715489Y-80867542D01*
X115715489Y-80867542D02*
X115801203Y-80524685D01*
X115801203Y-80524685D02*
X115801203Y-80267542D01*
X115801203Y-80267542D02*
X115715489Y-79924685D01*
X115715489Y-79924685D02*
X115629775Y-79753257D01*
X115629775Y-79753257D02*
X115458346Y-79581828D01*
X115458346Y-79581828D02*
X115201203Y-79496114D01*
X115201203Y-79496114D02*
X115029775Y-79496114D01*
X115029775Y-79496114D02*
X114772632Y-79581828D01*
X114772632Y-79581828D02*
X114686918Y-79667542D01*
X113915489Y-80353257D02*
X113315489Y-80353257D01*
X113058346Y-81296114D02*
X113915489Y-81296114D01*
X113915489Y-81296114D02*
X113915489Y-79496114D01*
X113915489Y-79496114D02*
X113058346Y-79496114D01*
X111172632Y-79496114D02*
X110144061Y-79496114D01*
X110658346Y-81296114D02*
X110658346Y-79496114D01*
X109544060Y-80353257D02*
X108944060Y-80353257D01*
X108686917Y-81296114D02*
X109544060Y-81296114D01*
X109544060Y-81296114D02*
X109544060Y-79496114D01*
X109544060Y-79496114D02*
X108686917Y-79496114D01*
X108001203Y-80781828D02*
X107144061Y-80781828D01*
X108172632Y-81296114D02*
X107572632Y-79496114D01*
X107572632Y-79496114D02*
X106972632Y-81296114D01*
X106372632Y-81296114D02*
X106372632Y-79496114D01*
X106372632Y-79496114D02*
X105772632Y-80781828D01*
X105772632Y-80781828D02*
X105172632Y-79496114D01*
X105172632Y-79496114D02*
X105172632Y-81296114D01*
X102001203Y-81296114D02*
X103029774Y-81296114D01*
X102515489Y-81296114D02*
X102515489Y-79496114D01*
X102515489Y-79496114D02*
X102686917Y-79753257D01*
X102686917Y-79753257D02*
X102858346Y-79924685D01*
X102858346Y-79924685D02*
X103029774Y-80010400D01*
X100286917Y-81296114D02*
X101315488Y-81296114D01*
X100801203Y-81296114D02*
X100801203Y-79496114D01*
X100801203Y-79496114D02*
X100972631Y-79753257D01*
X100972631Y-79753257D02*
X101144060Y-79924685D01*
X101144060Y-79924685D02*
X101315488Y-80010400D01*
X117001203Y-82394114D02*
X116658346Y-82394114D01*
X116658346Y-82394114D02*
X116486917Y-82479828D01*
X116486917Y-82479828D02*
X116315489Y-82651257D01*
X116315489Y-82651257D02*
X116229774Y-82994114D01*
X116229774Y-82994114D02*
X116229774Y-83594114D01*
X116229774Y-83594114D02*
X116315489Y-83936971D01*
X116315489Y-83936971D02*
X116486917Y-84108400D01*
X116486917Y-84108400D02*
X116658346Y-84194114D01*
X116658346Y-84194114D02*
X117001203Y-84194114D01*
X117001203Y-84194114D02*
X117172632Y-84108400D01*
X117172632Y-84108400D02*
X117344060Y-83936971D01*
X117344060Y-83936971D02*
X117429774Y-83594114D01*
X117429774Y-83594114D02*
X117429774Y-82994114D01*
X117429774Y-82994114D02*
X117344060Y-82651257D01*
X117344060Y-82651257D02*
X117172632Y-82479828D01*
X117172632Y-82479828D02*
X117001203Y-82394114D01*
X115544060Y-84108400D02*
X115286918Y-84194114D01*
X115286918Y-84194114D02*
X114858346Y-84194114D01*
X114858346Y-84194114D02*
X114686918Y-84108400D01*
X114686918Y-84108400D02*
X114601203Y-84022685D01*
X114601203Y-84022685D02*
X114515489Y-83851257D01*
X114515489Y-83851257D02*
X114515489Y-83679828D01*
X114515489Y-83679828D02*
X114601203Y-83508400D01*
X114601203Y-83508400D02*
X114686918Y-83422685D01*
X114686918Y-83422685D02*
X114858346Y-83336971D01*
X114858346Y-83336971D02*
X115201203Y-83251257D01*
X115201203Y-83251257D02*
X115372632Y-83165542D01*
X115372632Y-83165542D02*
X115458346Y-83079828D01*
X115458346Y-83079828D02*
X115544060Y-82908400D01*
X115544060Y-82908400D02*
X115544060Y-82736971D01*
X115544060Y-82736971D02*
X115458346Y-82565542D01*
X115458346Y-82565542D02*
X115372632Y-82479828D01*
X115372632Y-82479828D02*
X115201203Y-82394114D01*
X115201203Y-82394114D02*
X114772632Y-82394114D01*
X114772632Y-82394114D02*
X114515489Y-82479828D01*
X113744060Y-84194114D02*
X113744060Y-82394114D01*
X113744060Y-82394114D02*
X113144060Y-83679828D01*
X113144060Y-83679828D02*
X112544060Y-82394114D01*
X112544060Y-82394114D02*
X112544060Y-84194114D01*
X111686917Y-84194114D02*
X111686917Y-82394114D01*
X109544059Y-84108400D02*
X109286917Y-84194114D01*
X109286917Y-84194114D02*
X108858345Y-84194114D01*
X108858345Y-84194114D02*
X108686917Y-84108400D01*
X108686917Y-84108400D02*
X108601202Y-84022685D01*
X108601202Y-84022685D02*
X108515488Y-83851257D01*
X108515488Y-83851257D02*
X108515488Y-83679828D01*
X108515488Y-83679828D02*
X108601202Y-83508400D01*
X108601202Y-83508400D02*
X108686917Y-83422685D01*
X108686917Y-83422685D02*
X108858345Y-83336971D01*
X108858345Y-83336971D02*
X109201202Y-83251257D01*
X109201202Y-83251257D02*
X109372631Y-83165542D01*
X109372631Y-83165542D02*
X109458345Y-83079828D01*
X109458345Y-83079828D02*
X109544059Y-82908400D01*
X109544059Y-82908400D02*
X109544059Y-82736971D01*
X109544059Y-82736971D02*
X109458345Y-82565542D01*
X109458345Y-82565542D02*
X109372631Y-82479828D01*
X109372631Y-82479828D02*
X109201202Y-82394114D01*
X109201202Y-82394114D02*
X108772631Y-82394114D01*
X108772631Y-82394114D02*
X108515488Y-82479828D01*
X107401202Y-83336971D02*
X107401202Y-84194114D01*
X108001202Y-82394114D02*
X107401202Y-83336971D01*
X107401202Y-83336971D02*
X106801202Y-82394114D01*
X105172631Y-84194114D02*
X105772631Y-83336971D01*
X106201202Y-84194114D02*
X106201202Y-82394114D01*
X106201202Y-82394114D02*
X105515488Y-82394114D01*
X105515488Y-82394114D02*
X105344059Y-82479828D01*
X105344059Y-82479828D02*
X105258345Y-82565542D01*
X105258345Y-82565542D02*
X105172631Y-82736971D01*
X105172631Y-82736971D02*
X105172631Y-82994114D01*
X105172631Y-82994114D02*
X105258345Y-83165542D01*
X105258345Y-83165542D02*
X105344059Y-83251257D01*
X105344059Y-83251257D02*
X105515488Y-83336971D01*
X105515488Y-83336971D02*
X106201202Y-83336971D01*
X104401202Y-84194114D02*
X104401202Y-82394114D01*
X103544059Y-84194114D02*
X103544059Y-82394114D01*
X103544059Y-82394114D02*
X102515488Y-84194114D01*
X102515488Y-84194114D02*
X102515488Y-82394114D01*
X100715488Y-82479828D02*
X100886917Y-82394114D01*
X100886917Y-82394114D02*
X101144059Y-82394114D01*
X101144059Y-82394114D02*
X101401202Y-82479828D01*
X101401202Y-82479828D02*
X101572631Y-82651257D01*
X101572631Y-82651257D02*
X101658345Y-82822685D01*
X101658345Y-82822685D02*
X101744059Y-83165542D01*
X101744059Y-83165542D02*
X101744059Y-83422685D01*
X101744059Y-83422685D02*
X101658345Y-83765542D01*
X101658345Y-83765542D02*
X101572631Y-83936971D01*
X101572631Y-83936971D02*
X101401202Y-84108400D01*
X101401202Y-84108400D02*
X101144059Y-84194114D01*
X101144059Y-84194114D02*
X100972631Y-84194114D01*
X100972631Y-84194114D02*
X100715488Y-84108400D01*
X100715488Y-84108400D02*
X100629774Y-84022685D01*
X100629774Y-84022685D02*
X100629774Y-83422685D01*
X100629774Y-83422685D02*
X100972631Y-83422685D01*
X99858345Y-83251257D02*
X99258345Y-83251257D01*
X99001202Y-84194114D02*
X99858345Y-84194114D01*
X99858345Y-84194114D02*
X99858345Y-82394114D01*
X99858345Y-82394114D02*
X99001202Y-82394114D01*
X96858345Y-84194114D02*
X96858345Y-82394114D01*
X96858345Y-82394114D02*
X96172631Y-82394114D01*
X96172631Y-82394114D02*
X96001202Y-82479828D01*
X96001202Y-82479828D02*
X95915488Y-82565542D01*
X95915488Y-82565542D02*
X95829774Y-82736971D01*
X95829774Y-82736971D02*
X95829774Y-82994114D01*
X95829774Y-82994114D02*
X95915488Y-83165542D01*
X95915488Y-83165542D02*
X96001202Y-83251257D01*
X96001202Y-83251257D02*
X96172631Y-83336971D01*
X96172631Y-83336971D02*
X96858345Y-83336971D01*
X95058345Y-82394114D02*
X95058345Y-83851257D01*
X95058345Y-83851257D02*
X94972631Y-84022685D01*
X94972631Y-84022685D02*
X94886917Y-84108400D01*
X94886917Y-84108400D02*
X94715488Y-84194114D01*
X94715488Y-84194114D02*
X94372631Y-84194114D01*
X94372631Y-84194114D02*
X94201202Y-84108400D01*
X94201202Y-84108400D02*
X94115488Y-84022685D01*
X94115488Y-84022685D02*
X94029774Y-83851257D01*
X94029774Y-83851257D02*
X94029774Y-82394114D01*
X93172631Y-84194114D02*
X93172631Y-82394114D01*
X93172631Y-82394114D02*
X92572631Y-83679828D01*
X92572631Y-83679828D02*
X91972631Y-82394114D01*
X91972631Y-82394114D02*
X91972631Y-84194114D01*
X91115488Y-84194114D02*
X91115488Y-82394114D01*
X91115488Y-82394114D02*
X90429774Y-82394114D01*
X90429774Y-82394114D02*
X90258345Y-82479828D01*
X90258345Y-82479828D02*
X90172631Y-82565542D01*
X90172631Y-82565542D02*
X90086917Y-82736971D01*
X90086917Y-82736971D02*
X90086917Y-82994114D01*
X90086917Y-82994114D02*
X90172631Y-83165542D01*
X90172631Y-83165542D02*
X90258345Y-83251257D01*
X90258345Y-83251257D02*
X90429774Y-83336971D01*
X90429774Y-83336971D02*
X91115488Y-83336971D01*
M02*
