M48
; DRILL file {KiCad 7.0.9} date Wed Jan 24 14:37:06 2024
; FORMAT={-:-/ absolute / inch / decimal}
; #@! TF.CreationDate,2024-01-24T14:37:06-05:00
; #@! TF.GenerationSoftware,Kicad,Pcbnew,7.0.9
; #@! TF.FileFunction,MixedPlating,1,4
FMAT,2
INCH
; #@! TA.AperFunction,Plated,PTH,ViaDrill
T1C0.0059
; #@! TA.AperFunction,Plated,PTH,ComponentDrill
T2C0.0118
; #@! TA.AperFunction,Plated,PTH,ViaDrill
T3C0.0157
; #@! TA.AperFunction,Plated,PTH,ComponentDrill
T4C0.0236
; #@! TA.AperFunction,Plated,PTH,ComponentDrill
T5C0.0295
; #@! TA.AperFunction,Plated,PTH,ComponentDrill
T6C0.0394
; #@! TA.AperFunction,Plated,PTH,ComponentDrill
T7C0.0433
; #@! TA.AperFunction,Plated,PTH,ComponentDrill
T8C0.0866
%
G90
G05
T1
X4.5654Y-4.933
X4.6114Y-4.933
X4.7224Y-4.581
X4.7551Y-4.4842
X4.7551Y-4.5622
X4.7557Y-4.6019
X4.7827Y-4.3189
X4.8425Y-4.6164
X4.8509Y-4.7761
X4.8608Y-4.8273
X4.8622Y-4.6381
X4.8819Y-4.6164
X4.8903Y-4.7761
X4.9008Y-4.3189
X4.9016Y-4.6401
X4.9193Y-4.8349
X4.9297Y-4.7761
X4.94Y-4.8127
X4.9409Y-4.6401
X4.9587Y-4.8349
X4.9606Y-4.3271
X4.9606Y-4.6184
X4.9803Y-4.3054
X5.0Y-4.6223
X5.0005Y-4.7227
X5.0197Y-4.6401
X5.0394Y-4.6145
X5.0531Y-4.5219
X5.0591Y-4.3645
X5.0657Y-4.405
X5.0768Y-4.3448
X5.0768Y-4.5023
X5.155Y-4.8201
X6.0778Y-4.3146
X7.05Y-3.688
X7.05Y-3.722
T2
X4.0354Y-3.8307
X4.0748Y-3.8307
X4.1142Y-3.8307
T3
X3.7421Y-4.8701
X3.8858Y-4.7087
X3.9449Y-4.6496
X3.9882Y-3.7953
X4.0079Y-4.0906
X4.0448Y-3.9289
X4.0709Y-3.9764
X4.0945Y-3.6457
X4.1693Y-3.874
X4.2244Y-3.7126
X4.2283Y-3.6575
X4.2638Y-4.5394
X4.3051Y-4.2126
X4.3425Y-4.0669
X4.5197Y-3.7953
X4.598Y-4.6827
X4.6961Y-3.7994
X4.7175Y-4.2768
X4.718Y-4.3167
X4.79Y-4.1427
X4.8465Y-4.5515
X4.8504Y-4.142
X4.8504Y-4.4767
X4.8543Y-4.3979
X4.8622Y-3.1909
X4.8622Y-3.2815
X4.8622Y-3.376
X4.9094Y-4.142
X4.9331Y-3.5571
X4.9685Y-4.4767
X4.9724Y-4.3979
X4.9764Y-4.5475
X5.0354Y-3.1909
X5.0354Y-3.2343
X5.0354Y-3.2736
X5.0354Y-3.3209
X5.0354Y-3.3642
X5.0354Y-3.4075
X5.0655Y-3.7963
X5.0906Y-3.6791
X5.1301Y-4.3702
X5.1488Y-4.911
X5.2008Y-3.6791
X5.2126Y-3.8642
X5.232Y-4.5849
X5.2362Y-3.7185
X5.2402Y-3.1909
X5.2402Y-3.2343
X5.2402Y-3.2736
X5.2402Y-3.3169
X5.2402Y-3.3642
X5.2402Y-3.4114
X5.2953Y-3.7697
X5.3386Y-4.8192
X5.3583Y-3.7067
X5.3622Y-3.5404
X5.3622Y-3.6152
X5.4016Y-4.2011
X5.4094Y-3.1949
X5.4094Y-3.2815
X5.4094Y-3.3681
X5.442Y-3.5413
X5.442Y-3.6161
X5.4961Y-3.6949
X5.5Y-3.7579
X5.5Y-3.8287
X5.5157Y-4.8169
X5.5937Y-4.3705
X5.685Y-3.6378
X5.6929Y-3.311
X5.752Y-4.0433
X5.7559Y-3.8858
X5.7629Y-4.2122
X5.8248Y-3.5315
X5.8661Y-3.5354
X5.8937Y-4.5089
X5.9094Y-3.5315
X5.9961Y-3.5354
X6.0406Y-3.5335
X6.0581Y-4.167
X6.1457Y-3.815
X6.1772Y-4.1693
X6.1811Y-4.315
X6.198Y-4.507
X6.2103Y-4.2776
X6.2283Y-3.6378
X6.2323Y-3.311
X6.2736Y-4.1764
X6.2953Y-3.4843
X6.3504Y-3.5276
X6.372Y-4.452
X6.3736Y-4.3705
X6.3898Y-3.1654
X6.392Y-4.724
X6.3937Y-3.5709
X6.4508Y-3.8248
X6.5Y-4.3976
X6.55Y-4.3945
X6.588Y-4.58
X6.59Y-4.75
X6.6047Y-4.0236
X6.648Y-4.248
X6.6496Y-3.5748
X6.6614Y-3.7638
X6.6929Y-3.5276
X6.7024Y-4.3965
X6.7087Y-4.3177
X6.752Y-4.2756
X6.752Y-4.3937
X6.7992Y-4.3937
X6.8031Y-4.7008
X6.817Y-3.4745
X6.878Y-3.5236
X6.878Y-3.5866
X6.9Y-3.7055
X6.9016Y-4.3937
X6.9528Y-4.122
X6.9528Y-4.3937
X7.0039Y-4.3976
X7.1Y-4.3945
X7.15Y-3.706
X7.15Y-4.396
T5
X5.684Y-4.584
X5.684Y-4.634
X5.684Y-4.684
X5.684Y-4.802
X5.684Y-4.852
X5.684Y-4.902
T6
X3.2311Y-3.4484
X3.2311Y-3.5484
X3.2311Y-3.6484
X3.2311Y-3.7484
X3.2311Y-3.8484
X3.2311Y-3.9484
X3.2311Y-4.0484
X3.2311Y-4.1484
X3.2311Y-4.2484
X3.2311Y-4.3484
X3.2311Y-4.4484
X3.2311Y-4.5484
X3.2311Y-4.6484
X3.2311Y-4.7484
X3.6826Y-3.5242
X3.7826Y-3.5242
X3.8826Y-3.5242
X5.9961Y-4.5652
X6.0961Y-4.5652
T7
X6.2471Y-4.9469
X6.3471Y-4.9469
X6.4471Y-4.9469
X6.6071Y-4.9469
X6.7071Y-4.9469
X6.7189Y-3.2638
X6.8071Y-4.9469
X6.8189Y-3.2638
T8
X3.4244Y-4.9638
X3.4252Y-3.2323
X7.0866Y-3.2382
X7.0866Y-4.9606
T4
X4.7399Y-4.7725G85X4.7399Y-4.8119
G05
X4.7399Y-4.9737G85X4.7399Y-5.0328
G05
X5.0801Y-4.7725G85X5.0801Y-4.8119
G05
X5.0801Y-4.9737G85X5.0801Y-5.0328
G05
T6
X4.4Y-3.5898G85X4.4Y-3.5031
G05
X4.6323Y-3.4126G85X4.5457Y-3.4126
G05
X4.6402Y-3.6606G85X4.5378Y-3.6606
G05
T0
M30
