%TF.GenerationSoftware,KiCad,Pcbnew,7.0.9*%
%TF.CreationDate,2024-01-24T14:37:03-05:00*%
%TF.ProjectId,FinalPcbLayout,46696e61-6c50-4636-924c-61796f75742e,rev?*%
%TF.SameCoordinates,Original*%
%TF.FileFunction,Copper,L4,Bot*%
%TF.FilePolarity,Positive*%
%FSLAX46Y46*%
G04 Gerber Fmt 4.6, Leading zero omitted, Abs format (unit mm)*
G04 Created by KiCad (PCBNEW 7.0.9) date 2024-01-24 14:37:03*
%MOMM*%
%LPD*%
G01*
G04 APERTURE LIST*
%TA.AperFunction,ComponentPad*%
%ADD10R,1.700000X1.700000*%
%TD*%
%TA.AperFunction,ComponentPad*%
%ADD11O,1.700000X1.700000*%
%TD*%
%TA.AperFunction,ComponentPad*%
%ADD12R,1.500000X1.050000*%
%TD*%
%TA.AperFunction,ComponentPad*%
%ADD13O,1.500000X1.050000*%
%TD*%
%TA.AperFunction,ComponentPad*%
%ADD14C,4.400000*%
%TD*%
%TA.AperFunction,ComponentPad*%
%ADD15R,2.100000X2.100000*%
%TD*%
%TA.AperFunction,ComponentPad*%
%ADD16C,2.100000*%
%TD*%
%TA.AperFunction,ComponentPad*%
%ADD17C,0.600000*%
%TD*%
%TA.AperFunction,SMDPad,CuDef*%
%ADD18R,2.650000X1.000000*%
%TD*%
%TA.AperFunction,SMDPad,CuDef*%
%ADD19R,4.500000X5.200000*%
%TD*%
%TA.AperFunction,ComponentPad*%
%ADD20O,1.100000X2.100000*%
%TD*%
%TA.AperFunction,ComponentPad*%
%ADD21O,1.100000X2.600000*%
%TD*%
%TA.AperFunction,ComponentPad*%
%ADD22R,4.600000X2.000000*%
%TD*%
%TA.AperFunction,ComponentPad*%
%ADD23O,4.200000X2.000000*%
%TD*%
%TA.AperFunction,ComponentPad*%
%ADD24O,2.000000X4.200000*%
%TD*%
%TA.AperFunction,ViaPad*%
%ADD25C,0.800000*%
%TD*%
%TA.AperFunction,ViaPad*%
%ADD26C,0.250000*%
%TD*%
%TA.AperFunction,ViaPad*%
%ADD27C,0.300000*%
%TD*%
%TA.AperFunction,Conductor*%
%ADD28C,0.900000*%
%TD*%
%TA.AperFunction,Conductor*%
%ADD29C,0.500000*%
%TD*%
%TA.AperFunction,Conductor*%
%ADD30C,0.150000*%
%TD*%
%TA.AperFunction,Conductor*%
%ADD31C,0.250000*%
%TD*%
%TA.AperFunction,Conductor*%
%ADD32C,0.090000*%
%TD*%
%TA.AperFunction,Conductor*%
%ADD33C,0.200000*%
%TD*%
G04 APERTURE END LIST*
D10*
%TO.P,J9,1,Pin_1*%
%TO.N,GND*%
X93537800Y-89515800D03*
D11*
%TO.P,J9,2,Pin_2*%
%TO.N,+3.3V*%
X96077800Y-89515800D03*
%TO.P,J9,3,Pin_3*%
%TO.N,+12V*%
X98617800Y-89515800D03*
%TD*%
D12*
%TO.P,Q3,1,E*%
%TO.N,/usb/DTR*%
X144373600Y-124510800D03*
D13*
%TO.P,Q3,2,B*%
%TO.N,Net-(Q3-B)*%
X144373600Y-123240800D03*
%TO.P,Q3,3,C*%
%TO.N,/ESP_IO0_B*%
X144373600Y-121970800D03*
%TD*%
D14*
%TO.P,H4,1*%
%TO.N,N/C*%
X180000000Y-126000000D03*
%TD*%
D15*
%TO.P,J4,1,Pin_1*%
%TO.N,/C1_Limit*%
X158676000Y-125650000D03*
D16*
%TO.P,J4,2,Pin_2*%
%TO.N,/C1_PWM*%
X161216000Y-125650000D03*
%TO.P,J4,3,Pin_3*%
%TO.N,/C1_CS*%
X163756000Y-125650000D03*
%TD*%
D10*
%TO.P,J6,1,Pin_1*%
%TO.N,Net-(J6-Pin_1)*%
X154840000Y-115957246D03*
D11*
%TO.P,J6,2,Pin_2*%
%TO.N,Net-(J6-Pin_2)*%
X152300000Y-115957246D03*
%TD*%
D15*
%TO.P,SW1,1,1*%
%TO.N,GND*%
X173200000Y-82900000D03*
D16*
%TO.P,SW1,2,2*%
%TO.N,/ESTOP*%
X170660000Y-82900000D03*
%TD*%
D14*
%TO.P,H3,1*%
%TO.N,N/C*%
X180000000Y-82250000D03*
%TD*%
D17*
%TO.P,U5,13*%
%TO.N,N/C*%
X102500000Y-97300000D03*
X103500000Y-97300000D03*
D18*
X103500000Y-97300000D03*
D17*
X104500000Y-97300000D03*
%TD*%
D15*
%TO.P,J2,1,Pin_1*%
%TO.N,/COPI*%
X167820000Y-125650000D03*
D16*
%TO.P,J2,2,Pin_2*%
%TO.N,/CIPO*%
X170360000Y-125650000D03*
%TO.P,J2,3,Pin_3*%
%TO.N,/SCLK*%
X172900000Y-125650000D03*
%TD*%
D19*
%TO.P,U6,57,Pad*%
%TO.N,GND*%
X124731397Y-113637500D03*
%TD*%
D12*
%TO.P,Q2,1,E*%
%TO.N,/usb/RTS*%
X144373600Y-118973600D03*
D13*
%TO.P,Q2,2,B*%
%TO.N,Net-(Q2-B)*%
X144373600Y-117703600D03*
%TO.P,Q2,3,C*%
%TO.N,/ESP_EN*%
X144373600Y-116433600D03*
%TD*%
D14*
%TO.P,H2,1*%
%TO.N,N/C*%
X86980000Y-126080000D03*
%TD*%
D10*
%TO.P,J7,1,Pin_1*%
%TO.N,+3.3V*%
X82070000Y-87590000D03*
D11*
%TO.P,J7,2,Pin_2*%
%TO.N,GND*%
X82070000Y-90130000D03*
%TO.P,J7,3,Pin_3*%
%TO.N,/Display_CS*%
X82070000Y-92670000D03*
%TO.P,J7,4,Pin_4*%
%TO.N,/Display_RST*%
X82070000Y-95210000D03*
%TO.P,J7,5,Pin_5*%
%TO.N,/Display_DC*%
X82070000Y-97750000D03*
%TO.P,J7,6,Pin_6*%
%TO.N,/COPI*%
X82070000Y-100290000D03*
%TO.P,J7,7,Pin_7*%
%TO.N,/SCLK*%
X82070000Y-102830000D03*
%TO.P,J7,8,Pin_8*%
%TO.N,+3.3V*%
X82070000Y-105370000D03*
%TO.P,J7,9,Pin_9*%
%TO.N,unconnected-(J7-Pin_9-Pad9)*%
X82070000Y-107910000D03*
%TO.P,J7,10,Pin_10*%
%TO.N,/SCLK*%
X82070000Y-110450000D03*
%TO.P,J7,11,Pin_11*%
%TO.N,/Touch_CS*%
X82070000Y-112990000D03*
%TO.P,J7,12,Pin_12*%
%TO.N,/COPI*%
X82070000Y-115530000D03*
%TO.P,J7,13,Pin_13*%
%TO.N,/CIPO*%
X82070000Y-118070000D03*
%TO.P,J7,14,Pin_14*%
%TO.N,unconnected-(J7-Pin_14-Pad14)*%
X82070000Y-120610000D03*
%TD*%
D20*
%TO.P,J5,S1,SHIELD*%
%TO.N,GND*%
X120394000Y-121722400D03*
D21*
X120394000Y-127082400D03*
D20*
X129034000Y-121722400D03*
D21*
X129034000Y-127082400D03*
%TD*%
D22*
%TO.P,J3,1*%
%TO.N,Net-(Q5-D)*%
X116560000Y-92980000D03*
D23*
%TO.P,J3,2*%
%TO.N,GND*%
X116560000Y-86680000D03*
D24*
%TO.P,J3,3*%
%TO.N,N/C*%
X111760000Y-90080000D03*
%TD*%
D14*
%TO.P,H1,1*%
%TO.N,N/C*%
X87000000Y-82100000D03*
%TD*%
D25*
%TO.N,GND*%
X162356800Y-119989600D03*
X161848800Y-113080800D03*
X167386000Y-120650000D03*
X167335200Y-116332000D03*
X146100000Y-102700000D03*
X181610000Y-111658400D03*
X158200000Y-92400000D03*
X123500000Y-85750000D03*
X136200000Y-89925000D03*
X137400000Y-83350000D03*
X123300000Y-111707400D03*
X123500000Y-81050000D03*
X149000000Y-89800000D03*
X128662701Y-96425500D03*
X146200000Y-98700000D03*
X110300000Y-103300000D03*
X158300000Y-84100000D03*
X126300000Y-111707400D03*
X123500000Y-83350000D03*
X149700000Y-114525000D03*
X124700000Y-105207400D03*
D26*
X119950000Y-116357400D03*
D25*
X144600000Y-84100000D03*
X123100000Y-115607400D03*
X126200000Y-113707400D03*
X125300000Y-90350000D03*
X101800000Y-103900000D03*
D26*
X154377200Y-109590700D03*
D25*
X104000000Y-92600000D03*
X181610000Y-94132400D03*
X137400000Y-81150000D03*
X109350000Y-107000000D03*
X153875383Y-105840871D03*
X123200000Y-105207400D03*
X114800000Y-96400000D03*
X137400000Y-85550000D03*
X157742109Y-108650500D03*
X105900000Y-98400000D03*
X103400000Y-101000000D03*
X144400000Y-92400000D03*
X157429200Y-114477200D03*
X138226800Y-89948000D03*
X123200000Y-113707400D03*
X156100000Y-96900000D03*
X107300000Y-94300000D03*
X163850000Y-97150000D03*
X132400000Y-98150000D03*
X126400000Y-115507400D03*
X98700000Y-119600000D03*
%TO.N,+5V*%
X139700000Y-97250000D03*
X139600000Y-93850000D03*
X136200000Y-91825000D03*
X136100000Y-94150000D03*
X134500000Y-95750000D03*
X146377200Y-106990700D03*
X139700000Y-95450000D03*
X138226800Y-91848000D03*
X133000000Y-94450000D03*
%TO.N,+12V*%
X95050000Y-123700000D03*
X100200000Y-118100000D03*
X107400000Y-92900000D03*
%TO.N,/Power/V_in*%
X101300000Y-96400000D03*
X119280000Y-96503600D03*
%TO.N,+3.3V*%
X162300000Y-80400000D03*
X174700000Y-89500000D03*
%TO.N,/SCLK*%
X150100000Y-89700000D03*
X171500000Y-108600000D03*
X172800000Y-119400000D03*
X176600000Y-104700000D03*
X171500000Y-111600000D03*
%TO.N,/CIPO*%
X147950000Y-89700000D03*
X172700000Y-111600000D03*
%TO.N,/COPI*%
X180340000Y-111620000D03*
X130780000Y-124740000D03*
X152300000Y-89800000D03*
%TO.N,/C1_PWM*%
X168900000Y-90800000D03*
X162400000Y-90700000D03*
%TO.N,/C1_Limit*%
X161300000Y-89600000D03*
X170000000Y-89600000D03*
D27*
%TO.N,/Power/USB_Vin*%
X115961600Y-125299200D03*
X123464000Y-122612400D03*
X117130000Y-125299200D03*
D26*
X125950000Y-122807400D03*
D27*
X123214000Y-121312400D03*
X130937000Y-122431400D03*
D25*
%TO.N,/SD_CS*%
X169200000Y-95600000D03*
X153430000Y-89750000D03*
%TO.N,/ESP_EN*%
X159900000Y-88500000D03*
D26*
X179070000Y-94538800D03*
D25*
X174700000Y-91100000D03*
D26*
X179070000Y-93675200D03*
D25*
X173151199Y-88251199D03*
%TO.N,Net-(U3-L1)*%
X129300000Y-93450000D03*
X127900000Y-83150000D03*
X127900000Y-86550000D03*
X127900000Y-81050000D03*
X127900000Y-84350000D03*
X127900000Y-82150000D03*
X127900000Y-85450000D03*
%TO.N,Net-(U3-L2)*%
X133100000Y-86650000D03*
X133100000Y-83150000D03*
X133100000Y-82150000D03*
X133100000Y-85450000D03*
X132100000Y-93450000D03*
X133100000Y-81050000D03*
X133100000Y-84250000D03*
%TO.N,Net-(Q1-G)*%
X108300000Y-115300000D03*
X102737699Y-99794500D03*
%TO.N,/ESTOP*%
X175260000Y-94120000D03*
%TO.N,/ESP_IO0_B*%
X165100000Y-111700000D03*
%TO.N,/TXD*%
X176600000Y-111600000D03*
X137200000Y-106707400D03*
%TO.N,/RXD*%
X121666000Y-105223400D03*
X177900000Y-111700000D03*
%TO.N,/usb/ee_pullup*%
X140100000Y-122350000D03*
X132892800Y-116456500D03*
%TO.N,/Display_RST*%
X142080000Y-111010000D03*
X161890000Y-111010000D03*
%TO.N,/Display_DC*%
X166370000Y-111620000D03*
%TO.N,/Display_CS*%
X167760000Y-102200000D03*
%TO.N,/IO17*%
X156900000Y-105900000D03*
X168860000Y-107900000D03*
%TO.N,/Touch_CS*%
X170240000Y-111670000D03*
%TO.N,/IO21*%
X175300000Y-111600000D03*
X159350000Y-106080000D03*
%TO.N,/IO22*%
X170400000Y-109670000D03*
X157000000Y-109600000D03*
D26*
%TO.N,+1V2*%
X126000000Y-109907400D03*
D27*
X128668897Y-111887500D03*
D26*
X124481397Y-109700000D03*
X128000000Y-117207400D03*
X120778897Y-113899500D03*
X123000000Y-117257400D03*
%TO.N,/usb/PD1_CC1*%
X127500000Y-117857400D03*
X127013113Y-119956330D03*
%TO.N,/usb/D+*%
X124500000Y-117857400D03*
X124214000Y-121312400D03*
X124950000Y-122807400D03*
%TO.N,/usb/D-*%
X125214000Y-121312400D03*
X124000000Y-117257400D03*
%TO.N,/usb/PD1_CC2*%
X125476000Y-122241400D03*
X126000000Y-117307400D03*
D25*
%TO.N,/usb/RTS*%
X119824652Y-108630949D03*
%TO.N,/usb/DTR*%
X119837200Y-109643000D03*
D26*
%TO.N,+3V3*%
X123500000Y-117807400D03*
X128350000Y-114857400D03*
X126500000Y-109357400D03*
D25*
X130303897Y-111003900D03*
D26*
X128950000Y-114357400D03*
X128500000Y-110857400D03*
D25*
X116789200Y-118939400D03*
D26*
X128950000Y-110357400D03*
X127000000Y-117407400D03*
X121481397Y-109700000D03*
X120793897Y-116887500D03*
D25*
X135600000Y-122407400D03*
D26*
X120778897Y-115880700D03*
X125500000Y-117857400D03*
%TD*%
D28*
%TO.N,+12V*%
X96084925Y-123700000D02*
X100200000Y-119584925D01*
X95050000Y-123700000D02*
X96084925Y-123700000D01*
X100200000Y-119584925D02*
X100200000Y-118100000D01*
%TO.N,/SCLK*%
X123965075Y-87700000D02*
X121215075Y-84950000D01*
X176600000Y-104644366D02*
X176600000Y-104700000D01*
X172800000Y-119400000D02*
X172800000Y-119500000D01*
X150100000Y-89700000D02*
X150100000Y-94000000D01*
X150100000Y-89415075D02*
X148384925Y-87700000D01*
X150800000Y-94700000D02*
X166655634Y-94700000D01*
X173100000Y-114700000D02*
X171500000Y-113100000D01*
X176655634Y-104700000D02*
X176627817Y-104672183D01*
X80570000Y-101330000D02*
X82070000Y-102830000D01*
X171500000Y-108600000D02*
X171500000Y-111600000D01*
X172900000Y-119400000D02*
X172800000Y-119400000D01*
X150100000Y-89700000D02*
X150100000Y-89415075D01*
X150100000Y-94000000D02*
X150800000Y-94700000D01*
X171500000Y-113100000D02*
X171500000Y-111600000D01*
X80570000Y-86090000D02*
X80570000Y-101330000D01*
X172850000Y-119450000D02*
X172900000Y-119400000D01*
X172800000Y-119500000D02*
X173100000Y-119200000D01*
X121215075Y-84950000D02*
X81710000Y-84950000D01*
X81710000Y-84950000D02*
X80570000Y-86090000D01*
X166655634Y-94700000D02*
X176600000Y-104644366D01*
X148384925Y-87700000D02*
X123965075Y-87700000D01*
X173100000Y-119200000D02*
X173100000Y-114700000D01*
X176600000Y-104700000D02*
X176655634Y-104700000D01*
D29*
%TO.N,/CIPO*%
X82070000Y-118070000D02*
X83810000Y-118070000D01*
D28*
X176200000Y-105800000D02*
X176144365Y-105800000D01*
X149700000Y-95800000D02*
X147950000Y-94050000D01*
X179000000Y-108600000D02*
X176200000Y-105800000D01*
D29*
X167370000Y-128840000D02*
X170360000Y-125850000D01*
D28*
X172700000Y-111600000D02*
X173900000Y-112800000D01*
X173900000Y-112800000D02*
X178900000Y-112800000D01*
D29*
X94580000Y-128840000D02*
X167370000Y-128840000D01*
D28*
X178900000Y-112800000D02*
X179000000Y-112700000D01*
D29*
X83810000Y-118070000D02*
X94580000Y-128840000D01*
D28*
X179000000Y-112700000D02*
X179000000Y-108600000D01*
X166144365Y-95800000D02*
X149700000Y-95800000D01*
X147950000Y-94050000D02*
X147950000Y-89700000D01*
X176144365Y-105800000D02*
X166144365Y-95800000D01*
%TO.N,/COPI*%
X152300000Y-89324365D02*
X153024365Y-88600000D01*
X180340000Y-105120000D02*
X180340000Y-111620000D01*
X180340000Y-115854000D02*
X180340000Y-111620000D01*
D29*
X130647600Y-124632400D02*
X130650000Y-124630000D01*
X117790000Y-126490000D02*
X119647600Y-124632400D01*
D28*
X173373600Y-122820400D02*
X180340000Y-115854000D01*
D29*
X117222236Y-127100000D02*
X116939394Y-127100000D01*
D28*
X167820000Y-125650000D02*
X170649600Y-122820400D01*
X83945635Y-100290000D02*
X82070000Y-100290000D01*
X167720000Y-92500000D02*
X180340000Y-105120000D01*
X110755635Y-127100000D02*
X83945635Y-100290000D01*
X158444366Y-88600000D02*
X162344366Y-92500000D01*
X170649600Y-122820400D02*
X173373600Y-122820400D01*
X152300000Y-89800000D02*
X152300000Y-89324365D01*
D29*
X119647600Y-124632400D02*
X130647600Y-124632400D01*
X117790000Y-126490000D02*
X117790000Y-126532236D01*
D28*
X162344366Y-92500000D02*
X167720000Y-92500000D01*
X153024365Y-88600000D02*
X158444366Y-88600000D01*
D29*
X117790000Y-126532236D02*
X117222236Y-127100000D01*
D28*
X116939394Y-127100000D02*
X110755635Y-127100000D01*
%TO.N,/C1_PWM*%
X163300000Y-89800000D02*
X167900000Y-89800000D01*
X162400000Y-90700000D02*
X163300000Y-89800000D01*
X167900000Y-89800000D02*
X168900000Y-90800000D01*
%TO.N,/C1_Limit*%
X170000000Y-89144366D02*
X170000000Y-89600000D01*
X162344366Y-88500000D02*
X169355634Y-88500000D01*
X169355634Y-88500000D02*
X170000000Y-89144366D01*
X161300000Y-89600000D02*
X161300000Y-89544366D01*
X161300000Y-89544366D02*
X162344366Y-88500000D01*
%TO.N,/SD_CS*%
X157034925Y-89750000D02*
X153430000Y-89750000D01*
X167111268Y-93600000D02*
X160884925Y-93600000D01*
X169200000Y-95600000D02*
X169200000Y-95688732D01*
X160884925Y-93600000D02*
X157034925Y-89750000D01*
X169200000Y-95688732D02*
X167111268Y-93600000D01*
%TO.N,/ESP_EN*%
X179070000Y-93675200D02*
X179070000Y-94538800D01*
X161200000Y-87200000D02*
X159900000Y-88500000D01*
X179070000Y-94538800D02*
X179070000Y-94120000D01*
X177659800Y-91147400D02*
X179070000Y-92557600D01*
X173151199Y-88251199D02*
X172100000Y-87200000D01*
X174701200Y-91147400D02*
X177659800Y-91147400D01*
X179070000Y-92557600D02*
X179070000Y-93675200D01*
X172100000Y-87200000D02*
X161200000Y-87200000D01*
D30*
%TO.N,Net-(Q1-G)*%
X102737699Y-99794500D02*
X102725000Y-99807199D01*
X102725000Y-99807199D02*
X102725000Y-109725000D01*
X102725000Y-109725000D02*
X108300000Y-115300000D01*
D31*
%TO.N,/ESTOP*%
X173926200Y-86855000D02*
X169976800Y-82905600D01*
X175260000Y-93026800D02*
X175260000Y-93472000D01*
X173926200Y-91468416D02*
X173926200Y-86855000D01*
X175260000Y-94120000D02*
X175260000Y-93026800D01*
X175260000Y-93472000D02*
X175260000Y-92802216D01*
X175260000Y-92802216D02*
X173926200Y-91468416D01*
D28*
%TO.N,/ESP_IO0_B*%
X154829200Y-121970800D02*
X165100000Y-111700000D01*
X144373600Y-121970800D02*
X154829200Y-121970800D01*
%TO.N,/TXD*%
X154310308Y-104790871D02*
X153547684Y-104790871D01*
X153547684Y-104790871D02*
X152856813Y-104100000D01*
X152856813Y-104100000D02*
X139807400Y-104100000D01*
X139807400Y-104100000D02*
X137200000Y-106707400D01*
X176600000Y-109700000D02*
X171700000Y-104800000D01*
X154319437Y-104800000D02*
X154310308Y-104790871D01*
X171700000Y-104800000D02*
X154319437Y-104800000D01*
X176600000Y-111600000D02*
X176600000Y-109700000D01*
%TO.N,/RXD*%
X121666000Y-105223400D02*
X125989400Y-100900000D01*
X154049587Y-103300000D02*
X151649587Y-100900000D01*
X172000000Y-103300000D02*
X154049587Y-103300000D01*
X177900000Y-109200000D02*
X172000000Y-103300000D01*
X151649587Y-100900000D02*
X125989400Y-100900000D01*
X177900000Y-111700000D02*
X177900000Y-109200000D01*
%TO.N,/usb/ee_pullup*%
X140106400Y-121885800D02*
X140106400Y-122343600D01*
X134677100Y-116456500D02*
X140106400Y-121885800D01*
X132892800Y-116456500D02*
X134677100Y-116456500D01*
X140106400Y-122343600D02*
X140100000Y-122350000D01*
%TO.N,/Display_RST*%
X161890000Y-111010000D02*
X161890000Y-110970000D01*
X161890000Y-110970000D02*
X161870000Y-110990000D01*
X142080000Y-111010000D02*
X161850000Y-111010000D01*
X161850000Y-111010000D02*
X161890000Y-111010000D01*
D29*
%TO.N,/Display_DC*%
X166470000Y-111770000D02*
X166370000Y-111670000D01*
X141840000Y-123890000D02*
X143435800Y-125485800D01*
X115687918Y-123890000D02*
X141840000Y-123890000D01*
X89547918Y-97750000D02*
X115687918Y-123890000D01*
X143435800Y-125485800D02*
X152754200Y-125485800D01*
X152754200Y-125485800D02*
X166470000Y-111770000D01*
X166370000Y-111670000D02*
X166370000Y-111620000D01*
X82070000Y-97750000D02*
X89547918Y-97750000D01*
D28*
%TO.N,/Display_CS*%
X82070000Y-92670000D02*
X83190000Y-91550000D01*
X115784925Y-99800000D02*
X165360000Y-99800000D01*
X107534925Y-91550000D02*
X115784925Y-99800000D01*
X83190000Y-91550000D02*
X107534925Y-91550000D01*
X165360000Y-99800000D02*
X167760000Y-102200000D01*
%TO.N,/IO17*%
X159885634Y-107100000D02*
X159805634Y-107180000D01*
X159805634Y-107180000D02*
X158180000Y-107180000D01*
X168860000Y-107900000D02*
X168060000Y-107100000D01*
X158180000Y-107180000D02*
X156900000Y-105900000D01*
X168060000Y-107100000D02*
X159885634Y-107100000D01*
D29*
%TO.N,/Touch_CS*%
X82608478Y-114230000D02*
X96378478Y-128000000D01*
X152130000Y-127870000D02*
X167550000Y-112450000D01*
X169460000Y-112450000D02*
X170240000Y-111670000D01*
X167550000Y-112450000D02*
X169460000Y-112450000D01*
X132310000Y-127870000D02*
X152130000Y-127870000D01*
X82640000Y-113560000D02*
X82640000Y-114198478D01*
X82070000Y-112990000D02*
X82640000Y-113560000D01*
X129772400Y-125332400D02*
X132310000Y-127870000D01*
X82640000Y-114198478D02*
X82608478Y-114230000D01*
X117312186Y-128000000D02*
X119979786Y-125332400D01*
X119979786Y-125332400D02*
X129772400Y-125332400D01*
X96378478Y-128000000D02*
X117312186Y-128000000D01*
D28*
%TO.N,/IO21*%
X159430000Y-106000000D02*
X170800000Y-106000000D01*
X175300000Y-110500000D02*
X175300000Y-111600000D01*
X159350000Y-106080000D02*
X159430000Y-106000000D01*
X170800000Y-106000000D02*
X175300000Y-110500000D01*
%TO.N,/IO22*%
X157100000Y-109700000D02*
X157000000Y-109600000D01*
X170400000Y-109670000D02*
X170370000Y-109700000D01*
X170370000Y-109700000D02*
X157100000Y-109700000D01*
D32*
%TO.N,/usb/PD1_CC1*%
X127479500Y-117877900D02*
X127500000Y-117857400D01*
X127013113Y-119942287D02*
X127479500Y-119475900D01*
X127479500Y-119475900D02*
X127479500Y-117877900D01*
X127013113Y-119956330D02*
X127013113Y-119942287D01*
D33*
%TO.N,/usb/D+*%
X125639000Y-121134400D02*
X124481397Y-119976797D01*
X125511221Y-121616221D02*
X125639000Y-121488441D01*
X125379941Y-121747500D02*
X125511221Y-121616221D01*
X124968000Y-122148359D02*
X125299959Y-121816400D01*
X124649100Y-121747500D02*
X124214000Y-121312400D01*
X124968000Y-122241400D02*
X124968000Y-122148359D01*
X125311041Y-121816400D02*
X125511221Y-121616221D01*
X124968000Y-122066400D02*
X124649100Y-121747500D01*
X124481397Y-119976797D02*
X124481397Y-117876003D01*
X124649100Y-121747500D02*
X125379941Y-121747500D01*
X125639000Y-121488441D02*
X125639000Y-121134400D01*
X124968000Y-122241400D02*
X124950000Y-122807400D01*
X124481397Y-117876003D02*
X124500000Y-117857400D01*
X125299959Y-121816400D02*
X125311041Y-121816400D01*
X124968000Y-122241400D02*
X124968000Y-122066400D01*
%TO.N,/usb/D-*%
X125214000Y-121312400D02*
X123981397Y-120079797D01*
X123981397Y-120079797D02*
X124000000Y-117257400D01*
D32*
%TO.N,/usb/PD1_CC2*%
X125476000Y-122241400D02*
X125981397Y-121736003D01*
X125981397Y-121736003D02*
X125981397Y-117326003D01*
X125981397Y-117326003D02*
X126000000Y-117307400D01*
D28*
%TO.N,/usb/RTS*%
X143756899Y-118973600D02*
X142973600Y-118190301D01*
X142973600Y-114576400D02*
X135246200Y-106849000D01*
X121568652Y-106849000D02*
X135246200Y-106849000D01*
X142973600Y-118190301D02*
X142973600Y-114576400D01*
X144373600Y-118973600D02*
X143756899Y-118973600D01*
X121568652Y-106849000D02*
X119824652Y-108593000D01*
%TO.N,/usb/DTR*%
X141873600Y-122627501D02*
X141873600Y-115032034D01*
X141873600Y-115032034D02*
X134790566Y-107949000D01*
X143756899Y-124510800D02*
X141873600Y-122627501D01*
X120280286Y-109693000D02*
X119837200Y-109693000D01*
X144373600Y-124510800D02*
X143756899Y-124510800D01*
X122024286Y-107949000D02*
X134790566Y-107949000D01*
X122024286Y-107949000D02*
X120280286Y-109693000D01*
%TD*%
M02*
